<svg width="32" height="32" viewBox="0 0 32 32" fill="none" xmlns="http://www.w3.org/2000/svg">
<path fill-rule="evenodd" clip-rule="evenodd" d="M10 2C10.5523 2 11 2.44772 11 3V4H21V3C21 2.44772 21.4477 2 22 2C22.5523 2 23 2.44772 23 3V4H26C27.1046 4 28 4.89543 28 6V26C28 27.1046 27.1046 28 26 28H6C4.89543 28 4 27.1046 4 26V6C4 4.89543 4.89543 4 6 4H9V3C9 2.44772 9.44772 2 10 2ZM9 6H6V10H26V6H23V7C23 7.55228 22.5523 8 22 8C21.4477 8 21 7.55228 21 7V6H11V7C11 7.55228 10.5523 8 10 8C9.44772 8 9 7.55228 9 7V6ZM26 12H6V26H26V12Z" fill="black"/>
<path d="M14.054 22.796C14.054 22.6747 14.08 22.549 14.132 22.419L16.771 16.166H13.755C13.521 16.166 13.3173 16.0837 13.144 15.919C12.9793 15.7457 12.897 15.542 12.897 15.308C12.897 15.074 12.9793 14.8747 13.144 14.71C13.3173 14.5367 13.521 14.45 13.755 14.45H18.643C18.799 14.45 18.9246 14.4977 19.02 14.593C19.124 14.6797 19.176 14.788 19.176 14.918C19.176 15.0133 19.1456 15.1433 19.085 15.308L15.848 23.147C15.692 23.5197 15.4016 23.706 14.977 23.706C14.7256 23.706 14.509 23.6193 14.327 23.446C14.145 23.264 14.054 23.0473 14.054 22.796Z" fill="black"/>
</svg>
