<svg width="32" height="32" viewBox="0 0 32 32" fill="none" xmlns="http://www.w3.org/2000/svg">
<path fill-rule="evenodd" clip-rule="evenodd" d="M10 2C10.5523 2 11 2.44772 11 3V4H21V3C21 2.44772 21.4477 2 22 2C22.5523 2 23 2.44772 23 3V4H26C27.1046 4 28 4.89543 28 6V26C28 27.1046 27.1046 28 26 28H6C4.89543 28 4 27.1046 4 26V6C4 4.89543 4.89543 4 6 4H9V3C9 2.44772 9.44772 2 10 2ZM9 6H6V10H26V6H23V7C23 7.55228 22.5523 8 22 8C21.4477 8 21 7.55228 21 7V6H11V7C11 7.55228 10.5523 8 10 8C9.44772 8 9 7.55228 9 7V6ZM26 12H6V26H26V12Z" fill="black"/>
<path d="M9.84831 16.348C9.84831 16.1747 9.88731 16.0187 9.96531 15.88C10.2513 15.386 10.637 15.0003 11.1223 14.723C11.6076 14.437 12.1276 14.294 12.6823 14.294C13.549 14.294 14.251 14.5497 14.7883 15.061C15.3256 15.5637 15.5943 16.2137 15.5943 17.011C15.5943 17.7823 15.2563 18.6187 14.5803 19.52L12.7863 21.886H15.0743C15.2996 21.886 15.4946 21.9683 15.6593 22.133C15.824 22.2977 15.9063 22.4927 15.9063 22.718C15.9063 22.9433 15.824 23.1383 15.6593 23.303C15.4946 23.4677 15.2996 23.55 15.0743 23.55H10.2903C10.1516 23.55 10.0346 23.5067 9.93931 23.42C9.85264 23.3247 9.80931 23.2077 9.80931 23.069C9.80931 22.9477 9.84398 22.8393 9.91331 22.744L12.8513 18.792C13.1633 18.376 13.3843 18.0423 13.5143 17.791C13.6443 17.531 13.7093 17.2753 13.7093 17.024C13.7093 16.7293 13.6183 16.491 13.4363 16.309C13.2543 16.127 13.0073 16.036 12.6953 16.036C12.158 16.036 11.7463 16.257 11.4603 16.699C11.2696 17.011 11.0096 17.167 10.6803 17.167C10.4463 17.167 10.247 17.089 10.0823 16.933C9.92631 16.777 9.84831 16.582 9.84831 16.348Z" fill="black"/>
<path d="M16.8782 16.699C16.8782 16.3957 17.0125 16.166 17.2812 16.01L20.1282 14.424C20.2668 14.3547 20.3838 14.32 20.4792 14.32C20.6265 14.32 20.7522 14.3677 20.8562 14.463C20.9602 14.5497 21.0122 14.671 21.0122 14.827V22.757C21.0122 23.017 20.9168 23.2423 20.7262 23.433C20.5442 23.615 20.3232 23.706 20.0632 23.706C19.8032 23.706 19.5778 23.615 19.3872 23.433C19.2052 23.2423 19.1142 23.017 19.1142 22.757V16.842L18.0742 17.401C17.9528 17.4703 17.8185 17.505 17.6712 17.505C17.4545 17.505 17.2682 17.427 17.1122 17.271C16.9562 17.115 16.8782 16.9243 16.8782 16.699Z" fill="black"/>
</svg>
