<svg width="32" height="32" viewBox="0 0 32 32" fill="none" xmlns="http://www.w3.org/2000/svg">
<path fill-rule="evenodd" clip-rule="evenodd" d="M10 2C10.5523 2 11 2.44772 11 3V4H21V3C21 2.44772 21.4477 2 22 2C22.5523 2 23 2.44772 23 3V4H26C27.1046 4 28 4.89543 28 6V26C28 27.1046 27.1046 28 26 28H6C4.89543 28 4 27.1046 4 26V6C4 4.89543 4.89543 4 6 4H9V3C9 2.44772 9.44772 2 10 2ZM9 6H6V10H26V6H23V7C23 7.55228 22.5523 8 22 8C21.4477 8 21 7.55228 21 7V6H11V7C11 7.55228 10.5523 8 10 8C9.44772 8 9 7.55228 9 7V6ZM26 12H6V26H26V12Z" fill="black"/>
<path d="M9.50554 16.348C9.50554 16.1747 9.54454 16.0187 9.62254 15.88C9.90854 15.386 10.2942 15.0003 10.7795 14.723C11.2649 14.437 11.7849 14.294 12.3395 14.294C13.2062 14.294 13.9082 14.5497 14.4455 15.061C14.9829 15.5637 15.2515 16.2137 15.2515 17.011C15.2515 17.7823 14.9135 18.6187 14.2375 19.52L12.4435 21.886H14.7315C14.9569 21.886 15.1519 21.9683 15.3165 22.133C15.4812 22.2977 15.5635 22.4927 15.5635 22.718C15.5635 22.9433 15.4812 23.1383 15.3165 23.303C15.1519 23.4677 14.9569 23.55 14.7315 23.55H9.94754C9.80887 23.55 9.69187 23.5067 9.59654 23.42C9.50987 23.3247 9.46654 23.2077 9.46654 23.069C9.46654 22.9477 9.5012 22.8393 9.57054 22.744L12.5085 18.792C12.8205 18.376 13.0415 18.0423 13.1715 17.791C13.3015 17.531 13.3665 17.2753 13.3665 17.024C13.3665 16.7293 13.2755 16.491 13.0935 16.309C12.9115 16.127 12.6645 16.036 12.3525 16.036C11.8152 16.036 11.4035 16.257 11.1175 16.699C10.9269 17.011 10.6669 17.167 10.3375 17.167C10.1035 17.167 9.9042 17.089 9.73954 16.933C9.58354 16.777 9.50554 16.582 9.50554 16.348Z" fill="black"/>
<path d="M17.6404 22.796C17.6404 22.6747 17.6664 22.549 17.7184 22.419L20.3574 16.166H17.3414C17.1074 16.166 16.9037 16.0837 16.7304 15.919C16.5657 15.7457 16.4834 15.542 16.4834 15.308C16.4834 15.074 16.5657 14.8747 16.7304 14.71C16.9037 14.5367 17.1074 14.45 17.3414 14.45H22.2294C22.3854 14.45 22.5111 14.4977 22.6064 14.593C22.7104 14.6797 22.7624 14.788 22.7624 14.918C22.7624 15.0133 22.7321 15.1433 22.6714 15.308L19.4344 23.147C19.2784 23.5197 18.9881 23.706 18.5634 23.706C18.3121 23.706 18.0954 23.6193 17.9134 23.446C17.7314 23.264 17.6404 23.0473 17.6404 22.796Z" fill="black"/>
</svg>
