<svg width="32" height="32" viewBox="0 0 32 32" fill="none" xmlns="http://www.w3.org/2000/svg">
<path fill-rule="evenodd" clip-rule="evenodd" d="M10 2C10.5523 2 11 2.44772 11 3V4H21V3C21 2.44772 21.4477 2 22 2C22.5523 2 23 2.44772 23 3V4H26C27.1046 4 28 4.89543 28 6V26C28 27.1046 27.1046 28 26 28H6C4.89543 28 4 27.1046 4 26V6C4 4.89543 4.89543 4 6 4H9V3C9 2.44772 9.44772 2 10 2ZM9 6H6V10H26V6H23V7C23 7.55228 22.5523 8 22 8C21.4477 8 21 7.55228 21 7V6H11V7C11 7.55228 10.5523 8 10 8C9.44772 8 9 7.55228 9 7V6ZM26 12H6V26H26V12Z" fill="black"/>
<path d="M13.2917 16.699C13.2917 16.3957 13.4261 16.166 13.6947 16.01L16.5417 14.424C16.6804 14.3547 16.7974 14.32 16.8927 14.32C17.0401 14.32 17.1657 14.3677 17.2697 14.463C17.3737 14.5497 17.4257 14.671 17.4257 14.827V22.757C17.4257 23.017 17.3304 23.2423 17.1397 23.433C16.9577 23.615 16.7367 23.706 16.4767 23.706C16.2167 23.706 15.9914 23.615 15.8007 23.433C15.6187 23.2423 15.5277 23.017 15.5277 22.757V16.842L14.4877 17.401C14.3664 17.4703 14.2321 17.505 14.0847 17.505C13.8681 17.505 13.6817 17.427 13.5257 17.271C13.3697 17.115 13.2917 16.9243 13.2917 16.699Z" fill="black"/>
</svg>
