<svg width="32" height="32" viewBox="0 0 32 32" fill="none" xmlns="http://www.w3.org/2000/svg">
<path fill-rule="evenodd" clip-rule="evenodd" d="M10 2C10.5523 2 11 2.44772 11 3V4H21V3C21 2.44772 21.4477 2 22 2C22.5523 2 23 2.44772 23 3V4H26C27.1046 4 28 4.89543 28 6V26C28 27.1046 27.1046 28 26 28H6C4.89543 28 4 27.1046 4 26V6C4 4.89543 4.89543 4 6 4H9V3C9 2.44772 9.44772 2 10 2ZM9 6H6V10H26V6H23V7C23 7.55228 22.5523 8 22 8C21.4477 8 21 7.55228 21 7V6H11V7C11 7.55228 10.5523 8 10 8C9.44772 8 9 7.55228 9 7V6ZM26 12H6V26H26V12Z" fill="black"/>
<path d="M9.27367 16.699C9.27367 16.3957 9.408 16.166 9.67667 16.01L12.5237 14.424C12.6623 14.3547 12.7793 14.32 12.8747 14.32C13.022 14.32 13.1477 14.3677 13.2517 14.463C13.3557 14.5497 13.4077 14.671 13.4077 14.827V22.757C13.4077 23.017 13.3123 23.2423 13.1217 23.433C12.9397 23.615 12.7187 23.706 12.4587 23.706C12.1987 23.706 11.9733 23.615 11.7827 23.433C11.6007 23.2423 11.5097 23.017 11.5097 22.757V16.842L10.4697 17.401C10.3483 17.4703 10.214 17.505 10.0667 17.505C9.85 17.505 9.66367 17.427 9.50767 17.271C9.35167 17.115 9.27367 16.9243 9.27367 16.699Z" fill="black"/>
<path d="M22.4512 20.625C22.4512 21.5177 22.1305 22.2543 21.4892 22.835C20.8565 23.4157 20.0982 23.706 19.2142 23.706C18.3215 23.706 17.5459 23.4157 16.8872 22.835C16.2372 22.2457 15.9122 21.5047 15.9122 20.612C15.9122 19.9793 16.1592 19.2817 16.6532 18.519L19.1232 14.671C19.2879 14.4197 19.5305 14.294 19.8512 14.294C20.0852 14.294 20.2932 14.3807 20.4752 14.554C20.6572 14.7273 20.7482 14.9353 20.7482 15.178C20.7482 15.3253 20.7005 15.477 20.6052 15.633L19.2532 17.739C20.0245 17.739 20.7482 18.0033 21.4242 18.532C22.1089 19.052 22.4512 19.7497 22.4512 20.625ZM20.5792 20.638C20.5792 20.2393 20.4405 19.91 20.1632 19.65C19.8945 19.3813 19.5652 19.247 19.1752 19.247C18.7852 19.247 18.4559 19.3813 18.1872 19.65C17.9185 19.91 17.7842 20.2393 17.7842 20.638C17.7842 21.0453 17.9185 21.3833 18.1872 21.652C18.4559 21.912 18.7852 22.042 19.1752 22.042C19.5652 22.042 19.8945 21.912 20.1632 21.652C20.4405 21.3833 20.5792 21.0453 20.5792 20.638Z" fill="black"/>
</svg>
