<svg width="32" height="32" viewBox="0 0 32 32" fill="none" xmlns="http://www.w3.org/2000/svg">
<path fill-rule="evenodd" clip-rule="evenodd" d="M10 2C10.5523 2 11 2.44772 11 3V4H21V3C21 2.44772 21.4477 2 22 2C22.5523 2 23 2.44772 23 3V4H26C27.1046 4 28 4.89543 28 6V26C28 27.1046 27.1046 28 26 28H6C4.89543 28 4 27.1046 4 26V6C4 4.89543 4.89543 4 6 4H9V3C9 2.44772 9.44772 2 10 2ZM9 6H6V10H26V6H23V7C23 7.55228 22.5523 8 22 8C21.4477 8 21 7.55228 21 7V6H11V7C11 7.55228 10.5523 8 10 8C9.44772 8 9 7.55228 9 7V6ZM26 12H6V26H26V12Z" fill="black"/>
<path d="M8.90251 16.348C8.90251 16.1747 8.94151 16.0187 9.01951 15.88C9.30551 15.386 9.69117 15.0003 10.1765 14.723C10.6618 14.437 11.1818 14.294 11.7365 14.294C12.6032 14.294 13.3052 14.5497 13.8425 15.061C14.3798 15.5637 14.6485 16.2137 14.6485 17.011C14.6485 17.7823 14.3105 18.6187 13.6345 19.52L11.8405 21.886H14.1285C14.3538 21.886 14.5488 21.9683 14.7135 22.133C14.8782 22.2977 14.9605 22.4927 14.9605 22.718C14.9605 22.9433 14.8782 23.1383 14.7135 23.303C14.5488 23.4677 14.3538 23.55 14.1285 23.55H9.34451C9.20584 23.55 9.08884 23.5067 8.99351 23.42C8.90684 23.3247 8.86351 23.2077 8.86351 23.069C8.86351 22.9477 8.89817 22.8393 8.96751 22.744L11.9055 18.792C12.2175 18.376 12.4385 18.0423 12.5685 17.791C12.6985 17.531 12.7635 17.2753 12.7635 17.024C12.7635 16.7293 12.6725 16.491 12.4905 16.309C12.3085 16.127 12.0615 16.036 11.7495 16.036C11.2122 16.036 10.8005 16.257 10.5145 16.699C10.3238 17.011 10.0638 17.167 9.73451 17.167C9.50051 17.167 9.30117 17.089 9.13651 16.933C8.98051 16.777 8.90251 16.582 8.90251 16.348Z" fill="black"/>
<path d="M16.2054 17.375C16.2054 16.4823 16.5217 15.7457 17.1544 15.165C17.7957 14.5843 18.5584 14.294 19.4424 14.294C20.335 14.294 21.1064 14.5887 21.7564 15.178C22.415 15.7587 22.7444 16.4953 22.7444 17.388C22.7444 18.0207 22.4974 18.7183 22.0034 19.481L19.5334 23.329C19.3687 23.5803 19.126 23.706 18.8054 23.706C18.5714 23.706 18.3634 23.6193 18.1814 23.446C17.9994 23.2727 17.9084 23.0647 17.9084 22.822C17.9084 22.6747 17.956 22.523 18.0514 22.367L19.4034 20.261C18.632 20.261 17.904 20.001 17.2194 19.481C16.5434 18.9523 16.2054 18.2503 16.2054 17.375ZM18.0774 17.362C18.0774 17.7607 18.2117 18.0943 18.4804 18.363C18.7577 18.623 19.0914 18.753 19.4814 18.753C19.8714 18.753 20.2007 18.623 20.4694 18.363C20.738 18.0943 20.8724 17.7607 20.8724 17.362C20.8724 16.9547 20.738 16.621 20.4694 16.361C20.2007 16.0923 19.8714 15.958 19.4814 15.958C19.0914 15.958 18.7577 16.0923 18.4804 16.361C18.2117 16.621 18.0774 16.9547 18.0774 17.362Z" fill="black"/>
</svg>
