<svg width="32" height="32" viewBox="0 0 32 32" fill="none" xmlns="http://www.w3.org/2000/svg">
<path fill-rule="evenodd" clip-rule="evenodd" d="M10 2C10.5523 2 11 2.44772 11 3V4H21V3C21 2.44772 21.4477 2 22 2C22.5523 2 23 2.44772 23 3V4H26C27.1046 4 28 4.89543 28 6V26C28 27.1046 27.1046 28 26 28H6C4.89543 28 4 27.1046 4 26V6C4 4.89543 4.89543 4 6 4H9V3C9 2.44772 9.44772 2 10 2ZM9 6H6V10H26V6H23V7C23 7.55228 22.5523 8 22 8C21.4477 8 21 7.55228 21 7V6H11V7C11 7.55228 10.5523 8 10 8C9.44772 8 9 7.55228 9 7V6ZM26 12H6V26H26V12Z" fill="black"/>
<path d="M9.04216 16.348C9.04216 16.1747 9.08116 16.0187 9.15916 15.88C9.44516 15.386 9.83082 15.0003 10.3162 14.723C10.8015 14.437 11.3215 14.294 11.8762 14.294C12.7428 14.294 13.4448 14.5497 13.9822 15.061C14.5195 15.5637 14.7882 16.2137 14.7882 17.011C14.7882 17.7823 14.4502 18.6187 13.7742 19.52L11.9802 21.886H14.2682C14.4935 21.886 14.6885 21.9683 14.8532 22.133C15.0178 22.2977 15.1002 22.4927 15.1002 22.718C15.1002 22.9433 15.0178 23.1383 14.8532 23.303C14.6885 23.4677 14.4935 23.55 14.2682 23.55H9.48416C9.34549 23.55 9.22849 23.5067 9.13316 23.42C9.04649 23.3247 9.00316 23.2077 9.00316 23.069C9.00316 22.9477 9.03782 22.8393 9.10716 22.744L12.0452 18.792C12.3572 18.376 12.5782 18.0423 12.7082 17.791C12.8382 17.531 12.9032 17.2753 12.9032 17.024C12.9032 16.7293 12.8122 16.491 12.6302 16.309C12.4482 16.127 12.2012 16.036 11.8892 16.036C11.3518 16.036 10.9402 16.257 10.6542 16.699C10.4635 17.011 10.2035 17.167 9.87416 17.167C9.64016 17.167 9.44082 17.089 9.27616 16.933C9.12016 16.777 9.04216 16.582 9.04216 16.348Z" fill="black"/>
<path d="M22.039 15.061V20.196H22.325C22.559 20.196 22.7583 20.2827 22.923 20.456C23.0963 20.6207 23.183 20.82 23.183 21.054C23.183 21.288 23.0963 21.4917 22.923 21.665C22.7583 21.8297 22.559 21.912 22.325 21.912H22.039V22.757C22.039 23.017 21.9437 23.2423 21.753 23.433C21.571 23.615 21.35 23.706 21.09 23.706C20.83 23.706 20.6047 23.615 20.414 23.433C20.232 23.2423 20.141 23.017 20.141 22.757V21.912H16.436C16.2973 21.912 16.1803 21.8687 16.085 21.782C15.9983 21.6867 15.955 21.574 15.955 21.444C15.955 21.3313 15.9897 21.2273 16.059 21.132L20.635 14.723C20.8257 14.4543 21.0597 14.32 21.337 14.32C21.5363 14.32 21.701 14.3893 21.831 14.528C21.9697 14.6667 22.039 14.8443 22.039 15.061ZM18.256 20.209H20.141V17.596L18.256 20.209Z" fill="black"/>
</svg>
