<svg width="32" height="32" viewBox="0 0 32 32" fill="none" xmlns="http://www.w3.org/2000/svg">
<path fill-rule="evenodd" clip-rule="evenodd" d="M10 2C10.5523 2 11 2.44772 11 3V4H21V3C21 2.44772 21.4477 2 22 2C22.5523 2 23 2.44772 23 3V4H26C27.1046 4 28 4.89543 28 6V26C28 27.1046 27.1046 28 26 28H6C4.89543 28 4 27.1046 4 26V6C4 4.89543 4.89543 4 6 4H9V3C9 2.44772 9.44772 2 10 2ZM9 6H6V10H26V6H23V7C23 7.55228 22.5523 8 22 8C21.4477 8 21 7.55228 21 7V6H11V7C11 7.55228 10.5523 8 10 8C9.44772 8 9 7.55228 9 7V6ZM26 12H6V26H26V12Z" fill="black"/>
<path d="M12.9315 21.951C12.9315 21.7257 13.0095 21.5307 13.1655 21.366C13.3302 21.2013 13.5252 21.119 13.7505 21.119C14.0018 21.119 14.2315 21.2317 14.4395 21.457C14.7775 21.821 15.2108 22.003 15.7395 22.003C16.1555 22.003 16.4892 21.873 16.7405 21.613C17.0005 21.3443 17.1305 21.0107 17.1305 20.612C17.1305 20.1527 16.9745 19.7843 16.6625 19.507C16.3505 19.2297 15.9432 19.091 15.4405 19.091C15.0678 19.091 14.6995 19.1863 14.3355 19.377C14.2315 19.429 14.1275 19.455 14.0235 19.455C13.8848 19.455 13.7678 19.4073 13.6725 19.312C13.5858 19.208 13.5555 19.0737 13.5815 18.909L14.1145 15.282C14.1578 15.022 14.2532 14.8183 14.4005 14.671C14.5478 14.5237 14.7385 14.45 14.9725 14.45H17.9755C18.2095 14.45 18.4088 14.5367 18.5735 14.71C18.7468 14.8747 18.8335 15.074 18.8335 15.308C18.8335 15.542 18.7468 15.7457 18.5735 15.919C18.4088 16.0837 18.2095 16.166 17.9755 16.166H15.8565L15.5965 17.752C15.6398 17.7433 15.7048 17.739 15.7915 17.739C16.6582 17.739 17.4122 17.999 18.0535 18.519C18.6948 19.039 19.0155 19.7453 19.0155 20.638C19.0155 21.522 18.7295 22.2543 18.1575 22.835C17.5855 23.4157 16.8142 23.706 15.8435 23.706C14.8382 23.706 13.9802 23.3593 13.2695 22.666C13.0442 22.4407 12.9315 22.2023 12.9315 21.951Z" fill="black"/>
</svg>
