<svg width="32" height="32" viewBox="0 0 32 32" fill="none" xmlns="http://www.w3.org/2000/svg">
<path fill-rule="evenodd" clip-rule="evenodd" d="M10 2C10.5523 2 11 2.44772 11 3V4H21V3C21 2.44772 21.4477 2 22 2C22.5523 2 23 2.44772 23 3V4H26C27.1046 4 28 4.89543 28 6V26C28 27.1046 27.1046 28 26 28H6C4.89543 28 4 27.1046 4 26V6C4 4.89543 4.89543 4 6 4H9V3C9 2.44772 9.44772 2 10 2ZM9 6H6V10H26V6H23V7C23 7.55228 22.5523 8 22 8C21.4477 8 21 7.55228 21 7V6H11V7C11 7.55228 10.5523 8 10 8C9.44772 8 9 7.55228 9 7V6ZM26 12H6V26H26V12Z" fill="black"/>
<path d="M8.9279 16.348C8.9279 16.1747 8.9669 16.0187 9.0449 15.88C9.3309 15.386 9.71657 15.0003 10.2019 14.723C10.6872 14.437 11.2072 14.294 11.7619 14.294C12.6286 14.294 13.3306 14.5497 13.8679 15.061C14.4052 15.5637 14.6739 16.2137 14.6739 17.011C14.6739 17.7823 14.3359 18.6187 13.6599 19.52L11.8659 21.886H14.1539C14.3792 21.886 14.5742 21.9683 14.7389 22.133C14.9036 22.2977 14.9859 22.4927 14.9859 22.718C14.9859 22.9433 14.9036 23.1383 14.7389 23.303C14.5742 23.4677 14.3792 23.55 14.1539 23.55H9.3699C9.23123 23.55 9.11423 23.5067 9.0189 23.42C8.93223 23.3247 8.8889 23.2077 8.8889 23.069C8.8889 22.9477 8.92356 22.8393 8.9929 22.744L11.9309 18.792C12.2429 18.376 12.4639 18.0423 12.5939 17.791C12.7239 17.531 12.7889 17.2753 12.7889 17.024C12.7889 16.7293 12.6979 16.491 12.5159 16.309C12.3339 16.127 12.0869 16.036 11.7749 16.036C11.2376 16.036 10.8259 16.257 10.5399 16.699C10.3492 17.011 10.0892 17.167 9.7599 17.167C9.5259 17.167 9.32657 17.089 9.1619 16.933C9.0059 16.777 8.9279 16.582 8.9279 16.348Z" fill="black"/>
<path d="M21.9508 15.594C22.4967 16.4607 22.7698 17.596 22.7698 19C22.7698 20.404 22.4967 21.5393 21.9508 22.406C21.4048 23.2727 20.6161 23.706 19.5848 23.706C18.5534 23.706 17.7648 23.2727 17.2188 22.406C16.6728 21.5393 16.3997 20.404 16.3997 19C16.3997 17.596 16.6728 16.4607 17.2188 15.594C17.7648 14.7273 18.5534 14.294 19.5848 14.294C20.6161 14.294 21.4048 14.7273 21.9508 15.594ZM19.5848 16.01C18.7181 16.01 18.2847 17.0067 18.2847 19C18.2847 20.9933 18.7181 21.99 19.5848 21.99C20.4514 21.99 20.8848 20.9933 20.8848 19C20.8848 17.0067 20.4514 16.01 19.5848 16.01Z" fill="black"/>
</svg>
