<svg width="32" height="32" viewBox="0 0 32 32" fill="none" xmlns="http://www.w3.org/2000/svg">
<path fill-rule="evenodd" clip-rule="evenodd" d="M10 2C10.5523 2 11 2.44772 11 3V4H21V3C21 2.44772 21.4477 2 22 2C22.5523 2 23 2.44772 23 3V4H26C27.1046 4 28 4.89543 28 6V26C28 27.1046 27.1046 28 26 28H6C4.89543 28 4 27.1046 4 26V6C4 4.89543 4.89543 4 6 4H9V3C9 2.44772 9.44772 2 10 2ZM9 6H6V10H26V6H23V7C23 7.55228 22.5523 8 22 8C21.4477 8 21 7.55228 21 7V6H11V7C11 7.55228 10.5523 8 10 8C9.44772 8 9 7.55228 9 7V6ZM26 12H6V26H26V12Z" fill="black"/>
<path d="M9.29906 16.699C9.29906 16.3957 9.43339 16.166 9.70206 16.01L12.5491 14.424C12.6877 14.3547 12.8047 14.32 12.9001 14.32C13.0474 14.32 13.1731 14.3677 13.2771 14.463C13.3811 14.5497 13.4331 14.671 13.4331 14.827V22.757C13.4331 23.017 13.3377 23.2423 13.1471 23.433C12.9651 23.615 12.7441 23.706 12.4841 23.706C12.2241 23.706 11.9987 23.615 11.8081 23.433C11.6261 23.2423 11.5351 23.017 11.5351 22.757V16.842L10.4951 17.401C10.3737 17.4703 10.2394 17.505 10.0921 17.505C9.87539 17.505 9.68906 17.427 9.53306 17.271C9.37706 17.115 9.29906 16.9243 9.29906 16.699Z" fill="black"/>
<path d="M21.4366 15.594C21.9826 16.4607 22.2556 17.596 22.2556 19C22.2556 20.404 21.9826 21.5393 21.4366 22.406C20.8906 23.2727 20.1019 23.706 19.0706 23.706C18.0393 23.706 17.2506 23.2727 16.7046 22.406C16.1586 21.5393 15.8856 20.404 15.8856 19C15.8856 17.596 16.1586 16.4607 16.7046 15.594C17.2506 14.7273 18.0393 14.294 19.0706 14.294C20.1019 14.294 20.8906 14.7273 21.4366 15.594ZM19.0706 16.01C18.2039 16.01 17.7706 17.0067 17.7706 19C17.7706 20.9933 18.2039 21.99 19.0706 21.99C19.9373 21.99 20.3706 20.9933 20.3706 19C20.3706 17.0067 19.9373 16.01 19.0706 16.01Z" fill="black"/>
</svg>
