<svg width="32" height="32" viewBox="0 0 32 32" fill="none" xmlns="http://www.w3.org/2000/svg">
<path fill-rule="evenodd" clip-rule="evenodd" d="M10 2C10.5523 2 11 2.44772 11 3V4H21V3C21 2.44772 21.4477 2 22 2C22.5523 2 23 2.44772 23 3V4H26C27.1046 4 28 4.89543 28 6V26C28 27.1046 27.1046 28 26 28H6C4.89543 28 4 27.1046 4 26V6C4 4.89543 4.89543 4 6 4H9V3C9 2.44772 9.44772 2 10 2ZM9 6H6V10H26V6H23V7C23 7.55228 22.5523 8 22 8C21.4477 8 21 7.55228 21 7V6H11V7C11 7.55228 10.5523 8 10 8C9.44772 8 9 7.55228 9 7V6ZM26 12H6V26H26V12Z" fill="black"/>
<path d="M10.2195 16.699C10.2195 16.3957 10.3538 16.166 10.6225 16.01L13.4695 14.424C13.6081 14.3547 13.7251 14.32 13.8205 14.32C13.9678 14.32 14.0935 14.3677 14.1975 14.463C14.3015 14.5497 14.3535 14.671 14.3535 14.827V22.757C14.3535 23.017 14.2581 23.2423 14.0675 23.433C13.8855 23.615 13.6645 23.706 13.4045 23.706C13.1445 23.706 12.9191 23.615 12.7285 23.433C12.5465 23.2423 12.4555 23.017 12.4555 22.757V16.842L11.4155 17.401C11.2941 17.4703 11.1598 17.505 11.0125 17.505C10.7958 17.505 10.6095 17.427 10.4535 17.271C10.2975 17.115 10.2195 16.9243 10.2195 16.699Z" fill="black"/>
<path d="M16.364 16.699C16.364 16.3957 16.4983 16.166 16.767 16.01L19.614 14.424C19.7527 14.3547 19.8697 14.32 19.965 14.32C20.1123 14.32 20.238 14.3677 20.342 14.463C20.446 14.5497 20.498 14.671 20.498 14.827V22.757C20.498 23.017 20.4027 23.2423 20.212 23.433C20.03 23.615 19.809 23.706 19.549 23.706C19.289 23.706 19.0637 23.615 18.873 23.433C18.691 23.2423 18.6 23.017 18.6 22.757V16.842L17.56 17.401C17.4387 17.4703 17.3043 17.505 17.157 17.505C16.9403 17.505 16.754 17.427 16.598 17.271C16.442 17.115 16.364 16.9243 16.364 16.699Z" fill="black"/>
</svg>
