<svg width="32" height="32" viewBox="0 0 32 32" fill="none" xmlns="http://www.w3.org/2000/svg">
<path fill-rule="evenodd" clip-rule="evenodd" d="M10 2C10.5523 2 11 2.44772 11 3V4H21V3C21 2.44772 21.4477 2 22 2C22.5523 2 23 2.44772 23 3V4H26C27.1046 4 28 4.89543 28 6V26C28 27.1046 27.1046 28 26 28H6C4.89543 28 4 27.1046 4 26V6C4 4.89543 4.89543 4 6 4H9V3C9 2.44772 9.44772 2 10 2ZM9 6H6V10H26V6H23V7C23 7.55228 22.5523 8 22 8C21.4477 8 21 7.55228 21 7V6H11V7C11 7.55228 10.5523 8 10 8C9.44772 8 9 7.55228 9 7V6ZM26 12H6V26H26V12Z" fill="black"/>
<path d="M9.41332 16.699C9.41332 16.3957 9.54765 16.166 9.81632 16.01L12.6633 14.424C12.802 14.3547 12.919 14.32 13.0143 14.32C13.1616 14.32 13.2873 14.3677 13.3913 14.463C13.4953 14.5497 13.5473 14.671 13.5473 14.827V22.757C13.5473 23.017 13.452 23.2423 13.2613 23.433C13.0793 23.615 12.8583 23.706 12.5983 23.706C12.3383 23.706 12.113 23.615 11.9223 23.433C11.7403 23.2423 11.6493 23.017 11.6493 22.757V16.842L10.6093 17.401C10.488 17.4703 10.3536 17.505 10.2063 17.505C9.98965 17.505 9.80332 17.427 9.64732 17.271C9.49132 17.115 9.41332 16.9243 9.41332 16.699Z" fill="black"/>
<path d="M21.5248 15.061V20.196H21.8108C22.0448 20.196 22.2442 20.2827 22.4088 20.456C22.5822 20.6207 22.6688 20.82 22.6688 21.054C22.6688 21.288 22.5822 21.4917 22.4088 21.665C22.2442 21.8297 22.0448 21.912 21.8108 21.912H21.5248V22.757C21.5248 23.017 21.4295 23.2423 21.2388 23.433C21.0568 23.615 20.8358 23.706 20.5758 23.706C20.3158 23.706 20.0905 23.615 19.8998 23.433C19.7178 23.2423 19.6268 23.017 19.6268 22.757V21.912H15.9218C15.7832 21.912 15.6662 21.8687 15.5708 21.782C15.4842 21.6867 15.4408 21.574 15.4408 21.444C15.4408 21.3313 15.4755 21.2273 15.5448 21.132L20.1208 14.723C20.3115 14.4543 20.5455 14.32 20.8228 14.32C21.0222 14.32 21.1868 14.3893 21.3168 14.528C21.4555 14.6667 21.5248 14.8443 21.5248 15.061ZM17.7418 20.209H19.6268V17.596L17.7418 20.209Z" fill="black"/>
</svg>
