<svg width="32" height="32" viewBox="0 0 32 32" fill="none" xmlns="http://www.w3.org/2000/svg">
<path fill-rule="evenodd" clip-rule="evenodd" d="M10 2C10.5523 2 11 2.44772 11 3V4H21V3C21 2.44772 21.4477 2 22 2C22.5523 2 23 2.44772 23 3V4H26C27.1046 4 28 4.89543 28 6V26C28 27.1046 27.1046 28 26 28H6C4.89543 28 4 27.1046 4 26V6C4 4.89543 4.89543 4 6 4H9V3C9 2.44772 9.44772 2 10 2ZM9 6H6V10H26V6H23V7C23 7.55228 22.5523 8 22 8C21.4477 8 21 7.55228 21 7V6H11V7C11 7.55228 10.5523 8 10 8C9.44772 8 9 7.55228 9 7V6ZM26 12H6V26H26V12Z" fill="black"/>
<path d="M9.33415 16.348C9.33415 16.1747 9.37315 16.0187 9.45115 15.88C9.73715 15.386 10.1228 15.0003 10.6081 14.723C11.0935 14.437 11.6135 14.294 12.1681 14.294C13.0348 14.294 13.7368 14.5497 14.2741 15.061C14.8115 15.5637 15.0801 16.2137 15.0801 17.011C15.0801 17.7823 14.7421 18.6187 14.0661 19.52L12.2721 21.886H14.5601C14.7855 21.886 14.9805 21.9683 15.1451 22.133C15.3098 22.2977 15.3921 22.4927 15.3921 22.718C15.3921 22.9433 15.3098 23.1383 15.1451 23.303C14.9805 23.4677 14.7855 23.55 14.5601 23.55H9.77615C9.63748 23.55 9.52048 23.5067 9.42515 23.42C9.33848 23.3247 9.29515 23.2077 9.29515 23.069C9.29515 22.9477 9.32981 22.8393 9.39915 22.744L12.3371 18.792C12.6491 18.376 12.8701 18.0423 13.0001 17.791C13.1301 17.531 13.1951 17.2753 13.1951 17.024C13.1951 16.7293 13.1041 16.491 12.9221 16.309C12.7401 16.127 12.4931 16.036 12.1811 16.036C11.6438 16.036 11.2321 16.257 10.9461 16.699C10.7555 17.011 10.4955 17.167 10.1661 17.167C9.93215 17.167 9.73282 17.089 9.56815 16.933C9.41215 16.777 9.33415 16.582 9.33415 16.348Z" fill="black"/>
<path d="M16.507 16.348C16.507 16.1747 16.546 16.0187 16.624 15.88C16.91 15.386 17.2957 15.0003 17.781 14.723C18.2663 14.437 18.7863 14.294 19.341 14.294C20.2077 14.294 20.9097 14.5497 21.447 15.061C21.9843 15.5637 22.253 16.2137 22.253 17.011C22.253 17.7823 21.915 18.6187 21.239 19.52L19.445 21.886H21.733C21.9583 21.886 22.1533 21.9683 22.318 22.133C22.4827 22.2977 22.565 22.4927 22.565 22.718C22.565 22.9433 22.4827 23.1383 22.318 23.303C22.1533 23.4677 21.9583 23.55 21.733 23.55H16.949C16.8103 23.55 16.6933 23.5067 16.598 23.42C16.5113 23.3247 16.468 23.2077 16.468 23.069C16.468 22.9477 16.5027 22.8393 16.572 22.744L19.51 18.792C19.822 18.376 20.043 18.0423 20.173 17.791C20.303 17.531 20.368 17.2753 20.368 17.024C20.368 16.7293 20.277 16.491 20.095 16.309C19.913 16.127 19.666 16.036 19.354 16.036C18.8167 16.036 18.405 16.257 18.119 16.699C17.9283 17.011 17.6683 17.167 17.339 17.167C17.105 17.167 16.9057 17.089 16.741 16.933C16.585 16.777 16.507 16.582 16.507 16.348Z" fill="black"/>
</svg>
