<svg width="32" height="32" viewBox="0 0 32 32" fill="none" xmlns="http://www.w3.org/2000/svg">
<path fill-rule="evenodd" clip-rule="evenodd" d="M10 2C10.5523 2 11 2.44772 11 3V4H21V3C21 2.44772 21.4477 2 22 2C22.5523 2 23 2.44772 23 3V4H26C27.1046 4 28 4.89543 28 6V26C28 27.1046 27.1046 28 26 28H6C4.89543 28 4 27.1046 4 26V6C4 4.89543 4.89543 4 6 4H9V3C9 2.44772 9.44772 2 10 2ZM9 6H6V10H26V6H23V7C23 7.55228 22.5523 8 22 8C21.4477 8 21 7.55228 21 7V6H11V7C11 7.55228 10.5523 8 10 8C9.44772 8 9 7.55228 9 7V6ZM26 12H6V26H26V12Z" fill="black"/>
<path d="M9.52123 16.699C9.52123 16.3957 9.65556 16.166 9.92423 16.01L12.7712 14.424C12.9099 14.3547 13.0269 14.32 13.1222 14.32C13.2696 14.32 13.3952 14.3677 13.4992 14.463C13.6032 14.5497 13.6552 14.671 13.6552 14.827V22.757C13.6552 23.017 13.5599 23.2423 13.3692 23.433C13.1872 23.615 12.9662 23.706 12.7062 23.706C12.4462 23.706 12.2209 23.615 12.0302 23.433C11.8482 23.2423 11.7572 23.017 11.7572 22.757V16.842L10.7172 17.401C10.5959 17.4703 10.4616 17.505 10.3142 17.505C10.0976 17.505 9.91123 17.427 9.75523 17.271C9.59923 17.115 9.52123 16.9243 9.52123 16.699Z" fill="black"/>
<path d="M16.0038 21.951C16.0038 21.7257 16.0818 21.5307 16.2378 21.366C16.4024 21.2013 16.5974 21.119 16.8228 21.119C17.0741 21.119 17.3038 21.2317 17.5118 21.457C17.8498 21.821 18.2831 22.003 18.8118 22.003C19.2278 22.003 19.5614 21.873 19.8128 21.613C20.0728 21.3443 20.2028 21.0107 20.2028 20.612C20.2028 20.1527 20.0468 19.7843 19.7348 19.507C19.4228 19.2297 19.0154 19.091 18.5128 19.091C18.1401 19.091 17.7718 19.1863 17.4078 19.377C17.3038 19.429 17.1998 19.455 17.0958 19.455C16.9571 19.455 16.8401 19.4073 16.7448 19.312C16.6581 19.208 16.6278 19.0737 16.6538 18.909L17.1868 15.282C17.2301 15.022 17.3254 14.8183 17.4728 14.671C17.6201 14.5237 17.8108 14.45 18.0448 14.45H21.0478C21.2818 14.45 21.4811 14.5367 21.6458 14.71C21.8191 14.8747 21.9058 15.074 21.9058 15.308C21.9058 15.542 21.8191 15.7457 21.6458 15.919C21.4811 16.0837 21.2818 16.166 21.0478 16.166H18.9288L18.6688 17.752C18.7121 17.7433 18.7771 17.739 18.8638 17.739C19.7304 17.739 20.4844 17.999 21.1258 18.519C21.7671 19.039 22.0878 19.7453 22.0878 20.638C22.0878 21.522 21.8018 22.2543 21.2298 22.835C20.6578 23.4157 19.8864 23.706 18.9158 23.706C17.9104 23.706 17.0524 23.3593 16.3418 22.666C16.1164 22.4407 16.0038 22.2023 16.0038 21.951Z" fill="black"/>
</svg>
