<svg width="32" height="32" viewBox="0 0 32 32" fill="none" xmlns="http://www.w3.org/2000/svg">
<path fill-rule="evenodd" clip-rule="evenodd" d="M10 2C10.5523 2 11 2.44772 11 3V4H21V3C21 2.44772 21.4477 2 22 2C22.5523 2 23 2.44772 23 3V4H26C27.1046 4 28 4.89543 28 6V26C28 27.1046 27.1046 28 26 28H6C4.89543 28 4 27.1046 4 26V6C4 4.89543 4.89543 4 6 4H9V3C9 2.44772 9.44772 2 10 2ZM9 6H6V10H26V6H23V7C23 7.55228 22.5523 8 22 8C21.4477 8 21 7.55228 21 7V6H11V7C11 7.55228 10.5523 8 10 8C9.44772 8 9 7.55228 9 7V6ZM26 12H6V26H26V12Z" fill="black"/>
<path d="M12.6189 17.375C12.6189 16.4823 12.9353 15.7457 13.5679 15.165C14.2093 14.5843 14.9719 14.294 15.8559 14.294C16.7486 14.294 17.5199 14.5887 18.1699 15.178C18.8286 15.7587 19.1579 16.4953 19.1579 17.388C19.1579 18.0207 18.9109 18.7183 18.4169 19.481L15.9469 23.329C15.7823 23.5803 15.5396 23.706 15.2189 23.706C14.9849 23.706 14.7769 23.6193 14.5949 23.446C14.4129 23.2727 14.3219 23.0647 14.3219 22.822C14.3219 22.6747 14.3696 22.523 14.4649 22.367L15.8169 20.261C15.0456 20.261 14.3176 20.001 13.6329 19.481C12.9569 18.9523 12.6189 18.2503 12.6189 17.375ZM14.4909 17.362C14.4909 17.7607 14.6253 18.0943 14.8939 18.363C15.1713 18.623 15.5049 18.753 15.8949 18.753C16.2849 18.753 16.6143 18.623 16.8829 18.363C17.1516 18.0943 17.2859 17.7607 17.2859 17.362C17.2859 16.9547 17.1516 16.621 16.8829 16.361C16.6143 16.0923 16.2849 15.958 15.8949 15.958C15.5049 15.958 15.1713 16.0923 14.8939 16.361C14.6253 16.621 14.4909 16.9547 14.4909 17.362Z" fill="black"/>
</svg>
