<svg width="32" height="32" viewBox="0 0 32 32" fill="none" xmlns="http://www.w3.org/2000/svg">
<path fill-rule="evenodd" clip-rule="evenodd" d="M10 2C10.5523 2 11 2.44772 11 3V4H21V3C21 2.44772 21.4477 2 22 2C22.5523 2 23 2.44772 23 3V4H26C27.1046 4 28 4.89543 28 6V26C28 27.1046 27.1046 28 26 28H6C4.89543 28 4 27.1046 4 26V6C4 4.89543 4.89543 4 6 4H9V3C9 2.44772 9.44772 2 10 2ZM9 6H6V10H26V6H23V7C23 7.55228 22.5523 8 22 8C21.4477 8 21 7.55228 21 7V6H11V7C11 7.55228 10.5523 8 10 8C9.44772 8 9 7.55228 9 7V6ZM26 12H6V26H26V12Z" fill="black"/>
<path d="M9.25163 16.348C9.25163 16.1747 9.29063 16.0187 9.36863 15.88C9.65463 15.386 10.0403 15.0003 10.5256 14.723C11.011 14.437 11.531 14.294 12.0856 14.294C12.9523 14.294 13.6543 14.5497 14.1916 15.061C14.729 15.5637 14.9976 16.2137 14.9976 17.011C14.9976 17.7823 14.6596 18.6187 13.9836 19.52L12.1896 21.886H14.4776C14.703 21.886 14.898 21.9683 15.0626 22.133C15.2273 22.2977 15.3096 22.4927 15.3096 22.718C15.3096 22.9433 15.2273 23.1383 15.0626 23.303C14.898 23.4677 14.703 23.55 14.4776 23.55H9.69363C9.55496 23.55 9.43796 23.5067 9.34263 23.42C9.25596 23.3247 9.21263 23.2077 9.21263 23.069C9.21263 22.9477 9.2473 22.8393 9.31663 22.744L12.2546 18.792C12.5666 18.376 12.7876 18.0423 12.9176 17.791C13.0476 17.531 13.1126 17.2753 13.1126 17.024C13.1126 16.7293 13.0216 16.491 12.8396 16.309C12.6576 16.127 12.4106 16.036 12.0986 16.036C11.5613 16.036 11.1496 16.257 10.8636 16.699C10.673 17.011 10.413 17.167 10.0836 17.167C9.84963 17.167 9.6503 17.089 9.48563 16.933C9.32963 16.777 9.25163 16.582 9.25163 16.348Z" fill="black"/>
<path d="M16.4245 21.912C16.4245 21.678 16.5111 21.4743 16.6845 21.301C16.8665 21.119 17.0745 21.028 17.3085 21.028C17.5685 21.028 17.7765 21.1277 17.9325 21.327C18.2878 21.7863 18.7341 22.016 19.2715 22.016C19.6701 22.016 19.9995 21.8947 20.2595 21.652C20.5281 21.4007 20.6625 21.0757 20.6625 20.677C20.6625 19.6283 20.0775 19.104 18.9075 19.104H18.7905C18.6345 19.104 18.5001 19.052 18.3875 18.948C18.2748 18.844 18.2185 18.714 18.2185 18.558C18.2185 18.4367 18.2575 18.3153 18.3355 18.194L19.7005 16.127H17.6075C17.3735 16.127 17.1741 16.049 17.0095 15.893C16.8535 15.7283 16.7755 15.529 16.7755 15.295C16.7755 15.061 16.8535 14.8617 17.0095 14.697C17.1741 14.5323 17.3735 14.45 17.6075 14.45H21.9625C22.1011 14.45 22.2138 14.4977 22.3005 14.593C22.3958 14.6797 22.4435 14.7923 22.4435 14.931C22.4435 15.0523 22.4088 15.1607 22.3395 15.256L20.4415 18.025C21.1001 18.2417 21.6158 18.5883 21.9885 19.065C22.3611 19.533 22.5475 20.105 22.5475 20.781C22.5475 21.5697 22.2658 22.2543 21.7025 22.835C21.1391 23.4157 20.3721 23.706 19.4015 23.706C18.8468 23.706 18.3225 23.5977 17.8285 23.381C17.3431 23.1557 16.9445 22.848 16.6325 22.458C16.4938 22.2847 16.4245 22.1027 16.4245 21.912Z" fill="black"/>
</svg>
