<svg width="32" height="32" viewBox="0 0 32 32" fill="none" xmlns="http://www.w3.org/2000/svg">
<path fill-rule="evenodd" clip-rule="evenodd" d="M10 2C10.5523 2 11 2.44772 11 3V4H21V3C21 2.44772 21.4477 2 22 2C22.5523 2 23 2.44772 23 3V4H26C27.1046 4 28 4.89543 28 6V26C28 27.1046 27.1046 28 26 28H6C4.89543 28 4 27.1046 4 26V6C4 4.89543 4.89543 4 6 4H9V3C9 2.44772 9.44772 2 10 2ZM9 6H6V10H26V6H23V7C23 7.55228 22.5523 8 22 8C21.4477 8 21 7.55228 21 7V6H11V7C11 7.55228 10.5523 8 10 8C9.44772 8 9 7.55228 9 7V6ZM26 12H6V26H26V12Z" fill="black"/>
<path d="M9.62279 16.699C9.62279 16.3957 9.75712 16.166 10.0258 16.01L12.8728 14.424C13.0115 14.3547 13.1285 14.32 13.2238 14.32C13.3711 14.32 13.4968 14.3677 13.6008 14.463C13.7048 14.5497 13.7568 14.671 13.7568 14.827V22.757C13.7568 23.017 13.6615 23.2423 13.4708 23.433C13.2888 23.615 13.0678 23.706 12.8078 23.706C12.5478 23.706 12.3225 23.615 12.1318 23.433C11.9498 23.2423 11.8588 23.017 11.8588 22.757V16.842L10.8188 17.401C10.6975 17.4703 10.5631 17.505 10.4158 17.505C10.1991 17.505 10.0128 17.427 9.85679 17.271C9.70079 17.115 9.62279 16.9243 9.62279 16.699Z" fill="black"/>
<path d="M15.9103 21.912C15.9103 21.678 15.997 21.4743 16.1703 21.301C16.3523 21.119 16.5603 21.028 16.7943 21.028C17.0543 21.028 17.2623 21.1277 17.4183 21.327C17.7737 21.7863 18.22 22.016 18.7573 22.016C19.156 22.016 19.4853 21.8947 19.7453 21.652C20.014 21.4007 20.1483 21.0757 20.1483 20.677C20.1483 19.6283 19.5633 19.104 18.3933 19.104H18.2763C18.1203 19.104 17.986 19.052 17.8733 18.948C17.7607 18.844 17.7043 18.714 17.7043 18.558C17.7043 18.4367 17.7433 18.3153 17.8213 18.194L19.1863 16.127H17.0933C16.8593 16.127 16.66 16.049 16.4953 15.893C16.3393 15.7283 16.2613 15.529 16.2613 15.295C16.2613 15.061 16.3393 14.8617 16.4953 14.697C16.66 14.5323 16.8593 14.45 17.0933 14.45H21.4483C21.587 14.45 21.6997 14.4977 21.7863 14.593C21.8817 14.6797 21.9293 14.7923 21.9293 14.931C21.9293 15.0523 21.8947 15.1607 21.8253 15.256L19.9273 18.025C20.586 18.2417 21.1017 18.5883 21.4743 19.065C21.847 19.533 22.0333 20.105 22.0333 20.781C22.0333 21.5697 21.7517 22.2543 21.1883 22.835C20.625 23.4157 19.858 23.706 18.8873 23.706C18.3327 23.706 17.8083 23.5977 17.3143 23.381C16.829 23.1557 16.4303 22.848 16.1183 22.458C15.9797 22.2847 15.9103 22.1027 15.9103 21.912Z" fill="black"/>
</svg>
