<svg width="32" height="32" viewBox="0 0 32 32" fill="none" xmlns="http://www.w3.org/2000/svg">
<path fill-rule="evenodd" clip-rule="evenodd" d="M10 2C10.5523 2 11 2.44772 11 3V4H21V3C21 2.44772 21.4477 2 22 2C22.5523 2 23 2.44772 23 3V4H26C27.1046 4 28 4.89543 28 6V26C28 27.1046 27.1046 28 26 28H6C4.89543 28 4 27.1046 4 26V6C4 4.89543 4.89543 4 6 4H9V3C9 2.44772 9.44772 2 10 2ZM9 6H6V10H26V6H23V7C23 7.55228 22.5523 8 22 8C21.4477 8 21 7.55228 21 7V6H11V7C11 7.55228 10.5523 8 10 8C9.44772 8 9 7.55228 9 7V6ZM26 12H6V26H26V12Z" fill="black"/>
<path d="M8.84538 21.912C8.84538 21.678 8.93205 21.4743 9.10538 21.301C9.28738 21.119 9.49538 21.028 9.72938 21.028C9.98938 21.028 10.1974 21.1277 10.3534 21.327C10.7087 21.7863 11.155 22.016 11.6924 22.016C12.091 22.016 12.4204 21.8947 12.6804 21.652C12.949 21.4007 13.0834 21.0757 13.0834 20.677C13.0834 19.6283 12.4984 19.104 11.3284 19.104H11.2114C11.0554 19.104 10.921 19.052 10.8084 18.948C10.6957 18.844 10.6394 18.714 10.6394 18.558C10.6394 18.4367 10.6784 18.3153 10.7564 18.194L12.1214 16.127H10.0284C9.79438 16.127 9.59505 16.049 9.43038 15.893C9.27438 15.7283 9.19638 15.529 9.19638 15.295C9.19638 15.061 9.27438 14.8617 9.43038 14.697C9.59505 14.5323 9.79438 14.45 10.0284 14.45H14.3834C14.522 14.45 14.6347 14.4977 14.7214 14.593C14.8167 14.6797 14.8644 14.7923 14.8644 14.931C14.8644 15.0523 14.8297 15.1607 14.7604 15.256L12.8624 18.025C13.521 18.2417 14.0367 18.5883 14.4094 19.065C14.782 19.533 14.9684 20.105 14.9684 20.781C14.9684 21.5697 14.6867 22.2543 14.1234 22.835C13.56 23.4157 12.793 23.706 11.8224 23.706C11.2677 23.706 10.7434 23.5977 10.2494 23.381C9.76405 23.1557 9.36538 22.848 9.05338 22.458C8.91471 22.2847 8.84538 22.1027 8.84538 21.912Z" fill="black"/>
<path d="M22.0333 15.594C22.5793 16.4607 22.8523 17.596 22.8523 19C22.8523 20.404 22.5793 21.5393 22.0333 22.406C21.4873 23.2727 20.6986 23.706 19.6673 23.706C18.6359 23.706 17.8473 23.2727 17.3013 22.406C16.7553 21.5393 16.4823 20.404 16.4823 19C16.4823 17.596 16.7553 16.4607 17.3013 15.594C17.8473 14.7273 18.6359 14.294 19.6673 14.294C20.6986 14.294 21.4873 14.7273 22.0333 15.594ZM19.6673 16.01C18.8006 16.01 18.3673 17.0067 18.3673 19C18.3673 20.9933 18.8006 21.99 19.6673 21.99C20.5339 21.99 20.9673 20.9933 20.9673 19C20.9673 17.0067 20.5339 16.01 19.6673 16.01Z" fill="black"/>
</svg>
