<svg width="32" height="32" viewBox="0 0 32 32" fill="none" xmlns="http://www.w3.org/2000/svg">
<path fill-rule="evenodd" clip-rule="evenodd" d="M10 2C10.5523 2 11 2.44772 11 3V4H21V3C21 2.44772 21.4477 2 22 2C22.5523 2 23 2.44772 23 3V4H26C27.1046 4 28 4.89543 28 6V26C28 27.1046 27.1046 28 26 28H6C4.89543 28 4 27.1046 4 26V6C4 4.89543 4.89543 4 6 4H9V3C9 2.44772 9.44772 2 10 2ZM9 6H6V10H26V6H23V7C23 7.55228 22.5523 8 22 8C21.4477 8 21 7.55228 21 7V6H11V7C11 7.55228 10.5523 8 10 8C9.44772 8 9 7.55228 9 7V6ZM26 12H6V26H26V12Z" fill="black"/>
<path d="M8.95329 16.348C8.95329 16.1747 8.99229 16.0187 9.07029 15.88C9.35629 15.386 9.74196 15.0003 10.2273 14.723C10.7126 14.437 11.2326 14.294 11.7873 14.294C12.654 14.294 13.356 14.5497 13.8933 15.061C14.4306 15.5637 14.6993 16.2137 14.6993 17.011C14.6993 17.7823 14.3613 18.6187 13.6853 19.52L11.8913 21.886H14.1793C14.4046 21.886 14.5996 21.9683 14.7643 22.133C14.929 22.2977 15.0113 22.4927 15.0113 22.718C15.0113 22.9433 14.929 23.1383 14.7643 23.303C14.5996 23.4677 14.4046 23.55 14.1793 23.55H9.39529C9.25662 23.55 9.13962 23.5067 9.04429 23.42C8.95762 23.3247 8.91429 23.2077 8.91429 23.069C8.91429 22.9477 8.94896 22.8393 9.01829 22.744L11.9563 18.792C12.2683 18.376 12.4893 18.0423 12.6193 17.791C12.7493 17.531 12.8143 17.2753 12.8143 17.024C12.8143 16.7293 12.7233 16.491 12.5413 16.309C12.3593 16.127 12.1123 16.036 11.8003 16.036C11.263 16.036 10.8513 16.257 10.5653 16.699C10.3746 17.011 10.1146 17.167 9.78529 17.167C9.55129 17.167 9.35196 17.089 9.18729 16.933C9.03129 16.777 8.95329 16.582 8.95329 16.348Z" fill="black"/>
<path d="M16.2951 20.768C16.2951 20.248 16.4295 19.7843 16.6981 19.377C16.9755 18.961 17.3438 18.6403 17.8031 18.415C17.5345 18.2243 17.3135 17.9817 17.1401 17.687C16.9755 17.3837 16.8931 17.0587 16.8931 16.712C16.8931 16.0273 17.1445 15.4553 17.6471 14.996C18.1585 14.528 18.8041 14.294 19.5841 14.294C20.3641 14.294 21.0055 14.528 21.5081 14.996C22.0195 15.4553 22.2751 16.0273 22.2751 16.712C22.2751 17.0587 22.1885 17.3837 22.0151 17.687C21.8505 17.9817 21.6338 18.2243 21.3651 18.415C21.8245 18.6403 22.1885 18.961 22.4571 19.377C22.7345 19.7843 22.8731 20.248 22.8731 20.768C22.8731 21.6 22.5568 22.2977 21.9241 22.861C21.3001 23.4243 20.5201 23.706 19.5841 23.706C18.6481 23.706 17.8638 23.4243 17.2311 22.861C16.6071 22.2977 16.2951 21.6 16.2951 20.768ZM18.1931 20.638C18.1931 21.0193 18.3275 21.3443 18.5961 21.613C18.8648 21.8817 19.1941 22.016 19.5841 22.016C19.9741 22.016 20.3035 21.8817 20.5721 21.613C20.8408 21.3443 20.9751 21.0193 20.9751 20.638C20.9751 20.248 20.8408 19.923 20.5721 19.663C20.3121 19.403 19.9828 19.273 19.5841 19.273C19.1855 19.273 18.8518 19.403 18.5831 19.663C18.3231 19.923 18.1931 20.248 18.1931 20.638ZM20.5461 16.816C20.5461 16.556 20.4551 16.335 20.2731 16.153C20.0911 15.9623 19.8615 15.867 19.5841 15.867C19.3068 15.867 19.0771 15.9623 18.8951 16.153C18.7131 16.335 18.6221 16.556 18.6221 16.816C18.6221 17.0847 18.7131 17.3143 18.8951 17.505C19.0771 17.687 19.3068 17.778 19.5841 17.778C19.8615 17.778 20.0911 17.687 20.2731 17.505C20.4551 17.3143 20.5461 17.0847 20.5461 16.816Z" fill="black"/>
</svg>
