<svg width="32" height="32" viewBox="0 0 32 32" fill="none" xmlns="http://www.w3.org/2000/svg">
<path fill-rule="evenodd" clip-rule="evenodd" d="M10 2C10.5523 2 11 2.44772 11 3V4H21V3C21 2.44772 21.4477 2 22 2C22.5523 2 23 2.44772 23 3V4H26C27.1046 4 28 4.89543 28 6V26C28 27.1046 27.1046 28 26 28H6C4.89543 28 4 27.1046 4 26V6C4 4.89543 4.89543 4 6 4H9V3C9 2.44772 9.44772 2 10 2ZM9 6H6V10H26V6H23V7C23 7.55228 22.5523 8 22 8C21.4477 8 21 7.55228 21 7V6H11V7C11 7.55228 10.5523 8 10 8C9.44772 8 9 7.55228 9 7V6ZM26 12H6V26H26V12Z" fill="black"/>
<path d="M9.76579 21.912C9.76579 21.678 9.85246 21.4743 10.0258 21.301C10.2078 21.119 10.4158 21.028 10.6498 21.028C10.9098 21.028 11.1178 21.1277 11.2738 21.327C11.6291 21.7863 12.0755 22.016 12.6128 22.016C13.0115 22.016 13.3408 21.8947 13.6008 21.652C13.8695 21.4007 14.0038 21.0757 14.0038 20.677C14.0038 19.6283 13.4188 19.104 12.2488 19.104H12.1318C11.9758 19.104 11.8415 19.052 11.7288 18.948C11.6161 18.844 11.5598 18.714 11.5598 18.558C11.5598 18.4367 11.5988 18.3153 11.6768 18.194L13.0418 16.127H10.9488C10.7148 16.127 10.5155 16.049 10.3508 15.893C10.1948 15.7283 10.1168 15.529 10.1168 15.295C10.1168 15.061 10.1948 14.8617 10.3508 14.697C10.5155 14.5323 10.7148 14.45 10.9488 14.45H15.3038C15.4425 14.45 15.5551 14.4977 15.6418 14.593C15.7371 14.6797 15.7848 14.7923 15.7848 14.931C15.7848 15.0523 15.7501 15.1607 15.6808 15.256L13.7828 18.025C14.4415 18.2417 14.9571 18.5883 15.3298 19.065C15.7025 19.533 15.8888 20.105 15.8888 20.781C15.8888 21.5697 15.6071 22.2543 15.0438 22.835C14.4805 23.4157 13.7135 23.706 12.7428 23.706C12.1881 23.706 11.6638 23.5977 11.1698 23.381C10.6845 23.1557 10.2858 22.848 9.97379 22.458C9.83512 22.2847 9.76579 22.1027 9.76579 21.912Z" fill="black"/>
<path d="M16.9607 16.699C16.9607 16.3957 17.095 16.166 17.3637 16.01L20.2107 14.424C20.3493 14.3547 20.4663 14.32 20.5617 14.32C20.709 14.32 20.8347 14.3677 20.9387 14.463C21.0427 14.5497 21.0947 14.671 21.0947 14.827V22.757C21.0947 23.017 20.9993 23.2423 20.8087 23.433C20.6267 23.615 20.4057 23.706 20.1457 23.706C19.8857 23.706 19.6603 23.615 19.4697 23.433C19.2877 23.2423 19.1967 23.017 19.1967 22.757V16.842L18.1567 17.401C18.0353 17.4703 17.901 17.505 17.7537 17.505C17.537 17.505 17.3507 17.427 17.1947 17.271C17.0387 17.115 16.9607 16.9243 16.9607 16.699Z" fill="black"/>
</svg>
