<svg width="32" height="32" viewBox="0 0 32 32" fill="none" xmlns="http://www.w3.org/2000/svg">
<path fill-rule="evenodd" clip-rule="evenodd" d="M10 2C10.5523 2 11 2.44772 11 3V4H21V3C21 2.44772 21.4477 2 22 2C22.5523 2 23 2.44772 23 3V4H26C27.1046 4 28 4.89543 28 6V26C28 27.1046 27.1046 28 26 28H6C4.89543 28 4 27.1046 4 26V6C4 4.89543 4.89543 4 6 4H9V3C9 2.44772 9.44772 2 10 2ZM9 6H6V10H26V6H23V7C23 7.55228 22.5523 8 22 8C21.4477 8 21 7.55228 21 7V6H11V7C11 7.55228 10.5523 8 10 8C9.44772 8 9 7.55228 9 7V6ZM26 12H6V26H26V12Z" fill="black"/>
<path d="M9.15007 16.348C9.15007 16.1747 9.18907 16.0187 9.26707 15.88C9.55307 15.386 9.93873 15.0003 10.4241 14.723C10.9094 14.437 11.4294 14.294 11.9841 14.294C12.8507 14.294 13.5527 14.5497 14.0901 15.061C14.6274 15.5637 14.8961 16.2137 14.8961 17.011C14.8961 17.7823 14.5581 18.6187 13.8821 19.52L12.0881 21.886H14.3761C14.6014 21.886 14.7964 21.9683 14.9611 22.133C15.1257 22.2977 15.2081 22.4927 15.2081 22.718C15.2081 22.9433 15.1257 23.1383 14.9611 23.303C14.7964 23.4677 14.6014 23.55 14.3761 23.55H9.59207C9.4534 23.55 9.3364 23.5067 9.24107 23.42C9.1544 23.3247 9.11107 23.2077 9.11107 23.069C9.11107 22.9477 9.14573 22.8393 9.21507 22.744L12.1531 18.792C12.4651 18.376 12.6861 18.0423 12.8161 17.791C12.9461 17.531 13.0111 17.2753 13.0111 17.024C13.0111 16.7293 12.9201 16.491 12.7381 16.309C12.5561 16.127 12.3091 16.036 11.9971 16.036C11.4597 16.036 11.0481 16.257 10.7621 16.699C10.5714 17.011 10.3114 17.167 9.98207 17.167C9.74807 17.167 9.54873 17.089 9.38407 16.933C9.22807 16.777 9.15007 16.582 9.15007 16.348Z" fill="black"/>
<path d="M16.5179 21.951C16.5179 21.7257 16.5959 21.5307 16.7519 21.366C16.9166 21.2013 17.1116 21.119 17.3369 21.119C17.5883 21.119 17.8179 21.2317 18.0259 21.457C18.3639 21.821 18.7973 22.003 19.3259 22.003C19.7419 22.003 20.0756 21.873 20.3269 21.613C20.5869 21.3443 20.7169 21.0107 20.7169 20.612C20.7169 20.1527 20.5609 19.7843 20.2489 19.507C19.9369 19.2297 19.5296 19.091 19.0269 19.091C18.6543 19.091 18.2859 19.1863 17.9219 19.377C17.8179 19.429 17.7139 19.455 17.6099 19.455C17.4713 19.455 17.3543 19.4073 17.2589 19.312C17.1723 19.208 17.1419 19.0737 17.1679 18.909L17.7009 15.282C17.7443 15.022 17.8396 14.8183 17.9869 14.671C18.1343 14.5237 18.3249 14.45 18.5589 14.45H21.5619C21.7959 14.45 21.9953 14.5367 22.1599 14.71C22.3333 14.8747 22.4199 15.074 22.4199 15.308C22.4199 15.542 22.3333 15.7457 22.1599 15.919C21.9953 16.0837 21.7959 16.166 21.5619 16.166H19.4429L19.1829 17.752C19.2263 17.7433 19.2913 17.739 19.3779 17.739C20.2446 17.739 20.9986 17.999 21.6399 18.519C22.2812 19.039 22.6019 19.7453 22.6019 20.638C22.6019 21.522 22.3159 22.2543 21.7439 22.835C21.1719 23.4157 20.4006 23.706 19.4299 23.706C18.4246 23.706 17.5666 23.3593 16.8559 22.666C16.6306 22.4407 16.5179 22.2023 16.5179 21.951Z" fill="black"/>
</svg>
