<svg width="32" height="32" viewBox="0 0 32 32" fill="none" xmlns="http://www.w3.org/2000/svg">
<path fill-rule="evenodd" clip-rule="evenodd" d="M10 2C10.5523 2 11 2.44772 11 3V4H21V3C21 2.44772 21.4477 2 22 2C22.5523 2 23 2.44772 23 3V4H26C27.1046 4 28 4.89543 28 6V26C28 27.1046 27.1046 28 26 28H6C4.89543 28 4 27.1046 4 26V6C4 4.89543 4.89543 4 6 4H9V3C9 2.44772 9.44772 2 10 2ZM9 6H6V10H26V6H23V7C23 7.55228 22.5523 8 22 8C21.4477 8 21 7.55228 21 7V6H11V7C11 7.55228 10.5523 8 10 8C9.44772 8 9 7.55228 9 7V6ZM26 12H6V26H26V12Z" fill="black"/>
<path d="M9.27367 16.699C9.27367 16.3957 9.408 16.166 9.67667 16.01L12.5237 14.424C12.6623 14.3547 12.7793 14.32 12.8747 14.32C13.022 14.32 13.1477 14.3677 13.2517 14.463C13.3557 14.5497 13.4077 14.671 13.4077 14.827V22.757C13.4077 23.017 13.3123 23.2423 13.1217 23.433C12.9397 23.615 12.7187 23.706 12.4587 23.706C12.1987 23.706 11.9733 23.615 11.7827 23.433C11.6007 23.2423 11.5097 23.017 11.5097 22.757V16.842L10.4697 17.401C10.3483 17.4703 10.214 17.505 10.0667 17.505C9.85 17.505 9.66367 17.427 9.50767 17.271C9.35167 17.115 9.27367 16.9243 9.27367 16.699Z" fill="black"/>
<path d="M15.6912 17.375C15.6912 16.4823 16.0075 15.7457 16.6402 15.165C17.2815 14.5843 18.0442 14.294 18.9282 14.294C19.8209 14.294 20.5922 14.5887 21.2422 15.178C21.9009 15.7587 22.2302 16.4953 22.2302 17.388C22.2302 18.0207 21.9832 18.7183 21.4892 19.481L19.0192 23.329C18.8545 23.5803 18.6119 23.706 18.2912 23.706C18.0572 23.706 17.8492 23.6193 17.6672 23.446C17.4852 23.2727 17.3942 23.0647 17.3942 22.822C17.3942 22.6747 17.4419 22.523 17.5372 22.367L18.8892 20.261C18.1179 20.261 17.3899 20.001 16.7052 19.481C16.0292 18.9523 15.6912 18.2503 15.6912 17.375ZM17.5632 17.362C17.5632 17.7607 17.6975 18.0943 17.9662 18.363C18.2435 18.623 18.5772 18.753 18.9672 18.753C19.3572 18.753 19.6865 18.623 19.9552 18.363C20.2239 18.0943 20.3582 17.7607 20.3582 17.362C20.3582 16.9547 20.2239 16.621 19.9552 16.361C19.6865 16.0923 19.3572 15.958 18.9672 15.958C18.5772 15.958 18.2435 16.0923 17.9662 16.361C17.6975 16.621 17.5632 16.9547 17.5632 17.362Z" fill="black"/>
</svg>
