<svg width="32" height="32" viewBox="0 0 32 32" fill="none" xmlns="http://www.w3.org/2000/svg">
<path fill-rule="evenodd" clip-rule="evenodd" d="M10 2C10.5523 2 11 2.44772 11 3V4H21V3C21 2.44772 21.4477 2 22 2C22.5523 2 23 2.44772 23 3V4H26C27.1046 4 28 4.89543 28 6V26C28 27.1046 27.1046 28 26 28H6C4.89543 28 4 27.1046 4 26V6C4 4.89543 4.89543 4 6 4H9V3C9 2.44772 9.44772 2 10 2ZM9 6H6V10H26V6H23V7C23 7.55228 22.5523 8 22 8C21.4477 8 21 7.55228 21 7V6H11V7C11 7.55228 10.5523 8 10 8C9.44772 8 9 7.55228 9 7V6ZM26 12H6V26H26V12Z" fill="black"/>
<path d="M8.90251 16.348C8.90251 16.1747 8.94151 16.0187 9.01951 15.88C9.30551 15.386 9.69117 15.0003 10.1765 14.723C10.6618 14.437 11.1818 14.294 11.7365 14.294C12.6032 14.294 13.3052 14.5497 13.8425 15.061C14.3798 15.5637 14.6485 16.2137 14.6485 17.011C14.6485 17.7823 14.3105 18.6187 13.6345 19.52L11.8405 21.886H14.1285C14.3538 21.886 14.5488 21.9683 14.7135 22.133C14.8782 22.2977 14.9605 22.4927 14.9605 22.718C14.9605 22.9433 14.8782 23.1383 14.7135 23.303C14.5488 23.4677 14.3538 23.55 14.1285 23.55H9.34451C9.20584 23.55 9.08884 23.5067 8.99351 23.42C8.90684 23.3247 8.86351 23.2077 8.86351 23.069C8.86351 22.9477 8.89817 22.8393 8.96751 22.744L11.9055 18.792C12.2175 18.376 12.4385 18.0423 12.5685 17.791C12.6985 17.531 12.7635 17.2753 12.7635 17.024C12.7635 16.7293 12.6725 16.491 12.4905 16.309C12.3085 16.127 12.0615 16.036 11.7495 16.036C11.2122 16.036 10.8005 16.257 10.5145 16.699C10.3238 17.011 10.0638 17.167 9.73451 17.167C9.50051 17.167 9.30117 17.089 9.13651 16.933C8.98051 16.777 8.90251 16.582 8.90251 16.348Z" fill="black"/>
<path d="M22.9654 20.625C22.9654 21.5177 22.6447 22.2543 22.0034 22.835C21.3707 23.4157 20.6124 23.706 19.7284 23.706C18.8357 23.706 18.06 23.4157 17.4014 22.835C16.7514 22.2457 16.4264 21.5047 16.4264 20.612C16.4264 19.9793 16.6734 19.2817 17.1674 18.519L19.6374 14.671C19.802 14.4197 20.0447 14.294 20.3654 14.294C20.5994 14.294 20.8074 14.3807 20.9894 14.554C21.1714 14.7273 21.2624 14.9353 21.2624 15.178C21.2624 15.3253 21.2147 15.477 21.1194 15.633L19.7674 17.739C20.5387 17.739 21.2624 18.0033 21.9384 18.532C22.623 19.052 22.9654 19.7497 22.9654 20.625ZM21.0934 20.638C21.0934 20.2393 20.9547 19.91 20.6774 19.65C20.4087 19.3813 20.0794 19.247 19.6894 19.247C19.2994 19.247 18.97 19.3813 18.7014 19.65C18.4327 19.91 18.2984 20.2393 18.2984 20.638C18.2984 21.0453 18.4327 21.3833 18.7014 21.652C18.97 21.912 19.2994 22.042 19.6894 22.042C20.0794 22.042 20.4087 21.912 20.6774 21.652C20.9547 21.3833 21.0934 21.0453 21.0934 20.638Z" fill="black"/>
</svg>
