<svg width="32" height="32" viewBox="0 0 32 32" fill="none" xmlns="http://www.w3.org/2000/svg">
<path fill-rule="evenodd" clip-rule="evenodd" d="M10 2C10.5523 2 11 2.44772 11 3V4H21V3C21 2.44772 21.4477 2 22 2C22.5523 2 23 2.44772 23 3V4H26C27.1046 4 28 4.89543 28 6V26C28 27.1046 27.1046 28 26 28H6C4.89543 28 4 27.1046 4 26V6C4 4.89543 4.89543 4 6 4H9V3C9 2.44772 9.44772 2 10 2ZM9 6H6V10H26V6H23V7C23 7.55228 22.5523 8 22 8C21.4477 8 21 7.55228 21 7V6H11V7C11 7.55228 10.5523 8 10 8C9.44772 8 9 7.55228 9 7V6ZM26 12H6V26H26V12Z" fill="black"/>
<path d="M12.8381 21.912C12.8381 21.678 12.9247 21.4743 13.0981 21.301C13.2801 21.119 13.4881 21.028 13.7221 21.028C13.9821 21.028 14.1901 21.1277 14.3461 21.327C14.7014 21.7863 15.1477 22.016 15.6851 22.016C16.0837 22.016 16.4131 21.8947 16.6731 21.652C16.9417 21.4007 17.0761 21.0757 17.0761 20.677C17.0761 19.6283 16.4911 19.104 15.3211 19.104H15.2041C15.0481 19.104 14.9137 19.052 14.8011 18.948C14.6884 18.844 14.6321 18.714 14.6321 18.558C14.6321 18.4367 14.6711 18.3153 14.7491 18.194L16.1141 16.127H14.0211C13.7871 16.127 13.5877 16.049 13.4231 15.893C13.2671 15.7283 13.1891 15.529 13.1891 15.295C13.1891 15.061 13.2671 14.8617 13.4231 14.697C13.5877 14.5323 13.7871 14.45 14.0211 14.45H18.3761C18.5147 14.45 18.6274 14.4977 18.7141 14.593C18.8094 14.6797 18.8571 14.7923 18.8571 14.931C18.8571 15.0523 18.8224 15.1607 18.7531 15.256L16.8551 18.025C17.5137 18.2417 18.0294 18.5883 18.4021 19.065C18.7747 19.533 18.9611 20.105 18.9611 20.781C18.9611 21.5697 18.6794 22.2543 18.1161 22.835C17.5527 23.4157 16.7857 23.706 15.8151 23.706C15.2604 23.706 14.7361 23.5977 14.2421 23.381C13.7567 23.1557 13.3581 22.848 13.0461 22.458C12.9074 22.2847 12.8381 22.1027 12.8381 21.912Z" fill="black"/>
</svg>
