<svg width="32" height="32" viewBox="0 0 32 32" fill="none" xmlns="http://www.w3.org/2000/svg">
<path fill-rule="evenodd" clip-rule="evenodd" d="M10 2C10.5523 2 11 2.44772 11 3V4H21V3C21 2.44772 21.4477 2 22 2C22.5523 2 23 2.44772 23 3V4H26C27.1046 4 28 4.89543 28 6V26C28 27.1046 27.1046 28 26 28H6C4.89543 28 4 27.1046 4 26V6C4 4.89543 4.89543 4 6 4H9V3C9 2.44772 9.44772 2 10 2ZM9 6H6V10H26V6H23V7C23 7.55228 22.5523 8 22 8C21.4477 8 21 7.55228 21 7V6H11V7C11 7.55228 10.5523 8 10 8C9.44772 8 9 7.55228 9 7V6ZM26 12H6V26H26V12Z" fill="black"/>
<path d="M18.4526 15.061V20.196H18.7386C18.9726 20.196 19.1719 20.2827 19.3366 20.456C19.5099 20.6207 19.5966 20.82 19.5966 21.054C19.5966 21.288 19.5099 21.4917 19.3366 21.665C19.1719 21.8297 18.9726 21.912 18.7386 21.912H18.4526V22.757C18.4526 23.017 18.3572 23.2423 18.1666 23.433C17.9846 23.615 17.7636 23.706 17.5036 23.706C17.2436 23.706 17.0182 23.615 16.8276 23.433C16.6456 23.2423 16.5546 23.017 16.5546 22.757V21.912H12.8496C12.7109 21.912 12.5939 21.8687 12.4986 21.782C12.4119 21.6867 12.3686 21.574 12.3686 21.444C12.3686 21.3313 12.4032 21.2273 12.4726 21.132L17.0486 14.723C17.2392 14.4543 17.4732 14.32 17.7506 14.32C17.9499 14.32 18.1146 14.3893 18.2446 14.528C18.3832 14.6667 18.4526 14.8443 18.4526 15.061ZM14.6696 20.209H16.5546V17.596L14.6696 20.209Z" fill="black"/>
</svg>
