<svg width="32" height="32" viewBox="0 0 32 32" fill="none" xmlns="http://www.w3.org/2000/svg">
<path fill-rule="evenodd" clip-rule="evenodd" d="M10 2C10.5523 2 11 2.44772 11 3V4H21V3C21 2.44772 21.4477 2 22 2C22.5523 2 23 2.44772 23 3V4H26C27.1046 4 28 4.89543 28 6V26C28 27.1046 27.1046 28 26 28H6C4.89543 28 4 27.1046 4 26V6C4 4.89543 4.89543 4 6 4H9V3C9 2.44772 9.44772 2 10 2ZM9 6H6V10H26V6H23V7C23 7.55228 22.5523 8 22 8C21.4477 8 21 7.55228 21 7V6H11V7C11 7.55228 10.5523 8 10 8C9.44772 8 9 7.55228 9 7V6ZM26 12H6V26H26V12Z" fill="black"/>
<path d="M12.9206 16.348C12.9206 16.1747 12.9596 16.0187 13.0376 15.88C13.3236 15.386 13.7092 15.0003 14.1946 14.723C14.6799 14.437 15.1999 14.294 15.7546 14.294C16.6212 14.294 17.3232 14.5497 17.8606 15.061C18.3979 15.5637 18.6666 16.2137 18.6666 17.011C18.6666 17.7823 18.3286 18.6187 17.6526 19.52L15.8586 21.886H18.1466C18.3719 21.886 18.5669 21.9683 18.7316 22.133C18.8962 22.2977 18.9786 22.4927 18.9786 22.718C18.9786 22.9433 18.8962 23.1383 18.7316 23.303C18.5669 23.4677 18.3719 23.55 18.1466 23.55H13.3626C13.2239 23.55 13.1069 23.5067 13.0116 23.42C12.9249 23.3247 12.8816 23.2077 12.8816 23.069C12.8816 22.9477 12.9162 22.8393 12.9856 22.744L15.9236 18.792C16.2356 18.376 16.4566 18.0423 16.5866 17.791C16.7166 17.531 16.7816 17.2753 16.7816 17.024C16.7816 16.7293 16.6906 16.491 16.5086 16.309C16.3266 16.127 16.0796 16.036 15.7676 16.036C15.2302 16.036 14.8186 16.257 14.5326 16.699C14.3419 17.011 14.0819 17.167 13.7526 17.167C13.5186 17.167 13.3192 17.089 13.1546 16.933C12.9986 16.777 12.9206 16.582 12.9206 16.348Z" fill="black"/>
</svg>
