<svg width="32" height="32" viewBox="0 0 32 32" fill="none" xmlns="http://www.w3.org/2000/svg">
<path fill-rule="evenodd" clip-rule="evenodd" d="M10 2C10.5523 2 11 2.44772 11 3V4H21V3C21 2.44772 21.4477 2 22 2C22.5523 2 23 2.44772 23 3V4H26C27.1046 4 28 4.89543 28 6V26C28 27.1046 27.1046 28 26 28H6C4.89543 28 4 27.1046 4 26V6C4 4.89543 4.89543 4 6 4H9V3C9 2.44772 9.44772 2 10 2ZM9 6H6V10H26V6H23V7C23 7.55228 22.5523 8 22 8C21.4477 8 21 7.55228 21 7V6H11V7C11 7.55228 10.5523 8 10 8C9.44772 8 9 7.55228 9 7V6ZM26 12H6V26H26V12Z" fill="black"/>
<path d="M12.7087 20.768C12.7087 20.248 12.843 19.7843 13.1117 19.377C13.389 18.961 13.7574 18.6403 14.2167 18.415C13.948 18.2243 13.727 17.9817 13.5537 17.687C13.389 17.3837 13.3067 17.0587 13.3067 16.712C13.3067 16.0273 13.558 15.4553 14.0607 14.996C14.572 14.528 15.2177 14.294 15.9977 14.294C16.7777 14.294 17.419 14.528 17.9217 14.996C18.433 15.4553 18.6887 16.0273 18.6887 16.712C18.6887 17.0587 18.602 17.3837 18.4287 17.687C18.264 17.9817 18.0474 18.2243 17.7787 18.415C18.238 18.6403 18.602 18.961 18.8707 19.377C19.148 19.7843 19.2867 20.248 19.2867 20.768C19.2867 21.6 18.9704 22.2977 18.3377 22.861C17.7137 23.4243 16.9337 23.706 15.9977 23.706C15.0617 23.706 14.2774 23.4243 13.6447 22.861C13.0207 22.2977 12.7087 21.6 12.7087 20.768ZM14.6067 20.638C14.6067 21.0193 14.741 21.3443 15.0097 21.613C15.2784 21.8817 15.6077 22.016 15.9977 22.016C16.3877 22.016 16.717 21.8817 16.9857 21.613C17.2544 21.3443 17.3887 21.0193 17.3887 20.638C17.3887 20.248 17.2544 19.923 16.9857 19.663C16.7257 19.403 16.3964 19.273 15.9977 19.273C15.599 19.273 15.2654 19.403 14.9967 19.663C14.7367 19.923 14.6067 20.248 14.6067 20.638ZM16.9597 16.816C16.9597 16.556 16.8687 16.335 16.6867 16.153C16.5047 15.9623 16.275 15.867 15.9977 15.867C15.7204 15.867 15.4907 15.9623 15.3087 16.153C15.1267 16.335 15.0357 16.556 15.0357 16.816C15.0357 17.0847 15.1267 17.3143 15.3087 17.505C15.4907 17.687 15.7204 17.778 15.9977 17.778C16.275 17.778 16.5047 17.687 16.6867 17.505C16.8687 17.3143 16.9597 17.0847 16.9597 16.816Z" fill="black"/>
</svg>
