<svg width="32" height="32" viewBox="0 0 32 32" fill="none" xmlns="http://www.w3.org/2000/svg">
<path fill-rule="evenodd" clip-rule="evenodd" d="M10 2C10.5523 2 11 2.44772 11 3V4H21V3C21 2.44772 21.4477 2 22 2C22.5523 2 23 2.44772 23 3V4H26C27.1046 4 28 4.89543 28 6V26C28 27.1046 27.1046 28 26 28H6C4.89543 28 4 27.1046 4 26V6C4 4.89543 4.89543 4 6 4H9V3C9 2.44772 9.44772 2 10 2ZM9 6H6V10H26V6H23V7C23 7.55228 22.5523 8 22 8C21.4477 8 21 7.55228 21 7V6H11V7C11 7.55228 10.5523 8 10 8C9.44772 8 9 7.55228 9 7V6ZM26 12H6V26H26V12Z" fill="black"/>
<path d="M9.8767 16.699C9.8767 16.3957 10.011 16.166 10.2797 16.01L13.1267 14.424C13.2654 14.3547 13.3824 14.32 13.4777 14.32C13.625 14.32 13.7507 14.3677 13.8547 14.463C13.9587 14.5497 14.0107 14.671 14.0107 14.827V22.757C14.0107 23.017 13.9154 23.2423 13.7247 23.433C13.5427 23.615 13.3217 23.706 13.0617 23.706C12.8017 23.706 12.5764 23.615 12.3857 23.433C12.2037 23.2423 12.1127 23.017 12.1127 22.757V16.842L11.0727 17.401C10.9514 17.4703 10.817 17.505 10.6697 17.505C10.453 17.505 10.2667 17.427 10.1107 17.271C9.9547 17.115 9.8767 16.9243 9.8767 16.699Z" fill="black"/>
<path d="M17.1262 22.796C17.1262 22.6747 17.1522 22.549 17.2042 22.419L19.8432 16.166H16.8272C16.5932 16.166 16.3896 16.0837 16.2162 15.919C16.0516 15.7457 15.9692 15.542 15.9692 15.308C15.9692 15.074 16.0516 14.8747 16.2162 14.71C16.3896 14.5367 16.5932 14.45 16.8272 14.45H21.7152C21.8712 14.45 21.9969 14.4977 22.0922 14.593C22.1962 14.6797 22.2482 14.788 22.2482 14.918C22.2482 15.0133 22.2179 15.1433 22.1572 15.308L18.9202 23.147C18.7642 23.5197 18.4739 23.706 18.0492 23.706C17.7979 23.706 17.5812 23.6193 17.3992 23.446C17.2172 23.264 17.1262 23.0473 17.1262 22.796Z" fill="black"/>
</svg>
