<svg width="32" height="32" viewBox="0 0 32 32" fill="none" xmlns="http://www.w3.org/2000/svg">
<path fill-rule="evenodd" clip-rule="evenodd" d="M10 2C10.5523 2 11 2.44772 11 3V4H21V3C21 2.44772 21.4477 2 22 2C22.5523 2 23 2.44772 23 3V4H26C27.1046 4 28 4.89543 28 6V26C28 27.1046 27.1046 28 26 28H6C4.89543 28 4 27.1046 4 26V6C4 4.89543 4.89543 4 6 4H9V3C9 2.44772 9.44772 2 10 2ZM9 6H6V10H26V6H23V7C23 7.55228 22.5523 8 22 8C21.4477 8 21 7.55228 21 7V6H11V7C11 7.55228 10.5523 8 10 8C9.44772 8 9 7.55228 9 7V6ZM26 12H6V26H26V12Z" fill="black"/>
<path d="M19.3789 20.625C19.3789 21.5177 19.0583 22.2543 18.4169 22.835C17.7843 23.4157 17.0259 23.706 16.1419 23.706C15.2493 23.706 14.4736 23.4157 13.8149 22.835C13.1649 22.2457 12.8399 21.5047 12.8399 20.612C12.8399 19.9793 13.0869 19.2817 13.5809 18.519L16.0509 14.671C16.2156 14.4197 16.4583 14.294 16.7789 14.294C17.0129 14.294 17.2209 14.3807 17.4029 14.554C17.5849 14.7273 17.6759 14.9353 17.6759 15.178C17.6759 15.3253 17.6283 15.477 17.5329 15.633L16.1809 17.739C16.9523 17.739 17.6759 18.0033 18.3519 18.532C19.0366 19.052 19.3789 19.7497 19.3789 20.625ZM17.5069 20.638C17.5069 20.2393 17.3683 19.91 17.0909 19.65C16.8223 19.3813 16.4929 19.247 16.1029 19.247C15.7129 19.247 15.3836 19.3813 15.1149 19.65C14.8463 19.91 14.7119 20.2393 14.7119 20.638C14.7119 21.0453 14.8463 21.3833 15.1149 21.652C15.3836 21.912 15.7129 22.042 16.1029 22.042C16.4929 22.042 16.8223 21.912 17.0909 21.652C17.3683 21.3833 17.5069 21.0453 17.5069 20.638Z" fill="black"/>
</svg>
