<svg width="32" height="32" viewBox="0 0 32 32" fill="none" xmlns="http://www.w3.org/2000/svg">
<path fill-rule="evenodd" clip-rule="evenodd" d="M10 2C10.5523 2 11 2.44772 11 3V4H21V3C21 2.44772 21.4477 2 22 2C22.5523 2 23 2.44772 23 3V4H26C27.1046 4 28 4.89543 28 6V26C28 27.1046 27.1046 28 26 28H6C4.89543 28 4 27.1046 4 26V6C4 4.89543 4.89543 4 6 4H9V3C9 2.44772 9.44772 2 10 2ZM9 6H6V10H26V6H23V7C23 7.55228 22.5523 8 22 8C21.4477 8 21 7.55228 21 7V6H11V7C11 7.55228 10.5523 8 10 8C9.44772 8 9 7.55228 9 7V6ZM26 12H6V26H26V12Z" fill="black"/>
<path d="M9.32445 16.699C9.32445 16.3957 9.45878 16.166 9.72745 16.01L12.5744 14.424C12.7131 14.3547 12.8301 14.32 12.9254 14.32C13.0728 14.32 13.1984 14.3677 13.3024 14.463C13.4064 14.5497 13.4584 14.671 13.4584 14.827V22.757C13.4584 23.017 13.3631 23.2423 13.1724 23.433C12.9904 23.615 12.7694 23.706 12.5094 23.706C12.2494 23.706 12.0241 23.615 11.8334 23.433C11.6514 23.2423 11.5604 23.017 11.5604 22.757V16.842L10.5204 17.401C10.3991 17.4703 10.2648 17.505 10.1174 17.505C9.90078 17.505 9.71445 17.427 9.55845 17.271C9.40245 17.115 9.32445 16.9243 9.32445 16.699Z" fill="black"/>
<path d="M15.781 20.768C15.781 20.248 15.9153 19.7843 16.184 19.377C16.4613 18.961 16.8296 18.6403 17.289 18.415C17.0203 18.2243 16.7993 17.9817 16.626 17.687C16.4613 17.3837 16.379 17.0587 16.379 16.712C16.379 16.0273 16.6303 15.4553 17.133 14.996C17.6443 14.528 18.29 14.294 19.07 14.294C19.85 14.294 20.4913 14.528 20.994 14.996C21.5053 15.4553 21.761 16.0273 21.761 16.712C21.761 17.0587 21.6743 17.3837 21.501 17.687C21.3363 17.9817 21.1196 18.2243 20.851 18.415C21.3103 18.6403 21.6743 18.961 21.943 19.377C22.2203 19.7843 22.359 20.248 22.359 20.768C22.359 21.6 22.0426 22.2977 21.41 22.861C20.786 23.4243 20.006 23.706 19.07 23.706C18.134 23.706 17.3496 23.4243 16.717 22.861C16.093 22.2977 15.781 21.6 15.781 20.768ZM17.679 20.638C17.679 21.0193 17.8133 21.3443 18.082 21.613C18.3506 21.8817 18.68 22.016 19.07 22.016C19.46 22.016 19.7893 21.8817 20.058 21.613C20.3266 21.3443 20.461 21.0193 20.461 20.638C20.461 20.248 20.3266 19.923 20.058 19.663C19.798 19.403 19.4686 19.273 19.07 19.273C18.6713 19.273 18.3376 19.403 18.069 19.663C17.809 19.923 17.679 20.248 17.679 20.638ZM20.032 16.816C20.032 16.556 19.941 16.335 19.759 16.153C19.577 15.9623 19.3473 15.867 19.07 15.867C18.7926 15.867 18.563 15.9623 18.381 16.153C18.199 16.335 18.108 16.556 18.108 16.816C18.108 17.0847 18.199 17.3143 18.381 17.505C18.563 17.687 18.7926 17.778 19.07 17.778C19.3473 17.778 19.577 17.687 19.759 17.505C19.941 17.3143 20.032 17.0847 20.032 16.816Z" fill="black"/>
</svg>
