<svg width="32" height="32" viewBox="0 0 32 32" fill="none" xmlns="http://www.w3.org/2000/svg">
<path fill-rule="evenodd" clip-rule="evenodd" d="M3 7C3 5.89543 3.89543 5 5 5H27C28.1046 5 29 5.89543 29 7V25C29 26.1046 28.1046 27 27 27H5C3.89543 27 3 26.1046 3 25V7ZM27 7H5V25H27V7ZM13.5714 9.00054C13.9649 9.01351 14.3142 9.25618 14.4636 9.62044L18.5839 19.6635L20.658 15.8116C20.8324 15.4877 21.1706 15.2857 21.5385 15.2857H24C24.5523 15.2857 25 15.7334 25 16.2857C25 16.838 24.5523 17.2857 24 17.2857H22.1358L19.342 22.4741C19.1587 22.8146 18.7954 23.0189 18.4093 22.9986C18.0231 22.9784 17.6832 22.7373 17.5364 22.3796L13.4581 12.4387L11.3597 16.7254C11.1918 17.0683 10.8433 17.2857 10.4615 17.2857H8C7.44772 17.2857 7 16.838 7 16.2857C7 15.7334 7.44772 15.2857 8 15.2857H9.83767L12.6403 9.56034C12.8134 9.20671 13.1779 8.98757 13.5714 9.00054Z" fill="black"/>
</svg>
