<svg width="32" height="32" viewBox="0 0 32 32" fill="none" xmlns="http://www.w3.org/2000/svg">
<path d="M7.70751 3.70751L3.70751 7.70751C3.6146 7.80042 3.5043 7.87412 3.3829 7.9244C3.26151 7.97468 3.1314 8.00056 3.00001 8.00056C2.86861 8.00056 2.7385 7.97468 2.61711 7.9244C2.49572 7.87412 2.38542 7.80042 2.29251 7.70751C2.10487 7.51987 1.99945 7.26537 1.99945 7.00001C1.99945 6.73464 2.10487 6.48015 2.29251 6.29251L6.29251 2.29251C6.38542 2.1996 6.49572 2.1259 6.61711 2.07561C6.7385 2.02533 6.86861 1.99945 7.00001 1.99945C7.1314 1.99945 7.26151 2.02533 7.3829 2.07561C7.5043 2.1259 7.6146 2.1996 7.70751 2.29251C7.80042 2.38542 7.87412 2.49572 7.9244 2.61711C7.97468 2.7385 8.00056 2.86861 8.00056 3.00001C8.00056 3.1314 7.97468 3.26151 7.9244 3.3829C7.87412 3.5043 7.80042 3.6146 7.70751 3.70751ZM29.7075 6.29251L25.7075 2.29251C25.5199 2.10487 25.2654 1.99945 25 1.99945C24.7346 1.99945 24.4801 2.10487 24.2925 2.29251C24.1049 2.48015 23.9995 2.73464 23.9995 3.00001C23.9995 3.26537 24.1049 3.51987 24.2925 3.70751L28.2925 7.70751C28.3854 7.80042 28.4957 7.87412 28.6171 7.9244C28.7385 7.97468 28.8686 8.00056 29 8.00056C29.1314 8.00056 29.2615 7.97468 29.3829 7.9244C29.5043 7.87412 29.6146 7.80042 29.7075 7.70751C29.8004 7.6146 29.8741 7.5043 29.9244 7.3829C29.9747 7.26151 30.0006 7.1314 30.0006 7.00001C30.0006 6.86861 29.9747 6.7385 29.9244 6.61711C29.8741 6.49572 29.8004 6.38542 29.7075 6.29251ZM28 16C28 18.3734 27.2962 20.6935 25.9776 22.6668C24.6591 24.6402 22.7849 26.1783 20.5922 27.0866C18.3995 27.9948 15.9867 28.2325 13.6589 27.7694C11.3312 27.3064 9.19296 26.1635 7.51473 24.4853C5.83649 22.8071 4.69361 20.6689 4.23058 18.3411C3.76756 16.0133 4.0052 13.6005 4.91345 11.4078C5.8217 9.21509 7.35977 7.34095 9.33316 6.02237C11.3066 4.70379 13.6266 4.00001 16 4.00001C19.1815 4.00365 22.2316 5.2691 24.4813 7.51874C26.7309 9.76839 27.9964 12.8185 28 16ZM24 16C24 15.7348 23.8947 15.4804 23.7071 15.2929C23.5196 15.1054 23.2652 15 23 15H17V9.00001C17 8.73479 16.8947 8.48044 16.7071 8.2929C16.5196 8.10536 16.2652 8.00001 16 8.00001C15.7348 8.00001 15.4804 8.10536 15.2929 8.2929C15.1054 8.48044 15 8.73479 15 9.00001V16C15 16.2652 15.1054 16.5196 15.2929 16.7071C15.4804 16.8946 15.7348 17 16 17H23C23.2652 17 23.5196 16.8946 23.7071 16.7071C23.8947 16.5196 24 16.2652 24 16Z" fill="black"/>
</svg>
