<svg width="32" height="32" viewBox="0 0 32 32" fill="none" xmlns="http://www.w3.org/2000/svg">
<path d="M4.98488 11.8013C4.32829 11.8013 4 11.4687 4 10.8035V7.79698C4 6.53564 4.31965 5.58963 4.95896 4.95896C5.60691 4.31965 6.57019 4 7.84881 4H10.8423C11.5162 4 11.8531 4.33261 11.8531 4.99784C11.8531 5.65443 11.5162 5.98272 10.8423 5.98272H7.87473C7.26998 5.98272 6.80346 6.14687 6.47516 6.47516C6.14687 6.79482 5.98272 7.2743 5.98272 7.91361V10.8035C5.98272 11.4687 5.65011 11.8013 4.98488 11.8013ZM27.0151 11.8013C26.3585 11.8013 26.0302 11.4687 26.0302 10.8035V7.91361C26.0302 7.2743 25.8618 6.79482 25.5248 6.47516C25.1965 6.14687 24.73 5.98272 24.1253 5.98272H21.1577C20.4924 5.98272 20.1598 5.65443 20.1598 4.99784C20.1598 4.33261 20.4924 4 21.1577 4H24.1512C25.4384 4 26.4017 4.31965 27.041 4.95896C27.6803 5.58963 28 6.53564 28 7.79698V10.8035C28 11.4687 27.6717 11.8013 27.0151 11.8013ZM7.84881 28C6.57019 28 5.60691 27.6847 4.95896 27.054C4.31965 26.4233 4 25.473 4 24.203V21.2095C4 20.5443 4.32829 20.2117 4.98488 20.2117C5.65011 20.2117 5.98272 20.5443 5.98272 21.2095V24.0994C5.98272 24.7387 6.14687 25.2181 6.47516 25.5378C6.80346 25.8661 7.26998 26.0302 7.87473 26.0302H10.8423C11.5162 26.0302 11.8531 26.3585 11.8531 27.0151C11.8531 27.6717 11.5162 28 10.8423 28H7.84881ZM21.1577 28C20.4924 28 20.1598 27.6717 20.1598 27.0151C20.1598 26.3585 20.4924 26.0302 21.1577 26.0302H24.1253C24.73 26.0302 25.1965 25.8661 25.5248 25.5378C25.8618 25.2181 26.0302 24.7387 26.0302 24.0994V21.2095C26.0302 20.5443 26.3585 20.2117 27.0151 20.2117C27.6717 20.2117 28 20.5443 28 21.2095V24.203C28 25.4644 27.6803 26.4104 27.041 27.041C26.4017 27.6803 25.4384 28 24.1512 28H21.1577ZM11.3218 15.1836C11.0454 15.1836 10.8121 15.0929 10.622 14.9114C10.4406 14.7214 10.3499 14.4795 10.3499 14.1857V12.514C10.3499 12.2289 10.4406 11.9957 10.622 11.8143C10.8121 11.6242 11.0454 11.5292 11.3218 11.5292C11.6156 11.5292 11.8531 11.6199 12.0346 11.8013C12.2246 11.9827 12.3197 12.2203 12.3197 12.514V14.1857C12.3197 14.4795 12.2246 14.7214 12.0346 14.9114C11.8531 15.0929 11.6156 15.1836 11.3218 15.1836ZM15.0151 18.0734C14.7041 18.0734 14.4622 18 14.2894 17.8531C14.1253 17.7063 14.0432 17.4989 14.0432 17.2311C14.0432 17.0151 14.1166 16.8337 14.2635 16.6868C14.419 16.5313 14.6091 16.4536 14.8337 16.4536H15.2484C15.3089 16.4536 15.3564 16.4406 15.3909 16.4147C15.4255 16.3801 15.4428 16.3326 15.4428 16.2721V12.2937C15.4428 12.0605 15.5119 11.8704 15.6501 11.7235C15.797 11.5767 15.9957 11.5032 16.2462 11.5032C16.4795 11.5032 16.6695 11.5767 16.8164 11.7235C16.9633 11.8704 17.0367 12.0605 17.0367 12.2937V16.1555C17.0367 16.7775 16.8726 17.2527 16.5443 17.581C16.216 17.9093 15.7408 18.0734 15.1188 18.0734C15.1015 18.0734 15.0842 18.0734 15.067 18.0734C15.0497 18.0734 15.0324 18.0734 15.0151 18.0734ZM20.6264 15.1836C20.3326 15.1836 20.095 15.0929 19.9136 14.9114C19.7322 14.7214 19.6415 14.4795 19.6415 14.1857V12.514C19.6415 12.2203 19.7322 11.9827 19.9136 11.8013C20.095 11.6199 20.3326 11.5292 20.6264 11.5292C20.9114 11.5292 21.1447 11.6242 21.3261 11.8143C21.5076 11.9957 21.5983 12.2289 21.5983 12.514V14.1857C21.5983 14.4795 21.5076 14.7214 21.3261 14.9114C21.1447 15.0929 20.9114 15.1836 20.6264 15.1836ZM15.9352 22.1944C15.1922 22.1944 14.4536 22.0518 13.7192 21.7667C12.9935 21.473 12.3844 21.0454 11.892 20.4838C11.8143 20.3888 11.7538 20.2937 11.7106 20.1987C11.676 20.1037 11.6587 20 11.6587 19.8877C11.6587 19.6631 11.7322 19.4773 11.8791 19.3305C12.0346 19.1836 12.2246 19.1102 12.4492 19.1102C12.5961 19.1102 12.7171 19.1404 12.8121 19.2009C12.9158 19.2613 13.0151 19.3391 13.1102 19.4341C13.4644 19.797 13.892 20.0864 14.3931 20.3024C14.9028 20.5097 15.4168 20.6134 15.9352 20.6134C16.4795 20.6134 17.0022 20.5054 17.5032 20.2894C18.0043 20.0648 18.4233 19.7797 18.7603 19.4341C18.9676 19.2181 19.1793 19.1102 19.3952 19.1102C19.6199 19.1102 19.8099 19.1836 19.9654 19.3305C20.121 19.4773 20.1987 19.6631 20.1987 19.8877C20.1987 20.0173 20.1771 20.1339 20.1339 20.2376C20.0994 20.3326 20.0432 20.419 19.9654 20.4968C19.4384 21.0238 18.8164 21.4384 18.0994 21.7408C17.3909 22.0432 16.6695 22.1944 15.9352 22.1944Z" fill="black"/>
</svg>
