<svg width="32" height="32" viewBox="0 0 32 32" fill="none" xmlns="http://www.w3.org/2000/svg">
<path d="M4.08292 20.1797C3.89195 20.2405 3.70966 20.2231 3.53605 20.1276C3.36244 20.0321 3.24525 19.8802 3.18449 19.6719C2.94143 18.8212 2.78518 17.9879 2.71574 17.1719C2.65497 16.3559 2.65063 15.5964 2.70271 14.8932C2.72876 14.7023 2.80254 14.546 2.92407 14.4245C3.05428 14.2943 3.24091 14.2379 3.48396 14.2552C3.66626 14.2726 3.81383 14.342 3.92667 14.4635C4.03952 14.5851 4.0916 14.7587 4.08292 14.9844C4.0482 15.8438 4.0699 16.6207 4.14803 17.3151C4.23483 18.0009 4.3607 18.6519 4.52563 19.2682C4.56903 19.4852 4.55167 19.6806 4.47355 19.8542C4.39542 20.0191 4.26521 20.1276 4.08292 20.1797ZM3.54907 12.8359C3.36678 12.7752 3.23223 12.645 3.14542 12.4453C3.05862 12.237 3.07164 11.9766 3.18449 11.6641C3.93969 9.65018 4.97268 7.97917 6.28344 6.65105C7.59421 5.31424 9.08726 4.31598 10.7626 3.65626C12.4466 2.99653 14.2131 2.66667 16.0621 2.66667C17.2426 2.66667 18.3234 2.7882 19.3043 3.03126C20.2939 3.26563 21.2574 3.67796 22.1949 4.26823C22.3512 4.36372 22.4683 4.48525 22.5465 4.63282C22.6333 4.77171 22.6246 4.94966 22.5204 5.16667C22.4336 5.36632 22.286 5.47483 22.0777 5.49219C21.8694 5.50087 21.661 5.44445 21.4527 5.32292C20.7235 4.90626 19.9163 4.58941 19.0308 4.3724C18.1541 4.15539 17.1645 4.04688 16.0621 4.04688C14.4649 4.04688 12.9067 4.35504 11.3876 4.97136C9.87719 5.579 8.52303 6.49914 7.32511 7.73178C6.12719 8.95573 5.19403 10.4922 4.52563 12.3412C4.43883 12.5755 4.2956 12.7361 4.09594 12.8229C3.90497 12.901 3.72268 12.9054 3.54907 12.8359ZM29.161 17.3151C28.9614 17.3151 28.8008 17.2457 28.6793 17.1068C28.5664 16.9592 28.497 16.7856 28.4709 16.5859C28.2626 14.3464 27.7461 12.4583 26.9215 10.9219C26.0968 9.38542 25.0768 8.04862 23.8616 6.91146C23.6793 6.74653 23.5838 6.57292 23.5751 6.39063C23.5751 6.19966 23.6359 6.03907 23.7574 5.90886C23.8616 5.78733 24.0091 5.71355 24.2001 5.68751C24.3911 5.66146 24.5734 5.72657 24.747 5.88282C25.7018 6.71615 26.5222 7.64063 27.2079 8.65625C27.8937 9.6632 28.4492 10.8134 28.8746 12.1068C29.3086 13.4002 29.6168 14.8802 29.7991 16.5469C29.8164 16.7639 29.7643 16.9462 29.6428 17.0938C29.5213 17.2413 29.3607 17.3151 29.161 17.3151ZM5.51521 23.7474C5.41105 23.5998 5.37199 23.4349 5.39803 23.2526C5.42407 23.0616 5.51087 22.901 5.65844 22.7708C5.9449 22.5191 6.16192 22.2066 6.30949 21.8333C6.46574 21.4514 6.54386 21.0521 6.54386 20.6354C6.54386 20.2014 6.47876 19.7543 6.34855 19.2943C6.21834 18.8342 6.08813 18.3351 5.95792 17.7969C5.82771 17.25 5.76261 16.6424 5.76261 15.974C5.76261 14.5764 6.03171 13.2613 6.5699 12.0287C7.1081 10.796 7.84594 9.71094 8.78344 8.77344C9.72962 7.82726 10.819 7.08507 12.0517 6.54688C13.2843 6.00869 14.5994 5.73959 15.997 5.73959C17.6637 5.73959 19.1697 6.05643 20.5152 6.69011C21.8607 7.32379 23.0152 8.22223 23.9788 9.38542C24.9423 10.5486 25.6801 11.9375 26.1923 13.5521C26.7045 15.158 26.9605 16.9418 26.9605 18.9037C26.9605 20.3793 26.852 21.6554 26.635 22.7318C26.4267 23.7995 26.201 24.6589 25.9579 25.3099C25.8798 25.5096 25.7409 25.6398 25.5413 25.7005C25.3503 25.77 25.168 25.7656 24.9944 25.6875C24.8295 25.6094 24.7166 25.4792 24.6558 25.2969C24.5951 25.1146 24.6038 24.928 24.6819 24.737C24.9076 24.1727 25.1159 23.4045 25.3069 22.4323C25.4979 21.4601 25.589 20.2882 25.5803 18.9167C25.5803 16.5729 25.1854 14.5156 24.3954 12.7448C23.6055 10.974 22.4944 9.59375 21.0621 8.60417C19.6298 7.61459 17.9414 7.1198 15.997 7.1198C14.7904 7.1198 13.6532 7.35417 12.5855 7.82292C11.5178 8.28299 10.576 8.92101 9.76001 9.73698C8.94403 10.553 8.30167 11.4948 7.83292 12.5625C7.37285 13.6215 7.14282 14.7587 7.14282 15.974C7.14282 16.6771 7.20358 17.2717 7.32511 17.7578C7.45532 18.2352 7.58119 18.6953 7.70271 19.138C7.82424 19.5721 7.88501 20.0712 7.88501 20.6354C7.89369 21.2691 7.78518 21.8724 7.55949 22.4453C7.33379 23.0182 6.99959 23.4913 6.55688 23.8646C6.38327 24.0122 6.1923 24.0729 5.98396 24.0469C5.78431 24.0122 5.62806 23.9123 5.51521 23.7474ZM8.41886 26.0391C8.19317 26.1519 7.98917 26.1736 7.80688 26.1042C7.63327 26.0434 7.51174 25.9349 7.4423 25.7787C7.37285 25.6398 7.35983 25.4792 7.40324 25.2969C7.44664 25.1233 7.57685 24.9627 7.79386 24.8151C8.25393 24.5026 8.63153 24.1424 8.92667 23.7344C9.23049 23.3177 9.46487 22.8403 9.6298 22.3021C9.69924 22.1024 9.81209 21.9592 9.96834 21.8724C10.1333 21.7769 10.3025 21.7552 10.4762 21.8073C10.6671 21.8767 10.8017 22.0026 10.8798 22.1849C10.9579 22.3585 10.9709 22.5321 10.9189 22.7057C10.806 23.1311 10.6064 23.5738 10.3199 24.0339C10.0421 24.4852 9.72962 24.8932 9.3824 25.2578C9.04386 25.6224 8.72268 25.8828 8.41886 26.0391ZM11.0491 19.3594C11.1185 19.559 11.1185 19.75 11.0491 19.9323C10.9883 20.1146 10.8668 20.2448 10.6845 20.3229C10.4675 20.4097 10.2722 20.4141 10.0985 20.3359C9.92494 20.2491 9.79039 20.1016 9.6949 19.8932C9.48657 19.3724 9.29126 18.7951 9.10896 18.1615C8.93535 17.5191 8.84855 16.8116 8.84855 16.0391C8.84855 15.0321 9.03084 14.0946 9.39542 13.2266C9.76869 12.3498 10.2852 11.5816 10.9449 10.9219C11.6046 10.2622 12.3685 9.75 13.2366 9.38542C14.1133 9.01216 15.0551 8.82553 16.0621 8.82553C16.6697 8.82553 17.2643 8.90365 17.8459 9.0599C18.4362 9.21615 18.9354 9.4158 19.3433 9.65886C19.5517 9.78039 19.6819 9.93664 19.734 10.1276C19.7947 10.3186 19.7774 10.5009 19.6819 10.6745C19.6124 10.8047 19.4952 10.8958 19.3303 10.9479C19.1741 10.9913 19.0005 10.9696 18.8095 10.8828C18.4449 10.7005 18.1367 10.5616 17.885 10.4662C17.6333 10.3707 17.3729 10.3056 17.1038 10.2708C16.8347 10.2361 16.4874 10.2188 16.0621 10.2188C14.977 10.2188 13.9918 10.4748 13.1064 10.987C12.2296 11.4991 11.5308 12.1979 11.01 13.0833C10.4979 13.9601 10.2418 14.9453 10.2418 16.0391C10.2418 16.7509 10.3373 17.3802 10.5282 17.9271C10.7279 18.4653 10.9015 18.9427 11.0491 19.3594ZM20.7496 12.5365C20.6107 12.3194 20.563 12.1111 20.6064 11.9115C20.6498 11.7031 20.7626 11.5512 20.9449 11.4557C21.1098 11.3689 21.2878 11.3559 21.4788 11.4167C21.6697 11.4688 21.8303 11.5946 21.9605 11.7943C22.3338 12.3846 22.6637 13.0399 22.9501 13.7604C23.2452 14.4809 23.4753 15.3099 23.6402 16.2474C23.8051 17.1849 23.8876 18.2787 23.8876 19.5287C23.8876 21.23 23.6619 22.8446 23.2105 24.3724C22.7591 25.9002 22.1558 27.1762 21.4006 28.2005C21.2791 28.3655 21.1098 28.4523 20.8928 28.4609C20.6758 28.4696 20.4979 28.4045 20.359 28.2656C20.2201 28.1354 20.1506 27.9748 20.1506 27.7839C20.1593 27.5929 20.2201 27.4236 20.3329 27.276C21.0013 26.4427 21.5352 25.3403 21.9345 23.9688C22.3338 22.5885 22.5334 21.1215 22.5334 19.5677C22.5334 18.1181 22.3859 16.7986 22.0907 15.6094C21.7956 14.4201 21.3485 13.3958 20.7496 12.5365ZM11.01 27.6667C10.8451 27.8056 10.6628 27.8663 10.4631 27.849C10.2635 27.8316 10.0985 27.7361 9.96834 27.5625C9.86417 27.4063 9.82511 27.237 9.85115 27.0547C9.87719 26.8724 9.97702 26.7118 10.1506 26.5729C10.9926 25.8958 11.635 25.0321 12.0777 23.9818C12.5204 22.9314 12.7374 21.7986 12.7288 20.5833C12.7201 20.0104 12.655 19.4462 12.5334 18.8906C12.4119 18.3264 12.286 17.7839 12.1558 17.263C12.0343 16.7335 11.9735 16.2344 11.9735 15.7656C11.9735 14.9931 12.1515 14.3203 12.5074 13.7474C12.872 13.1658 13.3581 12.7188 13.9657 12.4063C14.5821 12.0851 15.2722 11.9245 16.036 11.9245C17.1819 11.9245 18.089 12.2543 18.7574 12.9141C19.4345 13.5738 19.9206 14.4635 20.2157 15.5833C20.5109 16.7031 20.6628 17.9531 20.6715 19.3333C20.6715 20.7483 20.5109 22.0981 20.1897 23.3828C19.8685 24.6589 19.4388 25.796 18.9006 26.7943C18.3711 27.7925 17.7852 28.5868 17.1428 29.1771C16.9779 29.316 16.7913 29.3724 16.5829 29.3464C16.3833 29.329 16.227 29.2379 16.1142 29.0729C16.01 28.9167 15.9709 28.7517 15.997 28.5781C16.0317 28.4045 16.1229 28.2526 16.2704 28.1224C16.8781 27.5929 17.4206 26.8941 17.898 26.026C18.3841 25.158 18.7617 24.1641 19.0308 23.0443C19.2999 21.9245 19.4128 20.7222 19.3694 19.4375C19.352 18.3264 19.2348 17.3064 19.0178 16.3776C18.8008 15.4488 18.4536 14.7066 17.9762 14.151C17.4987 13.5868 16.852 13.3047 16.036 13.3047C15.2288 13.3047 14.5734 13.5434 14.0699 14.0208C13.5751 14.4896 13.3277 15.1102 13.3277 15.8828C13.3277 16.2821 13.3928 16.7075 13.523 17.1589C13.6532 17.6016 13.7834 18.105 13.9137 18.6693C14.0439 19.2248 14.1133 19.8629 14.122 20.5833C14.1307 22.0156 13.8659 23.3524 13.3277 24.5938C12.7895 25.8264 12.017 26.8507 11.01 27.6667ZM13.8876 28.6563C13.7227 28.7778 13.536 28.8255 13.3277 28.7995C13.1194 28.7821 12.9631 28.6866 12.859 28.513C12.7548 28.3568 12.7201 28.1875 12.7548 28.0052C12.7982 27.8229 12.898 27.6667 13.0543 27.5365C13.4623 27.224 13.8572 26.8073 14.2392 26.2865C14.6211 25.7743 14.9683 25.1016 15.2808 24.2682C15.3416 24.112 15.4501 23.9948 15.6064 23.9167C15.7713 23.8299 15.9623 23.8212 16.1793 23.8906C16.3702 23.9601 16.4874 24.0903 16.5308 24.2813C16.5742 24.4635 16.5786 24.6241 16.5439 24.763C16.3095 25.553 15.9275 26.3082 15.398 27.0287C14.8772 27.7578 14.3737 28.3004 13.8876 28.6563ZM17.234 21.8854C17.1906 22.1111 17.0864 22.2804 16.9215 22.3932C16.7652 22.4974 16.5873 22.5321 16.3876 22.4974C16.1706 22.4627 16.023 22.3672 15.9449 22.2109C15.8668 22.0547 15.8451 21.8854 15.8798 21.7031C15.9753 21.1823 16.0274 20.6441 16.036 20.0885C16.0447 19.533 16.0057 18.9644 15.9189 18.3828C15.8321 17.7925 15.6932 17.1979 15.5022 16.599C15.4327 16.3906 15.4414 16.2083 15.5282 16.0521C15.6237 15.8872 15.7626 15.7787 15.9449 15.7266C16.1359 15.6658 16.3138 15.6788 16.4788 15.7656C16.6437 15.8524 16.7652 16.013 16.8433 16.2474C17.043 16.8637 17.1906 17.5017 17.286 18.1615C17.3902 18.8125 17.4336 19.4592 17.4163 20.1016C17.4076 20.7352 17.3468 21.3299 17.234 21.8854Z" fill="black"/>
</svg>
