<svg width="32" height="32" viewBox="0 0 32 32" fill="none" xmlns="http://www.w3.org/2000/svg">
<path d="M26.701 10.8838C26.5765 10.9617 23.6107 12.6077 23.6107 16.2571C23.7505 20.419 27.3533 21.8785 27.4151 21.8785C27.3533 21.9565 26.8712 23.8668 25.443 25.8693C24.3096 27.5942 23.0516 29.3333 21.1413 29.3333C19.3242 29.3333 18.6719 28.1837 16.5753 28.1837C14.3237 28.1837 13.6866 29.3333 11.9626 29.3333C10.0524 29.3333 8.70118 27.501 7.50598 25.7923C5.95324 23.5559 4.63346 20.0462 4.58687 16.6764C4.55547 14.8907 4.89782 13.1354 5.76687 11.6444C6.99346 9.56296 9.18331 8.15 11.5747 8.1034C13.407 8.04162 15.0377 9.3614 16.156 9.3614C17.2276 9.3614 19.2311 8.1034 21.4979 8.1034C22.4763 8.10442 25.0855 8.39917 26.701 10.8838ZM16.001 7.74687C15.6748 6.11614 16.5753 4.4854 17.414 3.44518C18.4856 2.18718 20.1781 1.33333 21.6377 1.33333C21.7308 2.96406 21.1403 4.5634 20.0849 5.72821C19.1379 6.9862 17.5071 7.93324 16.001 7.74687Z" fill="black"/>
</svg>
