<svg width="32" height="32" viewBox="0 0 32 32" fill="none" xmlns="http://www.w3.org/2000/svg">
<path d="M27 11.1V9C27 7.67392 26.4732 6.40215 25.5355 5.46447C24.5978 4.52678 23.3261 4 22 4H9.99999C8.67391 4 7.40214 4.52678 6.46446 5.46447C5.52678 6.40215 4.99999 7.67392 4.99999 9V11.1C3.8697 11.3295 2.85352 11.9427 2.12361 12.8357C1.39371 13.7288 0.99498 14.8466 0.99498 16C0.99498 17.1534 1.39371 18.2712 2.12361 19.1643C2.85352 20.0573 3.8697 20.6705 4.99999 20.9V25C4.99999 25.5304 5.21071 26.0391 5.58578 26.4142C5.96085 26.7893 6.46956 27 6.99999 27H25C25.5304 27 26.0391 26.7893 26.4142 26.4142C26.7893 26.0391 27 25.5304 27 25V20.9C28.1303 20.6705 29.1465 20.0573 29.8764 19.1643C30.6063 18.2712 31.005 17.1534 31.005 16C31.005 14.8466 30.6063 13.7288 29.8764 12.8357C29.1465 11.9427 28.1303 11.3295 27 11.1ZM9.99999 6H22C22.7956 6 23.5587 6.31607 24.1213 6.87868C24.6839 7.44129 25 8.20435 25 9V11.1C23.8714 11.3321 22.8573 11.9461 22.1287 12.8387C21.4 13.7313 21.0014 14.8478 21 16H11C10.9986 14.8478 10.6 13.7313 9.87133 12.8387C9.14269 11.9461 8.1286 11.3321 6.99999 11.1V9C6.99999 8.20435 7.31606 7.44129 7.87867 6.87868C8.44128 6.31607 9.20434 6 9.99999 6ZM26.0487 19H26C25.7348 19 25.4804 19.1054 25.2929 19.2929C25.1053 19.4804 25 19.7348 25 20V25H6.99999V20C6.99999 19.7348 6.89464 19.4804 6.7071 19.2929C6.51956 19.1054 6.26521 19 5.99999 19H5.95124C5.36007 18.9904 4.78492 18.8063 4.29802 18.4709C3.81113 18.1355 3.43421 17.6636 3.2146 17.1147C2.995 16.5657 2.9425 15.9641 3.0637 15.3854C3.1849 14.8067 3.4744 14.2767 3.89584 13.862C4.31727 13.4474 4.85185 13.1664 5.43242 13.0546C6.01299 12.9427 6.61368 13.0049 7.15902 13.2333C7.70436 13.4618 8.17005 13.8462 8.49759 14.3385C8.82513 14.8307 8.99991 15.4087 8.99999 16V21C8.99999 21.2652 9.10535 21.5196 9.29289 21.7071C9.48042 21.8946 9.73478 22 9.99999 22C10.2652 22 10.5196 21.8946 10.7071 21.7071C10.8946 21.5196 11 21.2652 11 21V18H21V21C21 21.2652 21.1053 21.5196 21.2929 21.7071C21.4804 21.8946 21.7348 22 22 22C22.2652 22 22.5196 21.8946 22.7071 21.7071C22.8946 21.5196 23 21.2652 23 21V16C23.0001 15.4087 23.1749 14.8307 23.5024 14.3385C23.8299 13.8462 24.2956 13.4618 24.841 13.2333C25.3863 13.0049 25.987 12.9427 26.5676 13.0546C27.1481 13.1664 27.6827 13.4474 28.1041 13.862C28.5256 14.2767 28.8151 14.8067 28.9363 15.3854C29.0575 15.9641 29.005 16.5657 28.7854 17.1147C28.5658 17.6636 28.1889 18.1355 27.702 18.4709C27.2151 18.8063 26.6399 18.9904 26.0487 19Z" fill="black"/>
</svg>
