<svg width="32" height="32" viewBox="0 0 32 32" fill="none" xmlns="http://www.w3.org/2000/svg">
<path fill-rule="evenodd" clip-rule="evenodd" d="M19 6C19 5.44772 19.4477 5 20 5H26C26.5523 5 27 5.44772 27 6V12C27 12.5523 26.5523 13 26 13C25.4477 13 25 12.5523 25 12V8.41421L19.7071 13.7071C19.3166 14.0976 18.6834 14.0976 18.2929 13.7071C17.9024 13.3166 17.9024 12.6834 18.2929 12.2929L23.5858 7H20C19.4477 7 19 6.55228 19 6ZM12.2929 18.2929C12.6834 17.9024 13.3166 17.9024 13.7071 18.2929C14.0976 18.6834 14.0976 19.3166 13.7071 19.7071L8.41421 25H12C12.5523 25 13 25.4477 13 26C13 26.5523 12.5523 27 12 27H6C5.44772 27 5 26.5523 5 26V20C5 19.4477 5.44772 19 6 19C6.55228 19 7 19.4477 7 20V23.5858L12.2929 18.2929Z" fill="black"/>
</svg>
