<svg width="32" height="32" viewBox="0 0 32 32" fill="none" xmlns="http://www.w3.org/2000/svg">
<path fill-rule="evenodd" clip-rule="evenodd" d="M2 7C2 6.44772 2.44772 6 3 6H5.0125C5.35729 6 5.67776 6.17762 5.8605 6.47L10.0063 13.1032L14.152 6.47C14.3347 6.17762 14.6552 6 15 6H17.0125C17.5648 6 18.0125 6.44772 18.0125 7C18.0125 7.55228 17.5648 8 17.0125 8H16.0125V16H17.0125C17.5648 16 18.0125 16.4477 18.0125 17C18.0125 17.5523 17.5648 18 17.0125 18H14C13.4477 18 13 17.5523 13 17C13 16.4477 13.4477 16 14 16V10.5068L10.8605 15.53C10.6778 15.8224 10.3573 16 10.0125 16C10.0104 16 10.0083 16 10.0063 16C10.0042 16 10.0021 16 10 16C9.65521 16 9.33474 15.8224 9.152 15.53L6.0125 10.5068V16C6.56479 16 7.0125 16.4477 7.0125 17C7.0125 17.5523 6.56479 18 6.0125 18H3C2.44772 18 2 17.5523 2 17C2 16.4477 2.44772 16 3 16H4V8H3C2.44772 8 2 7.55228 2 7ZM20 13C20 12.4477 20.4477 12 21 12H30C30.5523 12 31 12.4477 31 13C31 13.5523 30.5523 14 30 14H21C20.4477 14 20 13.5523 20 13ZM20 17C20 16.4477 20.4477 16 21 16H30.0125C30.5648 16 31.0125 16.4477 31.0125 17C31.0125 17.5523 30.5648 18 30.0125 18H21C20.4477 18 20 17.5523 20 17ZM8 21C8 20.4477 8.44772 20 9 20H30C30.5523 20 31 20.4477 31 21C31 21.5523 30.5523 22 30 22H9C8.44772 22 8 21.5523 8 21ZM8 25C8 24.4477 8.44772 24 9 24H30C30.5523 24 31 24.4477 31 25C31 25.5523 30.5523 26 30 26H9C8.44772 26 8 25.5523 8 25Z" fill="black"/>
</svg>
