<svg width="32" height="32" viewBox="0 0 32 32" fill="none" xmlns="http://www.w3.org/2000/svg">
<path fill-rule="evenodd" clip-rule="evenodd" d="M18.5036 4.43395C19.4547 3.57215 20.7008 3.10912 21.9839 3.14071C23.267 3.1723 24.4888 3.6961 25.3964 4.60366C26.304 5.51122 26.8278 6.73303 26.8593 8.01612C26.8909 9.29922 26.4279 10.5453 25.5661 11.4964L13.084 24.1535C12.5133 24.6706 11.7657 24.9484 10.9958 24.9295C10.226 24.9105 9.49287 24.5963 8.94833 24.0517C8.40379 23.5072 8.08952 22.7741 8.07056 22.0042C8.05161 21.2344 8.32943 20.4867 8.84651 19.916C8.85566 19.9059 8.86502 19.896 8.87458 19.8863L19.2871 9.29881C19.6743 8.90504 20.3075 8.89977 20.7012 9.28702C21.095 9.67428 21.1003 10.3074 20.713 10.7012L10.3173 21.2716C10.1522 21.4601 10.0638 21.704 10.07 21.955C10.0763 22.2116 10.181 22.456 10.3625 22.6375C10.5441 22.819 10.7884 22.9238 11.045 22.9301C11.2939 22.9362 11.5358 22.8493 11.7237 22.6869L24.0971 10.139C24.6058 9.57017 24.8787 8.82867 24.86 8.06535C24.841 7.29549 24.5267 6.56241 23.9822 6.01787C23.4376 5.47334 22.7046 5.15906 21.9347 5.1401C21.1735 5.12136 20.4341 5.39273 19.8659 5.8986L7.46968 18.4696C6.53336 19.4059 6.00732 20.6758 6.00732 22C6.00732 23.3242 6.53334 24.5941 7.46966 25.5304C8.40598 26.4667 9.6759 26.9927 11.0001 26.9927C12.3242 26.9927 13.5941 26.4667 14.5304 25.5304L24.7938 15.292C25.1848 14.902 25.818 14.9028 26.208 15.2938C26.5981 15.6848 26.5973 16.3179 26.2063 16.708L15.9447 26.9446C14.6333 28.256 12.8546 28.9927 11.0001 28.9927C9.14547 28.9927 7.36684 28.256 6.05545 26.9446C4.74406 25.6332 4.00732 23.8546 4.00732 22C4.00732 20.1466 4.74309 18.3691 6.05286 17.058L18.463 4.47286C18.4762 4.45951 18.4897 4.44654 18.5036 4.43395Z" fill="black"/>
</svg>
