<svg width="32" height="32" viewBox="0 0 32 32" fill="none" xmlns="http://www.w3.org/2000/svg">
<path d="M12.0996 1.00488C12.6491 1.05989 13.0501 1.5501 12.9951 2.09961L12.7627 4.41992C12.5602 6.44483 11.1505 8.14454 9.19823 8.71875L6.01952 9.6543C4.79114 10.0157 3.92727 11.1173 3.86913 12.3965L3.49901 20.5449C3.47394 21.0965 3.00657 21.5238 2.45507 21.499C1.90352 21.474 1.47616 21.0066 1.50097 20.4551L1.87108 12.3057C1.96799 10.1737 3.4077 8.33767 5.45507 7.73535L8.63476 6.80078C9.80597 6.45616 10.651 5.43554 10.7725 4.2207L11.0049 1.90039C11.0599 1.3509 11.5501 0.949933 12.0996 1.00488Z" fill="black"/>
<path d="M7.57714 15.0938C8.04626 14.8749 8.59871 15.0512 8.85839 15.4863L8.90624 15.5772L9.02636 15.8428C9.62987 17.2295 10.2842 19.4483 10.4844 22.0098C10.6983 24.7471 10.3977 27.9409 8.89452 30.9473C8.64753 31.4412 8.0467 31.6415 7.55272 31.3945C7.05875 31.1475 6.85847 30.5467 7.10546 30.0527C8.40222 27.4592 8.68464 24.6527 8.49022 22.165C8.31974 19.9841 7.78634 18.0977 7.29882 16.8955L7.09374 16.4229L7.05565 16.3281C6.88869 15.8495 7.10788 15.3127 7.57714 15.0938Z" fill="black"/>
<path d="M24.4228 15.0938C23.9537 14.8749 23.4013 15.0512 23.1416 15.4863L23.0937 15.5772L22.9736 15.8428C22.3701 17.2295 21.7158 19.4483 21.5156 22.0098C21.3017 24.7471 21.6023 27.9409 23.1055 30.9473C23.3524 31.4412 23.9533 31.6415 24.4473 31.3945C24.9412 31.1475 25.1415 30.5467 24.8945 30.0527C23.5978 27.4592 23.3153 24.6527 23.5098 22.165C23.6802 19.9841 24.2136 18.0977 24.7012 16.8955L24.9062 16.4229L24.9443 16.3281C25.1113 15.8495 24.8921 15.3127 24.4228 15.0938Z" fill="black"/>
<path d="M19.9004 1.00488C19.3509 1.05989 18.9499 1.5501 19.0049 2.09961L19.2373 4.41992C19.4398 6.44483 20.8494 8.14454 22.8017 8.71875L25.9805 9.6543C27.2088 10.0157 28.0727 11.1173 28.1308 12.3965L28.501 20.5449C28.526 21.0965 28.9934 21.5238 29.5449 21.499C30.0965 21.474 30.5238 21.0066 30.499 20.4551L30.1289 12.3057C30.032 10.1737 28.5923 8.33767 26.5449 7.73535L23.3652 6.80078C22.194 6.45616 21.349 5.43554 21.2275 4.2207L20.9951 1.90039C20.9401 1.3509 20.4499 0.949933 19.9004 1.00488Z" fill="black"/>
<path d="M15 9C15 8.44772 15.4477 8 16 8C16.5523 8 17 8.44772 17 9V11C17 11.5523 16.5523 12 16 12C15.4477 12 15 11.5523 15 11V9Z" fill="black"/>
<path d="M15 15C15 14.4477 15.4477 14 16 14C16.5523 14 17 14.4477 17 15V17C17 17.5523 16.5523 18 16 18C15.4477 18 15 17.5523 15 17V15Z" fill="black"/>
<path d="M15 21C15 20.4477 15.4477 20 16 20C16.5523 20 17 20.4477 17 21V23C17 23.5523 16.5523 24 16 24C15.4477 24 15 23.5523 15 23V21Z" fill="black"/>
<path d="M15 27C15 26.4477 15.4477 26 16 26C16.5523 26 17 26.4477 17 27V29C17 29.5523 16.5523 30 16 30C15.4477 30 15 29.5523 15 29V27Z" fill="black"/>
</svg>
