<svg width="32" height="32" viewBox="0 0 32 32" fill="none" xmlns="http://www.w3.org/2000/svg">
<path fill-rule="evenodd" clip-rule="evenodd" d="M8.56092 5L8.5625 5L27 5C27.5304 5 28.0391 5.21071 28.4142 5.58579C28.7893 5.96086 29 6.46957 29 7V25C29 25.5304 28.7893 26.0391 28.4142 26.4142C28.0391 26.7893 27.5304 27 27 27H8.5625L8.56092 27C8.21504 26.9995 7.87529 26.9087 7.57526 26.7366C7.2769 26.5655 7.02809 26.3199 6.85311 26.0238L1.14271 16.5148C0.952431 16.198 0.952431 15.802 1.14271 15.4852L6.85311 5.97616C7.02809 5.68014 7.2769 5.43454 7.57526 5.26343C7.87529 5.09135 8.21504 5.00055 8.56092 5ZM8.57122 7L8.56984 7.00235L3.16646 16L8.57119 25H27V7H8.57122ZM13.2929 12.2929C13.6834 11.9024 14.3166 11.9024 14.7071 12.2929L17 14.5858L19.2929 12.2929C19.6834 11.9024 20.3166 11.9024 20.7071 12.2929C21.0976 12.6834 21.0976 13.3166 20.7071 13.7071L18.4142 16L20.7071 18.2929C21.0976 18.6834 21.0976 19.3166 20.7071 19.7071C20.3166 20.0976 19.6834 20.0976 19.2929 19.7071L17 17.4142L14.7071 19.7071C14.3166 20.0976 13.6834 20.0976 13.2929 19.7071C12.9024 19.3166 12.9024 18.6834 13.2929 18.2929L15.5858 16L13.2929 13.7071C12.9024 13.3166 12.9024 12.6834 13.2929 12.2929Z" fill="black"/>
</svg>
