<svg width="32" height="32" viewBox="0 0 32 32" fill="none" xmlns="http://www.w3.org/2000/svg">
<path d="M25.3334 18C25.8856 18 26.3334 18.4477 26.3334 19V21.5H28.8334C29.3856 21.5 29.8334 21.9477 29.8334 22.5C29.8334 23.0523 29.3856 23.5 28.8334 23.5H26.3334V26C26.3334 26.5523 25.8856 27 25.3334 27C24.7811 27 24.3334 26.5523 24.3334 26V23.5H21.8334C21.2811 23.5 20.8334 23.0523 20.8334 22.5C20.8334 21.9477 21.2811 21.5 21.8334 21.5H24.3334V19C24.3334 18.4477 24.7811 18 25.3334 18Z" fill="black"/>
<path fill-rule="evenodd" clip-rule="evenodd" d="M21.9641 7C21.7579 5.77969 21.1774 4.64405 20.2907 3.75736C19.1655 2.63214 17.6393 2 16.048 2C14.4567 2 12.9306 2.63214 11.8054 3.75736C10.9187 4.64405 10.3382 5.77969 10.1319 7L5.94334 7.00001C5.45425 7.00231 4.98274 7.18264 4.61693 7.50729C4.25112 7.83194 4.01606 8.2787 3.95569 8.76405L2.17923 24.7764C2.14791 25.0548 2.17541 25.3366 2.25995 25.6036C2.34464 25.8712 2.48467 26.1179 2.67094 26.3277C2.85721 26.5376 3.08556 26.7059 3.34113 26.8217C3.59671 26.9375 3.87379 26.9983 4.15439 27L18.1667 27V25H4.16669L5.95227 9H10.048V12C10.048 12.5523 10.4958 13 11.048 13C11.6003 13 12.048 12.5523 12.048 12V9H20.048V12C20.048 12.5523 20.4958 13 21.048 13C21.6003 13 22.048 12.5523 22.048 12V9L26.1516 9.00314L26.857 15.3333H28.8693L28.1404 8.76405C28.08 8.2787 27.845 7.83194 27.4792 7.50729C27.1133 7.18264 26.6418 7.00231 26.1527 7H21.9641ZM13.2196 5.17157C13.9698 4.42143 14.9872 4 16.048 4C17.1089 4 18.1263 4.42143 18.8765 5.17157C19.386 5.68111 19.7439 6.31397 19.921 7H12.175C12.3522 6.31397 12.7101 5.68111 13.2196 5.17157Z" fill="black"/>
</svg>
