<svg width="32" height="32" viewBox="0 0 32 32" fill="none" xmlns="http://www.w3.org/2000/svg">
<path d="M29.9862 24.765L28.2037 9.765C28.1459 9.27627 27.91 8.82602 27.541 8.50039C27.172 8.17475 26.6959 7.99659 26.2037 8H22C22 6.4087 21.3679 4.88258 20.2426 3.75736C19.1174 2.63214 17.5913 2 16 2C14.4087 2 12.8826 2.63214 11.7574 3.75736C10.6321 4.88258 10 6.4087 10 8H5.79125C5.29913 7.99659 4.82302 8.17475 4.45403 8.50039C4.08504 8.82602 3.84906 9.27627 3.79125 9.765L2.00875 24.765C1.97608 25.045 2.00296 25.3287 2.08762 25.5975C2.17228 25.8664 2.31281 26.1143 2.5 26.325C2.68854 26.5366 2.91957 26.7061 3.17803 26.8224C3.43649 26.9387 3.71657 26.9992 4 27H27.99C28.2751 27.0006 28.5571 26.9408 28.8174 26.8245C29.0777 26.7081 29.3103 26.5379 29.5 26.325C29.6863 26.1139 29.8259 25.8658 29.9097 25.5969C29.9935 25.3281 30.0196 25.0446 29.9862 24.765ZM16 4C17.0609 4 18.0783 4.42143 18.8284 5.17157C19.5786 5.92172 20 6.93913 20 8H12C12 6.93913 12.4214 5.92172 13.1716 5.17157C13.9217 4.42143 14.9391 4 16 4Z" fill="black"/>
</svg>
