<svg width="32" height="32" viewBox="0 0 32 32" fill="none" xmlns="http://www.w3.org/2000/svg">
<path fill-rule="evenodd" clip-rule="evenodd" d="M13.1715 5.17157C13.9216 4.42143 14.9391 4 15.9999 4C17.0608 4 18.0782 4.42143 18.8284 5.17157C19.3379 5.68111 19.6958 6.31397 19.8729 7H12.1269C12.3041 6.31397 12.662 5.68111 13.1715 5.17157ZM20.2426 3.75736C21.1293 4.64405 21.7098 5.77969 21.916 7H26.1046C26.5937 7.00231 27.0652 7.18264 27.431 7.50729C27.7968 7.83194 28.0319 8.2787 28.0923 8.76405L29.8687 24.7757C29.9001 25.0543 29.8726 25.3364 29.788 25.6036C29.7033 25.8712 29.5633 26.1179 29.377 26.3277C29.1908 26.5376 28.9624 26.7059 28.7068 26.8217C28.4513 26.9375 28.168 26.9983 27.8874 27L4.10628 27C3.82568 26.9983 3.5486 26.9375 3.29302 26.8217C3.03745 26.7059 2.8091 26.5376 2.62283 26.3277C2.43656 26.1179 2.29653 25.8712 2.21184 25.6036C2.1273 25.3366 2.09996 25.0533 2.13128 24.775L3.90758 8.76405C3.96795 8.2787 4.20301 7.83194 4.56882 7.50729C4.93463 7.18264 5.41084 7.0023 5.89993 7H10.0838C10.2901 5.77969 10.8706 4.64405 11.7573 3.75736C12.8825 2.63214 14.4086 2 15.9999 2C17.5912 2 19.1173 2.63214 20.2426 3.75736ZM19.9999 12V9H11.9999V12C11.9999 12.5523 11.5522 13 10.9999 13C10.4476 13 9.99992 12.5523 9.99992 12V9H5.90415L4.11858 25H27.8813L26.1035 9.00314L21.9999 9V12C21.9999 12.5523 21.5522 13 20.9999 13C20.4476 13 19.9999 12.5523 19.9999 12Z" fill="black"/>
</svg>
