<svg width="32" height="32" viewBox="0 0 32 32" fill="none" xmlns="http://www.w3.org/2000/svg">
<path d="M29.9287 16.625L25.9287 6.625C25.8407 6.40473 25.6771 6.22295 25.4674 6.11212C25.2577 6.0013 25.0153 5.96865 24.7837 6.02L17 7.75V5C17 4.73478 16.8946 4.48043 16.7071 4.29289C16.5196 4.10536 16.2652 4 16 4C15.7348 4 15.4804 4.10536 15.2929 4.29289C15.1053 4.48043 15 4.73478 15 5V8.1975L6.78249 10.0238C6.62405 10.0587 6.47651 10.1318 6.3526 10.2365C6.22868 10.3413 6.13212 10.4746 6.07124 10.625V10.6325L2.07124 20.625C2.02339 20.7442 1.99919 20.8716 1.99999 21C1.99999 23.9137 5.06749 25 6.99999 25C8.93249 25 12 23.9137 12 21C12.0008 20.8716 11.9766 20.7442 11.9287 20.625L8.36499 11.7212L15 10.25V26H13C12.7348 26 12.4804 26.1054 12.2929 26.2929C12.1053 26.4804 12 26.7348 12 27C12 27.2652 12.1053 27.5196 12.2929 27.7071C12.4804 27.8946 12.7348 28 13 28H19C19.2652 28 19.5196 27.8946 19.7071 27.7071C19.8946 27.5196 20 27.2652 20 27C20 26.7348 19.8946 26.4804 19.7071 26.2929C19.5196 26.1054 19.2652 26 19 26H17V9.8025L23.375 8.3875L20.0712 16.625C20.0234 16.7442 19.9992 16.8716 20 17C20 19.9137 23.0675 21 25 21C26.9325 21 30 19.9137 30 17C30.0008 16.8716 29.9766 16.7442 29.9287 16.625ZM6.99999 23C6.05874 23 4.15499 22.5487 4.00874 21.17L6.99999 13.6925L9.99124 21.17C9.84499 22.5487 7.94124 23 6.99999 23ZM25 19C24.0587 19 22.155 18.5487 22.0087 17.17L25 9.6925L27.9912 17.17C27.845 18.5487 25.9412 19 25 19Z" fill="black"/>
</svg>
