<svg width="32" height="32" viewBox="0 0 32 32" fill="none" xmlns="http://www.w3.org/2000/svg">
<path fill-rule="evenodd" clip-rule="evenodd" d="M15.4759 3.14834C15.7973 2.95055 16.2027 2.95055 16.5241 3.14834L29.5241 11.1483C29.9051 11.3828 30.084 11.8419 29.9622 12.2723C29.8404 12.7028 29.4474 13 29 13H26V21H28C28.5523 21 29 21.4477 29 22C29 22.5523 28.5523 23 28 23H4C3.44772 23 3 22.5523 3 22C3 21.4477 3.44772 21 4 21H6V13H3C2.5526 13 2.15965 12.7028 2.0378 12.2723C1.91595 11.8419 2.09487 11.3828 2.4759 11.1483L15.4759 3.14834ZM8 13V21H12V13H8ZM6.53304 11L16 5.17418L25.467 11H6.53304ZM14 13V21H18V13H14ZM20 13V21H24V13H20ZM1 26C1 25.4477 1.44772 25 2 25H30C30.5523 25 31 25.4477 31 26C31 26.5523 30.5523 27 30 27H2C1.44772 27 1 26.5523 1 26Z" fill="black"/>
</svg>
