<svg width="32" height="32" viewBox="0 0 32 32" fill="none" xmlns="http://www.w3.org/2000/svg">
<path fill-rule="evenodd" clip-rule="evenodd" d="M2.2161 3.37913C2.40577 3.13965 2.69451 3 3.00001 3H4.83195C7.15221 3 9.16761 4.59623 9.69904 6.8548L11.6156 15H20.75C23.5114 15 25.75 17.2386 25.75 20V21C25.75 21.5523 25.3023 22 24.75 22H23.1707C23.5826 23.1652 24.6938 24 26 24H29C29.5523 24 30 24.4477 30 25C30 25.5523 29.5523 26 29 26H26C23.5811 26 21.5633 24.2822 21.1 22H17V28H21C21.5523 28 22 28.4477 22 29C22 29.5523 21.5523 30 21 30H16H11C10.4477 30 10 29.5523 10 29C10 28.4477 10.4477 28 11 28H15V22H12H10.75H7.00001C6.53596 22 6.13288 21.6808 6.02659 21.229L2.02659 4.22904C1.95662 3.93166 2.02642 3.61861 2.2161 3.37913ZM22 20H23.75C23.75 18.3431 22.4069 17 20.75 17H10.8438C10.382 17.0098 9.96018 16.6968 9.85012 16.229L7.7522 7.31288C7.43334 5.95774 6.2241 5 4.83195 5H4.26261L7.79202 20H10.75H12H16H22Z" fill="black"/>
</svg>
