<svg width="32" height="32" viewBox="0 0 32 32" fill="none" xmlns="http://www.w3.org/2000/svg">
<path d="M23.7497 16.6987C23.9264 16.4998 24.0168 16.2389 24.0011 15.9733C23.9854 15.7077 23.8649 15.4592 23.666 15.2825C23.467 15.1058 23.2061 15.0153 22.9405 15.031C22.6749 15.0468 22.4264 15.1673 22.2497 15.3662C21.9147 15.7412 21.1434 16.0325 20.4997 16.0325C19.856 16.0325 19.0797 15.74 18.7497 15.3662C18.5728 15.1673 18.3242 15.0468 18.0585 15.0312C17.7928 15.0156 17.5317 15.1062 17.3328 15.2831C17.1339 15.46 17.0134 15.7086 16.9978 15.9743C16.9822 16.2401 17.0728 16.5011 17.2497 16.7C17.9635 17.4975 19.2672 18.0325 20.4997 18.0325C21.7322 18.0325 23.031 17.4975 23.7497 16.7V16.6987ZM11.4997 16.0325C10.851 16.0325 10.0797 15.74 9.7497 15.3662C9.57283 15.1673 9.32419 15.0468 9.05848 15.0312C8.79276 15.0156 8.53174 15.1062 8.33283 15.2831C8.13391 15.46 8.01341 15.7086 7.99782 15.9743C7.98223 16.2401 8.07283 16.5011 8.2497 16.7C8.96845 17.4975 10.2722 18.0325 11.4997 18.0325C12.7272 18.0325 14.031 17.4975 14.7497 16.7C14.9266 16.5011 15.0172 16.2401 15.0016 15.9743C14.986 15.7086 14.8655 15.46 14.6666 15.2831C14.5681 15.1955 14.4533 15.1282 14.3288 15.085C14.2043 15.0418 14.0725 15.0235 13.9409 15.0312C13.6752 15.0468 13.4266 15.1673 13.2497 15.3662C12.9197 15.74 12.1484 16.0325 11.4997 16.0325Z" fill="black"/>
<path d="M4 14C4 10.1686 5.32212 7.14019 7.54102 5.0752C9.74835 3.0212 12.7568 2 16 2C16.5523 2 17 2.44772 17 3C17 3.55228 16.5523 4 16 4C13.1683 4 10.6772 4.88923 8.90332 6.54004C7.14104 8.18012 6 10.6518 6 14C6 17.3789 7.16488 20.9302 9.04199 23.6201C10.9298 26.3253 13.413 28 16 28C18.587 28 21.0702 26.3253 22.958 23.6201C24.8351 20.9302 26 17.3789 26 14C26 13.4477 26.4477 13 27 13C27.5523 13 28 13.4477 28 14C28 17.8007 26.7027 21.7495 24.5986 24.7646C22.5052 27.7645 19.4881 30 16 30C12.5119 30 9.49477 27.7645 7.40137 24.7646C5.29734 21.7495 4 17.8007 4 14Z" fill="black"/>
<path d="M22 1C22.2473 1 22.4891 1.06677 22.7012 1.19141L22.791 1.24805L22.875 1.31152C23.0657 1.46704 23.2118 1.67145 23.2979 1.90332L23.3008 1.90918L24.3105 4.68945L27.0908 5.7002L27.0977 5.70312C27.3623 5.80149 27.5907 5.97823 27.752 6.20996C27.9133 6.44202 28 6.71835 28 7.00098C28 7.28359 27.9133 7.55994 27.752 7.79199C27.5907 8.02372 27.3623 8.20047 27.0977 8.29883L27.0898 8.30176L24.3086 9.30957L23.2988 12.0908L23.2959 12.0967C23.1976 12.3616 23.021 12.5905 22.7891 12.752C22.557 12.9134 22.2807 13 21.998 13C21.7154 13 21.4391 12.9134 21.207 12.752C20.9751 12.5905 20.7985 12.3615 20.7002 12.0967L20.6973 12.0908L19.6885 9.30957L16.9092 8.2998L16.9023 8.29688C16.6377 8.19851 16.4093 8.02177 16.248 7.79004C16.0867 7.55798 16 7.28165 16 6.99902C16 6.71641 16.0867 6.44006 16.248 6.20801C16.4093 5.97628 16.6377 5.79953 16.9023 5.70117L16.9092 5.69824L19.6885 4.68945L20.6992 1.90918L20.7021 1.90332C20.8004 1.63845 20.9771 1.40945 21.209 1.24805C21.441 1.08663 21.7173 1 22 1ZM21.4092 5.81152C21.308 6.08971 21.0888 6.30914 20.8105 6.41016L19.1855 6.99902L20.8105 7.59082L20.9121 7.63379C21.1419 7.74731 21.3208 7.94592 21.4092 8.18945L21.998 9.8125L22.5889 8.18848C22.69 7.91028 22.9093 7.69086 23.1875 7.58984L24.8135 7L23.1895 6.40918C22.9115 6.30808 22.6919 6.08954 22.5908 5.81152L22 4.18555L21.4092 5.81152Z" fill="black"/>
</svg>
