<svg width="32" height="32" viewBox="0 0 32 32" fill="none" xmlns="http://www.w3.org/2000/svg">
<path fill-rule="evenodd" clip-rule="evenodd" d="M16.0682 3.00003C14.7508 2.9927 13.4449 3.24609 12.2259 3.74559C11.0068 4.2451 9.8986 4.98085 8.9651 5.91048C8.0316 6.84011 7.29124 7.94524 6.78667 9.16222C6.28737 10.3665 6.01271 11.5597 6.02514 13.0044V14C6.02514 18.3334 5.11774 20.7544 4.39662 22C4.22138 22.3035 4.12897 22.6478 4.12866 22.9983C4.12835 23.3487 4.22015 23.6931 4.39485 23.997C4.56955 24.3008 4.82103 24.5534 5.12409 24.7294C5.42715 24.9055 5.77115 24.9988 6.12162 25L10.9998 25C10.9998 26.3261 11.5265 27.5979 12.4642 28.5355C13.4019 29.4732 14.6737 30 15.9998 30C17.3258 30 18.5976 29.4732 19.5353 28.5355C20.473 27.5979 20.9998 26.3261 20.9998 25H25.8751L25.8787 25C26.2291 24.9988 26.5731 24.9055 26.8762 24.7294C27.1793 24.5534 27.4307 24.3008 27.6054 23.997C27.7801 23.6931 27.8719 23.3487 27.8716 22.9983C27.8713 22.6478 27.7783 22.3025 27.6031 21.999C26.8819 20.7534 25.9751 18.3334 25.9751 14V13.1125C25.9751 7.61885 21.5875 3.04184 16.0702 3.00004L16.0682 3.00003ZM12.9998 25C12.9998 25.7957 13.3158 26.5587 13.8784 27.1213C14.441 27.6839 15.2041 28 15.9998 28C16.7954 28 17.5585 27.6839 18.1211 27.1213C18.6837 26.5587 18.9998 25.7957 18.9998 25H12.9998Z" fill="black"/>
</svg>
