<svg width="32" height="32" viewBox="0 0 32 32" fill="none" xmlns="http://www.w3.org/2000/svg">
<path fill-rule="evenodd" clip-rule="evenodd" d="M16.056 5C15.0028 4.99427 13.9588 5.19692 12.9842 5.59626C12.0092 5.99574 11.1229 6.58416 10.3764 7.32763C9.6298 8.0711 9.0377 8.95493 8.63417 9.92821C8.2259 10.9129 8.01473 11.8415 8.0251 12.991L8.02518 13H8.02514V14C8.02514 18.6157 7.05736 21.3954 6.12866 23H25.8716C24.9429 21.3954 23.9751 18.6157 23.9751 14V13.1125C23.9751 8.68151 20.4383 5.03372 16.056 5ZM12.2259 3.74559C13.4449 3.24609 14.7508 2.9927 16.0682 3.00003L16.0702 3.00004C21.5875 3.04184 25.9751 7.61885 25.9751 13.1125V14C25.9751 18.3334 26.8819 20.7534 27.6031 21.999L27.6037 22C27.7789 22.3035 27.8713 22.6478 27.8716 22.9983C27.8719 23.3487 27.7801 23.6931 27.6054 23.997C27.4307 24.3008 27.1793 24.5534 26.8762 24.7294C26.5731 24.9055 26.2291 24.9988 25.8787 25L25.8751 25H20.9998C20.9998 26.3261 20.473 27.5979 19.5353 28.5355C18.5976 29.4732 17.3258 30 15.9998 30C14.6737 30 13.4019 29.4732 12.4642 28.5355C11.5265 27.5979 10.9998 26.3261 10.9998 25H6.12514L6.12162 25C5.77115 24.9988 5.42715 24.9055 5.12409 24.7294C4.82103 24.5534 4.56955 24.3008 4.39485 23.997C4.22015 23.6931 4.12835 23.3487 4.12866 22.9983C4.12897 22.6478 4.22138 22.3035 4.39662 22L4.39721 21.999C5.11834 20.7534 6.02514 18.3334 6.02514 14V13.0044C6.01271 11.5597 6.28737 10.3665 6.78667 9.16222C7.29124 7.94524 8.0316 6.84011 8.9651 5.91048C9.8986 4.98085 11.0068 4.2451 12.2259 3.74559ZM12.9998 25C12.9998 25.7957 13.3158 26.5587 13.8784 27.1213C14.441 27.6839 15.2041 28 15.9998 28C16.7954 28 17.5585 27.6839 18.1211 27.1213C18.6837 26.5587 18.9998 25.7957 18.9998 25H12.9998Z" fill="black"/>
</svg>
