<svg width="32" height="32" viewBox="0 0 32 32" fill="none" xmlns="http://www.w3.org/2000/svg">
<g clip-path="url(#clip0_5462_27928)">
<path d="M26 14C25.277 13.9997 24.56 14.1306 23.8838 14.3862L20.7413 9H24C24.2652 9 24.5196 9.10536 24.7071 9.29289C24.8946 9.48043 25 9.73478 25 10C25 10.2652 25.1054 10.5196 25.2929 10.7071C25.4804 10.8946 25.7348 11 26 11C26.2652 11 26.5196 10.8946 26.7071 10.7071C26.8946 10.5196 27 10.2652 27 10C27 9.20435 26.6839 8.44129 26.1213 7.87868C25.5587 7.31607 24.7957 7 24 7H19C18.8247 7.0004 18.6525 7.0469 18.5008 7.13483C18.3491 7.22276 18.2232 7.34903 18.1357 7.50098C18.0482 7.65294 18.0022 7.82522 18.0023 8.00057C18.0024 8.17591 18.0486 8.34815 18.1363 8.5L19.5925 11H12.4075L10.3638 7.5C10.2762 7.34831 10.1503 7.22229 9.99872 7.13454C9.84713 7.04679 9.67516 7.0004 9.50001 7H6.00001C5.73479 7 5.48044 7.10536 5.2929 7.29289C5.10536 7.48043 5.00001 7.73478 5.00001 8C5.00001 8.26522 5.10536 8.51957 5.2929 8.70711C5.48044 8.89464 5.73479 9 6.00001 9H8.92626L10.64 11.9388L8.67626 14.6325C7.32703 13.9573 5.77336 13.8137 4.32323 14.2301C2.87309 14.6466 1.63236 15.5927 0.846979 16.8809C0.0615959 18.1691 -0.211102 19.7054 0.0829403 21.1852C0.376983 22.665 1.2163 23.9803 2.43452 24.8704C3.65273 25.7605 5.16091 26.1604 6.6601 25.9908C8.15928 25.8212 9.54002 25.0945 10.5286 23.9548C11.5172 22.815 12.0415 21.3455 11.9975 19.8374C11.9536 18.3292 11.3446 16.8927 10.2913 15.8125L11.74 13.825L15.6363 20.5C15.6971 20.6223 15.7824 20.7308 15.8869 20.8189C15.9913 20.9069 16.1127 20.9726 16.2435 21.012C16.3743 21.0513 16.5118 21.0634 16.6475 21.0475C16.7832 21.0317 16.9142 20.9882 17.0324 20.9198C17.1507 20.8513 17.2536 20.7594 17.3349 20.6496C17.4162 20.5399 17.4742 20.4146 17.5053 20.2816C17.5363 20.1485 17.5398 20.0105 17.5154 19.8761C17.4911 19.7417 17.4395 19.6137 17.3638 19.5L13.5738 13H20.7588L22.1575 15.3962C21.0746 16.3013 20.3454 17.5592 20.0981 18.9487C19.8508 20.3382 20.1013 21.7704 20.8054 22.9936C21.5096 24.2167 22.6224 25.1525 23.9482 25.6363C25.274 26.1202 26.7279 26.1212 28.0544 25.6392C29.3809 25.1572 30.495 24.2231 31.2009 23.0009C31.9068 21.7788 32.1593 20.3469 31.914 18.9571C31.6686 17.5672 30.9412 16.3083 29.8596 15.4017C28.778 14.4951 27.4113 13.9988 26 14ZM10 20C10.0002 20.8556 9.72615 21.6887 9.21799 22.3769C8.70982 23.0652 7.99435 23.5725 7.17664 23.8241C6.35893 24.0758 5.48208 24.0587 4.67483 23.7752C3.86759 23.4918 3.17249 22.957 2.69162 22.2493C2.21074 21.5417 1.96943 20.6985 2.00311 19.8436C2.03679 18.9888 2.34369 18.1672 2.87874 17.4996C3.4138 16.832 4.14881 16.3535 4.97585 16.1344C5.80289 15.9154 6.67838 15.9673 7.47376 16.2825L5.19251 19.4075C5.10945 19.5131 5.04854 19.6344 5.01341 19.7641C4.97827 19.8938 4.96964 20.0293 4.98803 20.1624C5.00642 20.2955 5.05144 20.4236 5.12042 20.5389C5.18939 20.6542 5.2809 20.7544 5.38949 20.8336C5.49807 20.9128 5.62149 20.9692 5.75238 20.9996C5.88328 21.03 6.01895 21.0338 6.15131 21.0106C6.28367 20.9873 6.40999 20.9377 6.52274 20.8646C6.63548 20.7915 6.73233 20.6964 6.80751 20.585L9.08876 17.46C9.67865 18.1749 10.0009 19.0731 10 20ZM26 24C25.2077 23.9994 24.4335 23.7635 23.7755 23.3223C23.1174 22.8811 22.6052 22.2544 22.3038 21.5217C22.0024 20.7891 21.9254 19.9834 22.0825 19.2068C22.2396 18.4303 22.6238 17.7179 23.1863 17.16L25.1363 20.5C25.1971 20.6223 25.2824 20.7308 25.3869 20.8189C25.4913 20.9069 25.6127 20.9726 25.7435 21.012C25.8743 21.0513 26.0118 21.0634 26.1475 21.0475C26.2832 21.0317 26.4142 20.9882 26.5324 20.9198C26.6507 20.8513 26.7536 20.7594 26.8349 20.6496C26.9162 20.5399 26.9742 20.4146 27.0053 20.2816C27.0363 20.1485 27.0398 20.0105 27.0154 19.8761C26.9911 19.7417 26.9395 19.6137 26.8638 19.5L24.9125 16.1513C25.4627 15.9955 26.0399 15.9595 26.6052 16.0457C27.1705 16.132 27.7108 16.3384 28.1895 16.6511C28.6683 16.9639 29.0744 17.3756 29.3806 17.8586C29.6867 18.3416 29.8857 18.8846 29.9642 19.451C30.0427 20.0174 29.9988 20.5941 29.8355 21.1421C29.6722 21.6902 29.3934 22.1968 29.0177 22.6279C28.642 23.0591 28.1782 23.4046 27.6577 23.6413C27.1371 23.878 26.5718 24.0003 26 24Z" fill="black"/>
</g>
<defs>
<clipPath id="clip0_5462_27928">
<rect width="32" height="32" fill="white"/>
</clipPath>
</defs>
</svg>
