<svg width="32" height="32" viewBox="0 0 32 32" fill="none" xmlns="http://www.w3.org/2000/svg">
<path fill-rule="evenodd" clip-rule="evenodd" d="M7.54671 8.96097C5.95662 10.8685 5 13.3225 5 16C5 22.0751 9.92487 27 16 27C18.6775 27 21.1315 26.0434 23.039 24.4533L7.54671 8.96097ZM6.74869 6.86691C4.4308 9.21461 3 12.4402 3 16C3 23.1797 8.8203 29 16 29C19.5601 29 22.786 27.5689 25.1338 25.2506C25.1546 25.2329 25.1749 25.2143 25.1946 25.1946C25.2142 25.1749 25.2329 25.1547 25.2506 25.1338C27.5689 22.7861 29 19.5602 29 16C29 8.8203 23.1797 3 16 3C12.4402 3 9.21456 4.43082 6.86686 6.74874C6.84577 6.76661 6.82524 6.78549 6.80534 6.80539C6.78545 6.82529 6.76656 6.84581 6.74869 6.86691ZM8.96092 7.54675L24.4532 23.0391C26.0434 21.1316 27 18.6775 27 16C27 9.92487 22.0751 5 16 5C13.3225 5 10.8684 5.95663 8.96092 7.54675Z" fill="black"/>
</svg>
