<svg width="32" height="32" viewBox="0 0 32 32" fill="none" xmlns="http://www.w3.org/2000/svg">
<path d="M20 5C20 4.20887 19.7654 3.43552 19.3259 2.77772C18.8864 2.11992 18.2617 1.60723 17.5308 1.30448C16.7998 1.00173 15.9956 0.922518 15.2197 1.07686C14.4437 1.2312 13.731 1.61216 13.1716 2.17157C12.6122 2.73098 12.2312 3.44371 12.0769 4.21964C11.9225 4.99556 12.0018 5.79983 12.3045 6.53073C12.6073 7.26164 13.1199 7.88635 13.7777 8.32588C14.4355 8.7654 15.2089 9 16 9C17.0609 9 18.0783 8.57857 18.8284 7.82843C19.5786 7.07828 20 6.06087 20 5ZM16 7C15.6045 7 15.2178 6.8827 14.8889 6.66294C14.56 6.44318 14.3036 6.13082 14.1523 5.76537C14.0009 5.39991 13.9613 4.99778 14.0385 4.60982C14.1156 4.22186 14.3061 3.86549 14.5858 3.58579C14.8655 3.30608 15.2219 3.1156 15.6098 3.03843C15.9978 2.96126 16.3999 3.00087 16.7654 3.15224C17.1308 3.30362 17.4432 3.55996 17.663 3.88886C17.8827 4.21776 18 4.60444 18 5C18 5.53043 17.7893 6.03914 17.4142 6.41421C17.0392 6.78929 16.5305 7 16 7ZM27.2925 16.7563L21.6463 10.3538C21.2709 9.92821 20.8092 9.58743 20.292 9.35402C19.7747 9.12062 19.2137 8.99994 18.6463 9H13.3538C12.7863 8.99994 12.2253 9.12062 11.7081 9.35402C11.1908 9.58743 10.7292 9.92821 10.3538 10.3538L4.70752 16.7563C4.24899 17.2252 3.99312 17.8556 3.99507 18.5115C3.99702 19.1673 4.25663 19.7962 4.71794 20.2624C5.17925 20.7286 5.80529 20.9949 6.46111 21.0038C7.11692 21.0127 7.74997 20.7635 8.22377 20.31L10.2613 18.675L8.19377 26.535C7.91994 27.1392 7.89733 27.8274 8.13093 28.4483C8.36453 29.0692 8.8352 29.5718 9.4394 29.8456C10.0436 30.1195 10.7318 30.1421 11.3527 29.9085C11.9735 29.6749 12.4762 29.2042 12.75 28.6L16 22.9912L19.25 28.6C19.5361 29.1839 20.0384 29.6334 20.6504 29.8531C21.2624 30.0728 21.9359 30.0454 22.528 29.7767C23.1202 29.5081 23.5843 29.0193 23.822 28.4141C24.0597 27.8088 24.0523 27.1348 23.8013 26.535L21.7388 18.675L23.7763 20.31C24.2501 20.7635 24.8831 21.0127 25.5389 21.0038C26.1947 20.9949 26.8208 20.7286 27.2821 20.2624C27.7434 19.7962 28.003 19.1673 28.005 18.5115C28.0069 17.8556 27.751 17.2252 27.2925 16.7563ZM25.8538 18.8525C25.8073 18.899 25.7522 18.9359 25.6915 18.961C25.6308 18.9862 25.5657 18.9991 25.5 18.9991C25.4343 18.9991 25.3692 18.9862 25.3085 18.961C25.2479 18.9359 25.1927 18.899 25.1463 18.8525C25.12 18.8275 25.0938 18.8025 25.065 18.78L20.625 15.22C20.4612 15.0892 20.2603 15.0132 20.0509 15.0028C19.8415 14.9923 19.6341 15.048 19.4581 15.1619C19.282 15.2757 19.1462 15.4421 19.0699 15.6373C18.9935 15.8326 18.9804 16.0469 19.0325 16.25L21.8925 27.125C21.9072 27.183 21.9273 27.2395 21.9525 27.2938C21.9814 27.3534 21.9981 27.4182 22.0017 27.4844C22.0053 27.5505 21.9957 27.6167 21.9735 27.6792C21.9512 27.7416 21.9168 27.799 21.8722 27.848C21.8276 27.897 21.7737 27.9367 21.7137 27.9647C21.6536 27.9927 21.5886 28.0084 21.5224 28.0111C21.4562 28.0137 21.3901 28.0032 21.328 27.9801C21.2659 27.957 21.209 27.9217 21.1607 27.8764C21.1123 27.8312 21.0734 27.7767 21.0463 27.7162C21.034 27.6892 21.0203 27.6629 21.005 27.6375L16.865 20.5C16.7771 20.3485 16.6509 20.2227 16.4991 20.1352C16.3473 20.0478 16.1752 20.0018 16 20.0018C15.8248 20.0018 15.6527 20.0478 15.5009 20.1352C15.3491 20.2227 15.2229 20.3485 15.135 20.5L11 27.6313C10.9848 27.6567 10.971 27.683 10.9588 27.71C10.931 27.7696 10.8918 27.8231 10.8433 27.8675C10.7948 27.9119 10.7381 27.9463 10.6763 27.9688C10.5833 28.0028 10.4823 28.0085 10.3861 27.9851C10.2898 27.9617 10.2027 27.9103 10.1358 27.8373C10.0688 27.7643 10.025 27.6731 10.01 27.5752C9.99496 27.4774 10.0093 27.3772 10.0513 27.2875C10.0765 27.2332 10.0965 27.1767 10.1113 27.1187L12.9675 16.25C13.0196 16.0469 13.0066 15.8326 12.9302 15.6373C12.8538 15.4421 12.718 15.2757 12.542 15.1619C12.3659 15.048 12.1585 14.9923 11.9491 15.0028C11.7397 15.0132 11.5389 15.0892 11.375 15.22L6.93502 18.78C6.90627 18.8025 6.88002 18.8275 6.85377 18.8525C6.80785 18.9009 6.75269 18.9397 6.69156 18.9664C6.63043 18.9932 6.56455 19.0075 6.49782 19.0084C6.43109 19.0093 6.36485 18.9968 6.30301 18.9718C6.24117 18.9467 6.18497 18.9094 6.13774 18.8623C6.09051 18.8151 6.05319 18.759 6.028 18.6972C6.0028 18.6354 5.99022 18.5692 5.99102 18.5025C5.99181 18.4357 6.00596 18.3698 6.03262 18.3087C6.05929 18.2475 6.09793 18.1923 6.14627 18.1462C6.16127 18.1313 6.17502 18.1163 6.18877 18.1L11.8538 11.6763C12.0415 11.4636 12.2724 11.2933 12.531 11.1767C12.7896 11.0601 13.0701 10.9999 13.3538 11H18.6463C18.93 10.9999 19.2104 11.0601 19.469 11.1767C19.7277 11.2933 19.9585 11.4636 20.1463 11.6763L25.8113 18.1C25.825 18.1163 25.8388 18.1313 25.8538 18.1462C25.9473 18.24 25.9998 18.367 25.9998 18.4994C25.9998 18.6318 25.9473 18.7588 25.8538 18.8525Z" fill="black"/>
</svg>
