<svg width="32" height="32" viewBox="0 0 32 32" fill="none" xmlns="http://www.w3.org/2000/svg">
<path fill-rule="evenodd" clip-rule="evenodd" d="M2.58579 6.58579C2.96086 6.21071 3.46957 6 4 6H12C13.3261 6 14.5979 6.52678 15.5355 7.46447C15.7038 7.63275 15.8589 7.81178 16 7.99997C16.1411 7.81178 16.2962 7.63275 16.4645 7.46447C17.4021 6.52678 18.6739 6 20 6H28C28.5304 6 29.0391 6.21071 29.4142 6.58579C29.7893 6.96086 30 7.46957 30 8V24C30 24.5304 29.7893 25.0391 29.4142 25.4142C29.0391 25.7893 28.5304 26 28 26H20C19.2044 26 18.4413 26.3161 17.8787 26.8787C17.3161 27.4413 17 28.2044 17 29C17 29.5523 16.5523 30 16 30C15.4477 30 15 29.5523 15 29C15 28.2044 14.6839 27.4413 14.1213 26.8787C13.5587 26.3161 12.7956 26 12 26H4C3.46957 26 2.96086 25.7893 2.58579 25.4142C2.21071 25.0391 2 24.5304 2 24V8C2 7.46957 2.21071 6.96086 2.58579 6.58579ZM15 25C14.1396 24.3547 13.0881 24 12 24H4V8L12 8C12.7957 8 13.5587 8.31607 14.1213 8.87868C14.6839 9.44129 15 10.2044 15 11V25ZM17 25C17.8604 24.3547 18.9119 24 20 24H28V8H20C19.2044 8 18.4413 8.31607 17.8787 8.87868C17.3161 9.44129 17 10.2044 17 11V25Z" fill="black"/>
</svg>
