<svg width="32" height="32" viewBox="0 0 32 32" fill="none" xmlns="http://www.w3.org/2000/svg">
<path fill-rule="evenodd" clip-rule="evenodd" d="M15 7H13C11.9391 7 10.9217 7.42143 10.1716 8.17157C9.42143 8.92172 9 9.93913 9 11V12.101C8.04656 12.2956 7.16285 12.7661 6.46447 13.4645C5.52678 14.4021 5 15.6739 5 17V27C5 27.5304 5.21071 28.0391 5.58579 28.4142C5.96086 28.7893 6.46957 29 7 29H25C25.5304 29 26.0391 28.7893 26.4142 28.4142C26.7893 28.0391 27 27.5304 27 27V17C27 15.6739 26.4732 14.4021 25.5355 13.4645C24.8372 12.7661 23.9534 12.2956 23 12.101V11C23 9.93913 22.5786 8.92172 21.8284 8.17157C21.0783 7.42143 20.0609 7 19 7H17V4H21C21.2652 4 21.5196 4.10536 21.7071 4.29289C21.8946 4.48043 22 4.73478 22 5C22 5.26522 22.1054 5.51957 22.2929 5.70711C22.4804 5.89464 22.7348 6 23 6C23.2652 6 23.5196 5.89464 23.7071 5.70711C23.8946 5.51957 24 5.26522 24 5C24 4.20435 23.6839 3.44129 23.1213 2.87868C22.5587 2.31607 21.7956 2 21 2H13C12.7348 2 12.4804 2.10536 12.2929 2.29289C12.1054 2.48043 12 2.73478 12 3C12 3.26522 12.1054 3.51957 12.2929 3.70711C12.4804 3.89464 12.7348 4 13 4H15V7ZM13 9C12.4696 9 11.9609 9.21071 11.5858 9.58579C11.2107 9.96086 11 10.4696 11 11V12H21V11C21 10.4696 20.7893 9.96086 20.4142 9.58579C20.0391 9.21071 19.5304 9 19 9H13ZM24.1213 14.8787C23.5587 14.3161 22.7956 14 22 14H10C9.20435 14 8.44129 14.3161 7.87868 14.8787C7.31607 15.4413 7 16.2044 7 17V27H25V17C25 16.2044 24.6839 15.4413 24.1213 14.8787Z" fill="black"/>
</svg>
