<svg width="32" height="32" viewBox="0 0 32 32" fill="none" xmlns="http://www.w3.org/2000/svg">
<path fill-rule="evenodd" clip-rule="evenodd" d="M7.21596 4.59081C7.96618 4.18965 8.89181 4 10 4C10.5523 4 11 4.44772 11 5C11 5.55228 10.5523 6 10 6C9.10819 6 8.53382 6.1541 8.15904 6.3545C7.80109 6.54591 7.56718 6.80983 7.39981 7.15502C7.02095 7.93644 7 9.05051 7 10.5C7 10.5408 7.00002 10.5819 7.00004 10.6233C7.00068 11.9028 7.00147 13.4766 6.39981 14.7175C6.16536 15.2011 5.83977 15.6396 5.3994 16C5.83977 16.3604 6.16536 16.7989 6.39981 17.2825C7.00147 18.5234 7.00068 20.0972 7.00004 21.3767C7.00002 21.4181 7 21.4592 7 21.5C7 22.9495 7.02095 24.0636 7.39981 24.845C7.56718 25.1902 7.80109 25.4541 8.15904 25.6455C8.53382 25.8459 9.10819 26 10 26C10.5523 26 11 26.4477 11 27C11 27.5523 10.5523 28 10 28C8.89181 28 7.96618 27.8103 7.21596 27.4092C6.44891 26.999 5.93282 26.4036 5.60019 25.7175C4.99853 24.4766 4.99932 22.9028 4.99996 21.6233C4.99998 21.5819 5 21.5408 5 21.5C5 20.0505 4.97905 18.9364 4.60019 18.155C4.43282 17.8098 4.19891 17.5459 3.84096 17.3545C3.46618 17.1541 2.89181 17 2 17C1.44772 17 1 16.5523 1 16C1 15.4477 1.44772 15 2 15C2.89181 15 3.46618 14.8459 3.84096 14.6455C4.19891 14.4541 4.43282 14.1902 4.60019 13.845C4.97905 13.0636 5 11.9495 5 10.5C5 10.4592 4.99998 10.4181 4.99996 10.3767C4.99932 9.09725 4.99853 7.52339 5.60019 6.28248C5.93282 5.59642 6.44891 5.00097 7.21596 4.59081ZM21 5C21 4.44772 21.4477 4 22 4C23.1082 4 24.0338 4.18965 24.784 4.59081C25.5511 5.00097 26.0672 5.59642 26.3998 6.28248C27.0015 7.52339 27.0007 9.09725 27 10.3767C27 10.4181 27 10.4592 27 10.5C27 11.9495 27.0209 13.0636 27.3998 13.845C27.5672 14.1902 27.8011 14.4541 28.159 14.6455C28.5338 14.8459 29.1082 15 30 15C30.5523 15 31 15.4477 31 16C31 16.5523 30.5523 17 30 17C29.1082 17 28.5338 17.1541 28.159 17.3545C27.8011 17.5459 27.5672 17.8098 27.3998 18.155C27.0209 18.9364 27 20.0505 27 21.5C27 21.5408 27 21.5819 27 21.6233C27.0007 22.9028 27.0015 24.4766 26.3998 25.7175C26.0672 26.4036 25.5511 26.999 24.784 27.4092C24.0338 27.8103 23.1082 28 22 28C21.4477 28 21 27.5523 21 27C21 26.4477 21.4477 26 22 26C22.8918 26 23.4662 25.8459 23.841 25.6455C24.1989 25.4541 24.4328 25.1902 24.6002 24.845C24.9791 24.0636 25 22.9495 25 21.5C25 21.4592 25 21.4181 25 21.3767C24.9993 20.0973 24.9985 18.5234 25.6002 17.2825C25.8346 16.7989 26.1602 16.3604 26.6006 16C26.1602 15.6396 25.8346 15.2011 25.6002 14.7175C24.9985 13.4766 24.9993 11.9027 25 10.6233C25 10.5819 25 10.5408 25 10.5C25 9.05051 24.9791 7.93644 24.6002 7.15502C24.4328 6.80983 24.1989 6.54591 23.841 6.3545C23.4662 6.1541 22.8918 6 22 6C21.4477 6 21 5.55228 21 5Z" fill="black"/>
</svg>
