<svg width="32" height="32" viewBox="0 0 32 32" fill="none" xmlns="http://www.w3.org/2000/svg">
<path fill-rule="evenodd" clip-rule="evenodd" d="M13 4C12.2044 4 11.4413 4.31607 10.8787 4.87868C10.3161 5.44129 10 6.20435 10 7V8H5C3.89543 8 3 8.89543 3 10V26C3 27.1046 3.89543 28 5 28H27C28.1046 28 29 27.1046 29 26V10C29 8.89543 28.1046 8 27 8H22V7C22 6.20435 21.6839 5.44129 21.1213 4.87868C20.5587 4.31607 19.7956 4 19 4H13ZM5 10V15.2033C8.36857 17.0465 12.1514 18.01 15.9974 18C19.8433 18.0046 23.6291 17.0411 27 15.2024V10H5ZM12 8H20V7C20 6.73478 19.8946 6.48043 19.7071 6.29289C19.5196 6.10536 19.2652 6 19 6H13C12.7348 6 12.4804 6.10536 12.2929 6.29289C12.1054 6.48043 12 6.73478 12 7V8ZM27 17.454C23.5835 19.1299 19.8211 20.0043 16.0007 20C12.1794 20.0097 8.41548 19.1358 5 17.4562V26H27V17.454Z" fill="black"/>
<path d="M14.5 14C13.9477 14 13.5 14.4477 13.5 15C13.5 15.5523 13.9477 16 14.5 16H17.5C18.0523 16 18.5 15.5523 18.5 15C18.5 14.4477 18.0523 14 17.5 14H14.5Z" fill="black"/>
</svg>
