<svg width="32" height="32" viewBox="0 0 32 32" fill="none" xmlns="http://www.w3.org/2000/svg">
<path d="M29.4375 27.1012C26.6175 25.7262 25 22.7787 25 19.0012V16.8412C25.0011 16.4405 24.8813 16.0488 24.6563 15.7172C24.4313 15.3856 24.1115 15.1296 23.7387 14.9825L20.625 13.75C20.38 13.652 20.1837 13.4612 20.0788 13.2191C19.9739 12.977 19.969 12.7032 20.065 12.4575L22.73 5.8325C22.9109 5.39767 23.0021 4.93082 22.9983 4.4599C22.9945 3.98897 22.8956 3.52366 22.7077 3.09183C22.5198 2.66 22.2467 2.27053 21.9047 1.94675C21.5627 1.62297 21.1589 1.37153 20.7175 1.2075C19.8577 0.892455 18.9089 0.925142 18.0728 1.29861C17.2367 1.67208 16.5792 2.35689 16.24 3.2075C16.2395 3.21249 16.2395 3.21751 16.24 3.2225L13.6125 9.875C13.5148 10.1211 13.3234 10.3184 13.0804 10.4236C12.8374 10.5289 12.5626 10.5334 12.3162 10.4362L9.13875 9.1425C8.77239 8.99405 8.37007 8.95828 7.98328 9.03978C7.59648 9.12129 7.2428 9.31634 6.9675 9.6C4.335 12.3062 3 15.4688 3 19C2.99308 22.6136 4.39058 26.0886 6.8975 28.6912C6.99142 28.7894 7.10437 28.8675 7.22945 28.9205C7.35453 28.9736 7.48912 29.0007 7.625 29H29C29.226 28.9998 29.4453 28.923 29.6221 28.7822C29.7989 28.6413 29.9228 28.4448 29.9735 28.2245C30.0243 28.0043 29.9989 27.7733 29.9015 27.5693C29.8042 27.3654 29.6406 27.2004 29.4375 27.1012ZM8.3925 11L11.5687 12.2875C11.9354 12.4342 12.3274 12.507 12.7222 12.5019C13.1171 12.4967 13.507 12.4137 13.8697 12.2575C14.2324 12.1013 14.5607 11.875 14.8357 11.5916C15.1108 11.3083 15.3272 10.9734 15.4725 10.6062L18.0975 3.98125C18.4175 3.2175 19.2812 2.8225 20.0262 3.10625C20.2162 3.17672 20.3899 3.28494 20.5368 3.42437C20.6838 3.5638 20.801 3.73156 20.8814 3.91752C20.9618 4.10349 21.0036 4.3038 21.0044 4.50639C21.0053 4.70897 20.9651 4.90963 20.8862 5.09625L18.2112 11.72C17.9184 12.4588 17.9307 13.2837 18.2454 14.0135C18.5602 14.7433 19.1516 15.3184 19.89 15.6125L23 16.8412V19C23 19.0413 23 19.0825 23 19.125L6.97125 12.7137C7.39738 12.1046 7.87272 11.5315 8.3925 11ZM14.3925 27C12.9036 25.5718 11.8489 23.7518 11.35 21.75C11.2805 21.4968 11.1141 21.2811 10.8869 21.1495C10.6597 21.0179 10.3899 20.9809 10.1357 21.0466C9.88144 21.1122 9.66323 21.2752 9.52816 21.5004C9.39309 21.7255 9.35199 21.9948 9.41374 22.25C9.84991 23.9721 10.6306 25.588 11.7087 27H8.055C6.08272 24.8027 4.99436 21.9526 4.99999 19C4.98776 17.4356 5.31754 15.8874 5.96624 14.4637L23.1912 21.3538C23.5662 23.6038 24.5112 25.5388 25.9275 26.9988L14.3925 27Z" fill="black"/>
</svg>
