<svg width="32" height="32" viewBox="0 0 32 32" fill="none" xmlns="http://www.w3.org/2000/svg">
<path fill-rule="evenodd" clip-rule="evenodd" d="M22.555 3.2622C20.6501 1.95558 18.3822 1.2818 16.0729 1.33641C10.1001 1.47417 5.30667 6.43597 5.33345 12.4019C5.33888 14.0617 5.722 15.6985 6.45378 17.1883C7.18504 18.677 8.2453 19.9799 9.55432 20.9984C9.79498 21.1885 9.98993 21.4303 10.1248 21.7057C10.2596 21.9812 10.3309 22.2833 10.3334 22.5899V23.3361C10.3334 23.8666 10.5442 24.3753 10.9192 24.7504C11.2943 25.1254 11.803 25.3361 12.3334 25.3361H20.3334C20.8639 25.3361 21.3726 25.1254 21.7477 24.7504C22.1227 24.3753 22.3334 23.8666 22.3334 23.3361V22.5872C22.3342 22.2788 22.4054 21.9746 22.5416 21.6978C22.6779 21.4208 22.8817 21.174 23.126 20.9852C24.943 19.5585 26.2648 17.596 26.9038 15.3759C27.5428 13.1559 27.4666 10.791 26.686 8.61666C25.9054 6.44233 24.4601 4.56895 22.555 3.2622ZM21.4237 4.9115C19.865 3.84234 18.0093 3.29107 16.1196 3.33586C11.2431 3.44823 7.31093 7.51066 7.33343 12.394C7.33787 13.7503 7.65094 15.0891 8.24891 16.3065C8.84688 17.5239 9.71406 18.5892 10.7848 19.4217C11.2622 19.7978 11.6539 20.2805 11.9211 20.8265C12.1884 21.3724 12.3293 21.9715 12.3334 22.5793L12.3334 23.3361H20.3334L20.3334 22.5842C20.3346 21.9705 20.4761 21.3653 20.7471 20.8147C21.0174 20.2654 21.4095 19.785 21.8935 19.4101C23.3788 18.243 24.4593 16.6381 24.9818 14.8227C25.5046 13.0063 25.4423 11.0714 24.8036 9.29242C24.165 7.51342 22.9825 5.98066 21.4237 4.9115Z" fill="black"/>
<path fill-rule="evenodd" clip-rule="evenodd" d="M11.3333 27.3361C10.7811 27.3361 10.3333 27.7839 10.3333 28.3361C10.3333 28.8884 10.7811 29.3361 11.3333 29.3361H21.3333C21.8856 29.3361 22.3333 28.8884 22.3333 28.3361C22.3333 27.7839 21.8856 27.3361 21.3333 27.3361H11.3333Z" fill="black"/>
<path d="M17.5129 5.45021C16.9684 5.3579 16.4522 5.72449 16.3599 6.26901C16.2675 6.81353 16.6341 7.32977 17.1787 7.42208C18.1967 7.59466 19.1362 8.079 19.8673 8.80823C20.5984 9.53747 21.0851 10.4756 21.2603 11.4933C21.354 12.0376 21.8712 12.4028 22.4154 12.3092C22.9597 12.2155 23.325 11.6983 23.2313 11.154C22.9859 9.72827 22.3039 8.41387 21.2797 7.39221C20.2554 6.37055 18.9393 5.692 17.5129 5.45021Z" fill="black"/>
</svg>
