<svg width="32" height="32" viewBox="0 0 32 32" fill="none" xmlns="http://www.w3.org/2000/svg">
<path fill-rule="evenodd" clip-rule="evenodd" d="M3.25245 5.91912C3.62752 5.54405 4.13623 5.33333 4.66666 5.33333L27.3333 5.33333C27.8638 5.33333 28.3725 5.54405 28.7475 5.91912C29.1226 6.29419 29.3333 6.8029 29.3333 7.33333V14.3333C29.3333 14.8856 28.8856 15.3333 28.3333 15.3333C27.781 15.3333 27.3333 14.8856 27.3333 14.3333V7.33333L4.66666 7.33333L4.66666 24.3333H12C12.5523 24.3333 13 24.781 13 25.3333C13 25.8856 12.5523 26.3333 12 26.3333H4.66666C4.13623 26.3333 3.62752 26.1226 3.25245 25.7475C2.87738 25.3725 2.66666 24.8638 2.66666 24.3333V7.33333C2.66666 6.8029 2.87738 6.29419 3.25245 5.91912Z" fill="black"/>
<path fill-rule="evenodd" clip-rule="evenodd" d="M19.0009 17.0684C18.7323 16.9858 18.4463 16.9778 18.1735 17.0455C17.9008 17.1132 17.6516 17.254 17.4529 17.4527C17.2541 17.6514 17.1133 17.9006 17.0456 18.1734C16.9778 18.4462 16.9857 18.7323 17.0685 19.0009C18.2597 22.6512 19.3967 26.3247 20.6438 29.9563C20.7443 30.249 20.9304 30.5048 21.1779 30.6905C21.4254 30.8763 21.723 30.9835 22.0321 30.9982C22.3412 31.013 22.6476 30.9347 22.9117 30.7734C23.2149 30.5883 23.4787 30.2828 23.5703 29.9337L24.8927 24.8938L29.9335 23.5716C30.2826 23.48 30.5881 23.2163 30.7733 22.9131C30.9347 22.649 31.013 22.3426 30.9982 22.0334C30.9834 21.7243 30.8762 21.4267 30.6904 21.1792C30.5046 20.9317 30.2488 20.7457 29.9561 20.6452L19.0009 17.0684C19.0063 17.0702 18.9955 17.0667 19.0009 17.0684ZM22.0541 27.8318L19.2551 19.2552L27.8315 22.0553L23.8201 23.1075C23.4709 23.1991 23.1982 23.4718 23.1065 23.821L22.0541 27.8318Z" fill="black"/>
</svg>
