<svg width="32" height="32" viewBox="0 0 32 32" fill="none" xmlns="http://www.w3.org/2000/svg">
<path fill-rule="evenodd" clip-rule="evenodd" d="M17 8.67986C18.22 8.13399 19.0257 7.37511 19.3769 6.402C19.7791 5.28785 19.4799 4.17499 19.0667 3.31635C18.6469 2.44411 18.0354 1.67543 17.5545 1.14257C17.3099 0.871512 17.0896 0.651031 16.929 0.497017C16.8486 0.419841 16.7826 0.358894 16.7355 0.31615C16.7119 0.294766 16.6931 0.277901 16.6794 0.2658L16.6629 0.25124L16.6577 0.246689L16.6551 0.244488C16.2849 -0.0760825 15.7348 -0.0805263 15.3585 0.232872L15.3566 0.234431L15.3513 0.238932L15.3342 0.253389C15.3201 0.26542 15.3006 0.282215 15.2762 0.303528C15.2274 0.346128 15.1591 0.406925 15.0756 0.483946C14.9091 0.637648 14.6805 0.85781 14.4267 1.12856C13.9281 1.66043 13.2924 2.42912 12.8556 3.30279C12.4258 4.16234 12.1098 5.28661 12.5324 6.41362C12.8999 7.39362 13.7385 8.14879 15 8.6899V10H6.25191C5.72623 9.99809 5.20535 10.1002 4.71925 10.3003C4.23244 10.5008 3.79014 10.7956 3.41788 11.1679C3.04562 11.5401 2.75076 11.9824 2.55031 12.4692C2.35015 12.9554 2.24809 13.4762 2.25 14.0019V15.6625C2.25 17.2142 2.92292 18.6415 4 19.629V26C4 26.5304 4.21071 27.0391 4.58578 27.4142C4.96086 27.7893 5.46956 28 6 28H26C26.5304 28 27.0391 27.7893 27.4142 27.4142C27.7893 27.0391 28 26.5304 28 26V19.629C29.0771 18.6415 29.75 17.2142 29.75 15.6625V14.0023C29.7519 13.4765 29.6499 12.9555 29.4497 12.4692C29.2492 11.9824 28.9544 11.5401 28.5821 11.1679C28.2098 10.7956 27.7675 10.5008 27.2807 10.3003C26.7946 10.1002 26.2738 9.99809 25.7481 10H17V8.67986ZM20.2497 18.8327C20.0884 19.055 19.909 19.2656 19.7123 19.4623C18.7277 20.4469 17.3924 21 16 21C14.6076 21 13.2723 20.4469 12.2877 19.4623C12.091 19.2657 11.9116 19.055 11.7503 18.8327C11.5995 19.0407 11.4327 19.2386 11.2507 19.4244C10.2895 20.4058 8.98187 20.9714 7.60843 20.9998C7.04722 21.0115 6.50706 20.9328 6 20.7778V26H26V20.7778C25.4929 20.9328 24.9528 21.0115 24.3916 20.9998C23.0181 20.9714 21.7105 20.4058 20.7493 19.4244C20.5673 19.2386 20.4005 19.0407 20.2497 18.8327Z" fill="black"/>
</svg>
