<svg width="32" height="32" viewBox="0 0 32 32" fill="none" xmlns="http://www.w3.org/2000/svg">
<path fill-rule="evenodd" clip-rule="evenodd" d="M4 5C4 4.44772 4.44772 4 5 4H27C27.5523 4 28 4.44772 28 5C28 5.55228 27.5523 6 27 6H5C4.44772 6 4 5.55228 4 5ZM4 11C4 9.89543 4.89543 9 6 9H26C27.1046 9 28 9.89543 28 11V21C28 22.1046 27.1046 23 26 23H6C4.89543 23 4 22.1046 4 21V11ZM26 11H6V21H26V11ZM4 27C4 26.4477 4.44772 26 5 26H27C27.5523 26 28 26.4477 28 27C28 27.5523 27.5523 28 27 28H5C4.44772 28 4 27.5523 4 27Z" fill="black"/>
</svg>
