<svg width="32" height="32" viewBox="0 0 32 32" fill="none" xmlns="http://www.w3.org/2000/svg">
<path fill-rule="evenodd" clip-rule="evenodd" d="M10 2C10.5523 2 11 2.44772 11 3V4H21V3C21 2.44772 21.4477 2 22 2C22.5523 2 23 2.44772 23 3V4H26C27.1046 4 28 4.89543 28 6V12C28 12.5523 27.5523 13 27 13C26.4477 13 26 12.5523 26 12H6V26H12C12.5523 26 13 26.4477 13 27C13 27.5523 12.5523 28 12 28H6C4.89543 28 4 27.1046 4 26V6C4 4.89543 4.89543 4 6 4H9V3C9 2.44772 9.44772 2 10 2ZM9 6H6V10H26V6H23V7C23 7.55229 22.5523 8 22 8C21.4477 8 21 7.55229 21 7V6H11V7C11 7.55229 10.5523 8 10 8C9.44772 8 9 7.55229 9 7V6ZM23.7213 17.3544C22.6705 17.145 21.5811 17.2521 20.5911 17.6619C19.6011 18.0717 18.7549 18.766 18.1595 19.6569C17.5641 20.5477 17.2463 21.5952 17.2463 22.6667C17.2463 23.7382 17.5641 24.7856 18.1595 25.6765C18.7549 26.5673 19.6011 27.2616 20.5911 27.6714C21.5811 28.0813 22.6705 28.1883 23.7213 27.9789C24.7722 27.7696 25.7373 27.2532 26.4947 26.4953C26.8851 26.1046 27.5182 26.1043 27.9089 26.4947C28.2996 26.8851 28.2998 27.5182 27.9095 27.9089C26.8725 28.9467 25.551 29.6537 24.1121 29.9404C22.6733 30.227 21.1817 30.0805 19.8261 29.5194C18.4706 28.9582 17.3119 28.0076 16.4967 26.7878C15.6814 25.568 15.2463 24.1338 15.2463 22.6667C15.2463 21.1995 15.6814 19.7654 16.4967 18.5456C17.3119 17.3258 18.4706 16.3752 19.8261 15.814C21.1817 15.2528 22.6733 15.1063 24.1121 15.393C25.5505 15.6795 26.8715 16.3861 27.9084 17.4233C27.9087 17.4237 27.9091 17.4241 27.9095 17.4244L28.6812 18.1939V17.1031C28.6812 16.5508 29.129 16.1031 29.6812 16.1031C30.2335 16.1031 30.6812 16.5508 30.6812 17.1031V20.6031C30.6812 21.1554 30.2335 21.6031 29.6812 21.6031H26.1812C25.629 21.6031 25.1812 21.1554 25.1812 20.6031C25.1812 20.0508 25.629 19.6031 26.1812 19.6031H27.262L26.496 18.8394L26.4947 18.8381C25.7373 18.0801 24.7722 17.5638 23.7213 17.3544Z" fill="black"/>
</svg>
