<svg width="32" height="32" viewBox="0 0 32 32" fill="none" xmlns="http://www.w3.org/2000/svg">
<path fill-rule="evenodd" clip-rule="evenodd" d="M10 2C10.5523 2 11 2.44772 11 3V4H21V3C21 2.44772 21.4477 2 22 2C22.5523 2 23 2.44772 23 3V4H26C27.1046 4 28 4.89543 28 6V26C28 27.1046 27.1046 28 26 28H6C4.89543 28 4 27.1046 4 26V6C4 4.89543 4.89543 4 6 4H9V3C9 2.44772 9.44772 2 10 2ZM9 6H6V10H26V6H23V7C23 7.55228 22.5523 8 22 8C21.4477 8 21 7.55228 21 7V6H11V7C11 7.55228 10.5523 8 10 8C9.44772 8 9 7.55228 9 7V6ZM26 12H6V26H26V12ZM16 23.8107C16.5523 23.8107 17 23.363 17 22.8107V17.2249L18.7929 19.0178C19.1834 19.4083 19.8166 19.4083 20.2071 19.0178C20.5976 18.6273 20.5976 17.9941 20.2071 17.6036L16.7071 14.1036C16.3166 13.713 15.6834 13.713 15.2929 14.1036L11.7929 17.6036C11.4024 17.9941 11.4024 18.6273 11.7929 19.0178C12.1834 19.4083 12.8166 19.4083 13.2071 19.0178L15 17.2249V22.8107C15 23.363 15.4477 23.8107 16 23.8107Z" fill="black"/>
</svg>
