<svg width="32" height="32" viewBox="0 0 32 32" fill="none" xmlns="http://www.w3.org/2000/svg">
<path fill-rule="evenodd" clip-rule="evenodd" d="M10 2C10.5523 2 11 2.44772 11 3V4H21V3C21 2.44772 21.4477 2 22 2C22.5523 2 23 2.44772 23 3V4H26C27.1046 4 28 4.89543 28 6V26C28 27.1046 27.1046 28 26 28H6C4.89543 28 4 27.1046 4 26V6C4 4.89543 4.89543 4 6 4H9V3C9 2.44772 9.44772 2 10 2ZM9 6H6V10H26V6H23V7C23 7.55228 22.5523 8 22 8C21.4477 8 21 7.55228 21 7V6H11V7C11 7.55228 10.5523 8 10 8C9.44772 8 9 7.55228 9 7V6ZM26 12H6V26H26V12ZM12.2929 15.2929C12.6834 14.9024 13.3166 14.9024 13.7071 15.2929L16 17.5858L18.2929 15.2929C18.6834 14.9024 19.3166 14.9024 19.7071 15.2929C20.0976 15.6834 20.0976 16.3166 19.7071 16.7071L17.4142 19L19.7071 21.2929C20.0976 21.6834 20.0976 22.3166 19.7071 22.7071C19.3166 23.0976 18.6834 23.0976 18.2929 22.7071L16 20.4142L13.7071 22.7071C13.3166 23.0976 12.6834 23.0976 12.2929 22.7071C11.9024 22.3166 11.9024 21.6834 12.2929 21.2929L14.5858 19L12.2929 16.7071C11.9024 16.3166 11.9024 15.6834 12.2929 15.2929Z" fill="black"/>
</svg>
