<svg width="32" height="32" viewBox="0 0 32 32" fill="none" xmlns="http://www.w3.org/2000/svg">
<path fill-rule="evenodd" clip-rule="evenodd" d="M10 2C10.5523 2 11 2.44772 11 3V4H21V3C21 2.44772 21.4477 2 22 2C22.5523 2 23 2.44772 23 3V4H26C27.1046 4 28 4.89543 28 6V26C28 27.1046 27.1046 28 26 28H6C4.89543 28 4 27.1046 4 26V6C4 4.89543 4.89543 4 6 4H9V3C9 2.44772 9.44772 2 10 2ZM9 6H6V10H26V6H23V7C23 7.55228 22.5523 8 22 8C21.4477 8 21 7.55228 21 7V6H11V7C11 7.55228 10.5523 8 10 8C9.44772 8 9 7.55228 9 7V6ZM26 12H6V26H26V12ZM9 16C9 15.4477 9.44772 15 10 15H11C11.5523 15 12 15.4477 12 16C12 16.5523 11.5523 17 11 17H10C9.44772 17 9 16.5523 9 16ZM14.5 16C14.5 15.4477 14.9477 15 15.5 15H16.5C17.0523 15 17.5 15.4477 17.5 16C17.5 16.5523 17.0523 17 16.5 17H15.5C14.9477 17 14.5 16.5523 14.5 16ZM20 16C20 15.4477 20.4477 15 21 15H22C22.5523 15 23 15.4477 23 16C23 16.5523 22.5523 17 22 17H21C20.4477 17 20 16.5523 20 16ZM9 22C9 21.4477 9.44772 21 10 21H11C11.5523 21 12 21.4477 12 22C12 22.5523 11.5523 23 11 23H10C9.44772 23 9 22.5523 9 22ZM14.5 22C14.5 21.4477 14.9477 21 15.5 21H16.5C17.0523 21 17.5 21.4477 17.5 22C17.5 22.5523 17.0523 23 16.5 23H15.5C14.9477 23 14.5 22.5523 14.5 22ZM20 22C20 21.4477 20.4477 21 21 21H22C22.5523 21 23 21.4477 23 22C23 22.5523 22.5523 23 22 23H21C20.4477 23 20 22.5523 20 22Z" fill="black"/>
</svg>
