<svg width="32" height="32" viewBox="0 0 32 32" fill="none" xmlns="http://www.w3.org/2000/svg">
<path fill-rule="evenodd" clip-rule="evenodd" d="M10 2C10.5523 2 11 2.44772 11 3V4H21V3C21 2.44772 21.4477 2 22 2C22.5523 2 23 2.44772 23 3V4H26C27.1046 4 28 4.89543 28 6V26C28 27.1046 27.1046 28 26 28H6C4.89543 28 4 27.1046 4 26V6C4 4.89543 4.89543 4 6 4H9V3C9 2.44772 9.44772 2 10 2ZM9 6H6V10H26V6H23V7C23 7.55228 22.5523 8 22 8C21.4477 8 21 7.55228 21 7V6H11V7C11 7.55228 10.5523 8 10 8C9.44772 8 9 7.55228 9 7V6ZM26 12H6V26H26V12Z" fill="black"/>
<path d="M22.5569 14.3097C22.9381 14.7093 22.9232 15.3423 22.5236 15.7236L15.1861 22.7236C14.7995 23.0924 14.1912 23.0921 13.8049 22.723L10.1424 19.223C9.74317 18.8414 9.72881 18.2084 10.1104 17.8091C10.4919 17.4098 11.1249 17.3955 11.5242 17.777L14.4964 20.6174L21.1431 14.2765C21.5427 13.8952 22.1757 13.9101 22.5569 14.3097Z" fill="black"/>
</svg>
