<svg width="32" height="32" viewBox="0 0 32 32" fill="none" xmlns="http://www.w3.org/2000/svg">
<path fill-rule="evenodd" clip-rule="evenodd" d="M10 2C10.5523 2 11 2.44772 11 3V4H21V3C21 2.44772 21.4477 2 22 2C22.5523 2 23 2.44772 23 3V4H26C27.1046 4 28 4.89543 28 6V26C28 27.1046 27.1046 28 26 28H6C4.89543 28 4 27.1046 4 26V6C4 4.89543 4.89543 4 6 4H9V3C9 2.44772 9.44772 2 10 2ZM9 6H6V10H26V6H23V7C23 7.55228 22.5523 8 22 8C21.4477 8 21 7.55228 21 7V6H11V7C11 7.55228 10.5523 8 10 8C9.44772 8 9 7.55228 9 7V6ZM26 12H6V26H26V12Z" fill="black"/>
<path d="M9.70531 16.699C9.70531 16.3957 9.83964 16.166 10.1083 16.01L12.9553 14.424C13.094 14.3547 13.211 14.32 13.3063 14.32C13.4536 14.32 13.5793 14.3677 13.6833 14.463C13.7873 14.5497 13.8393 14.671 13.8393 14.827V22.757C13.8393 23.017 13.744 23.2423 13.5533 23.433C13.3713 23.615 13.1503 23.706 12.8903 23.706C12.6303 23.706 12.405 23.615 12.2143 23.433C12.0323 23.2423 11.9413 23.017 11.9413 22.757V16.842L10.9013 17.401C10.78 17.4703 10.6456 17.505 10.4983 17.505C10.2816 17.505 10.0953 17.427 9.93931 17.271C9.78331 17.115 9.70531 16.9243 9.70531 16.699Z" fill="black"/>
<path d="M15.9928 16.348C15.9928 16.1747 16.0318 16.0187 16.1098 15.88C16.3958 15.386 16.7815 15.0003 17.2668 14.723C17.7522 14.437 18.2722 14.294 18.8268 14.294C19.6935 14.294 20.3955 14.5497 20.9328 15.061C21.4702 15.5637 21.7388 16.2137 21.7388 17.011C21.7388 17.7823 21.4008 18.6187 20.7248 19.52L18.9308 21.886H21.2188C21.4442 21.886 21.6392 21.9683 21.8038 22.133C21.9685 22.2977 22.0508 22.4927 22.0508 22.718C22.0508 22.9433 21.9685 23.1383 21.8038 23.303C21.6392 23.4677 21.4442 23.55 21.2188 23.55H16.4348C16.2962 23.55 16.1792 23.5067 16.0838 23.42C15.9972 23.3247 15.9538 23.2077 15.9538 23.069C15.9538 22.9477 15.9885 22.8393 16.0578 22.744L18.9958 18.792C19.3078 18.376 19.5288 18.0423 19.6588 17.791C19.7888 17.531 19.8538 17.2753 19.8538 17.024C19.8538 16.7293 19.7628 16.491 19.5808 16.309C19.3988 16.127 19.1518 16.036 18.8398 16.036C18.3025 16.036 17.8908 16.257 17.6048 16.699C17.4142 17.011 17.1542 17.167 16.8248 17.167C16.5908 17.167 16.3915 17.089 16.2268 16.933C16.0708 16.777 15.9928 16.582 15.9928 16.348Z" fill="black"/>
</svg>
