<svg width="32" height="32" viewBox="0 0 32 32" fill="none" xmlns="http://www.w3.org/2000/svg">
<path fill-rule="evenodd" clip-rule="evenodd" d="M10 2C10.5523 2 11 2.44772 11 3V4H21V3C21 2.44772 21.4477 2 22 2C22.5523 2 23 2.44772 23 3V4H26C27.1046 4 28 4.89543 28 6V12C28 12.5523 27.5523 13 27 13C26.4477 13 26 12.5523 26 12H6V26H12C12.5523 26 13 26.4477 13 27C13 27.5523 12.5523 28 12 28H6C4.89543 28 4 27.1046 4 26V6C4 4.89543 4.89543 4 6 4H9V3C9 2.44772 9.44771 2 10 2ZM9 6H6V10H26V6H23V7C23 7.55228 22.5523 8 22 8C21.4477 8 21 7.55228 21 7V6H11V7C11 7.55228 10.5523 8 10 8C9.44771 8 9 7.55228 9 7V6ZM22.6667 16.6667C19.353 16.6667 16.6667 19.353 16.6667 22.6667C16.6667 25.9804 19.353 28.6667 22.6667 28.6667C25.9804 28.6667 28.6667 25.9804 28.6667 22.6667C28.6667 19.353 25.9804 16.6667 22.6667 16.6667ZM14.6667 22.6667C14.6667 18.2484 18.2484 14.6667 22.6667 14.6667C27.0849 14.6667 30.6667 18.2484 30.6667 22.6667C30.6667 27.0849 27.0849 30.6667 22.6667 30.6667C18.2484 30.6667 14.6667 27.0849 14.6667 22.6667ZM22.6667 18.5556C23.219 18.5556 23.6667 19.0033 23.6667 19.5556V21.6667H25.7778C26.3301 21.6667 26.7778 22.1144 26.7778 22.6667C26.7778 23.219 26.3301 23.6667 25.7778 23.6667H22.6667C22.1144 23.6667 21.6667 23.219 21.6667 22.6667V19.5556C21.6667 19.0033 22.1144 18.5556 22.6667 18.5556Z" fill="black"/>
</svg>
