<svg width="32" height="32" viewBox="0 0 32 32" fill="none" xmlns="http://www.w3.org/2000/svg">
<path fill-rule="evenodd" clip-rule="evenodd" d="M28 6H4C3.46957 6 2.96086 6.21071 2.58579 6.58579C2.21071 6.96086 2 7.46957 2 8V24C2 24.5304 2.21071 25.0391 2.58579 25.4142C2.96086 25.7893 3.46957 26 4 26H17.1491C16.4197 24.7937 16 23.3792 16 21.8667C16 17.4484 19.5817 13.8667 24 13.8667C26.3894 13.8667 28.5341 14.9142 30 16.5751V8C30 7.46957 29.7893 6.96086 29.4142 6.58579C29.0391 6.21071 28.5304 6 28 6ZM4 11V8H28V11H4Z" fill="black"/>
<path fill-rule="evenodd" clip-rule="evenodd" d="M30 21.8877C30 25.2014 27.3137 27.8877 24 27.8877C20.6863 27.8877 18 25.2014 18 21.8877C18 18.574 20.6863 15.8877 24 15.8877C27.3137 15.8877 30 18.574 30 21.8877ZM22.5858 19.0593C22.1953 18.6687 21.5622 18.6687 21.1716 19.0593C20.7811 19.4498 20.7811 20.083 21.1716 20.4735L22.5858 21.8877L21.1716 23.3019C20.7811 23.6924 20.7811 24.3256 21.1716 24.7161C21.5622 25.1066 22.1953 25.1066 22.5858 24.7161L24.0001 23.3019L25.4143 24.7161C25.8048 25.1066 26.438 25.1066 26.8285 24.7161C27.219 24.3256 27.219 23.6924 26.8285 23.3019L25.4143 21.8877L26.8285 20.4735C27.219 20.083 27.219 19.4498 26.8285 19.0593C26.438 18.6687 25.8048 18.6687 25.4143 19.0593L24.0001 20.4735L22.5858 19.0593Z" fill="black"/>
</svg>
