<svg width="32" height="32" viewBox="0 0 32 32" fill="none" xmlns="http://www.w3.org/2000/svg">
<path fill-rule="evenodd" clip-rule="evenodd" d="M29 9C29 7.34315 27.6569 6 26 6H6C4.34315 6 3 7.34315 3 9V23C3 24.6569 4.34315 26 6 26H26C27.6569 26 29 24.6569 29 23V9ZM6 8C5.44772 8 5 8.44772 5 9V9.99766L27 9.94613V9C27 8.44771 26.5523 8 26 8H6ZM27 11.9461L5 11.9977V14H11.1C11.5681 14 12.0081 14.1572 12.3662 14.451C12.7216 14.7426 12.9648 15.1483 13.0546 15.599C13.199 16.2715 13.5693 16.8745 14.1039 17.3076C14.6403 17.7421 15.3097 17.9791 16 17.9791C16.6903 17.9791 17.3597 17.7421 17.8961 17.3076C18.4307 16.8745 18.801 16.2715 18.9454 15.599C19.0352 15.1483 19.2784 14.7426 19.6338 14.451C20.0049 14.1465 20.483 14 20.9 14H27V11.9461ZM27 16H20.9097L20.9045 16.0013L20.9032 16.0077C20.6646 17.1313 20.0474 18.1388 19.1549 18.8617C18.2623 19.5847 17.1486 19.9791 16 19.9791C14.8514 19.9791 13.7377 19.5847 12.8451 18.8617C11.9526 18.1388 11.3354 17.1313 11.0968 16.0077L11.0952 16H5V23C5 23.5523 5.44771 24 6 24H26C26.5523 24 27 23.5523 27 23V16Z" fill="black"/>
</svg>
