<svg width="32" height="32" viewBox="0 0 32 32" fill="none" xmlns="http://www.w3.org/2000/svg">
<path fill-rule="evenodd" clip-rule="evenodd" d="M2 8C2 6.89543 2.89543 6 4 6H28C29.1046 6 30 6.89543 30 8V13.1125H4V24H11.6667C12.219 24 12.6667 24.4477 12.6667 25C12.6667 25.5523 12.219 26 11.6667 26H4C2.89543 26 2 25.1046 2 24V8ZM4 11.1125H28V8H4V11.1125Z" fill="black"/>
<path fill-rule="evenodd" clip-rule="evenodd" d="M23.8447 18.0805C23.0661 17.9227 22.2583 17.9979 21.5222 18.2966C20.786 18.5952 20.1543 19.1042 19.7058 19.7599C19.2573 20.4156 19.0119 21.1889 19.0004 21.9832C18.9889 22.7775 19.2117 23.5576 19.641 24.226C20.0703 24.8945 20.6871 25.4215 21.4142 25.7414C22.1414 26.0613 22.9467 26.1598 23.7295 26.0247C24.5123 25.8895 25.2379 25.5267 25.8157 24.9815C26.2174 24.6024 26.8503 24.6208 27.2293 25.0225C27.6084 25.4242 27.59 26.0571 27.1883 26.4361C26.3246 27.2511 25.2399 27.7935 24.0698 27.9955C22.8996 28.1976 21.6958 28.0503 20.6089 27.5721C19.5219 27.0939 18.6 26.306 17.9582 25.3069C17.3165 24.3077 16.9834 23.1416 17.0006 21.9542C17.0178 20.7669 17.3846 19.6109 18.055 18.6308C18.7254 17.6506 19.6698 16.8898 20.7702 16.4433C21.8706 15.9968 23.0781 15.8845 24.2419 16.1204C25.3982 16.3547 26.4604 16.9225 27.2976 17.7532L28 18.3961V17.9169C28 17.3646 28.4477 16.9169 29 16.9169C29.5523 16.9169 30 17.3646 30 17.9169V20.667C30 21.2193 29.5523 21.667 29 21.667H26.2499C25.6976 21.667 25.2499 21.2193 25.2499 20.667C25.2499 20.1147 25.6976 19.667 26.2499 19.667H26.4263L25.9317 19.2143C25.9208 19.2044 25.9102 19.1942 25.8998 19.1838C25.338 18.6221 24.6232 18.2383 23.8447 18.0805Z" fill="black"/>
</svg>
