<svg width="32" height="32" viewBox="0 0 32 32" fill="none" xmlns="http://www.w3.org/2000/svg">
<path fill-rule="evenodd" clip-rule="evenodd" d="M2 8C2 6.89543 2.89543 6 4 6H28C29.1046 6 30 6.89543 30 8V13.1125H4V24H11.6667C12.219 24 12.6667 24.4477 12.6667 25C12.6667 25.5523 12.219 26 11.6667 26H4C2.89543 26 2 25.1046 2 24V8ZM4 11.1125H28V8H4V11.1125Z" fill="black"/>
<path fill-rule="evenodd" clip-rule="evenodd" d="M24 16C24.5523 16 25 16.4477 25 17V21H29C29.5523 21 30 21.4477 30 22C30 22.5523 29.5523 23 29 23H25V27C25 27.5523 24.5523 28 24 28C23.4477 28 23 27.5523 23 27V23H19C18.4477 23 18 22.5523 18 22C18 21.4477 18.4477 21 19 21H23V17C23 16.4477 23.4477 16 24 16Z" fill="black"/>
</svg>
