<svg width="32" height="32" viewBox="0 0 32 32" fill="none" xmlns="http://www.w3.org/2000/svg">
<path fill-rule="evenodd" clip-rule="evenodd" d="M2 8C2 6.89543 2.89543 6 4 6H28C29.1046 6 30 6.89543 30 8V13.1125H4V24H11.6667C12.219 24 12.6667 24.4477 12.6667 25C12.6667 25.5523 12.219 26 11.6667 26H4C2.89543 26 2 25.1046 2 24V8ZM4 11.1125H28V8H4V11.1125Z" fill="black"/>
<path fill-rule="evenodd" clip-rule="evenodd" d="M24 18C21.7909 18 20 19.7909 20 22C20 24.2091 21.7909 26 24 26C26.2091 26 28 24.2091 28 22C28 19.7909 26.2091 18 24 18ZM18 22C18 18.6863 20.6863 16 24 16C27.3137 16 30 18.6863 30 22C30 25.3137 27.3137 28 24 28C20.6863 28 18 25.3137 18 22Z" fill="black"/>
</svg>
