<svg width="32" height="32" viewBox="0 0 32 32" fill="none" xmlns="http://www.w3.org/2000/svg">
<path fill-rule="evenodd" clip-rule="evenodd" d="M1 3C1 2.44772 1.44772 2 2 2H4.25625C4.72462 2.00007 5.17826 2.16452 5.53782 2.46468C5.89733 2.7648 6.14012 3.18158 6.22387 3.64235L8.65279 17H23.5124C23.7465 16.9999 23.9733 16.9177 24.1531 16.7677C24.3328 16.6176 24.4542 16.4092 24.4961 16.1788L26.0161 7.82106C26.115 7.27769 26.6356 6.91732 27.1789 7.01614C27.7223 7.11496 28.0827 7.63557 27.9839 8.17894L26.4639 16.5363C26.3383 17.2274 25.9741 17.8528 25.4348 18.303C24.8955 18.7532 24.2152 18.9999 23.5126 19H9.01647L9.41262 21.1786C9.45448 21.409 9.57591 21.6176 9.75568 21.7677C9.93542 21.9177 10.1621 21.9999 10.3962 22H22.5C24.433 22 26 23.567 26 25.5C26 27.433 24.433 29 22.5 29C20.567 29 19 27.433 19 25.5C19 24.9632 19.1208 24.4546 19.3368 24H13.6632C13.8792 24.4546 14 24.9632 14 25.5C14 27.433 12.433 29 10.5 29C8.567 29 7 27.433 7 25.5C7 24.4908 7.42712 23.5814 8.11045 22.9426C7.77073 22.5428 7.53976 22.0585 7.44488 21.5364L4.25613 4.00015L2 4C1.44772 4 1 3.55228 1 3ZM10.5 24C9.67157 24 9 24.6716 9 25.5C9 26.3284 9.67157 27 10.5 27C11.3284 27 12 26.3284 12 25.5C12 24.6716 11.3284 24 10.5 24ZM22.5 24C21.6716 24 21 24.6716 21 25.5C21 26.3284 21.6716 27 22.5 27C23.3284 27 24 26.3284 24 25.5C24 24.6716 23.3284 24 22.5 24Z" fill="black"/>
<path d="M16.5 4C17.0523 4 17.5 4.44771 17.5 5V7.5H20C20.5523 7.5 21 7.94772 21 8.5C21 9.05228 20.5523 9.5 20 9.5H17.5V12C17.5 12.5523 17.0523 13 16.5 13C15.9477 13 15.5 12.5523 15.5 12V9.5H13C12.4477 9.5 12 9.05228 12 8.5C12 7.94772 12.4477 7.5 13 7.5H15.5V5C15.5 4.44771 15.9477 4 16.5 4Z" fill="black"/>
</svg>
