<svg width="32" height="32" viewBox="0 0 32 32" fill="none" xmlns="http://www.w3.org/2000/svg">
<path fill-rule="evenodd" clip-rule="evenodd" d="M17 2C15.8954 2 15 2.89543 15 4V6C15 7.10457 15.8954 8 17 8H23C24.1046 8 25 7.10457 25 6V4C25 2.89543 24.1046 2 23 2H17ZM17 4H23V6H17V4Z" fill="black"/>
<path fill-rule="evenodd" clip-rule="evenodd" d="M12 13C10.8954 13 10 13.8954 10 15V17C10 18.1046 10.8954 19 12 19H14C15.1046 19 16 18.1046 16 17V15C16 13.8954 15.1046 13 14 13H12ZM12 15H14V17H12V15Z" fill="black"/>
<path d="M19 15C18.4477 15 18 14.5523 18 14C18 13.4477 18.4477 13 19 13H21C21.5523 13 22 13.4477 22 14C22 14.5523 21.5523 15 21 15H19Z" fill="black"/>
<path d="M18 18C18 18.5523 18.4477 19 19 19H21C21.5523 19 22 18.5523 22 18C22 17.4477 21.5523 17 21 17H19C18.4477 17 18 17.4477 18 18Z" fill="black"/>
<path fill-rule="evenodd" clip-rule="evenodd" d="M4 21C2.89543 21 2 21.8954 2 23V27C2 28.1046 2.89543 29 4 29H28C29.1046 29 30 28.1046 30 27V23C30 21.8954 29.1046 21 28 21H26.8471L25.2649 11.5068C25.0238 10.0602 23.7723 9 22.3058 9H9.69426C8.22775 9 6.97618 10.0602 6.73508 11.5068L5.15288 21H4ZM28 23L28 27H4V23H28ZM23.2921 11.8356L24.8195 21H7.18047L8.70787 11.8356C8.78823 11.3534 9.20543 11 9.69426 11H22.3058C22.7946 11 23.2118 11.3534 23.2921 11.8356Z" fill="black"/>
</svg>
