<svg width="32" height="32" viewBox="0 0 32 32" fill="none" xmlns="http://www.w3.org/2000/svg">
<path fill-rule="evenodd" clip-rule="evenodd" d="M4 5C4.55228 5 5 5.44772 5 6V7.58579L12 14.5858L15.2929 11.2929C15.6834 10.9024 16.3166 10.9024 16.7071 11.2929L25 19.5858V17C25 16.4477 25.4477 16 26 16C26.5523 16 27 16.4477 27 17V22C27 22.5523 26.5523 23 26 23H21C20.4477 23 20 22.5523 20 22C20 21.4477 20.4477 21 21 21H23.5858L16 13.4142L12.7071 16.7071C12.3166 17.0976 11.6834 17.0976 11.2929 16.7071L5 10.4142V25H28C28.5523 25 29 25.4477 29 26C29 26.5523 28.5523 27 28 27H4C3.44772 27 3 26.5523 3 26V6C3 5.44772 3.44772 5 4 5Z" fill="black"/>
</svg>
