<svg width="32" height="32" viewBox="0 0 32 32" fill="none" xmlns="http://www.w3.org/2000/svg">
<path fill-rule="evenodd" clip-rule="evenodd" d="M18.5 5C18.5 4.44772 18.9477 4 19.5 4H26.5C27.0523 4 27.5 4.44772 27.5 5V25H28.5C29.0523 25 29.5 25.4477 29.5 26C29.5 26.5523 29.0523 27 28.5 27H3.5C2.94772 27 2.5 26.5523 2.5 26C2.5 25.4477 2.94772 25 3.5 25H4.5V17C4.5 16.4477 4.94772 16 5.5 16H11.5V11C11.5 10.4477 11.9477 10 12.5 10H18.5V5ZM18.5 12H13.5V25H18.5V12ZM20.5 25H25.5V6H20.5V25ZM11.5 25V18H6.5V25H11.5Z" fill="black"/>
</svg>
