<svg width="32" height="32" viewBox="0 0 32 32" fill="none" xmlns="http://www.w3.org/2000/svg">
<path d="M28.7075 8.70739L12.7075 24.7074C12.6146 24.8004 12.5044 24.8741 12.383 24.9244C12.2616 24.9748 12.1314 25.0007 12 25.0007C11.8686 25.0007 11.7385 24.9748 11.6171 24.9244C11.4957 24.8741 11.3854 24.8004 11.2925 24.7074L4.29252 17.7074C4.10488 17.5197 3.99947 17.2652 3.99947 16.9999C3.99947 16.7345 4.10488 16.48 4.29252 16.2924C4.48016 16.1047 4.73466 15.9993 5.00002 15.9993C5.26539 15.9993 5.51988 16.1047 5.70752 16.2924L12 22.5861L27.2925 7.29238C27.4802 7.10474 27.7347 6.99933 28 6.99933C28.2654 6.99933 28.5199 7.10474 28.7075 7.29238C28.8952 7.48002 29.0006 7.73452 29.0006 7.99988C29.0006 8.26525 28.8952 8.51974 28.7075 8.70739Z" fill="black"/>
</svg>
