<svg width="32" height="32" viewBox="0 0 32 32" fill="none" xmlns="http://www.w3.org/2000/svg">
<path fill-rule="evenodd" clip-rule="evenodd" d="M10 7C10 5.34315 11.3431 4 13 4H25C26.6569 4 28 5.34315 28 7V19C28 20.6569 26.6569 22 25 22H22V25C22 26.6569 20.6569 28 19 28H7C5.34315 28 4 26.6569 4 25V13C4 11.3431 5.34315 10 7 10H10V7ZM7 12C6.44772 12 6 12.4477 6 13V25C6 25.5523 6.44772 26 7 26H19C19.5523 26 20 25.5523 20 25V13C20 12.4477 19.5523 12 19 12H7ZM22 20V13C22 11.3431 20.6569 10 19 10H12V7C12 6.44772 12.4477 6 13 6H25C25.5523 6 26 6.44772 26 7V19C26 19.5523 25.5523 20 25 20H22Z" fill="black"/>
<path fill-rule="evenodd" clip-rule="evenodd" d="M17.7134 15.5493C18.1004 15.9433 18.0947 16.5765 17.7007 16.9634L12.1007 22.4634C11.7117 22.8455 11.0883 22.8455 10.6993 22.4634L8.29929 20.1063C7.90527 19.7193 7.89956 19.0862 8.28655 18.6921C8.67354 18.2981 9.30668 18.2924 9.70071 18.6794L11.4 20.3484L16.2993 15.5366C16.6933 15.1496 17.3265 15.1553 17.7134 15.5493Z" fill="black"/>
</svg>
