<svg width="32" height="32" viewBox="0 0 32 32" fill="none" xmlns="http://www.w3.org/2000/svg">
<path d="M29.0613 9.06071L13.0613 25.0607C12.9219 25.2006 12.7563 25.3115 12.574 25.3872C12.3917 25.4629 12.1962 25.5019 11.9988 25.5019C11.8013 25.5019 11.6059 25.4629 11.4235 25.3872C11.2412 25.3115 11.0756 25.2006 10.9363 25.0607L3.93626 18.0607C3.79673 17.9212 3.68605 17.7555 3.61053 17.5732C3.53502 17.3909 3.49615 17.1955 3.49615 16.9982C3.49615 16.8009 3.53502 16.6055 3.61053 16.4232C3.68605 16.2409 3.79673 16.0752 3.93626 15.9357C4.07579 15.7962 4.24143 15.6855 4.42374 15.61C4.60604 15.5345 4.80143 15.4956 4.99876 15.4956C5.19608 15.4956 5.39147 15.5345 5.57378 15.61C5.75608 15.6855 5.92173 15.7962 6.06126 15.9357L12 21.8745L26.9388 6.93821C27.2205 6.65642 27.6027 6.49811 28.0013 6.49811C28.3998 6.49811 28.782 6.65642 29.0638 6.93821C29.3455 7.22 29.5039 7.6022 29.5039 8.00071C29.5039 8.39922 29.3455 8.78142 29.0638 9.06321L29.0613 9.06071Z" fill="black"/>
</svg>
