<svg width="32" height="32" viewBox="0 0 32 32" fill="none" xmlns="http://www.w3.org/2000/svg">
<path fill-rule="evenodd" clip-rule="evenodd" d="M15.2929 6.62624C15.6834 6.23571 16.3166 6.23571 16.7071 6.62624L21.7071 11.6262C22.0976 12.0168 22.0976 12.6499 21.7071 13.0405C21.3166 13.431 20.6834 13.431 20.2929 13.0405L16 8.74756L11.7071 13.0405C11.3166 13.431 10.6834 13.431 10.2929 13.0405C9.90237 12.6499 9.90237 12.0168 10.2929 11.6262L15.2929 6.62624ZM10.2929 18.9596C10.6834 18.569 11.3166 18.569 11.7071 18.9596L16 23.2525L20.2929 18.9596C20.6834 18.569 21.3166 18.569 21.7071 18.9596C22.0976 19.3501 22.0976 19.9833 21.7071 20.3738L16.7071 25.3738C16.3166 25.7643 15.6834 25.7643 15.2929 25.3738L10.2929 20.3738C9.90237 19.9833 9.90237 19.3501 10.2929 18.9596Z" fill="black"/>
</svg>
