<svg width="32" height="32" viewBox="0 0 32 32" fill="none" xmlns="http://www.w3.org/2000/svg">
<path fill-rule="evenodd" clip-rule="evenodd" d="M15.2929 13.0404C15.6834 13.431 16.3166 13.431 16.7071 13.0404L21.7071 8.04044C22.0976 7.64991 22.0976 7.01675 21.7071 6.62622C21.3166 6.2357 20.6834 6.2357 20.2929 6.62622L16 10.9191L11.7071 6.62622C11.3166 6.2357 10.6834 6.2357 10.2929 6.62622C9.90237 7.01675 9.90237 7.64991 10.2929 8.04044L15.2929 13.0404ZM10.2929 25.3738C10.6834 25.7643 11.3166 25.7643 11.7071 25.3738L16 21.0809L20.2929 25.3738C20.6834 25.7643 21.3166 25.7643 21.7071 25.3738C22.0976 24.9832 22.0976 24.3501 21.7071 23.9596L16.7071 18.9596C16.3166 18.569 15.6834 18.569 15.2929 18.9596L10.2929 23.9596C9.90237 24.3501 9.90237 24.9832 10.2929 25.3738Z" fill="black"/>
</svg>
