<svg width="32" height="32" viewBox="0 0 32 32" fill="none" xmlns="http://www.w3.org/2000/svg">
<path d="M11.5 15C12.3284 15 13 14.3284 13 13.5C13 12.6716 12.3284 12 11.5 12C10.6716 12 10 12.6716 10 13.5C10 14.3284 10.6716 15 11.5 15Z" fill="black"/>
<path d="M20.5 15C21.3284 15 22 14.3284 22 13.5C22 12.6716 21.3284 12 20.5 12C19.6716 12 19 12.6716 19 13.5C19 14.3284 19.6716 15 20.5 15Z" fill="black"/>
<path fill-rule="evenodd" clip-rule="evenodd" d="M16 5C9.92487 5 5 9.92487 5 16C5 22.0751 9.92487 27 16 27C22.0751 27 27 22.0751 27 16C27 9.92487 22.0751 5 16 5ZM3 16C3 8.8203 8.8203 3 16 3C23.1797 3 29 8.8203 29 16C29 23.1797 23.1797 29 16 29C8.8203 29 3 23.1797 3 16ZM10.298 18.1351C10.7756 17.8579 11.3876 18.0203 11.6649 18.498C12.1056 19.2573 12.738 19.8875 13.4988 20.3255C14.2596 20.7636 15.1221 20.9942 16 20.9942C16.8779 20.9942 17.7404 20.7636 18.5012 20.3255C19.262 19.8875 19.8944 19.2573 20.3351 18.498C20.6124 18.0203 21.2244 17.8579 21.702 18.1351C22.1797 18.4124 22.3421 19.0244 22.0649 19.502C21.4483 20.5642 20.5636 21.4459 19.4992 22.0588C18.4349 22.6716 17.2282 22.9942 16 22.9942C14.7718 22.9942 13.5651 22.6716 12.5008 22.0588C11.4364 21.4459 10.5517 20.5642 9.93514 19.502C9.65789 19.0244 9.82034 18.4124 10.298 18.1351Z" fill="black"/>
</svg>
