<svg width="32" height="32" viewBox="0 0 32 32" fill="none" xmlns="http://www.w3.org/2000/svg">
<path fill-rule="evenodd" clip-rule="evenodd" d="M16 4C14.9391 4 13.9217 4.42143 13.1716 5.17157C13.0397 5.30344 12.918 5.44356 12.807 5.59073C12.8026 5.59661 12.7983 5.60245 12.7938 5.60823C12.2815 6.29502 12 7.133 12 8H20C20 7.133 19.7185 6.29502 19.2062 5.60823C19.2017 5.60245 19.1974 5.59661 19.193 5.59073C19.082 5.44356 18.9603 5.30344 18.8284 5.17157C18.0783 4.42143 17.0609 4 16 4ZM20.4721 4C20.3981 3.91722 20.3216 3.8363 20.2426 3.75736C19.1174 2.63214 17.5913 2 16 2C14.4087 2 12.8826 2.63214 11.7574 3.75736C11.6784 3.8363 11.6019 3.91722 11.5279 4H7C6.46957 4 5.96086 4.21071 5.58579 4.58579C5.21071 4.96086 5 5.46957 5 6V27C5 27.5304 5.21071 28.0391 5.58579 28.4142C5.96086 28.7893 6.46957 29 7 29H25C25.5304 29 26.0391 28.7893 26.4142 28.4142C26.7893 28.0391 27 27.5304 27 27V6C27 5.46957 26.7893 4.96086 26.4142 4.58579C26.0391 4.21071 25.5304 4 25 4H20.4721ZM21.6569 6C21.8819 6.63641 22 7.31211 22 8V9C22 9.55228 21.5523 10 21 10H11C10.4477 10 10 9.55228 10 9V8C10 7.31211 10.1181 6.63641 10.3431 6H7L7 27H25V6H21.6569ZM11 15C11 14.4477 11.4477 14 12 14H20C20.5523 14 21 14.4477 21 15C21 15.5523 20.5523 16 20 16H12C11.4477 16 11 15.5523 11 15ZM11 19C11 18.4477 11.4477 18 12 18H20C20.5523 18 21 18.4477 21 19C21 19.5523 20.5523 20 20 20H12C11.4477 20 11 19.5523 11 19Z" fill="black"/>
</svg>
