<svg width="32" height="32" viewBox="0 0 32 32" fill="none" xmlns="http://www.w3.org/2000/svg">
<path fill-rule="evenodd" clip-rule="evenodd" d="M16.3333 4.66666C15.2725 4.66666 14.2551 5.08808 13.5049 5.83823C13.3731 5.97005 13.2381 6.12786 13.1271 6.27498C12.6148 6.96175 12.3333 7.79969 12.3333 8.66666H20.3333C20.3333 7.79966 20.0519 6.96169 19.5395 6.2749C19.4285 6.12784 19.2935 5.97001 19.1618 5.83823C18.4116 5.08808 17.3942 4.66666 16.3333 4.66666ZM20.8055 4.66666C20.7314 4.58388 20.6549 4.50296 20.576 4.42402C19.4508 3.2988 17.9246 2.66666 16.3333 2.66666C14.742 2.66666 13.2159 3.2988 12.0907 4.42402C12.0117 4.50296 11.9352 4.58388 11.8612 4.66666H7.33333C6.8029 4.66666 6.29419 4.87737 5.91912 5.25244C5.54405 5.62752 5.33333 6.13622 5.33333 6.66666V27.6667C5.33333 28.1971 5.54405 28.7058 5.91912 29.0809C6.29419 29.4559 6.8029 29.6667 7.33333 29.6667H25.3333C25.8638 29.6667 26.3725 29.4559 26.7475 29.0809C27.1226 28.7058 27.3333 28.1971 27.3333 27.6667V6.66666C27.3333 6.13623 27.1226 5.62752 26.7475 5.25244C26.3725 4.87737 25.8638 4.66666 25.3333 4.66666H20.8055ZM21.9902 6.66666C22.2152 7.30307 22.3333 7.97877 22.3333 8.66666V9.66666C22.3333 10.2189 21.8856 10.6667 21.3333 10.6667H11.3333C10.781 10.6667 10.3333 10.2189 10.3333 9.66666V8.66666C10.3333 7.97877 10.4515 7.30307 10.6765 6.66666H7.33333L7.33333 27.6667H25.3333V6.66666H21.9902Z" fill="black"/>
<path d="M22.5569 14.3097C22.9381 14.7093 22.9232 15.3423 22.5236 15.7235L15.1861 22.7235C14.7995 23.0924 14.1912 23.0921 13.8049 22.723L10.1424 19.223C9.74317 18.8414 9.72881 18.2084 10.1104 17.8091C10.4919 17.4098 11.1249 17.3955 11.5242 17.777L14.4964 20.6174L21.1431 14.2764C21.5427 13.8952 22.1757 13.9101 22.5569 14.3097Z" fill="black"/>
</svg>
