<svg width="32" height="32" viewBox="0 0 32 32" fill="none" xmlns="http://www.w3.org/2000/svg">
<path fill-rule="evenodd" clip-rule="evenodd" d="M8.06032 12.0127C8.54679 8.06023 11.916 5 16 5H17.5C22.7467 5 27 9.25329 27 14.5V15.6C29.2822 16.0633 31 18.081 31 20.5V21.25C31 24.4256 28.4256 27 25.25 27H8.5C4.35786 27 1 23.6421 1 19.5C1 15.5055 4.12283 12.2403 8.06032 12.0127ZM16 7C12.6863 7 10 9.68629 10 13V14H8.5C5.46243 14 3 16.4624 3 19.5C3 22.5376 5.46243 25 8.5 25H25.25C27.3211 25 29 23.3211 29 21.25V20.5C29 18.8431 27.6569 17.5 26 17.5H25V14.5C25 10.3579 21.6421 7 17.5 7H16Z" fill="black"/>
<path d="M22.2236 13.6431C22.6048 14.0427 22.5899 14.6757 22.1903 15.0569L14.8528 22.0569C14.4662 22.4257 13.8579 22.4255 13.4716 22.0563L9.80912 18.5563C9.40983 18.1747 9.39547 17.5417 9.77704 17.1424C10.1586 16.7432 10.7916 16.7288 11.1909 17.1104L14.1631 19.9507L20.8097 13.6098C21.2093 13.2286 21.8423 13.2435 22.2236 13.6431Z" fill="black"/>
</svg>
