<svg width="32" height="32" viewBox="0 0 32 32" fill="none" xmlns="http://www.w3.org/2000/svg">
<path d="M30.1963 21.4L17.6663 12L20.5988 9.8C20.7232 9.70698 20.8242 9.58626 20.8939 9.44739C20.9635 9.30853 20.9999 9.15535 21 9C21 7.67392 20.4732 6.40215 19.5355 5.46447C18.5979 4.52678 17.3261 4 16 4C14.6739 4 13.4022 4.52678 12.4645 5.46447C11.5268 6.40215 11 7.67392 11 9C11 9.26522 11.1054 9.51957 11.2929 9.70711C11.4804 9.89464 11.7348 10 12 10C12.2652 10 12.5196 9.89464 12.7071 9.70711C12.8947 9.51957 13 9.26522 13 9C13.002 8.24678 13.2873 7.52188 13.7992 6.96931C14.3111 6.41674 15.0121 6.07695 15.763 6.01744C16.5138 5.95792 17.2596 6.18304 17.8521 6.64807C18.4447 7.11309 18.8406 7.784 18.9613 8.5275L15.4175 11.1862L15.3825 11.2125L1.80376 21.4C1.4682 21.6517 1.22026 22.0025 1.09501 22.4028C0.969754 22.8031 0.973528 23.2326 1.10579 23.6307C1.23806 24.0287 1.49213 24.3751 1.83205 24.6208C2.17198 24.8666 2.58056 24.9992 3.00001 25H29C29.4198 25 29.8289 24.8679 30.1694 24.6225C30.51 24.377 30.7646 24.0307 30.8974 23.6325C31.0301 23.2342 31.0342 22.8043 30.909 22.4037C30.7839 22.003 30.5358 21.6519 30.2 21.4H30.1963ZM29 23H3.00001L16 13.25L29 23Z" fill="black"/>
</svg>
