<svg width="32" height="32" viewBox="0 0 32 32" fill="none" xmlns="http://www.w3.org/2000/svg">
<path fill-rule="evenodd" clip-rule="evenodd" d="M16.0613 4.99995C13.8704 4.98902 11.726 5.63258 9.90318 6.84824C8.07808 8.0654 6.65859 9.80048 5.82711 11.8305C4.99562 13.8606 4.79012 16.0929 5.23701 18.2406C5.68409 20.3893 6.74674 22.3376 8.33503 23.8834C12.6182 28.052 19.5424 28.006 23.768 23.7804C24.5863 22.962 25.6267 21.515 26.1759 20.1809C26.7258 18.8451 26.9983 17.3282 27.0001 15.9382L26.9989 15.9344L26.9955 15.9302L26.9905 15.9278L26.985 15.9277C26.3564 16.0627 25.5293 16.0906 24.7895 15.9221C24.0641 15.757 23.3847 15.432 22.8008 14.9709C22.217 14.5098 21.7434 13.9242 21.4146 13.2569C21.0858 12.5895 20.91 11.8572 20.9001 11.1133L20.9 11.1H20.8868C20.1429 11.0901 19.4106 10.9143 18.7432 10.5855C18.0759 10.2567 17.4903 9.78309 17.0292 9.19924C16.5681 8.61539 16.2431 7.93601 16.0779 7.21061C15.9133 6.48789 15.9115 5.73764 16.0725 5.01418L16.0723 5.00955L16.0699 5.00462L16.0656 5.00118L16.0613 4.99995ZM8.79351 5.18432C10.9505 3.74586 13.4882 2.98518 16.0808 3.00003L16.0898 3.00008C16.3874 3.00447 16.6804 3.07486 16.9475 3.20611C17.2147 3.33736 17.4494 3.52623 17.6348 3.75913C17.8201 3.99202 17.9515 4.26313 18.0195 4.55293C18.0874 4.84272 18.0903 5.14398 18.0278 5.435L18.0259 5.44386C17.9282 5.87942 17.9289 6.33128 18.028 6.76651C18.1271 7.20175 18.3221 7.60938 18.5988 7.95969C18.8754 8.31 19.2268 8.59416 19.6272 8.79145C20.0261 8.98799 20.4637 9.09339 20.9083 9.10003C21.4358 9.1022 21.9411 9.31267 22.3143 9.6858C22.6874 10.0589 22.8979 10.5643 22.9 11.0918C22.9067 11.5364 23.0121 11.974 23.2086 12.3729C23.4059 12.7733 23.6901 13.1247 24.0404 13.4013C24.3907 13.678 24.7983 13.873 25.2336 13.9721C25.6543 14.0679 26.1842 14.0541 26.5651 13.9723C26.8561 13.9098 27.1574 13.9126 27.4471 13.9806C27.7369 14.0486 28.0081 14.1799 28.2409 14.3653C28.4738 14.5507 28.6627 14.7854 28.794 15.0525C28.9252 15.3197 28.9956 15.6127 29 15.9103L29.0001 15.925C29.0001 17.5583 28.6842 19.3417 28.0253 20.9422C27.364 22.5487 26.1646 24.2122 25.1822 25.1946C20.1827 30.1941 12.0069 30.248 6.9401 25.3166C5.06471 23.4914 3.80689 21.1853 3.27894 18.648C2.75081 16.1098 2.99367 13.4716 3.97634 11.0725C4.959 8.67332 6.63657 6.62278 8.79351 5.18432Z" fill="black"/>
<path d="M19.5 23C20.3284 23 21 22.3284 21 21.5C21 20.6716 20.3284 20 19.5 20C18.6716 20 18 20.6716 18 21.5C18 22.3284 18.6716 23 19.5 23Z" fill="black"/>
<path d="M11.5 22C12.3284 22 13 21.3284 13 20.5C13 19.6716 12.3284 19 11.5 19C10.6716 19 10 19.6716 10 20.5C10 21.3284 10.6716 22 11.5 22Z" fill="black"/>
<path d="M10.5 15C11.3284 15 12 14.3284 12 13.5C12 12.6716 11.3284 12 10.5 12C9.67157 12 9 12.6716 9 13.5C9 14.3284 9.67157 15 10.5 15Z" fill="black"/>
<path d="M17 17C17.8284 17 18.5 16.3284 18.5 15.5C18.5 14.6716 17.8284 14 17 14C16.1716 14 15.5 14.6716 15.5 15.5C15.5 16.3284 16.1716 17 17 17Z" fill="black"/>
</svg>
