<svg width="32" height="32" viewBox="0 0 32 32" fill="none" xmlns="http://www.w3.org/2000/svg">
<path fill-rule="evenodd" clip-rule="evenodd" d="M10 7C10 5.34315 11.3431 4 13 4H25C26.6569 4 28 5.34315 28 7V19C28 20.6569 26.6569 22 25 22H22V25C22 26.6569 20.6569 28 19 28H7C5.34315 28 4 26.6569 4 25V13C4 11.3431 5.34315 10 7 10H10V7ZM7 12C6.44772 12 6 12.4477 6 13V25C6 25.5523 6.44772 26 7 26H19C19.5523 26 20 25.5523 20 25V13C20 12.4477 19.5523 12 19 12H7ZM22 20V13C22 11.3431 20.6569 10 19 10H12V7C12 6.44772 12.4477 6 13 6H25C25.5523 6 26 6.44772 26 7V19C26 19.5523 25.5523 20 25 20H22Z" fill="black"/>
</svg>
