<svg width="32" height="32" viewBox="0 0 32 32" fill="none" xmlns="http://www.w3.org/2000/svg">
<path d="M30.7793 10.6592C30.549 10.4584 30.2642 10.3306 29.9611 10.2919C29.658 10.2533 29.3503 10.3056 29.077 10.4422L22.67 13.6324L17.3208 4.74723C17.1833 4.51923 16.9892 4.33063 16.7573 4.19971C16.5255 4.06879 16.2638 4 15.9975 4C15.7313 4 15.4695 4.06879 15.2377 4.19971C15.0058 4.33063 14.8117 4.51923 14.6742 4.74723L9.32504 13.6362L2.92054 10.4461C2.6479 10.3107 2.34134 10.2588 2.03934 10.297C1.73733 10.3352 1.45333 10.4617 1.22298 10.6607C0.992622 10.8597 0.826175 11.1223 0.744524 11.4156C0.662872 11.7088 0.669653 12.0197 0.764016 12.3091L5.4854 26.7744C5.53287 26.9197 5.61238 27.0525 5.71804 27.163C5.82371 27.2735 5.95284 27.3588 6.09591 27.4127C6.23897 27.4666 6.39231 27.4877 6.54461 27.4744C6.69691 27.4611 6.84428 27.4138 6.97583 27.3359C7.00773 27.3167 10.2706 25.4371 15.9975 25.4371C21.7244 25.4371 24.9873 27.3167 25.0166 27.3346C25.1482 27.4132 25.2959 27.4612 25.4485 27.475C25.6012 27.4888 25.755 27.468 25.8986 27.4141C26.0421 27.3603 26.1717 27.2749 26.2777 27.1641C26.3837 27.0534 26.4634 26.9202 26.5109 26.7744L31.2323 12.3129C31.3293 12.0234 31.3381 11.7116 31.2574 11.4171C31.1768 11.1226 31.0103 10.8588 30.7793 10.6592ZM24.9299 25.0326C23.3986 24.3831 20.3463 23.3954 15.9975 23.3954C11.6487 23.3954 8.59641 24.3831 7.06515 25.0326L3.07239 12.8042L8.82355 15.6715C9.17167 15.8432 9.57145 15.8783 9.94415 15.7698C10.3168 15.6614 10.6354 15.4174 10.8372 15.0858L15.9975 6.50818L21.1579 15.0832C21.3598 15.4143 21.6781 15.6579 22.0504 15.7663C22.4228 15.8747 22.8222 15.8399 23.1702 15.6689L28.9226 12.8042L24.9299 25.0326ZM22.106 20.9492C22.0643 21.1854 21.9408 21.3993 21.7572 21.5536C21.5736 21.7078 21.3415 21.7925 21.1017 21.7927C21.0418 21.7926 20.9821 21.7875 20.9231 21.7774C17.6624 21.2176 14.3301 21.2176 11.0694 21.7774C10.8027 21.8244 10.5283 21.7636 10.3064 21.6083C10.0846 21.453 9.93354 21.2159 9.8865 20.9492C9.83946 20.6826 9.90028 20.4081 10.0556 20.1863C10.2109 19.9644 10.448 19.8134 10.7147 19.7663C14.2101 19.1658 17.7824 19.1658 21.2778 19.7663C21.544 19.8131 21.7807 19.9634 21.9362 20.1845C22.0917 20.4055 22.1532 20.6791 22.1072 20.9454L22.106 20.9492Z" fill="black"/>
</svg>
