<svg width="32" height="32" viewBox="0 0 32 32" fill="none" xmlns="http://www.w3.org/2000/svg">
<path fill-rule="evenodd" clip-rule="evenodd" d="M2.62362 8.07352C3.1353 7.86566 3.7186 8.11194 3.92647 8.62361L6.92312 16H12.0769L15.0735 8.62361C15.2267 8.24659 15.5931 7.99999 16 7.99999C16.4069 7.99999 16.7733 8.24659 16.9265 8.62361L19.9231 16H25.0769L28.0735 8.62361C28.2814 8.11194 28.8647 7.86566 29.3764 8.07352C29.8881 8.28139 30.1343 8.86469 29.9265 9.37637L27.2356 16H30C30.5523 16 31 16.4477 31 17C31 17.5523 30.5523 18 30 18H26.4231L23.4265 25.3764C23.2733 25.7534 22.9069 26 22.5 26C22.0931 26 21.7267 25.7534 21.5735 25.3764L18.5769 18H13.4231L10.4265 25.3764C10.2733 25.7534 9.90695 26 9.5 26C9.09306 26 8.7267 25.7534 8.57353 25.3764L5.57688 18H2C1.44772 18 1 17.5523 1 17C1 16.4477 1.44772 16 2 16H4.76438L2.07353 9.37637C1.86567 8.86469 2.11195 8.28139 2.62362 8.07352ZM7.73562 18L9.5 22.3431L11.2644 18H7.73562ZM14.2356 16H17.7644L16 11.6569L14.2356 16ZM20.7356 18L22.5 22.3431L24.2644 18H20.7356Z" fill="black"/>
</svg>
