<svg width="32" height="32" viewBox="0 0 32 32" fill="none" xmlns="http://www.w3.org/2000/svg">
<path fill-rule="evenodd" clip-rule="evenodd" d="M8.00001 5C8.00001 4.44772 8.44773 4 9.00001 4H25C25.5523 4 26 4.44772 26 5C26 5.55228 25.5523 6 25 6H18.599C18.6682 6.06416 18.7363 6.12973 18.8033 6.1967C19.6018 6.99521 20.2017 7.95524 20.5711 9H25C25.5523 9 26 9.44772 26 10C26 10.5523 25.5523 11 25 11H20.9833C20.9944 11.1659 21 11.3327 21 11.5C21 13.4891 20.2098 15.3968 18.8033 16.8033C17.3968 18.2098 15.4891 19 13.5 19H11.5866L20.6727 27.2601C21.0813 27.6316 21.1115 28.264 20.74 28.6727C20.3684 29.0813 19.736 29.1114 19.3273 28.7399L8.32734 18.7399C8.02164 18.462 7.91831 18.0247 8.06729 17.6394C8.21626 17.2541 8.58687 17 9.00001 17H13.5C14.9587 17 16.3576 16.4205 17.3891 15.3891C18.4205 14.3576 19 12.9587 19 11.5C19 11.3324 18.9924 11.1656 18.9773 11H9.00001C8.44773 11 8.00001 10.5523 8.00001 10C8.00001 9.44772 8.44773 9 9.00001 9H18.399C18.1396 8.49158 17.8002 8.02205 17.3891 7.61091C16.3576 6.57946 14.9587 6 13.5 6H9.00001C8.44773 6 8.00001 5.55228 8.00001 5Z" fill="black"/>
</svg>
