<svg width="32" height="32" viewBox="0 0 32 32" fill="none" xmlns="http://www.w3.org/2000/svg">
<path fill-rule="evenodd" clip-rule="evenodd" d="M18.56 6.15651C17.0085 5.84804 15.4004 6.00647 13.9389 6.61175C12.4774 7.21704 11.2282 8.24202 10.3491 9.55713C9.65652 10.5932 9.2182 11.7727 9.06311 13H17C17.5523 13 18 13.4477 18 14C18 14.5523 17.5523 15 17 15H9V17H15C15.5523 17 16 17.4477 16 18C16 18.5523 15.5523 19 15 19H9.06311C9.2182 20.2274 9.65652 21.4068 10.3491 22.4429C11.2282 23.758 12.4774 24.783 13.9389 25.3883C15.4004 25.9936 17.0085 26.152 18.56 25.8435C20.1115 25.5351 21.5367 24.7735 22.6556 23.6552C23.0462 23.2648 23.6793 23.265 24.0698 23.6556C24.4602 24.0462 24.4601 24.6793 24.0694 25.0698C22.6709 26.4677 20.8894 27.4195 18.95 27.8051C17.0106 28.1907 15.0005 27.9927 13.1736 27.2361C11.3467 26.4795 9.78519 25.1982 8.68634 23.5543C7.77359 22.1889 7.21411 20.6241 7.05041 19H5C4.44772 19 4 18.5523 4 18C4 17.4477 4.44772 17 5 17H7V15H5C4.44772 15 4 14.5523 4 14C4 13.4477 4.44772 13 5 13H7.05041C7.21411 11.3759 7.77359 9.81116 8.68634 8.44569C9.78519 6.80179 11.3467 5.52057 13.1736 4.76396C15.0005 4.00735 17.0106 3.80932 18.95 4.1949C20.8894 4.58049 22.6709 5.53237 24.0694 6.93024C24.4601 7.32068 24.4602 7.95384 24.0698 8.34446C23.6793 8.73507 23.0462 8.73522 22.6556 8.34478C21.5367 7.22649 20.1115 6.46498 18.56 6.15651Z" fill="black"/>
</svg>
