<svg width="32" height="32" viewBox="0 0 32 32" fill="none" xmlns="http://www.w3.org/2000/svg">
<path fill-rule="evenodd" clip-rule="evenodd" d="M18.7229 6.33856C18.1782 6.11261 17.5939 5.99751 17.0042 5.99998C15.8107 5.99998 14.6619 6.47409 13.818 7.31801C12.9741 8.16192 12.5 9.30651 12.5 10.5V15.5H17C17.5523 15.5 18 15.9477 18 16.5C18 17.0523 17.5523 17.5 17 17.5H12.5V21.5C12.5 22.7826 12.052 24.019 11.2427 25H23C23.5523 25 24 25.4477 24 26C24 26.5523 23.5523 27 23 27H7C6.44772 27 6 26.5523 6 26C6 25.4477 6.44772 25 7 25C7.92826 25 8.8185 24.6312 9.47487 23.9749C10.1313 23.3185 10.5 22.4282 10.5 21.5V17.5H7C6.44772 17.5 6 17.0523 6 16.5C6 15.9477 6.44772 15.5 7 15.5H10.5V10.5C10.5 8.77608 11.1848 7.12278 12.4038 5.90379C13.6223 4.6853 15.2748 4.00054 16.9979 3.99999C17.8527 3.99668 18.6996 4.16366 19.4892 4.49118C20.2795 4.81896 20.9964 5.30098 21.5983 5.90905C21.9868 6.30159 21.9835 6.93474 21.5909 7.32324C21.1984 7.71174 20.5652 7.70847 20.1767 7.31593C19.7619 6.89677 19.2677 6.56451 18.7229 6.33856Z" fill="black"/>
</svg>
