<svg width="32" height="32" viewBox="0 0 32 32" fill="none" xmlns="http://www.w3.org/2000/svg">
<path fill-rule="evenodd" clip-rule="evenodd" d="M6.36676 5.22604C6.79421 4.87631 7.42423 4.93932 7.77396 5.36676L16 15.4208L24.226 5.36676C24.5758 4.93932 25.2058 4.87631 25.6332 5.22604C26.0607 5.57577 26.1237 6.20579 25.774 6.63324L18.1102 16H22C22.5523 16 23 16.4477 23 17C23 17.5523 22.5523 18 22 18H17V20H22C22.5523 20 23 20.4477 23 21C23 21.5523 22.5523 22 22 22H17V27C17 27.5523 16.5523 28 16 28C15.4477 28 15 27.5523 15 27V22H10C9.44772 22 9 21.5523 9 21C9 20.4477 9.44772 20 10 20H15V18H10C9.44772 18 9 17.5523 9 17C9 16.4477 9.44772 16 10 16H13.8898L6.22604 6.63324C5.87631 6.20579 5.93932 5.57577 6.36676 5.22604Z" fill="black"/>
</svg>
