<svg width="32" height="32" viewBox="0 0 32 32" fill="none" xmlns="http://www.w3.org/2000/svg">
<path fill-rule="evenodd" clip-rule="evenodd" d="M7 8C7 7.44772 7.44772 7 8 7H24C24.5523 7 25 7.44772 25 8C25 8.55228 24.5523 9 24 9H8C7.44772 9 7 8.55228 7 8ZM5 15C5 14.4477 5.44772 14 6 14H26C26.5523 14 27 14.4477 27 15C27 15.5523 26.5523 16 26 16H20V22C19.9989 22.2624 20.0498 22.5266 20.1497 22.7693C20.2496 23.0119 20.3966 23.2324 20.5821 23.4179C20.7676 23.6034 20.9881 23.7504 21.2307 23.8503C21.4734 23.9502 21.7376 24.0011 22 24H26V22C26 21.4477 26.4477 21 27 21C27.5523 21 28 21.4477 28 22V25C28 25.5523 27.5523 26 27 26H22.0019C21.4762 26.0019 20.9554 25.8998 20.4692 25.6997C19.9824 25.4992 19.5401 25.2044 19.1679 24.8321C18.7956 24.4599 18.5008 24.0176 18.3003 23.5308C18.1002 23.0446 17.9981 22.5238 18 21.9981V16H14L14 17.0016C13.9963 19.387 13.047 21.6736 11.3603 23.3603C9.67358 25.047 7.38695 25.9963 5.00156 26C4.44927 26.0009 4.00086 25.5538 4 25.0016C3.99914 24.4493 4.44616 24.0009 4.99844 24C6.85448 23.9971 8.63368 23.2585 9.9461 21.9461C11.2583 20.6339 11.9969 18.855 12 16.9992V16H6C5.44772 16 5 15.5523 5 15Z" fill="black"/>
</svg>
