<svg width="32" height="32" viewBox="0 0 32 32" fill="none" xmlns="http://www.w3.org/2000/svg">
<path d="M30.75 12.3412L23.75 4.34125C23.6564 4.23435 23.5411 4.14863 23.4118 4.08979C23.2825 4.03094 23.1421 4.00034 23 4H9C8.85792 4.00034 8.71754 4.03094 8.58822 4.08979C8.45889 4.14863 8.34359 4.23435 8.25 4.34125L1.25 12.3412C1.0867 12.5277 0.99845 12.7681 1.00238 13.016C1.0063 13.2638 1.10212 13.5013 1.27125 13.6825L15.2712 28.6825C15.3648 28.7828 15.478 28.8628 15.6038 28.9175C15.7296 28.9722 15.8653 29.0004 16.0025 29.0004C16.1397 29.0004 16.2754 28.9722 16.4012 28.9175C16.527 28.8628 16.6402 28.7828 16.7337 28.6825L30.7337 13.6825C30.9022 13.5007 30.9971 13.2628 31.0001 13.015C31.0031 12.7672 30.914 12.5271 30.75 12.3412ZM27.7962 12H22.5L18 6H22.5462L27.7962 12ZM9.3225 14L13.0887 23.4162L4.30125 14H9.3225ZM20.5225 14L16 25.3075L11.4775 14H20.5225ZM12 12L16 6.66625L20 12H12ZM22.6775 14H27.6987L18.9112 23.4162L22.6775 14ZM9.45375 6H14L9.5 12H4.20375L9.45375 6Z" fill="black"/>
<path d="M12 12L16 6.66625L20 12H12Z" fill="black"/>
<path d="M20.5225 14L16 25.3075L11.4775 14H20.5225Z" fill="black"/>
</svg>
