<svg width="32" height="32" viewBox="0 0 32 32" fill="none" xmlns="http://www.w3.org/2000/svg">
<path d="M2.66667 16C2.66667 15.4477 3.11438 15 3.66667 15H28.3333C28.8856 15 29.3333 15.4477 29.3333 16C29.3333 16.5523 28.8856 17 28.3333 17H3.66667C3.11438 17 2.66667 16.5523 2.66667 16Z" fill="black"/>
<path fill-rule="evenodd" clip-rule="evenodd" d="M24.6667 21.6667H7.33333V27.3333H24.6667V21.6667ZM24.6667 4.66666H7.33333V10.3333H24.6667V4.66666ZM7.33333 2.66666C6.22876 2.66666 5.33333 3.56209 5.33333 4.66666V10.3333C5.33333 11.4379 6.22876 12.3333 7.33333 12.3333H24.6667C25.7712 12.3333 26.6667 11.4379 26.6667 10.3333V4.66666C26.6667 3.56209 25.7712 2.66666 24.6667 2.66666H7.33333ZM2.66667 16C2.66667 15.4477 3.11438 15 3.66667 15H28.3333C28.8856 15 29.3333 15.4477 29.3333 16C29.3333 16.5523 28.8856 17 28.3333 17H3.66667C3.11438 17 2.66667 16.5523 2.66667 16ZM5.33333 21.6667C5.33333 20.5621 6.22876 19.6667 7.33333 19.6667H24.6667C25.7712 19.6667 26.6667 20.5621 26.6667 21.6667V27.3333C26.6667 28.4379 25.7712 29.3333 24.6667 29.3333H7.33333C6.22876 29.3333 5.33333 28.4379 5.33333 27.3333V21.6667Z" fill="black"/>
</svg>
