<svg width="32" height="32" viewBox="0 0 32 32" fill="none" xmlns="http://www.w3.org/2000/svg">
<path d="M29.9637 15.625L27.9112 4.62499C27.8611 4.35686 27.7566 4.10182 27.6043 3.87556C27.4519 3.64931 27.2548 3.45661 27.0253 3.30932C26.7957 3.16203 26.5384 3.06326 26.2692 3.0191C26 2.97493 25.7246 2.98629 25.46 3.05249L25.4212 3.06374L18.8562 4.99999H13.1437L6.57875 3.06999L6.54 3.05874C6.27537 2.99254 6 2.98118 5.73082 3.02535C5.46164 3.06951 5.20434 3.16828 4.97474 3.31557C4.74515 3.46286 4.54811 3.65556 4.39574 3.88181C4.24337 4.10807 4.1389 4.36311 4.08875 4.63124L2.03625 15.625C1.94848 16.0653 2.01363 16.5223 2.22093 16.9206C2.42822 17.3188 2.76525 17.6343 3.17625 17.815C3.43946 17.9357 3.72543 17.9988 4.015 18C4.36159 17.9998 4.70177 17.9066 5 17.73V23C5 24.3261 5.52678 25.5978 6.46446 26.5355C7.40215 27.4732 8.67392 28 10 28H22C23.3261 28 24.5979 27.4732 25.5355 26.5355C26.4732 25.5978 27 24.3261 27 23V17.7312C27.2979 17.9075 27.6376 18.0007 27.9837 18.0012C28.2736 18.0004 28.56 17.9378 28.8237 17.8175C29.2352 17.6367 29.5726 17.3208 29.78 16.922C29.9873 16.5233 30.0521 16.0657 29.9637 15.625ZM4 16L6.05375 4.99999L11.3125 6.54624L4 16ZM22 26H17V24.4137L18.7075 22.7075C18.8951 22.5198 19.0006 22.2654 19.0006 22C19.0006 21.7346 18.8951 21.4801 18.7075 21.2925C18.5199 21.1048 18.2654 20.9994 18 20.9994C17.7346 20.9994 17.4801 21.1048 17.2925 21.2925L16 22.5862L14.7075 21.2925C14.5199 21.1048 14.2654 20.9994 14 20.9994C13.7346 20.9994 13.4801 21.1048 13.2925 21.2925C13.1049 21.4801 12.9994 21.7346 12.9994 22C12.9994 22.2654 13.1049 22.5198 13.2925 22.7075L15 24.4137V26H10C9.20435 26 8.44129 25.6839 7.87868 25.1213C7.31607 24.5587 7 23.7956 7 23V15.3887L13.49 6.99999H18.5087L25 15.3887V23C25 23.7956 24.6839 24.5587 24.1213 25.1213C23.5587 25.6839 22.7956 26 22 26ZM28 16L20.6875 6.54624L25.9462 4.99999L28 16ZM13 17.5C13 17.7967 12.912 18.0867 12.7472 18.3333C12.5824 18.58 12.3481 18.7723 12.074 18.8858C11.7999 18.9993 11.4983 19.029 11.2074 18.9712C10.9164 18.9133 10.6491 18.7704 10.4393 18.5606C10.2296 18.3509 10.0867 18.0836 10.0288 17.7926C9.97094 17.5017 10.0006 17.2001 10.1142 16.926C10.2277 16.6519 10.42 16.4176 10.6666 16.2528C10.9133 16.088 11.2033 16 11.5 16C11.8978 16 12.2794 16.158 12.5607 16.4393C12.842 16.7206 13 17.1022 13 17.5ZM22 17.5C22 17.7967 21.912 18.0867 21.7472 18.3333C21.5824 18.58 21.3481 18.7723 21.074 18.8858C20.7999 18.9993 20.4983 19.029 20.2074 18.9712C19.9164 18.9133 19.6491 18.7704 19.4393 18.5606C19.2296 18.3509 19.0867 18.0836 19.0288 17.7926C18.9709 17.5017 19.0006 17.2001 19.1142 16.926C19.2277 16.6519 19.42 16.4176 19.6666 16.2528C19.9133 16.088 20.2033 16 20.5 16C20.8978 16 21.2794 16.158 21.5607 16.4393C21.842 16.7206 22 17.1022 22 17.5Z" fill="black"/>
</svg>
