<svg width="32" height="32" viewBox="0 0 32 32" fill="none" xmlns="http://www.w3.org/2000/svg">
<path d="M22 8.66666C22 11.9804 19.3137 14.6667 16 14.6667C12.6863 14.6667 9.99999 11.9804 9.99999 8.66666C9.99999 5.35295 12.6863 2.66666 16 2.66666C19.3137 2.66666 22 5.35295 22 8.66666Z" fill="black"/>
<path d="M29.3333 22C29.3333 25.3137 26.647 28 23.3333 28C20.0196 28 17.3333 25.3137 17.3333 22C17.3333 18.6863 20.0196 16 23.3333 16C26.647 16 29.3333 18.6863 29.3333 22Z" fill="black"/>
<path d="M14.6667 22C14.6667 25.3137 11.9804 28 8.66666 28C5.35295 28 2.66666 25.3137 2.66666 22C2.66666 18.6863 5.35295 16 8.66666 16C11.9804 16 14.6667 18.6863 14.6667 22Z" fill="black"/>
</svg>
