<svg width="32" height="32" viewBox="0 0 32 32" fill="none" xmlns="http://www.w3.org/2000/svg">
<path d="M18 1.25C18.4142 1.25 18.75 1.58579 18.75 2C18.75 2.41421 18.4142 2.75 18 2.75C17.5858 2.75 17.25 2.41421 17.25 2C17.25 1.58579 17.5858 1.25 18 1.25Z" fill="black"/>
<path d="M22 2.5C22.2761 2.5 22.5 2.27614 22.5 2C22.5 1.72386 22.2761 1.5 22 1.5C21.7239 1.5 21.5 1.72386 21.5 2C21.5 2.27614 21.7239 2.5 22 2.5Z" fill="black"/>
<path d="M22 7C22.5523 7 23 6.55228 23 6C23 5.44772 22.5523 5 22 5C21.4477 5 21 5.44772 21 6C21 6.55228 21.4477 7 22 7Z" fill="black"/>
<path fill-rule="evenodd" clip-rule="evenodd" d="M20 10C20 8.89543 19.1046 8 18 8C16.8954 8 16 8.89543 16 10C16 8.89543 15.1046 8 14 8C12.8954 8 12 8.89543 12 10C12 10.7305 12.3916 11.3695 12.9763 11.7185C12.4185 11.9692 11.9692 12.4185 11.7185 12.9763C11.3695 12.3916 10.7305 12 10 12C8.89543 12 8 12.8954 8 14C8 15.1046 8.89543 16 10 16C8.89543 16 8 16.8954 8 18C8 19.1046 8.89543 20 10 20C10.7305 20 11.3695 19.6084 11.7185 19.0237C11.9692 19.5815 12.4185 20.0308 12.9763 20.2815C12.3916 20.6305 12 21.2695 12 22C12 23.1046 12.8954 24 14 24C15.1046 24 16 23.1046 16 22C16 23.1046 16.8954 24 18 24C19.1046 24 20 23.1046 20 22C20 21.2695 19.6084 20.6305 19.0237 20.2815C19.5815 20.0308 20.0308 19.5815 20.2815 19.0237C20.6305 19.6084 21.2695 20 22 20C23.1046 20 24 19.1046 24 18C24 16.8954 23.1046 16 22 16C23.1046 16 24 15.1046 24 14C24 12.8954 23.1046 12 22 12C21.2695 12 20.6305 12.3916 20.2815 12.9763C20.0308 12.4185 19.5815 11.9692 19.0237 11.7185C19.6084 11.3695 20 10.7305 20 10ZM22 16C21.2695 16 20.6305 16.3916 20.2815 16.9763C20.1071 16.5882 19.8366 16.2527 19.5002 16C19.8366 15.7473 20.1071 15.4118 20.2815 15.0237C20.6305 15.6084 21.2695 16 22 16ZM16 22C16 21.2695 15.6084 20.6305 15.0237 20.2815C15.4118 20.1071 15.7473 19.8366 16 19.5002C16.2527 19.8366 16.5882 20.1071 16.9763 20.2815C16.3916 20.6305 16 21.2695 16 22ZM10 16C10.7305 16 11.3695 15.6084 11.7185 15.0237C11.8929 15.4118 12.1634 15.7473 12.4998 16C12.1634 16.2527 11.8929 16.5882 11.7185 16.9763C11.3695 16.3916 10.7305 16 10 16ZM16 10C16 10.7305 16.3916 11.3695 16.9763 11.7185C16.5882 11.8929 16.2527 12.1634 16 12.4998C15.7473 12.1634 15.4118 11.8929 15.0237 11.7185C15.6084 11.3695 16 10.7305 16 10ZM16 16.4998C15.8578 16.3105 15.6895 16.1422 15.5002 16C15.6895 15.8578 15.8578 15.6895 16 15.5002C16.1422 15.6895 16.3105 15.8578 16.4998 16C16.3105 16.1422 16.1422 16.3105 16 16.4998Z" fill="black"/>
<path d="M22 11.5C22.8284 11.5 23.5 10.8284 23.5 10C23.5 9.17157 22.8284 8.5 22 8.5C21.1716 8.5 20.5 9.17157 20.5 10C20.5 10.8284 21.1716 11.5 22 11.5Z" fill="black"/>
<path d="M8.5 10C8.5 10.8284 9.17157 11.5 10 11.5C10.8284 11.5 11.5 10.8284 11.5 10C11.5 9.17157 10.8284 8.5 10 8.5C9.17157 8.5 8.5 9.17157 8.5 10Z" fill="black"/>
<path d="M22 20.5C22.8284 20.5 23.5 21.1716 23.5 22C23.5 22.8284 22.8284 23.5 22 23.5C21.1716 23.5 20.5 22.8284 20.5 22C20.5 21.1716 21.1716 20.5 22 20.5Z" fill="black"/>
<path d="M8.5 22C8.5 21.1716 9.17157 20.5 10 20.5C10.8284 20.5 11.5 21.1716 11.5 22C11.5 22.8284 10.8284 23.5 10 23.5C9.17157 23.5 8.5 22.8284 8.5 22Z" fill="black"/>
<path d="M9 6C9 6.55228 9.44771 7 10 7C10.5523 7 11 6.55228 11 6C11 5.44772 10.5523 5 10 5C9.44771 5 9 5.44772 9 6Z" fill="black"/>
<path d="M22 25C22.5523 25 23 25.4477 23 26C23 26.5523 22.5523 27 22 27C21.4477 27 21 26.5523 21 26C21 25.4477 21.4477 25 22 25Z" fill="black"/>
<path d="M9 26C9 25.4477 9.44771 25 10 25C10.5523 25 11 25.4477 11 26C11 26.5523 10.5523 27 10 27C9.44771 27 9 26.5523 9 26Z" fill="black"/>
<path d="M26 11C26.5523 11 27 10.5523 27 10C27 9.44771 26.5523 9 26 9C25.4477 9 25 9.44771 25 10C25 10.5523 25.4477 11 26 11Z" fill="black"/>
<path d="M5 10C5 10.5523 5.44772 11 6 11C6.55228 11 7 10.5523 7 10C7 9.44771 6.55228 9 6 9C5.44772 9 5 9.44771 5 10Z" fill="black"/>
<path d="M26 21C26.5523 21 27 21.4477 27 22C27 22.5523 26.5523 23 26 23C25.4477 23 25 22.5523 25 22C25 21.4477 25.4477 21 26 21Z" fill="black"/>
<path d="M5 22C5 21.4477 5.44772 21 6 21C6.55228 21 7 21.4477 7 22C7 22.5523 6.55228 23 6 23C5.44772 23 5 22.5523 5 22Z" fill="black"/>
<path d="M26 6.75C26.4142 6.75 26.75 6.41421 26.75 6C26.75 5.58579 26.4142 5.25 26 5.25C25.5858 5.25 25.25 5.58579 25.25 6C25.25 6.41421 25.5858 6.75 26 6.75Z" fill="black"/>
<path d="M5.25 6C5.25 6.41421 5.58579 6.75 6 6.75C6.41421 6.75 6.75 6.41421 6.75 6C6.75 5.58579 6.41421 5.25 6 5.25C5.58579 5.25 5.25 5.58579 5.25 6Z" fill="black"/>
<path d="M26 25.25C26.4142 25.25 26.75 25.5858 26.75 26C26.75 26.4142 26.4142 26.75 26 26.75C25.5858 26.75 25.25 26.4142 25.25 26C25.25 25.5858 25.5858 25.25 26 25.25Z" fill="black"/>
<path d="M5.25 26C5.25 25.5858 5.58579 25.25 6 25.25C6.41421 25.25 6.75 25.5858 6.75 26C6.75 26.4142 6.41421 26.75 6 26.75C5.58579 26.75 5.25 26.4142 5.25 26Z" fill="black"/>
<path d="M9.5 2C9.5 2.27614 9.72386 2.5 10 2.5C10.2761 2.5 10.5 2.27614 10.5 2C10.5 1.72386 10.2761 1.5 10 1.5C9.72386 1.5 9.5 1.72386 9.5 2Z" fill="black"/>
<path d="M22 29.5C22.2761 29.5 22.5 29.7239 22.5 30C22.5 30.2761 22.2761 30.5 22 30.5C21.7239 30.5 21.5 30.2761 21.5 30C21.5 29.7239 21.7239 29.5 22 29.5Z" fill="black"/>
<path d="M9.5 30C9.5 29.7239 9.72386 29.5 10 29.5C10.2761 29.5 10.5 29.7239 10.5 30C10.5 30.2761 10.2761 30.5 10 30.5C9.72386 30.5 9.5 30.2761 9.5 30Z" fill="black"/>
<path d="M30 10.5C30.2761 10.5 30.5 10.2761 30.5 10C30.5 9.72386 30.2761 9.5 30 9.5C29.7239 9.5 29.5 9.72386 29.5 10C29.5 10.2761 29.7239 10.5 30 10.5Z" fill="black"/>
<path d="M30.5 22C30.5 21.7239 30.2761 21.5 30 21.5C29.7239 21.5 29.5 21.7239 29.5 22C29.5 22.2761 29.7239 22.5 30 22.5C30.2761 22.5 30.5 22.2761 30.5 22Z" fill="black"/>
<path d="M2 10.5C1.72386 10.5 1.5 10.2761 1.5 10C1.5 9.72386 1.72386 9.5 2 9.5C2.27614 9.5 2.5 9.72386 2.5 10C2.5 10.2761 2.27614 10.5 2 10.5Z" fill="black"/>
<path d="M1.5 22C1.5 21.7239 1.72386 21.5 2 21.5C2.27614 21.5 2.5 21.7239 2.5 22C2.5 22.2761 2.27614 22.5 2 22.5C1.72386 22.5 1.5 22.2761 1.5 22Z" fill="black"/>
<path d="M26 2.25C25.8619 2.25 25.75 2.13807 25.75 2C25.75 1.86193 25.8619 1.75 26 1.75C26.1381 1.75 26.25 1.86193 26.25 2C26.25 2.13807 26.1381 2.25 26 2.25Z" fill="black"/>
<path d="M6.25 2C6.25 2.13807 6.13807 2.25 6 2.25C5.86193 2.25 5.75 2.13807 5.75 2C5.75 1.86193 5.86193 1.75 6 1.75C6.13807 1.75 6.25 1.86193 6.25 2Z" fill="black"/>
<path d="M26 29.75C25.8619 29.75 25.75 29.8619 25.75 30C25.75 30.1381 25.8619 30.25 26 30.25C26.1381 30.25 26.25 30.1381 26.25 30C26.25 29.8619 26.1381 29.75 26 29.75Z" fill="black"/>
<path d="M6.25 30C6.25 29.8619 6.13807 29.75 6 29.75C5.86193 29.75 5.75 29.8619 5.75 30C5.75 30.1381 5.86193 30.25 6 30.25C6.13807 30.25 6.25 30.1381 6.25 30Z" fill="black"/>
<path d="M30 2.125C29.931 2.125 29.875 2.06904 29.875 2C29.875 1.93096 29.931 1.875 30 1.875C30.069 1.875 30.125 1.93096 30.125 2C30.125 2.06904 30.069 2.125 30 2.125Z" fill="black"/>
<path d="M2.125 2C2.125 2.06904 2.06904 2.125 2 2.125C1.93096 2.125 1.875 2.06904 1.875 2C1.875 1.93096 1.93096 1.875 2 1.875C2.06904 1.875 2.125 1.93096 2.125 2Z" fill="black"/>
<path d="M30 29.875C29.931 29.875 29.875 29.931 29.875 30C29.875 30.069 29.931 30.125 30 30.125C30.069 30.125 30.125 30.069 30.125 30C30.125 29.931 30.069 29.875 30 29.875Z" fill="black"/>
<path d="M2.125 30C2.125 29.931 2.06904 29.875 2 29.875C1.93096 29.875 1.875 29.931 1.875 30C1.875 30.069 1.93096 30.125 2 30.125C2.06904 30.125 2.125 30.069 2.125 30Z" fill="black"/>
<path d="M30 6.25C29.8619 6.25 29.75 6.13807 29.75 6C29.75 5.86193 29.8619 5.75 30 5.75C30.1381 5.75 30.25 5.86193 30.25 6C30.25 6.13807 30.1381 6.25 30 6.25Z" fill="black"/>
<path d="M2.25 6C2.25 6.13807 2.13807 6.25 2 6.25C1.86193 6.25 1.75 6.13807 1.75 6C1.75 5.86193 1.86193 5.75 2 5.75C2.13807 5.75 2.25 5.86193 2.25 6Z" fill="black"/>
<path d="M30 25.75C29.8619 25.75 29.75 25.8619 29.75 26C29.75 26.1381 29.8619 26.25 30 26.25C30.1381 26.25 30.25 26.1381 30.25 26C30.25 25.8619 30.1381 25.75 30 25.75Z" fill="black"/>
<path d="M2.25 26C2.25 25.8619 2.13807 25.75 2 25.75C1.86193 25.75 1.75 25.8619 1.75 26C1.75 26.1381 1.86193 26.25 2 26.25C2.13807 26.25 2.25 26.1381 2.25 26Z" fill="black"/>
<path d="M19.25 6C19.25 5.30964 18.6904 4.75 18 4.75C17.3096 4.75 16.75 5.30964 16.75 6C16.75 6.69036 17.3096 7.25 18 7.25C18.6904 7.25 19.25 6.69036 19.25 6Z" fill="black"/>
<path d="M14 4.75C13.3096 4.75 12.75 5.30964 12.75 6C12.75 6.69036 13.3096 7.25 14 7.25C14.6904 7.25 15.25 6.69036 15.25 6C15.25 5.30964 14.6904 4.75 14 4.75Z" fill="black"/>
<path d="M19.25 26C19.25 26.6904 18.6904 27.25 18 27.25C17.3096 27.25 16.75 26.6904 16.75 26C16.75 25.3096 17.3096 24.75 18 24.75C18.6904 24.75 19.25 25.3096 19.25 26Z" fill="black"/>
<path d="M14 27.25C13.3096 27.25 12.75 26.6904 12.75 26C12.75 25.3096 13.3096 24.75 14 24.75C14.6904 24.75 15.25 25.3096 15.25 26C15.25 26.6904 14.6904 27.25 14 27.25Z" fill="black"/>
<path d="M26 12.75C26.6904 12.75 27.25 13.3096 27.25 14C27.25 14.6904 26.6904 15.25 26 15.25C25.3096 15.25 24.75 14.6904 24.75 14C24.75 13.3096 25.3096 12.75 26 12.75Z" fill="black"/>
<path d="M4.75 14C4.75 13.3096 5.30964 12.75 6 12.75C6.69036 12.75 7.25 13.3096 7.25 14C7.25 14.6904 6.69036 15.25 6 15.25C5.30964 15.25 4.75 14.6904 4.75 14Z" fill="black"/>
<path d="M26 19.25C26.6904 19.25 27.25 18.6904 27.25 18C27.25 17.3096 26.6904 16.75 26 16.75C25.3096 16.75 24.75 17.3096 24.75 18C24.75 18.6904 25.3096 19.25 26 19.25Z" fill="black"/>
<path d="M4.75 18C4.75 18.6904 5.30964 19.25 6 19.25C6.69036 19.25 7.25 18.6904 7.25 18C7.25 17.3096 6.69036 16.75 6 16.75C5.30964 16.75 4.75 17.3096 4.75 18Z" fill="black"/>
<path d="M13.25 2C13.25 1.58579 13.5858 1.25 14 1.25C14.4142 1.25 14.75 1.58579 14.75 2C14.75 2.41421 14.4142 2.75 14 2.75C13.5858 2.75 13.25 2.41421 13.25 2Z" fill="black"/>
<path d="M18 30.75C18.4142 30.75 18.75 30.4142 18.75 30C18.75 29.5858 18.4142 29.25 18 29.25C17.5858 29.25 17.25 29.5858 17.25 30C17.25 30.4142 17.5858 30.75 18 30.75Z" fill="black"/>
<path d="M13.25 30C13.25 30.4142 13.5858 30.75 14 30.75C14.4142 30.75 14.75 30.4142 14.75 30C14.75 29.5858 14.4142 29.25 14 29.25C13.5858 29.25 13.25 29.5858 13.25 30Z" fill="black"/>
<path d="M30.75 14C30.75 13.5858 30.4142 13.25 30 13.25C29.5858 13.25 29.25 13.5858 29.25 14C29.25 14.4142 29.5858 14.75 30 14.75C30.4142 14.75 30.75 14.4142 30.75 14Z" fill="black"/>
<path d="M2 13.25C1.58579 13.25 1.25 13.5858 1.25 14C1.25 14.4142 1.58579 14.75 2 14.75C2.41421 14.75 2.75 14.4142 2.75 14C2.75 13.5858 2.41421 13.25 2 13.25Z" fill="black"/>
<path d="M30.75 18C30.75 18.4142 30.4142 18.75 30 18.75C29.5858 18.75 29.25 18.4142 29.25 18C29.25 17.5858 29.5858 17.25 30 17.25C30.4142 17.25 30.75 17.5858 30.75 18Z" fill="black"/>
<path d="M2 18.75C1.58579 18.75 1.25 18.4142 1.25 18C1.25 17.5858 1.58579 17.25 2 17.25C2.41421 17.25 2.75 17.5858 2.75 18C2.75 18.4142 2.41421 18.75 2 18.75Z" fill="black"/>
</svg>
