<svg width="32" height="32" viewBox="0 0 32 32" fill="none" xmlns="http://www.w3.org/2000/svg">
<path d="M16 23.3333C17.2887 23.3333 18.3333 24.378 18.3333 25.6667C18.3333 26.9553 17.2887 28 16 28C14.7113 28 13.6667 26.9553 13.6667 25.6667C13.6667 24.378 14.7113 23.3333 16 23.3333Z" fill="black"/>
<path d="M16 13.6667C17.2887 13.6667 18.3333 14.7113 18.3333 16C18.3333 17.2887 17.2887 18.3333 16 18.3333C14.7113 18.3333 13.6667 17.2887 13.6667 16C13.6667 14.7113 14.7113 13.6667 16 13.6667Z" fill="black"/>
<path d="M16 4C17.2887 4 18.3333 5.04467 18.3333 6.33333C18.3333 7.622 17.2887 8.66667 16 8.66667C14.7113 8.66667 13.6667 7.622 13.6667 6.33333C13.6667 5.04467 14.7113 4 16 4Z" fill="black"/>
</svg>
