<svg width="32" height="32" viewBox="0 0 32 32" fill="none" xmlns="http://www.w3.org/2000/svg">
<path d="M20.5 10.4997C20.5 12.985 18.4852 14.9997 16 14.9997C13.5147 14.9997 11.4999 12.985 11.4999 10.4997C11.4999 8.01439 13.5147 5.99966 16 5.99966C18.4852 5.99966 20.5 8.01439 20.5 10.4997Z" fill="black"/>
<path d="M26 20.4997C26 22.985 23.9853 24.9997 21.5 24.9997C19.0147 24.9997 17 22.985 17 20.4997C17 18.0144 19.0147 15.9997 21.5 15.9997C23.9853 15.9997 26 18.0144 26 20.4997Z" fill="black"/>
<path d="M15 20.4997C15 22.985 12.9852 24.9997 10.4999 24.9997C8.01466 24.9997 5.99994 22.985 5.99994 20.4997C5.99994 18.0144 8.01466 15.9997 10.4999 15.9997C12.9852 15.9997 15 18.0144 15 20.4997Z" fill="black"/>
</svg>
