<svg width="32" height="32" viewBox="0 0 32 32" fill="none" xmlns="http://www.w3.org/2000/svg">
<path d="M15.0971 1.04723C15.0971 1.11167 15.0465 1.16346 14.982 1.16346C14.9187 1.16346 14.8669 1.11167 14.8669 1.04723C14.8669 0.982785 14.9187 0.931 14.982 0.931C15.0453 0.931 15.0971 0.982785 15.0971 1.04723Z" fill="black"/>
<path d="M12.9911 1.14165C13.0429 1.14165 13.0844 1.09907 13.0844 1.04728C13.0844 0.995499 13.0429 0.954071 12.9911 0.954071C12.9393 0.954071 12.8979 0.99665 12.8979 1.04728C12.8979 1.09792 12.9393 1.14165 12.9911 1.14165Z" fill="black"/>
<path d="M11.0566 1.04837C11.0566 1.07944 11.0324 1.10361 11.0013 1.10361C10.9714 1.10361 10.946 1.07829 10.946 1.04837C10.946 1.01845 10.9702 0.993134 11.0013 0.993134C11.0324 0.993134 11.0566 1.0173 11.0566 1.04837Z" fill="black"/>
<path d="M9.02654 1.04835C9.02654 1.05755 9.01963 1.06446 9.01041 1.06446C9.0012 1.06446 8.99429 1.0564 8.99429 1.04835C8.99429 1.04029 9.0012 1.03224 9.01041 1.03224C9.01963 1.03224 9.02654 1.03914 9.02654 1.04835Z" fill="black"/>
<path d="M16.973 1.16346C17.0375 1.16346 17.0893 1.11167 17.0893 1.04723C17.0893 0.982785 17.0375 0.931 16.973 0.931C16.9085 0.931 16.8578 0.982785 16.8578 1.04723C16.8578 1.11167 16.9096 1.16346 16.973 1.16346Z" fill="black"/>
<path d="M19.063 1.0484C19.063 1.10249 19.0193 1.14737 18.964 1.14737C18.9099 1.14737 18.865 1.10364 18.865 1.0484C18.865 0.993162 18.9099 0.949432 18.964 0.949432C19.0181 0.949432 19.063 0.994313 19.063 1.0484Z" fill="black"/>
<path d="M20.9548 1.11968C20.994 1.11968 21.0262 1.08861 21.0262 1.04833C21.0262 1.00805 20.994 0.97698 20.9548 0.97698C20.9157 0.97698 20.8835 1.0092 20.8835 1.04833C20.8835 1.08746 20.9157 1.11968 20.9548 1.11968Z" fill="black"/>
<path d="M22.9723 1.04834C22.9723 1.0633 22.9607 1.07596 22.9446 1.07596C22.9296 1.07596 22.917 1.0633 22.917 1.04834C22.917 1.03338 22.9285 1.02072 22.9446 1.02072C22.9607 1.02072 22.9723 1.03338 22.9723 1.04834Z" fill="black"/>
<path d="M7.01945 3.09445C7.04939 3.09445 7.07473 3.06914 7.07473 3.03922C7.07473 3.0093 7.04939 2.98398 7.01945 2.98398C6.98951 2.98398 6.96418 3.0093 6.96418 3.03922C6.96418 3.06914 6.98951 3.09445 7.01945 3.09445Z" fill="black"/>
<path d="M9.13245 3.03809C9.13245 3.10599 9.07718 3.16007 9.01039 3.16007C8.94246 3.16007 8.88834 3.10599 8.88834 3.03809C8.88834 2.97019 8.94361 2.91611 9.01039 2.91611C9.07718 2.91611 9.13245 2.97019 9.13245 3.03809Z" fill="black"/>
<path d="M11.0014 3.22681C11.105 3.22681 11.1891 3.1428 11.1891 3.03923C11.1891 2.93566 11.105 2.85165 11.0014 2.85165C10.8978 2.85165 10.8137 2.93566 10.8137 3.03923C10.8137 3.1428 10.8978 3.22681 11.0014 3.22681Z" fill="black"/>
<path d="M13.2226 3.03918C13.2226 3.16692 13.1189 3.27049 12.9911 3.27049C12.8633 3.27049 12.7597 3.16692 12.7597 3.03918C12.7597 2.91144 12.8633 2.80787 12.9911 2.80787C13.1189 2.80787 13.2226 2.91144 13.2226 3.03918Z" fill="black"/>
<path d="M14.9821 3.29235C15.1214 3.29235 15.2354 3.17842 15.2354 3.03803C15.2354 2.89763 15.1214 2.7837 14.9821 2.7837C14.8428 2.7837 14.7276 2.89763 14.7276 3.03803C14.7276 3.17842 14.8416 3.29235 14.9821 3.29235Z" fill="black"/>
<path d="M17.2332 3.03917C17.2332 3.18187 17.1169 3.2981 16.9729 3.2981C16.8302 3.2981 16.7139 3.18187 16.7139 3.03917C16.7139 2.89647 16.829 2.78024 16.9729 2.78024C17.1169 2.78024 17.2332 2.89647 17.2332 3.03917Z" fill="black"/>
<path d="M18.9639 3.27627C19.0952 3.27627 19.2011 3.16925 19.2011 3.03921C19.2011 2.90917 19.094 2.80099 18.9639 2.80099C18.8338 2.80099 18.7267 2.90802 18.7267 3.03921C18.7267 3.1704 18.8327 3.27627 18.9639 3.27627Z" fill="black"/>
<path d="M21.1541 3.03813C21.1541 3.1486 21.0643 3.23721 20.9549 3.23721C20.8444 3.23721 20.7557 3.1486 20.7557 3.03813C20.7557 2.92765 20.8444 2.83904 20.9549 2.83904C21.0654 2.83904 21.1541 2.92765 21.1541 3.03813Z" fill="black"/>
<path d="M22.9447 3.18767C23.0276 3.18767 23.0932 3.12093 23.0932 3.03922C23.0932 2.95751 23.0264 2.88962 22.9447 2.88962C22.8629 2.88962 22.7961 2.95636 22.7961 3.03922C22.7961 3.12208 22.8629 3.18767 22.9447 3.18767Z" fill="black"/>
<path d="M25.0128 3.03919C25.0128 3.08177 24.9782 3.11629 24.9356 3.11629C24.893 3.11629 24.8585 3.08177 24.8585 3.03919C24.8585 2.99661 24.893 2.96209 24.9356 2.96209C24.9782 2.96209 25.0128 2.99661 25.0128 3.03919Z" fill="black"/>
<path d="M26.9265 3.04963C26.9323 3.04963 26.9369 3.04502 26.9369 3.03812C26.9369 3.03121 26.9323 3.02776 26.9265 3.02776C26.9208 3.02776 26.9162 3.03236 26.9162 3.03812C26.9162 3.04387 26.9208 3.04963 26.9265 3.04963Z" fill="black"/>
<path d="M5.09997 5.0301C5.09997 5.06923 5.06773 5.10145 5.02858 5.10145C4.98943 5.10145 4.95718 5.07038 4.95718 5.0301C4.95718 4.98982 4.98943 4.95875 5.02858 4.95875C5.06773 4.95875 5.09997 4.99097 5.09997 5.0301Z" fill="black"/>
<path d="M7.01959 5.18891C7.10825 5.18891 7.17964 5.11756 7.17964 5.02895C7.17964 4.94034 7.10825 4.86899 7.01959 4.86899C6.93092 4.86899 6.85953 4.94149 6.85953 5.02895C6.85953 5.11641 6.93092 5.18891 7.01959 5.18891Z" fill="black"/>
<path d="M9.25342 5.02896C9.25342 5.16306 9.14464 5.27178 9.01045 5.27178C8.87627 5.27178 8.76749 5.16306 8.76749 5.02896C8.76749 4.89486 8.87627 4.78614 9.01045 4.78614C9.14464 4.78614 9.25342 4.89486 9.25342 5.02896Z" fill="black"/>
<path d="M11.0013 5.35C11.1787 5.35 11.3215 5.20615 11.3215 5.02892C11.3215 4.8517 11.1787 4.70785 11.0013 4.70785C10.824 4.70785 10.6812 4.8517 10.6812 5.02892C10.6812 5.20615 10.824 5.35 11.0013 5.35Z" fill="black"/>
<path d="M13.3665 5.03003C13.3665 5.23718 13.1984 5.40519 12.9911 5.40519C12.7838 5.40519 12.6157 5.23718 12.6157 5.03003C12.6157 4.82289 12.7838 4.65488 12.9911 4.65488C13.1984 4.65488 13.3665 4.82289 13.3665 5.03003Z" fill="black"/>
<path d="M14.9821 5.43743C15.2078 5.43743 15.3909 5.25446 15.3909 5.0289C15.3909 4.80335 15.2078 4.62037 14.9821 4.62037C14.7564 4.62037 14.5733 4.80335 14.5733 5.0289C14.5733 5.25446 14.7564 5.43743 14.9821 5.43743Z" fill="black"/>
<path d="M17.3876 5.02896C17.3876 5.25797 17.2022 5.44324 16.973 5.44324C16.745 5.44324 16.5596 5.25797 16.5596 5.02896C16.5596 4.79995 16.7439 4.61467 16.973 4.61467C17.2022 4.61467 17.3876 4.79995 17.3876 5.02896Z" fill="black"/>
<path d="M18.964 5.4214C19.1805 5.4214 19.3555 5.24533 19.3555 5.02899C19.3555 4.81264 19.1805 4.63657 18.964 4.63657C18.7475 4.63657 18.5725 4.81264 18.5725 5.02899C18.5725 5.24533 18.7475 5.4214 18.964 5.4214Z" fill="black"/>
<path d="M21.2969 5.03012C21.2969 5.21885 21.1437 5.3719 20.9549 5.3719C20.766 5.3719 20.6129 5.22 20.6129 5.03012C20.6129 4.84024 20.766 4.68718 20.9549 4.68718C21.1437 4.68718 21.2969 4.84139 21.2969 5.03012Z" fill="black"/>
<path d="M22.9447 5.30516C23.0967 5.30516 23.2211 5.18202 23.2211 5.02897C23.2211 4.87591 23.0967 4.75278 22.9447 4.75278C22.7927 4.75278 22.6695 4.87706 22.6695 5.02897C22.6695 5.18087 22.7927 5.30516 22.9447 5.30516Z" fill="black"/>
<path d="M25.1233 5.0289C25.1233 5.13247 25.0393 5.21648 24.9356 5.21648C24.832 5.21648 24.748 5.13247 24.748 5.0289C24.748 4.92533 24.832 4.84132 24.9356 4.84132C25.0393 4.84132 25.1233 4.92533 25.1233 5.0289Z" fill="black"/>
<path d="M26.9265 5.12906C26.9818 5.12906 27.0267 5.08533 27.0267 5.03009C27.0267 4.97485 26.9818 4.93112 26.9265 4.93112C26.8712 4.93112 26.8275 4.976 26.8275 5.03009C26.8275 5.08418 26.8712 5.12906 26.9265 5.12906Z" fill="black"/>
<path d="M28.9337 5.03004C28.9337 5.03924 28.9268 5.04615 28.9176 5.04615C28.9083 5.04615 28.9014 5.03924 28.9014 5.03004C28.9014 5.02083 28.9072 5.01393 28.9176 5.01393C28.9268 5.01393 28.9337 5.02083 28.9337 5.03004Z" fill="black"/>
<path d="M3.03882 7.07505C3.06876 7.07505 3.09409 7.05088 3.09409 7.01981C3.09409 6.98874 3.06876 6.96457 3.03882 6.96457C3.00888 6.96457 2.98355 6.98989 2.98355 7.01981C2.98355 7.04973 3.00773 7.07505 3.03882 7.07505Z" fill="black"/>
<path d="M5.18868 7.01979C5.18868 7.1084 5.11728 7.1809 5.02862 7.1809C4.93995 7.1809 4.86856 7.1084 4.86856 7.01979C4.86856 6.93118 4.9411 6.85983 5.02862 6.85983C5.11613 6.85983 5.18868 6.93118 5.18868 7.01979Z" fill="black"/>
<path d="M7.01945 7.29023C7.16915 7.29023 7.29005 7.1694 7.29005 7.01979C7.29005 6.87019 7.16915 6.74936 7.01945 6.74936C6.86976 6.74936 6.74885 6.87019 6.74885 7.01979C6.74885 7.1694 6.86976 7.29023 7.01945 7.29023Z" fill="black"/>
<path d="M9.38012 7.01989C9.38012 7.22473 9.2143 7.39044 9.01049 7.39044C8.80667 7.39044 8.64086 7.22358 8.64086 7.01989C8.64086 6.8162 8.80667 6.65048 9.01049 6.65048C9.2143 6.65048 9.38012 6.81505 9.38012 7.01989Z" fill="black"/>
<path d="M11.0014 7.48362C11.2582 7.48362 11.4654 7.27647 11.4654 7.01985C11.4654 6.76322 11.2582 6.55608 11.0014 6.55608C10.7446 6.55608 10.5373 6.76322 10.5373 7.01985C10.5373 7.27647 10.7446 7.48362 11.0014 7.48362Z" fill="black"/>
<path d="M13.5209 7.01981C13.5209 7.31326 13.2837 7.55032 12.9912 7.55032C12.6987 7.55032 12.4615 7.31211 12.4615 7.01981C12.4615 6.72751 12.6987 6.49045 12.9912 6.49045C13.2837 6.49045 13.5209 6.72636 13.5209 7.01981Z" fill="black"/>
<path d="M14.9821 7.58832C15.2964 7.58832 15.5509 7.334 15.5509 7.01983C15.5509 6.70567 15.2964 6.45134 14.9821 6.45134C14.6677 6.45134 14.4132 6.70567 14.4132 7.01983C14.4132 7.334 14.6677 7.58832 14.9821 7.58832Z" fill="black"/>
<path d="M17.5476 7.01981C17.5476 7.33628 17.2897 7.59405 16.973 7.59405C16.6563 7.59405 16.3996 7.33743 16.3996 7.01981C16.3996 6.70219 16.6552 6.44557 16.973 6.44557C17.2908 6.44557 17.5476 6.70334 17.5476 7.01981Z" fill="black"/>
<path d="M18.9639 7.56649C19.2655 7.56649 19.5108 7.32137 19.5108 7.01986C19.5108 6.71835 19.2655 6.47324 18.9639 6.47324C18.6622 6.47324 18.4169 6.71835 18.4169 7.01986C18.4169 7.32137 18.6622 7.56649 18.9639 7.56649Z" fill="black"/>
<path d="M21.4408 7.01978C21.4408 7.28792 21.2231 7.50541 20.9548 7.50541C20.6865 7.50541 20.4689 7.28792 20.4689 7.01978C20.4689 6.75165 20.6865 6.53415 20.9548 6.53415C21.2231 6.53415 21.4408 6.75165 21.4408 7.01978Z" fill="black"/>
<path d="M22.9447 7.42267C23.1681 7.42267 23.3477 7.24315 23.3477 7.01989C23.3477 6.79664 23.1681 6.61712 22.9447 6.61712C22.7213 6.61712 22.5417 6.79779 22.5417 7.01989C22.5417 7.24199 22.7224 7.42267 22.9447 7.42267Z" fill="black"/>
<path d="M25.2385 7.01979C25.2385 7.18781 25.1026 7.3236 24.9357 7.3236C24.7675 7.3236 24.6317 7.18665 24.6317 7.01979C24.6317 6.85293 24.7687 6.71713 24.9357 6.71713C25.1026 6.71713 25.2385 6.85177 25.2385 7.01979Z" fill="black"/>
<path d="M26.9266 7.21309C27.0337 7.21309 27.12 7.12678 27.12 7.01976C27.12 6.91274 27.0337 6.82643 26.9266 6.82643C26.8195 6.82643 26.7331 6.91274 26.7331 7.01976C26.7331 7.12678 26.8195 7.21309 26.9266 7.21309Z" fill="black"/>
<path d="M29.0107 7.01982C29.0107 7.0716 28.9692 7.11418 28.9174 7.11418C28.8644 7.11418 28.823 7.07045 28.823 7.01982C28.823 6.96918 28.8656 6.9266 28.9174 6.9266C28.9692 6.9266 29.0107 6.96803 29.0107 7.01982Z" fill="black"/>
<path d="M1.04679 9.02675C1.056 9.02675 1.06291 9.01984 1.06291 9.01064C1.06291 9.00143 1.056 8.99338 1.04679 8.99338C1.03758 8.99338 1.03067 9.00028 1.03067 9.01064C1.03067 9.01984 1.03758 9.02675 1.04679 9.02675Z" fill="black"/>
<path d="M3.16085 9.01185C3.16085 9.07859 3.10558 9.13268 3.0388 9.13268C2.97086 9.13268 2.91674 9.07974 2.91674 9.01185C2.91674 8.94395 2.97201 8.88986 3.0388 8.88986C3.10558 8.88986 3.16085 8.9451 3.16085 9.01185Z" fill="black"/>
<path d="M5.02852 9.25346C5.16209 9.25346 5.27148 9.14529 5.27148 9.01065C5.27148 8.87601 5.16209 8.76783 5.02852 8.76783C4.89494 8.76783 4.78555 8.87601 4.78555 9.01065C4.78555 9.14529 4.89494 9.25346 5.02852 9.25346Z" fill="black"/>
<path d="M7.38915 9.01184C7.38915 9.21553 7.22334 9.38124 7.01952 9.38124C6.81571 9.38124 6.64989 9.21668 6.64989 9.01184C6.64989 8.807 6.81571 8.64129 7.01952 8.64129C7.22334 8.64129 7.38915 8.80815 7.38915 9.01184Z" fill="black"/>
<path d="M9.0104 9.50203C9.281 9.50203 9.50208 9.28223 9.50208 9.01064C9.50208 8.73906 9.28215 8.51926 9.0104 8.51926C8.73864 8.51926 8.51871 8.73906 8.51871 9.01064C8.51871 9.28223 8.73864 9.50203 9.0104 9.50203Z" fill="black"/>
<path d="M11.6035 9.01064C11.6035 9.34322 11.3329 9.61251 11.0013 9.61251C10.6685 9.61251 10.3991 9.34322 10.3991 9.01064C10.3991 8.67807 10.6685 8.40878 11.0013 8.40878C11.3341 8.40878 11.6035 8.67807 11.6035 9.01064Z" fill="black"/>
<path d="M12.9911 9.68965C13.3665 9.68965 13.6705 9.38584 13.6705 9.01068C13.6705 8.63552 13.3665 8.33172 12.9911 8.33172C12.6158 8.33172 12.3118 8.63552 12.3118 9.01068C12.3118 9.38584 12.6158 9.68965 12.9911 9.68965Z" fill="black"/>
<path d="M15.7167 9.01074C15.7167 9.41697 15.3874 9.74495 14.982 9.74495C14.5767 9.74495 14.2474 9.41697 14.2474 9.01074C14.2474 8.60451 14.5767 8.27654 14.982 8.27654C15.3874 8.27654 15.7167 8.60451 15.7167 9.01074Z" fill="black"/>
<path d="M16.973 9.75648C17.3853 9.75648 17.7181 9.42275 17.7181 9.01192C17.7181 8.60108 17.3841 8.2662 16.973 8.2662C16.5619 8.2662 16.228 8.59993 16.228 9.01192C16.228 9.4239 16.5619 9.75648 16.973 9.75648Z" fill="black"/>
<path d="M19.6709 9.01063C19.6709 9.40075 19.3543 9.71722 18.9639 9.71722C18.5747 9.71722 18.258 9.40075 18.258 9.01063C18.258 8.62051 18.5736 8.30405 18.9639 8.30405C19.3543 8.30405 19.6709 8.62051 19.6709 9.01063Z" fill="black"/>
<path d="M20.9549 9.64024C21.3026 9.64024 21.5847 9.3583 21.5847 9.01076C21.5847 8.66322 21.3026 8.38128 20.9549 8.38128C20.6071 8.38128 20.3262 8.66322 20.3262 9.01076C20.3262 9.3583 20.6083 9.64024 20.9549 9.64024Z" fill="black"/>
<path d="M23.4744 9.01067C23.4744 9.30297 23.2372 9.54003 22.9447 9.54003C22.6522 9.54003 22.415 9.30412 22.415 9.01067C22.415 8.71722 22.6522 8.48015 22.9447 8.48015C23.2372 8.48015 23.4744 8.71837 23.4744 9.01067Z" fill="black"/>
<path d="M24.9356 9.425C25.1636 9.425 25.349 9.23972 25.349 9.01187C25.349 8.78401 25.1636 8.59758 24.9356 8.59758C24.7076 8.59758 24.5211 8.78286 24.5211 9.01187C24.5211 9.24088 24.7065 9.425 24.9356 9.425Z" fill="black"/>
<path d="M27.219 9.0107C27.219 9.17181 27.0877 9.30301 26.9265 9.30301C26.7653 9.30301 26.634 9.17297 26.634 9.0107C26.634 8.84844 26.7653 8.71725 26.9265 8.71725C27.0877 8.71725 27.219 8.84959 27.219 9.0107Z" fill="black"/>
<path d="M28.9174 9.17637C29.0084 9.17637 29.0833 9.10272 29.0833 9.01065C29.0833 8.91859 29.0084 8.84494 28.9174 8.84494C28.8265 8.84494 28.7505 8.91859 28.7505 9.01065C28.7505 9.10272 28.8253 9.17637 28.9174 9.17637Z" fill="black"/>
<path d="M30.958 9.01063C30.958 9.03825 30.9361 9.06012 30.9085 9.06012C30.882 9.06012 30.859 9.0371 30.859 9.01063C30.859 8.98417 30.8808 8.96115 30.9085 8.96115C30.9361 8.96115 30.958 8.98302 30.958 9.01063Z" fill="black"/>
<path d="M1.04664 11.0567C1.07773 11.0567 1.10191 11.0326 1.10191 11.0015C1.10191 10.9704 1.07773 10.9463 1.04664 10.9463C1.01554 10.9463 0.991364 10.9704 0.991364 11.0015C0.991364 11.0326 1.0167 11.0567 1.04664 11.0567Z" fill="black"/>
<path d="M3.22653 11.0016C3.22653 11.1051 3.14247 11.1891 3.03884 11.1891C2.9352 11.1891 2.85115 11.1051 2.85115 11.0016C2.85115 10.898 2.9352 10.814 3.03884 10.814C3.14247 10.814 3.22653 10.898 3.22653 11.0016Z" fill="black"/>
<path d="M5.02852 11.3214C5.20531 11.3214 5.34863 11.1782 5.34863 11.0015C5.34863 10.8248 5.20531 10.6816 5.02852 10.6816C4.85173 10.6816 4.7084 10.8248 4.7084 11.0015C4.7084 11.1782 4.85173 11.3214 5.02852 11.3214Z" fill="black"/>
<path d="M7.48351 11.0015C7.48351 11.2582 7.27509 11.4653 7.01946 11.4653C6.76268 11.4653 6.55541 11.2582 6.55541 11.0015C6.55541 10.7449 6.76268 10.5378 7.01946 10.5378C7.27624 10.5378 7.48351 10.7449 7.48351 11.0015Z" fill="black"/>
<path d="M9.01042 11.6034C9.34205 11.6034 9.6115 11.3341 9.6115 11.0015C9.6115 10.6689 9.34205 10.3996 9.01042 10.3996C8.67879 10.3996 8.40819 10.6689 8.40819 11.0015C8.40819 11.3341 8.67764 11.6034 9.01042 11.6034Z" fill="black"/>
<path d="M11.7303 11.0016C11.7303 11.4032 11.4044 11.73 11.0014 11.73C10.5984 11.73 10.2725 11.4032 10.2725 11.0016C10.2725 10.5999 10.5984 10.2731 11.0014 10.2731C11.4044 10.2731 11.7303 10.5999 11.7303 11.0016Z" fill="black"/>
<path d="M13.8246 11.0123C13.8308 10.5522 13.4626 10.1742 13.0022 10.168C12.5419 10.1618 12.1636 10.5298 12.1574 10.9899C12.1512 11.45 12.5194 11.828 12.9798 11.8342C13.4402 11.8403 13.8185 11.4724 13.8246 11.0123Z" fill="black"/>
<path d="M15.8872 11.0015C15.8872 11.501 15.4819 11.9072 14.9821 11.9072C14.4812 11.9072 14.0759 11.501 14.0759 11.0015C14.0759 10.5021 14.4824 10.0959 14.9821 10.0959C15.4819 10.0959 15.8872 10.5021 15.8872 11.0015Z" fill="black"/>
<path fill-rule="evenodd" clip-rule="evenodd" d="M17.8896 11.0016C17.8896 11.4606 17.5511 11.8417 17.1092 11.9075C17.5307 11.9599 17.8779 12.2525 18.0093 12.6443C18.1511 12.2542 18.5251 11.9751 18.964 11.9751C19.5248 11.9751 19.9796 12.4297 19.9796 12.9913C19.9796 13.4097 19.7271 13.7687 19.3664 13.9246C19.6912 14.0483 19.9444 14.3174 20.0466 14.6521C20.1815 14.2808 20.5375 14.0156 20.9549 14.0156C21.488 14.0156 21.921 14.4482 21.921 14.9822C21.921 15.5162 21.488 15.9489 20.9549 15.9489C20.5378 15.9489 20.182 15.6841 20.0469 15.3132C19.9623 15.5909 19.7738 15.8233 19.5265 15.9651C19.7711 16.102 19.9607 16.3254 20.054 16.5939C20.2024 16.2432 20.5498 15.9972 20.9549 15.9972C21.495 15.9972 21.9325 16.4345 21.9325 16.9742C21.9325 17.5139 21.4938 17.9512 20.9549 17.9512C20.5494 17.9512 20.2017 17.7047 20.0536 17.3534C19.9512 17.647 19.7336 17.8866 19.4549 18.0179C19.796 18.1955 20.029 18.5524 20.029 18.9638C20.029 19.5523 19.5521 20.0294 18.9639 20.0294C18.5524 20.0294 18.1954 19.796 18.018 19.4542C17.8871 19.7335 17.6476 19.9518 17.3538 20.0546C17.7046 20.2029 17.9507 20.55 17.9507 20.9547C17.9507 21.4945 17.5119 21.9318 16.973 21.9318C16.4341 21.9318 15.9966 21.4945 15.9966 20.9547C15.9966 20.5501 16.2418 20.2031 16.5921 20.0547C16.3239 19.9609 16.1008 19.7709 15.9643 19.5259C15.823 19.7729 15.5913 19.9616 15.3141 20.0467C15.684 20.1822 15.9482 20.5375 15.9482 20.9547C15.9482 21.4887 15.5153 21.9214 14.9821 21.9214C14.449 21.9214 14.016 21.4887 14.016 20.9547C14.016 20.5375 14.2803 20.1822 14.6501 20.0467C14.3157 19.9441 14.0472 19.6908 13.9238 19.3665C13.7678 19.7272 13.4089 19.98 12.9912 19.98C12.4304 19.98 11.9756 19.5243 11.9756 18.9639C11.9756 18.5259 12.2533 18.1519 12.6423 18.0094C12.2527 17.8782 11.9612 17.5332 11.9074 17.1136C11.84 17.5528 11.4595 17.8902 11.0014 17.8902C10.4947 17.8902 10.0848 17.4793 10.0848 16.9741C10.0848 16.4689 10.4947 16.0581 11.0014 16.0581C11.4601 16.0581 11.8395 16.3949 11.9072 16.8336C11.9567 16.4441 12.2109 16.1189 12.5583 15.9688C12.1794 15.8024 11.9145 15.4241 11.9145 14.9833C11.9145 14.4757 12.2658 14.0502 12.7379 13.9362C12.3216 13.8246 12.0147 13.4444 12.0147 12.9924C12.0147 12.4527 12.4523 12.0153 12.9912 12.0153C13.4432 12.0153 13.824 12.3231 13.935 12.7408C14.0483 12.2673 14.4744 11.9153 14.9821 11.9153C15.4228 11.9153 15.8021 12.1813 15.9686 12.561C16.1187 12.2115 16.4457 11.9562 16.8368 11.9076C16.3949 11.8418 16.0564 11.4606 16.0564 11.0016C16.0564 10.4964 16.4663 10.0855 16.973 10.0855C17.4796 10.0855 17.8896 10.4964 17.8896 11.0016ZM18.0175 18.4743C18.1186 18.2792 18.2781 18.1193 18.4729 18.0179C18.3167 17.9443 18.1797 17.8367 18.0714 17.7046C17.9744 17.8499 17.8494 17.975 17.7041 18.0719C17.8363 18.1804 17.944 18.3177 18.0175 18.4743ZM15.9451 17.8006C16.0295 17.9053 16.1295 17.9969 16.2417 18.0718C16.1295 18.1638 16.035 18.2765 15.964 18.4041C15.8851 18.2663 15.7781 18.1467 15.6509 18.0531C15.7615 17.9844 15.8607 17.8991 15.9451 17.8006ZM13.9243 18.5624C14.0027 18.3575 14.139 18.1809 14.3132 18.053C14.1352 17.9424 13.9865 17.7889 13.8815 17.6071C13.7492 17.7928 13.5603 17.9352 13.34 18.0094C13.6025 18.1055 13.8143 18.307 13.9243 18.5624ZM18.0715 16.2415C18.1629 16.13 18.2747 16.036 18.4013 15.9651C18.2642 15.8865 18.1451 15.78 18.0518 15.6534C17.9834 15.763 17.8988 15.8615 17.8012 15.9455C17.9056 16.0297 17.9968 16.1296 18.0715 16.2415ZM15.9533 15.739C16.0095 15.8146 16.0738 15.8838 16.1451 15.9452C16.0714 16.0047 16.0041 16.072 15.9447 16.1459C15.8834 16.0745 15.8142 16.01 15.7386 15.9538C15.8187 15.8913 15.8909 15.8191 15.9533 15.739ZM13.8818 16.3392C13.9691 16.1883 14.0865 16.0571 14.2259 15.9536C14.0911 15.8485 13.9788 15.716 13.8973 15.5644C13.7832 15.7415 13.6186 15.8831 13.4239 15.9687C13.6083 16.0484 13.7665 16.1774 13.8818 16.3392ZM18.0518 14.3127C18.1798 14.1386 18.3565 14.0025 18.5617 13.9244C18.3065 13.814 18.1055 13.6019 18.0097 13.3393C17.9358 13.5604 17.7933 13.7499 17.6076 13.8826C17.7886 13.9874 17.9414 14.1355 18.0518 14.3127ZM15.9686 13.4237C16.048 13.6086 16.1768 13.7671 16.3385 13.8826C16.1879 13.9697 16.0569 14.087 15.9537 14.2261C15.8486 14.0912 15.7162 13.9788 15.5647 13.8972C15.7417 13.783 15.8832 13.6184 15.9686 13.4237ZM13.8966 14.401C14.011 14.1877 14.1863 14.0121 14.3993 13.8973C14.1699 13.7496 14.0004 13.5171 13.935 13.2439C13.8455 13.5808 13.5806 13.8461 13.2443 13.9362C13.5168 14.0021 13.7489 14.1718 13.8966 14.401Z" fill="black"/>
<path d="M19.8253 11.0015C19.8253 11.4768 19.4396 11.8623 18.964 11.8623C18.4884 11.8623 18.1027 11.4768 18.1027 11.0015C18.1027 10.5262 18.4884 10.1407 18.964 10.1407C19.4396 10.1407 19.8253 10.5262 19.8253 11.0015Z" fill="black"/>
<path d="M20.955 11.7691C21.3787 11.7691 21.723 11.425 21.723 11.0016C21.723 10.5781 21.3787 10.234 20.955 10.234C20.5312 10.234 20.1881 10.5781 20.1881 11.0016C20.1881 11.425 20.5324 11.7691 20.955 11.7691Z" fill="black"/>
<path d="M23.5849 11.0016C23.5849 11.3549 23.2982 11.6415 22.9447 11.6415C22.5912 11.6415 22.3044 11.3549 22.3044 11.0016C22.3044 10.6483 22.5912 10.3618 22.9447 10.3618C23.2982 10.3618 23.5849 10.6483 23.5849 11.0016Z" fill="black"/>
<path d="M24.9356 11.5091C25.2154 11.5091 25.4434 11.2812 25.4434 11.0016C25.4434 10.7219 25.2154 10.4941 24.9356 10.4941C24.6558 10.4941 24.4278 10.7208 24.4278 11.0016C24.4278 11.2824 24.6558 11.5091 24.9356 11.5091Z" fill="black"/>
<path d="M27.2961 11.0016C27.2961 11.2053 27.1315 11.371 26.9265 11.371C26.7227 11.371 26.5569 11.2053 26.5569 11.0016C26.5569 10.7979 26.7215 10.6322 26.9265 10.6322C27.1315 10.6322 27.2961 10.7979 27.2961 11.0016Z" fill="black"/>
<path d="M28.9174 11.2329C29.0452 11.2329 29.1489 11.1293 29.1489 11.0016C29.1489 10.8738 29.0452 10.7703 28.9174 10.7703C28.7896 10.7703 28.6848 10.8738 28.6848 11.0016C28.6848 11.1293 28.7884 11.2329 28.9174 11.2329Z" fill="black"/>
<path d="M31.0028 11.0015C31.0028 11.0533 30.9602 11.0959 30.9084 11.0959C30.8566 11.0959 30.814 11.0533 30.814 11.0015C30.814 10.9497 30.8566 10.9072 30.9084 10.9072C30.9602 10.9072 31.0028 10.9497 31.0028 11.0015Z" fill="black"/>
<path d="M1.04679 13.0856C1.09861 13.0856 1.14122 13.043 1.14122 12.9924C1.14122 12.9418 1.09861 12.8992 1.04679 12.8992C0.994975 12.8992 0.953522 12.9406 0.953522 12.9924C0.953522 13.0442 0.994975 13.0856 1.04679 13.0856Z" fill="black"/>
<path d="M3.27028 12.9925C3.27028 13.1202 3.16664 13.2238 3.03883 13.2238C2.90986 13.2238 2.80622 13.1202 2.80622 12.9925C2.80622 12.8647 2.91101 12.7612 3.03883 12.7612C3.16664 12.7612 3.27028 12.8647 3.27028 12.9925Z" fill="black"/>
<path d="M5.02862 13.3676C5.23588 13.3676 5.404 13.1996 5.404 12.9924C5.404 12.7853 5.23588 12.6173 5.02862 12.6173C4.82135 12.6173 4.65323 12.7853 4.65323 12.9924C4.65323 13.1996 4.82135 13.3676 5.02862 13.3676Z" fill="black"/>
<path d="M7.54919 12.9924C7.54919 13.2847 7.31198 13.5218 7.0195 13.5218C6.72702 13.5218 6.48982 13.2847 6.48982 12.9924C6.48982 12.7001 6.72702 12.4631 7.0195 12.4631C7.31198 12.4631 7.54919 12.7001 7.54919 12.9924Z" fill="black"/>
<path d="M9.01043 13.6714C9.38466 13.6714 9.68981 13.3676 9.68981 12.9925C9.68981 12.6173 9.38581 12.3135 9.01043 12.3135C8.63504 12.3135 8.33104 12.6173 8.33104 12.9925C8.33104 13.3676 8.63504 13.6714 9.01043 13.6714Z" fill="black"/>
<path d="M11.8351 12.9925C11.8351 13.4516 11.462 13.8256 11.0014 13.8256C10.5408 13.8256 10.1677 13.4539 10.1677 12.9925C10.1677 12.531 10.5408 12.1581 11.0014 12.1581C11.462 12.1581 11.8351 12.5333 11.8351 12.9925Z" fill="black"/>
<path d="M20.9549 13.8808C21.4465 13.8808 21.8438 13.4827 21.8438 12.9924C21.8438 12.5022 21.4454 12.1029 20.9549 12.1029C20.4643 12.1029 20.0659 12.501 20.0659 12.9924C20.0659 13.4838 20.4643 13.8808 20.9549 13.8808Z" fill="black"/>
<path d="M23.6793 12.9924C23.6793 13.3987 23.35 13.7266 22.9447 13.7266C22.5405 13.7266 22.2112 13.3987 22.2112 12.9924C22.2112 12.5862 22.5393 12.2582 22.9447 12.2582C23.35 12.2582 23.6793 12.5862 23.6793 12.9924Z" fill="black"/>
<path d="M24.9356 13.5712C25.2557 13.5712 25.5148 13.3123 25.5148 12.9924C25.5148 12.6724 25.2545 12.4124 24.9356 12.4124C24.6166 12.4124 24.3564 12.6724 24.3564 12.9924C24.3564 13.3123 24.6154 13.5712 24.9356 13.5712Z" fill="black"/>
<path d="M27.3572 12.9924C27.3572 13.2294 27.1649 13.4228 26.9265 13.4228C26.6881 13.4228 26.4958 13.2306 26.4958 12.9924C26.4958 12.7542 26.6881 12.562 26.9265 12.562C27.1649 12.562 27.3572 12.7553 27.3572 12.9924Z" fill="black"/>
<path d="M28.9174 13.2687C29.0694 13.2687 29.1926 13.1455 29.1926 12.9925C29.1926 12.8394 29.0694 12.7163 28.9174 12.7163C28.7654 12.7163 28.641 12.8394 28.641 12.9925C28.641 13.1455 28.7654 13.2687 28.9174 13.2687Z" fill="black"/>
<path d="M31.0465 12.9924C31.0465 13.0683 30.9843 13.1304 30.9083 13.1304C30.8323 13.1304 30.7702 13.0683 30.7702 12.9924C30.7702 12.9164 30.8323 12.8543 30.9083 12.8543C30.9843 12.8543 31.0465 12.9164 31.0465 12.9924Z" fill="black"/>
<path d="M1.0467 15.0984C1.11118 15.0984 1.163 15.0466 1.163 14.9821C1.163 14.9177 1.11118 14.8659 1.0467 14.8659C0.982215 14.8659 0.931549 14.9177 0.931549 14.9821C0.931549 15.0466 0.983366 15.0984 1.0467 15.0984Z" fill="black"/>
<path d="M3.29214 14.9833C3.29214 15.1237 3.17814 15.2376 3.03881 15.2376C2.89833 15.2376 2.78433 15.1248 2.78433 14.9833C2.78433 14.8417 2.89948 14.7289 3.03881 14.7289C3.17814 14.7289 3.29214 14.8429 3.29214 14.9833Z" fill="black"/>
<path d="M5.02864 15.3918C5.25434 15.3918 5.43742 15.2088 5.43742 14.9832C5.43742 14.7577 5.25434 14.5747 5.02864 14.5747C4.80295 14.5747 4.61986 14.7577 4.61986 14.9832C4.61986 15.2088 4.80295 15.3918 5.02864 15.3918Z" fill="black"/>
<path d="M7.58827 14.9833C7.58827 15.2975 7.33379 15.5518 7.01943 15.5518C6.70507 15.5518 6.45059 15.2975 6.45059 14.9833C6.45059 14.6691 6.70507 14.4148 7.01943 14.4148C7.33379 14.4148 7.58827 14.6691 7.58827 14.9833Z" fill="black"/>
<path d="M9.01044 15.7174C9.41577 15.7174 9.74509 15.3895 9.74509 14.9832C9.74509 14.577 9.41577 14.249 9.01044 14.249C8.60511 14.249 8.27579 14.577 8.27579 14.9832C8.27579 15.3895 8.60511 15.7174 9.01044 15.7174Z" fill="black"/>
<path d="M11.9064 14.9833C11.9064 15.4828 11.5011 15.889 11.0013 15.889C10.5016 15.889 10.0963 15.4839 10.0963 14.9833C10.0963 14.4827 10.5016 14.0776 11.0013 14.0776C11.5011 14.0776 11.9064 14.4839 11.9064 14.9833Z" fill="black"/>
<path d="M23.7391 14.9834C23.7391 15.4218 23.3833 15.7774 22.9446 15.7774C22.5059 15.7774 22.1501 15.423 22.1501 14.9834C22.1501 14.5438 22.5059 14.1882 22.9446 14.1882C23.3833 14.1882 23.7391 14.5449 23.7391 14.9834Z" fill="black"/>
<path d="M24.9356 15.607C25.2799 15.607 25.5597 15.3285 25.5597 14.9833C25.5597 14.638 25.2811 14.3595 24.9356 14.3595C24.5902 14.3595 24.3115 14.6392 24.3115 14.9833C24.3115 15.3274 24.5913 15.607 24.9356 15.607Z" fill="black"/>
<path d="M27.3906 14.9833C27.3906 15.2388 27.1833 15.4471 26.9265 15.4471C26.6697 15.4471 26.4625 15.2399 26.4625 14.9833C26.4625 14.7267 26.6697 14.5195 26.9265 14.5195C27.1833 14.5195 27.3906 14.7278 27.3906 14.9833Z" fill="black"/>
<path d="M28.9175 15.2859C29.0845 15.2859 29.2204 15.1501 29.2204 14.9833C29.2204 14.8164 29.0845 14.6795 28.9175 14.6795C28.7505 14.6795 28.6135 14.8152 28.6135 14.9833C28.6135 15.1513 28.7494 15.2859 28.9175 15.2859Z" fill="black"/>
<path d="M31.0627 14.9832C31.0627 15.0684 30.9936 15.1375 30.9084 15.1375C30.8232 15.1375 30.7541 15.0696 30.7541 14.9832C30.7541 14.8969 30.8244 14.8279 30.9084 14.8279C30.9925 14.8279 31.0627 14.8981 31.0627 14.9832Z" fill="black"/>
<path d="M1.0467 17.0892C1.11118 17.0892 1.163 17.0375 1.163 16.973C1.163 16.9086 1.11118 16.8568 1.0467 16.8568C0.982215 16.8568 0.931549 16.9086 0.931549 16.973C0.931549 17.0375 0.983366 17.0892 1.0467 17.0892Z" fill="black"/>
<path d="M3.29788 16.973C3.29788 17.1168 3.18158 17.2331 3.03879 17.2331C2.89485 17.2331 2.77855 17.1168 2.77855 16.973C2.77855 16.8291 2.89601 16.7129 3.03879 16.7129C3.18158 16.7129 3.29788 16.8291 3.29788 16.973Z" fill="black"/>
<path d="M5.02862 17.3873C5.25777 17.3873 5.44316 17.202 5.44316 16.973C5.44316 16.744 5.25777 16.5587 5.02862 16.5587C4.79948 16.5587 4.61408 16.744 4.61408 16.973C4.61408 17.202 4.79948 17.3873 5.02862 17.3873Z" fill="black"/>
<path d="M7.59293 16.9741C7.59293 17.2906 7.33615 17.5484 7.01949 17.5484C6.70168 17.5484 6.4449 17.2906 6.4449 16.9741C6.4449 16.6576 6.70283 16.3999 7.01949 16.3999C7.33615 16.3999 7.59293 16.6576 7.59293 16.9741Z" fill="black"/>
<path d="M9.01047 17.7187C9.42155 17.7187 9.75548 17.385 9.75548 16.973C9.75548 16.561 9.42155 16.2284 9.01047 16.2284C8.59939 16.2284 8.26545 16.5622 8.26545 16.973C8.26545 17.3838 8.59823 17.7187 9.01047 17.7187Z" fill="black"/>
<path d="M23.7449 16.973C23.7449 17.4149 23.3868 17.7739 22.9446 17.7739C22.5025 17.7739 22.1444 17.416 22.1444 16.973C22.1444 16.5299 22.5036 16.172 22.9446 16.172C23.3857 16.172 23.7449 16.5311 23.7449 16.973Z" fill="black"/>
<path d="M24.9356 17.6025C25.2822 17.6025 25.5655 17.3205 25.5655 16.973C25.5655 16.6255 25.2833 16.3435 24.9356 16.3435C24.5878 16.3435 24.3069 16.6255 24.3069 16.973C24.3069 17.3205 24.5878 17.6025 24.9356 17.6025Z" fill="black"/>
<path d="M27.3963 16.9742C27.3963 17.2331 27.1856 17.4437 26.9265 17.4437C26.6686 17.4437 26.4578 17.2331 26.4578 16.9742C26.4578 16.7152 26.6674 16.5046 26.9265 16.5046C27.1856 16.5046 27.3963 16.7152 27.3963 16.9742Z" fill="black"/>
<path d="M28.9175 17.278C29.0845 17.278 29.2204 17.1422 29.2204 16.9741C29.2204 16.8061 29.0845 16.6703 28.9175 16.6703C28.7505 16.6703 28.6135 16.8061 28.6135 16.9741C28.6135 17.1422 28.7494 17.278 28.9175 17.278Z" fill="black"/>
<path d="M31.0685 16.9741C31.0685 17.0627 30.9971 17.1341 30.9084 17.1341C30.8198 17.1341 30.7484 17.0627 30.7484 16.9741C30.7484 16.8855 30.8198 16.8142 30.9084 16.8142C30.9971 16.8142 31.0685 16.8855 31.0685 16.9741Z" fill="black"/>
<path d="M1.04669 19.0639C1.10196 19.0639 1.14687 19.019 1.14687 18.9649C1.14687 18.9109 1.10196 18.866 1.04669 18.866C0.991419 18.866 0.947662 18.9109 0.947662 18.9649C0.947662 19.019 0.991419 19.0639 1.04669 19.0639Z" fill="black"/>
<path d="M3.276 18.9638C3.276 19.095 3.16891 19.202 3.03879 19.202C2.90752 19.202 2.80158 19.095 2.80158 18.9638C2.80158 18.8326 2.90867 18.7256 3.03879 18.7256C3.16891 18.7256 3.276 18.8326 3.276 18.9638Z" fill="black"/>
<path d="M5.02855 19.3563C5.24503 19.3563 5.42006 19.1814 5.42006 18.965C5.42006 18.7487 5.24388 18.5726 5.02855 18.5726C4.81322 18.5726 4.63589 18.7487 4.63589 18.965C4.63589 19.1814 4.81207 19.3563 5.02855 19.3563Z" fill="black"/>
<path d="M7.56648 18.9639C7.56648 19.2658 7.3216 19.5105 7.01952 19.5105C6.71745 19.5105 6.47256 19.2658 6.47256 18.9639C6.47256 18.662 6.71745 18.4172 7.01952 18.4172C7.3216 18.4172 7.56648 18.662 7.56648 18.9639Z" fill="black"/>
<path d="M9.01039 19.6704C9.40087 19.6704 9.71741 19.3541 9.71741 18.9638C9.71741 18.5736 9.40087 18.2573 9.01039 18.2573C8.61992 18.2573 8.30337 18.5736 8.30337 18.9638C8.30337 19.3541 8.61992 19.6704 9.01039 19.6704Z" fill="black"/>
<path d="M11.8627 18.965C11.8627 19.4403 11.4769 19.8258 11.0014 19.8258C10.5258 19.8258 10.14 19.4403 10.14 18.965C10.14 18.4897 10.5258 18.1042 11.0014 18.1042C11.4769 18.1042 11.8627 18.4897 11.8627 18.965Z" fill="black"/>
<path d="M20.9548 19.8811C21.4615 19.8811 21.8714 19.4714 21.8714 18.965C21.8714 18.4587 21.4615 18.049 20.9548 18.049C20.4482 18.049 20.0382 18.4587 20.0382 18.965C20.0382 19.4714 20.4482 19.8811 20.9548 19.8811Z" fill="black"/>
<path d="M23.7013 18.965C23.7013 19.3828 23.3627 19.7211 22.9447 19.7211C22.5279 19.7211 22.1894 19.3828 22.1894 18.965C22.1894 18.5473 22.5267 18.209 22.9447 18.209C23.3627 18.209 23.7013 18.5473 23.7013 18.965Z" fill="black"/>
<path d="M24.9356 19.5657C25.2673 19.5657 25.5367 19.2964 25.5367 18.9639C25.5367 18.6313 25.2673 18.362 24.9356 18.362C24.604 18.362 24.3334 18.6313 24.3334 18.9639C24.3334 19.2964 24.6029 19.5657 24.9356 19.5657Z" fill="black"/>
<path d="M27.3687 18.9638C27.3687 19.2078 27.1706 19.4057 26.9265 19.4057C26.6824 19.4057 26.4855 19.2078 26.4855 18.9638C26.4855 18.7199 26.6824 18.5219 26.9265 18.5219C27.1706 18.5219 27.3687 18.7199 27.3687 18.9638Z" fill="black"/>
<path d="M28.9175 19.2573C29.0787 19.2573 29.2099 19.1261 29.2099 18.965C29.2099 18.8039 29.0798 18.6727 28.9175 18.6727C28.7551 18.6727 28.625 18.8039 28.625 18.965C28.625 19.1261 28.7551 19.2573 28.9175 19.2573Z" fill="black"/>
<path d="M31.0569 18.965C31.0569 19.0467 30.9913 19.1135 30.9084 19.1135C30.8266 19.1135 30.7598 19.0467 30.7598 18.965C30.7598 18.8833 30.8266 18.8166 30.9084 18.8166C30.9901 18.8166 31.0569 18.8833 31.0569 18.965Z" fill="black"/>
<path d="M1.04672 21.0272C1.08703 21.0272 1.11927 20.995 1.11927 20.9559C1.11927 20.9168 1.08703 20.8845 1.04672 20.8845C1.00642 20.8845 0.975332 20.9168 0.975332 20.9559C0.975332 20.995 1.00757 21.0272 1.04672 21.0272Z" fill="black"/>
<path d="M3.23685 20.9547C3.23685 21.0651 3.14819 21.1538 3.0388 21.1538C2.92825 21.1538 2.83959 21.0651 2.83959 20.9547C2.83959 20.8442 2.92941 20.7556 3.0388 20.7556C3.14819 20.7556 3.23685 20.8442 3.23685 20.9547Z" fill="black"/>
<path d="M5.02859 21.2976C5.21743 21.2976 5.37058 21.1445 5.37058 20.9558C5.37058 20.7671 5.21743 20.6129 5.02859 20.6129C4.83974 20.6129 4.68659 20.7659 4.68659 20.9558C4.68659 21.1457 4.83974 21.2976 5.02859 21.2976Z" fill="black"/>
<path d="M7.50546 20.9559C7.50546 21.224 7.28783 21.4415 7.01953 21.4415C6.75123 21.4415 6.5336 21.224 6.5336 20.9559C6.5336 20.6877 6.75123 20.4702 7.01953 20.4702C7.28783 20.4702 7.50546 20.6877 7.50546 20.9559Z" fill="black"/>
<path d="M9.01047 21.5841C9.35707 21.5841 9.64034 21.3022 9.64034 20.9546C9.64034 20.6071 9.35822 20.3252 9.01047 20.3252C8.66272 20.3252 8.3806 20.6071 8.3806 20.9546C8.3806 21.3022 8.66157 21.5841 9.01047 21.5841Z" fill="black"/>
<path d="M11.7683 20.9548C11.7683 21.3783 11.4252 21.7223 11.0014 21.7223C10.5777 21.7223 10.2334 21.3783 10.2334 20.9548C10.2334 20.5313 10.5777 20.1872 11.0014 20.1872C11.4252 20.1872 11.7683 20.5313 11.7683 20.9548Z" fill="black"/>
<path d="M12.9912 21.8443C13.4817 21.8443 13.8801 21.4461 13.8801 20.9547C13.8801 20.4633 13.4817 20.0652 12.9912 20.0652C12.5006 20.0652 12.1022 20.4633 12.1022 20.9547C12.1022 21.4461 12.5006 21.8443 12.9912 21.8443Z" fill="black"/>
<path d="M19.8805 20.9558C19.8805 21.461 19.4706 21.8719 18.9639 21.8719C18.4573 21.8719 18.0474 21.461 18.0474 20.9558C18.0474 20.4506 18.4573 20.0398 18.9639 20.0398C19.4706 20.0398 19.8805 20.4506 19.8805 20.9558Z" fill="black"/>
<path d="M20.9549 21.7661C21.4028 21.7661 21.7667 21.4024 21.7667 20.9548C21.7667 20.5071 21.4028 20.1435 20.9549 20.1435C20.5069 20.1435 20.1431 20.5071 20.1431 20.9548C20.1431 21.4024 20.5069 21.7661 20.9549 21.7661Z" fill="black"/>
<path d="M23.6183 20.9559C23.6183 21.3276 23.3166 21.6291 22.9447 21.6291C22.5728 21.6291 22.2711 21.3276 22.2711 20.9559C22.2711 20.5842 22.5728 20.2827 22.9447 20.2827C23.3166 20.2827 23.6183 20.5842 23.6183 20.9559Z" fill="black"/>
<path d="M24.9356 21.4909C25.2315 21.4909 25.471 21.2515 25.471 20.9558C25.471 20.66 25.2315 20.4207 24.9356 20.4207C24.6397 20.4207 24.399 20.66 24.399 20.9558C24.399 21.2515 24.6397 21.4909 24.9356 21.4909Z" fill="black"/>
<path d="M27.3191 20.9547C27.3191 21.171 27.143 21.3471 26.9265 21.3471C26.7112 21.3471 26.535 21.171 26.535 20.9547C26.535 20.7383 26.71 20.5623 26.9265 20.5623C27.143 20.5623 27.3191 20.7383 27.3191 20.9547Z" fill="black"/>
<path d="M28.9174 21.1987C29.051 21.1987 29.1592 21.0894 29.1592 20.9559C29.1592 20.8224 29.051 20.7131 28.9174 20.7131C28.7839 20.7131 28.6745 20.8224 28.6745 20.9559C28.6745 21.0894 28.7827 21.1987 28.9174 21.1987Z" fill="black"/>
<path d="M31.0235 20.9548C31.0235 21.0192 30.9728 21.071 30.9084 21.071C30.845 21.071 30.7932 21.0192 30.7932 20.9548C30.7932 20.8903 30.845 20.8386 30.9084 20.8386C30.9717 20.8386 31.0235 20.8903 31.0235 20.9548Z" fill="black"/>
<path d="M1.04675 22.9732C1.06287 22.9732 1.07439 22.9606 1.07439 22.9456C1.07439 22.9306 1.06287 22.918 1.04675 22.918C1.03178 22.918 1.01911 22.9306 1.01911 22.9456C1.01911 22.9606 1.03178 22.9732 1.04675 22.9732Z" fill="black"/>
<path d="M3.18737 22.9468C3.18737 23.0285 3.12174 23.0952 3.03883 23.0952C2.95708 23.0952 2.89029 23.0285 2.89029 22.9468C2.89029 22.8651 2.95592 22.7983 3.03883 22.7983C3.12174 22.7983 3.18737 22.8651 3.18737 22.9468Z" fill="black"/>
<path d="M5.02855 23.2217C5.18054 23.2217 5.3049 23.0975 5.3049 22.9456C5.3049 22.7936 5.18054 22.6694 5.02855 22.6694C4.87655 22.6694 4.75219 22.7925 4.75219 22.9456C4.75219 23.0986 4.8754 23.2217 5.02855 23.2217Z" fill="black"/>
<path d="M7.42249 22.9456C7.42249 23.1677 7.24171 23.3484 7.01947 23.3484C6.79608 23.3484 6.61644 23.1677 6.61644 22.9456C6.61644 22.7235 6.79723 22.5428 7.01947 22.5428C7.24171 22.5428 7.42249 22.7235 7.42249 22.9456Z" fill="black"/>
<path d="M9.01039 23.4761C9.30287 23.4761 9.54008 23.2391 9.54008 22.9456C9.54008 22.6522 9.30287 22.4163 9.01039 22.4163C8.71791 22.4163 8.4807 22.6545 8.4807 22.9456C8.4807 23.2368 8.71791 23.4761 9.01039 23.4761Z" fill="black"/>
<path d="M11.6415 22.9457C11.6415 23.3001 11.3548 23.5867 11.0013 23.5867C10.6478 23.5867 10.3611 23.299 10.3611 22.9457C10.3611 22.5924 10.6478 22.3058 11.0013 22.3058C11.3548 22.3058 11.6415 22.5912 11.6415 22.9457Z" fill="black"/>
<path d="M12.9912 23.6798C13.3965 23.6798 13.7259 23.3518 13.7259 22.9456C13.7259 22.5394 13.3965 22.2114 12.9912 22.2114C12.5859 22.2114 12.2577 22.5405 12.2577 22.9456C12.2577 23.3507 12.5859 23.6798 12.9912 23.6798Z" fill="black"/>
<path d="M15.7766 22.9456C15.7766 23.3852 15.4208 23.7408 14.9821 23.7408C14.5434 23.7408 14.1876 23.384 14.1876 22.9456C14.1876 22.5071 14.5434 22.1515 14.9821 22.1515C15.4208 22.1515 15.7766 22.506 15.7766 22.9456Z" fill="black"/>
<path d="M16.973 23.7465C17.4152 23.7465 17.7733 23.3875 17.7733 22.9456C17.7733 22.5037 17.4141 22.1458 16.973 22.1458C16.532 22.1458 16.1728 22.5037 16.1728 22.9456C16.1728 23.3875 16.5309 23.7465 16.973 23.7465Z" fill="black"/>
<path d="M19.7205 22.9455C19.7205 23.3644 19.382 23.7027 18.964 23.7027C18.546 23.7027 18.2074 23.3633 18.2074 22.9455C18.2074 22.5278 18.546 22.1895 18.964 22.1895C19.382 22.1895 19.7205 22.5266 19.7205 22.9455Z" fill="black"/>
<path d="M20.9549 23.62C21.3268 23.62 21.6285 23.3185 21.6285 22.9456C21.6285 22.5728 21.3268 22.2724 20.9549 22.2724C20.5829 22.2724 20.2812 22.5739 20.2812 22.9456C20.2812 23.3173 20.5829 23.62 20.9549 23.62Z" fill="black"/>
<path d="M23.5136 22.9455C23.5136 23.2597 23.2591 23.514 22.9447 23.514C22.6304 23.514 22.3759 23.2597 22.3759 22.9455C22.3759 22.6314 22.6304 22.377 22.9447 22.377C23.2591 22.377 23.5136 22.6314 23.5136 22.9455Z" fill="black"/>
<path d="M24.9356 23.3921C25.1821 23.3921 25.3824 23.1919 25.3824 22.9456C25.3824 22.6994 25.1821 22.4991 24.9356 22.4991C24.6892 22.4991 24.4877 22.6994 24.4877 22.9456C24.4877 23.1919 24.6881 23.3921 24.9356 23.3921Z" fill="black"/>
<path d="M27.2408 22.9455C27.2408 23.1193 27.1004 23.2597 26.9265 23.2597C26.7526 23.2597 26.6121 23.1181 26.6121 22.9455C26.6121 22.7729 26.7526 22.6314 26.9265 22.6314C27.1004 22.6314 27.2408 22.7718 27.2408 22.9455Z" fill="black"/>
<path d="M28.9174 23.1332C29.021 23.1332 29.1051 23.0492 29.1051 22.9456C29.1051 22.842 29.021 22.758 28.9174 22.758C28.8138 22.758 28.7297 22.842 28.7297 22.9456C28.7297 23.0492 28.8138 23.1332 28.9174 23.1332Z" fill="black"/>
<path d="M30.9752 22.9456C30.9752 22.9824 30.9453 23.0124 30.9084 23.0124C30.8716 23.0124 30.8416 22.9824 30.8416 22.9456C30.8416 22.9088 30.8716 22.8789 30.9084 22.8789C30.9453 22.8789 30.9752 22.9088 30.9752 22.9456Z" fill="black"/>
<path d="M3.03881 25.0135C3.08141 25.0135 3.11596 24.979 3.11596 24.9364C3.11596 24.8939 3.08141 24.8593 3.03881 24.8593C2.9962 24.8593 2.96166 24.8939 2.96166 24.9364C2.96166 24.979 2.9962 25.0135 3.03881 25.0135Z" fill="black"/>
<path d="M5.21628 24.9364C5.21628 25.04 5.13222 25.124 5.02858 25.124C4.92495 25.124 4.84089 25.04 4.84089 24.9364C4.84089 24.8329 4.92495 24.7489 5.02858 24.7489C5.13222 24.7489 5.21628 24.8329 5.21628 24.9364Z" fill="black"/>
<path d="M7.01956 25.2403C7.18768 25.2403 7.3224 25.1045 7.3224 24.9365C7.3224 24.7685 7.18653 24.6327 7.01956 24.6327C6.85259 24.6327 6.71557 24.7685 6.71557 24.9365C6.71557 25.1045 6.85144 25.2403 7.01956 25.2403Z" fill="black"/>
<path d="M9.42378 24.9365C9.42378 25.1655 9.23839 25.3508 9.01039 25.3508C8.78125 25.3508 8.59586 25.1655 8.59586 24.9365C8.59586 24.7075 8.7824 24.5222 9.01039 24.5222C9.23839 24.5222 9.42378 24.7075 9.42378 24.9365Z" fill="black"/>
<path d="M11.0014 25.4451C11.2823 25.4451 11.5092 25.2172 11.5092 24.9364C11.5092 24.6556 11.2823 24.4289 11.0014 24.4289C10.7204 24.4289 10.4936 24.6568 10.4936 24.9364C10.4936 25.2161 10.7204 25.4451 11.0014 25.4451Z" fill="black"/>
<path d="M13.5716 24.9364C13.5716 25.2564 13.3113 25.5164 12.9912 25.5164C12.6711 25.5164 12.4109 25.2564 12.4109 24.9364C12.4109 24.6165 12.6711 24.3576 12.9912 24.3576C13.3113 24.3576 13.5716 24.6165 13.5716 24.9364Z" fill="black"/>
<path d="M14.9821 25.5602C15.3264 25.5602 15.605 25.2805 15.605 24.9364C15.605 24.5924 15.3264 24.3127 14.9821 24.3127C14.6378 24.3127 14.358 24.5924 14.358 24.9364C14.358 25.2805 14.6378 25.5602 14.9821 25.5602Z" fill="black"/>
<path d="M17.6029 24.9365C17.6029 25.284 17.3208 25.5659 16.973 25.5659C16.6253 25.5659 16.3432 25.284 16.3432 24.9365C16.3432 24.5889 16.6241 24.307 16.973 24.307C17.3219 24.307 17.6029 24.5889 17.6029 24.9365Z" fill="black"/>
<path d="M18.9639 25.5384C19.2967 25.5384 19.5662 25.2691 19.5662 24.9365C19.5662 24.6039 19.2967 24.3346 18.9639 24.3346C18.6312 24.3346 18.3629 24.6039 18.3629 24.9365C18.3629 25.2691 18.6323 25.5384 18.9639 25.5384Z" fill="black"/>
<path d="M21.4904 24.9365C21.4904 25.2334 21.2509 25.4728 20.9549 25.4728C20.6602 25.4728 20.4195 25.2322 20.4195 24.9365C20.4195 24.6407 20.659 24.4014 20.9549 24.4014C21.2509 24.4014 21.4904 24.6396 21.4904 24.9365Z" fill="black"/>
<path d="M22.9447 25.3841C23.1922 25.3841 23.3926 25.1839 23.3926 24.9365C23.3926 24.689 23.1922 24.49 22.9447 24.49C22.6971 24.49 22.4979 24.6902 22.4979 24.9365C22.4979 25.1827 22.6982 25.3841 22.9447 25.3841Z" fill="black"/>
<path d="M25.2776 24.9364C25.2776 25.1263 25.1245 25.2794 24.9356 25.2794C24.7468 25.2794 24.5937 25.1263 24.5937 24.9364C24.5937 24.7466 24.7468 24.5935 24.9356 24.5935C25.1245 24.5935 25.2776 24.7466 25.2776 24.9364Z" fill="black"/>
<path d="M26.9265 25.1678C27.0543 25.1678 27.1591 25.0642 27.1591 24.9365C27.1591 24.8087 27.0555 24.7052 26.9265 24.7052C26.7975 24.7052 26.6951 24.8087 26.6951 24.9365C26.6951 25.0642 26.7987 25.1678 26.9265 25.1678Z" fill="black"/>
<path d="M29.0326 24.9365C29.0326 24.9998 28.9808 25.0527 28.9175 25.0527C28.8541 25.0527 28.8012 24.9998 28.8012 24.9365C28.8012 24.8732 28.8553 24.8202 28.9175 24.8202C28.9797 24.8202 29.0326 24.8732 29.0326 24.9365Z" fill="black"/>
<path d="M30.9084 24.948C30.9141 24.948 30.9187 24.9434 30.9187 24.9365C30.9187 24.9296 30.9141 24.9261 30.9084 24.9261C30.9026 24.9261 30.898 24.9307 30.898 24.9365C30.898 24.9422 30.9026 24.948 30.9084 24.948Z" fill="black"/>
<path d="M3.04913 26.9273C3.04913 26.9331 3.04452 26.9377 3.03877 26.9377C3.03186 26.9377 3.02725 26.9331 3.02725 26.9273C3.02725 26.9216 3.03301 26.917 3.03877 26.917C3.04452 26.917 3.04913 26.9216 3.04913 26.9273Z" fill="black"/>
<path d="M5.02854 27.0263C5.08381 27.0263 5.12757 26.9826 5.12757 26.9273C5.12757 26.8721 5.08266 26.8284 5.02854 26.8284C4.97442 26.8284 4.92951 26.8733 4.92951 26.9273C4.92951 26.9814 4.97327 27.0263 5.02854 27.0263Z" fill="black"/>
<path d="M7.21298 26.9273C7.21298 27.0343 7.12547 27.1206 7.01953 27.1206C6.91244 27.1206 6.82608 27.0343 6.82608 26.9273C6.82608 26.8203 6.91244 26.734 7.01953 26.734C7.12662 26.734 7.21298 26.8203 7.21298 26.9273Z" fill="black"/>
<path d="M9.01049 27.2196C9.17169 27.2196 9.30296 27.0884 9.30296 26.9273C9.30296 26.7662 9.17285 26.635 9.01049 26.635C8.84813 26.635 8.71801 26.7662 8.71801 26.9273C8.71801 27.0884 8.84928 27.2196 9.01049 27.2196Z" fill="black"/>
<path d="M11.371 26.9273C11.371 27.131 11.2063 27.2967 11.0014 27.2967C10.7976 27.2967 10.6317 27.131 10.6317 26.9273C10.6317 26.7236 10.7964 26.5579 11.0014 26.5579C11.2063 26.5579 11.371 26.7236 11.371 26.9273Z" fill="black"/>
<path d="M12.9912 27.3578C13.2284 27.3578 13.4219 27.1656 13.4219 26.9274C13.4219 26.6892 13.2284 26.497 12.9912 26.497C12.754 26.497 12.5605 26.6892 12.5605 26.9274C12.5605 27.1656 12.754 27.3578 12.9912 27.3578Z" fill="black"/>
<path d="M15.4462 26.9274C15.4462 27.1835 15.2384 27.3911 14.9821 27.3911C14.7258 27.3911 14.5181 27.1835 14.5181 26.9274C14.5181 26.6712 14.7258 26.4636 14.9821 26.4636C15.2384 26.4636 15.4462 26.6712 15.4462 26.9274Z" fill="black"/>
<path d="M16.973 27.3968C17.2321 27.3968 17.4429 27.1862 17.4429 26.9273C17.4429 26.6683 17.2321 26.4577 16.973 26.4577C16.714 26.4577 16.5044 26.6683 16.5044 26.9273C16.5044 27.1862 16.7151 27.3968 16.973 27.3968Z" fill="black"/>
<path d="M19.405 26.9273C19.405 27.1713 19.2081 27.3681 18.964 27.3681C18.7199 27.3681 18.5218 27.1713 18.5218 26.9273C18.5218 26.6834 18.7199 26.4854 18.964 26.4854C19.2081 26.4854 19.405 26.6834 19.405 26.9273Z" fill="black"/>
<path d="M20.9549 27.3198C21.1714 27.3198 21.3475 27.1437 21.3475 26.9273C21.3475 26.711 21.1714 26.5349 20.9549 26.5349C20.7384 26.5349 20.5634 26.711 20.5634 26.9273C20.5634 27.1437 20.7396 27.3198 20.9549 27.3198Z" fill="black"/>
<path d="M23.2591 26.9274C23.2591 27.1011 23.1186 27.2415 22.9447 27.2415C22.772 27.2415 22.6304 27.1011 22.6304 26.9274C22.6304 26.7536 22.7708 26.6132 22.9447 26.6132C23.1186 26.6132 23.2591 26.7536 23.2591 26.9274Z" fill="black"/>
<path d="M24.9356 27.1586C25.0634 27.1586 25.1671 27.0551 25.1671 26.9273C25.1671 26.7996 25.0634 26.696 24.9356 26.696C24.8078 26.696 24.703 26.7996 24.703 26.9273C24.703 27.0551 24.8067 27.1586 24.9356 27.1586Z" fill="black"/>
<path d="M27.0589 26.9274C27.0589 27.001 27.0002 27.0597 26.9265 27.0597C26.8528 27.0597 26.7941 27.001 26.7941 26.9274C26.7941 26.8537 26.8528 26.795 26.9265 26.795C27.0002 26.795 27.0589 26.8537 27.0589 26.9274Z" fill="black"/>
<path d="M28.9175 26.9664C28.9382 26.9664 28.9555 26.9492 28.9555 26.9273C28.9555 26.9055 28.9382 26.8882 28.9175 26.8882C28.8967 26.8882 28.8783 26.9055 28.8783 26.9273C28.8783 26.9492 28.8956 26.9664 28.9175 26.9664Z" fill="black"/>
<path d="M5.04476 28.9182C5.04476 28.9274 5.03786 28.9343 5.02864 28.9343C5.02058 28.9343 5.01252 28.9274 5.01252 28.9182C5.01252 28.909 5.01943 28.9021 5.02864 28.9021C5.03786 28.9021 5.04476 28.909 5.04476 28.9182Z" fill="black"/>
<path d="M7.01945 29.0114C7.07127 29.0114 7.11272 28.9688 7.11272 28.917C7.11272 28.8652 7.07127 28.8238 7.01945 28.8238C6.96763 28.8238 6.92618 28.8664 6.92618 28.917C6.92618 28.9677 6.96763 29.0114 7.01945 29.0114Z" fill="black"/>
<path d="M9.17626 28.9171C9.17626 29.0092 9.10142 29.0828 9.01045 29.0828C8.91833 29.0828 8.84463 29.0092 8.84463 28.9171C8.84463 28.825 8.91948 28.7514 9.01045 28.7514C9.10142 28.7514 9.17626 28.825 9.17626 28.9171Z" fill="black"/>
<path d="M11.0014 29.1495C11.1292 29.1495 11.234 29.0459 11.234 28.917C11.234 28.7881 11.1303 28.6857 11.0014 28.6857C10.8724 28.6857 10.7699 28.7893 10.7699 28.917C10.7699 29.0448 10.8736 29.1495 11.0014 29.1495Z" fill="black"/>
<path d="M13.2675 28.9182C13.2675 29.0701 13.1431 29.1944 12.9911 29.1944C12.838 29.1944 12.7148 29.0701 12.7148 28.9182C12.7148 28.7663 12.838 28.6432 12.9911 28.6432C13.1443 28.6432 13.2675 28.7663 13.2675 28.9182Z" fill="black"/>
<path d="M14.982 29.222C15.149 29.222 15.286 29.0862 15.286 28.9181C15.286 28.7501 15.1502 28.6155 14.982 28.6155C14.8139 28.6155 14.678 28.7513 14.678 28.9181C14.678 29.085 14.8139 29.222 14.982 29.222Z" fill="black"/>
<path d="M17.277 28.9181C17.277 29.0862 17.1411 29.222 16.973 29.222C16.806 29.222 16.6702 29.085 16.6702 28.9181C16.6702 28.7513 16.8049 28.6155 16.973 28.6155C17.1411 28.6155 17.277 28.7501 17.277 28.9181Z" fill="black"/>
<path d="M18.9639 29.2105C19.1263 29.2105 19.2564 29.0793 19.2564 28.917C19.2564 28.7548 19.1251 28.6247 18.9639 28.6247C18.8027 28.6247 18.6715 28.7559 18.6715 28.917C18.6715 29.0781 18.8027 29.2105 18.9639 29.2105Z" fill="black"/>
<path d="M21.1979 28.9182C21.1979 29.0528 21.0885 29.161 20.9549 29.161C20.8214 29.161 20.712 29.0528 20.712 28.9182C20.712 28.7836 20.8214 28.6754 20.9549 28.6754C21.0885 28.6754 21.1979 28.7836 21.1979 28.9182Z" fill="black"/>
<path d="M22.9447 29.1057C23.0483 29.1057 23.1324 29.0217 23.1324 28.9181C23.1324 28.8146 23.0483 28.7306 22.9447 28.7306C22.841 28.7306 22.757 28.8146 22.757 28.9181C22.757 29.0217 22.841 29.1057 22.9447 29.1057Z" fill="black"/>
<path d="M25.0508 28.917C25.0508 28.9815 24.999 29.0332 24.9356 29.0332C24.8711 29.0332 24.8193 28.9815 24.8193 28.917C24.8193 28.8526 24.8723 28.8008 24.9356 28.8008C24.999 28.8008 25.0508 28.8526 25.0508 28.917Z" fill="black"/>
<path d="M26.9265 28.9573C26.9484 28.9573 26.9656 28.9401 26.9656 28.9182C26.9656 28.8963 26.9484 28.8802 26.9265 28.8802C26.9046 28.8802 26.8885 28.8975 26.8885 28.9182C26.8885 28.9389 26.9058 28.9573 26.9265 28.9573Z" fill="black"/>
<path d="M9.06004 30.909C9.06004 30.9366 9.03816 30.9585 9.01052 30.9585C8.98289 30.9585 8.96101 30.9355 8.96101 30.909C8.96101 30.8826 8.98289 30.8595 9.01052 30.8595C9.03816 30.8595 9.06004 30.8814 9.06004 30.909Z" fill="black"/>
<path d="M11.0013 31.0022C11.0531 31.0022 11.0957 30.9608 11.0957 30.909C11.0957 30.8572 11.0531 30.8147 11.0013 30.8147C10.9495 30.8147 10.908 30.8572 10.908 30.909C10.908 30.9608 10.9506 31.0022 11.0013 31.0022Z" fill="black"/>
<path d="M13.1294 30.9091C13.1294 30.985 13.0672 31.0472 12.9912 31.0472C12.914 31.0472 12.853 30.985 12.853 30.9091C12.853 30.8331 12.9152 30.771 12.9912 30.771C13.0672 30.771 13.1294 30.8331 13.1294 30.9091Z" fill="black"/>
<path d="M14.9821 31.0632C15.0673 31.0632 15.1364 30.9941 15.1364 30.909C15.1364 30.8238 15.0673 30.7536 14.9821 30.7536C14.8969 30.7536 14.8278 30.8227 14.8278 30.909C14.8278 30.9953 14.8969 31.0632 14.9821 31.0632Z" fill="black"/>
<path d="M17.1331 30.9091C17.1331 30.9977 17.0617 31.069 16.973 31.069C16.8844 31.069 16.813 30.9977 16.813 30.9091C16.813 30.8205 16.8844 30.748 16.973 30.748C17.0617 30.748 17.1331 30.8205 17.1331 30.9091Z" fill="black"/>
<path d="M18.9639 31.0575C19.0468 31.0575 19.1124 30.9907 19.1124 30.909C19.1124 30.8273 19.0456 30.7606 18.9639 30.7606C18.8821 30.7606 18.8153 30.8273 18.8153 30.909C18.8153 30.9907 18.8821 31.0575 18.9639 31.0575Z" fill="black"/>
<path d="M21.07 30.9079C21.07 30.9723 21.0193 31.0241 20.9548 31.0241C20.8915 31.0241 20.8397 30.9723 20.8397 30.9079C20.8397 30.8435 20.8915 30.7917 20.9548 30.7917C21.0182 30.7917 21.07 30.8435 21.07 30.9079Z" fill="black"/>
<path d="M22.9446 30.9747C22.9815 30.9747 23.0114 30.9448 23.0114 30.908C23.0114 30.8712 22.9815 30.8412 22.9446 30.8412C22.9078 30.8412 22.879 30.8712 22.879 30.908C22.879 30.9448 22.9078 30.9747 22.9446 30.9747Z" fill="black"/>
<path d="M24.946 30.909C24.946 30.9147 24.9414 30.9193 24.9357 30.9193C24.9287 30.9193 24.9241 30.9147 24.9241 30.909C24.9241 30.9021 24.9299 30.8975 24.9357 30.8975C24.9414 30.8975 24.946 30.9032 24.946 30.909Z" fill="black"/>
</svg>
