<svg width="32" height="32" viewBox="0 0 32 32" fill="none" xmlns="http://www.w3.org/2000/svg">
<path fill-rule="evenodd" clip-rule="evenodd" d="M8.06032 12.0127C8.54679 8.06023 11.916 5 16 5H17.5C22.7467 5 27 9.25329 27 14.5V15.6C29.2822 16.0633 31 18.081 31 20.5V21.25C31 24.4256 28.4256 27 25.25 27H23C22.4477 27 22 26.5523 22 26C22 25.4477 22.4477 25 23 25H25.25C27.3211 25 29 23.3211 29 21.25V20.5C29 18.8431 27.6569 17.5 26 17.5H25V14.5C25 10.3579 21.6421 7 17.5 7H16C12.6863 7 10 9.68629 10 13V14H8.5C5.46243 14 3 16.4624 3 19.5C3 22.5376 5.46243 25 8.5 25H9C9.55228 25 10 25.4477 10 26C10 26.5523 9.55228 27 9 27H8.5C4.35786 27 1 23.6421 1 19.5C1 15.5055 4.12283 12.2403 8.06032 12.0127Z" fill="black"/>
<path fill-rule="evenodd" clip-rule="evenodd" d="M15.2929 26.7071C15.6834 27.0976 16.3166 27.0976 16.7071 26.7071L20.7071 22.7071C21.0976 22.3166 21.0976 21.6834 20.7071 21.2929C20.3166 20.9024 19.6834 20.9024 19.2929 21.2929L17 23.5858V16C17 15.4477 16.5523 15 16 15C15.4477 15 15 15.4477 15 16V23.5858L12.7071 21.2929C12.3166 20.9024 11.6834 20.9024 11.2929 21.2929C10.9024 21.6834 10.9024 22.3166 11.2929 22.7071L15.2929 26.7071Z" fill="black"/>
</svg>
