<svg width="32" height="32" viewBox="0 0 32 32" fill="none" xmlns="http://www.w3.org/2000/svg">
<path fill-rule="evenodd" clip-rule="evenodd" d="M21 4C20.7348 4 20.4722 4.05275 20.2276 4.15518C19.9843 4.25704 19.7636 4.40599 19.5782 4.59344L4.57865 19.593C4.3943 19.7782 4.24831 19.998 4.14902 20.2398C4.04936 20.4824 4 20.7375 4 20.9983V26.5858C4 27.1163 4.21071 27.625 4.58579 28C4.96086 28.3751 5.46957 28.5858 6 28.5858H11.5875C11.9116 28.5858 12.1252 28.5275 12.3461 28.4368C12.5878 28.3375 12.8076 28.1915 12.9929 28.0072L27.9925 13.0075C28.1799 12.8221 28.3288 12.6015 28.4306 12.3583C28.5331 12.1136 28.5858 11.8511 28.5858 11.5858C28.5858 11.3206 28.5331 11.058 28.4306 10.8134C28.3288 10.5702 28.1799 10.3495 27.9925 10.1641L22.4217 4.59336C22.2363 4.40594 22.0156 4.25702 21.7724 4.15518C21.5278 4.05275 21.2652 4 21 4ZM17 10L6 21V26.5858H11.5858L22.5858 15.5858L17 10ZM18.4142 8.58583L24 14.1716L26.5804 11.5804L20.9946 6.00543L18.4142 8.58583Z" fill="black"/>
</svg>
