<svg width="32" height="32" viewBox="0 0 32 32" fill="none" xmlns="http://www.w3.org/2000/svg">
<path fill-rule="evenodd" clip-rule="evenodd" d="M6.73994 4.32733C6.36844 3.91868 5.73599 3.88856 5.32733 4.26007C4.91867 4.63157 4.88855 5.26402 5.26006 5.67268L7.6622 8.31503C3.42278 10.9013 1.49471 14.731 1.12974 15.4997C1.06409 15.638 1.01292 15.8126 1.01552 16.0146C1.01809 16.2146 1.07309 16.3805 1.12987 16.5004C1.54829 17.3811 5.8806 25.9977 15.9958 26C18.2412 26.0178 20.4614 25.5548 22.5082 24.6457L25.2601 27.6727C25.6316 28.0813 26.264 28.1115 26.6727 27.7399C27.0813 27.3684 27.1114 26.736 26.7399 26.3273L6.73994 4.32733ZM9.03579 9.82599C5.54098 11.831 3.71969 14.8471 3.1166 15.9977C4.02846 17.7097 7.93366 24 16 24H16.0081C17.7459 24.0142 19.4664 23.6985 21.0795 23.0741L19.2387 21.0492C18.2616 21.6709 17.1123 22.0001 15.9998 22C14.7888 21.9999 13.6062 21.6333 12.6075 20.9485C11.6087 20.2636 10.8405 19.2926 10.4039 18.163C9.96737 17.0335 9.88282 15.7982 10.1614 14.6197C10.3625 13.7691 10.746 12.9767 11.2807 12.2954L9.03579 9.82599ZM12.6551 13.8072C12.4014 14.1942 12.2154 14.6245 12.1078 15.0798C11.922 15.8655 11.9784 16.689 12.2695 17.442C12.5605 18.1951 13.0726 18.8424 13.7385 19.299C14.4043 19.7555 15.1927 19.9999 16.0001 20C16.6291 20.0001 17.2825 19.8378 17.8629 19.5358L12.6551 13.8072Z" fill="black"/>
<path d="M17.1237 10.105C16.581 10.0022 16.0578 10.3587 15.955 10.9014C15.8522 11.444 16.2087 11.9672 16.7513 12.0701C17.6015 12.2311 18.3761 12.6643 18.9584 13.3043C19.5407 13.9443 19.899 14.7563 19.9793 15.6178C20.0306 16.1677 20.5179 16.572 21.0678 16.5207C21.6177 16.4695 22.0219 15.9821 21.9707 15.4322C21.8501 14.1386 21.3121 12.9193 20.4377 11.9584C19.5634 10.9974 18.4002 10.3469 17.1237 10.105Z" fill="black"/>
<path d="M16.0001 6.00004C15.1963 6.00004 14.1623 6.07313 13.2475 6.22626C12.7028 6.31744 12.3351 6.83293 12.4263 7.37763C12.5175 7.92234 13.033 8.29 13.5777 8.19881C14.373 8.06569 15.2959 8.00004 16.0001 8.00004C24.0523 8.00004 27.9579 14.2664 28.8821 15.9999C28.4494 16.8105 27.3312 18.6723 25.4084 20.3922C24.9968 20.7604 24.9616 21.3926 25.3298 21.8042C25.698 22.2159 26.3302 22.2511 26.7418 21.8829C29.2141 19.6714 30.4981 17.2598 30.825 16.594C30.9092 16.4224 30.9734 16.2108 30.9672 15.9671C30.9611 15.7279 30.8891 15.5365 30.825 15.4061C30.2201 14.1742 25.8525 6.00004 16.0001 6.00004Z" fill="black"/>
</svg>
