<svg width="32" height="32" viewBox="0 0 32 32" fill="none" xmlns="http://www.w3.org/2000/svg">
<path fill-rule="evenodd" clip-rule="evenodd" d="M16 6C10.6674 6 6.92672 8.40907 4.54289 10.7929C3.35387 11.9819 2.49647 13.1692 1.93502 14.0609C1.6538 14.5076 1.44539 14.8823 1.30557 15.1493C1.23563 15.2828 1.18273 15.3896 1.14636 15.4651C1.12817 15.5029 1.10234 15.559 1.09233 15.5806C0.977415 15.8392 0.977212 16.1608 1.09213 16.4194C1.10213 16.441 1.12817 16.4971 1.14636 16.5349C1.18273 16.6104 1.23563 16.7172 1.30557 16.8507C1.44539 17.1177 1.6538 17.4924 1.93502 17.9391C2.49647 18.8308 3.35387 20.0181 4.54289 21.2071C6.92672 23.5909 10.6674 26 16 26C21.3326 26 25.0733 23.5909 27.4571 21.2071C28.6461 20.0181 29.5035 18.8308 30.065 17.9391C30.3462 17.4924 30.5546 17.1177 30.6944 16.8507C30.7644 16.7172 30.8173 16.6104 30.8536 16.5349L30.9116 16.4111C31.0265 16.1525 31.0228 15.8392 30.9079 15.5806C30.8979 15.559 30.8718 15.5029 30.8536 15.4651C30.8173 15.3896 30.7644 15.2828 30.6944 15.1493C30.5546 14.8823 30.3462 14.5076 30.065 14.0609C29.5035 13.1692 28.6461 11.9819 27.4571 10.7929C25.0733 8.40907 21.3326 6 16 6ZM3.11811 16C3.23576 16.2204 3.4047 16.5196 3.62748 16.8734C4.12853 17.6692 4.89613 18.7319 5.9571 19.7929C8.07328 21.9091 11.3326 24 16 24C20.6674 24 23.9267 21.9091 26.0429 19.7929C27.1039 18.7319 27.8715 17.6692 28.3725 16.8734C28.5953 16.5196 28.7642 16.2204 28.8819 16C28.7642 15.7796 28.5953 15.4804 28.3725 15.1266C27.8715 14.3308 27.1039 13.2681 26.0429 12.2071C23.9267 10.0909 20.6674 8 16 8C11.3326 8 8.07328 10.0909 5.9571 12.2071C4.89613 13.2681 4.12853 14.3308 3.62748 15.1266C3.4047 15.4804 3.23576 15.7796 3.11811 16Z" fill="black"/>
<path fill-rule="evenodd" clip-rule="evenodd" d="M16 10C12.6863 10 10 12.6863 10 16C10 19.3137 12.6863 22 16 22C19.3137 22 22 19.3137 22 16C22 12.6863 19.3137 10 16 10ZM16 12C13.7909 12 12 13.7909 12 16C12 18.2091 13.7909 20 16 20C18.2091 20 20 18.2091 20 16C20 13.7909 18.2091 12 16 12Z" fill="black"/>
</svg>
