<svg width="32" height="32" viewBox="0 0 32 32" fill="none" xmlns="http://www.w3.org/2000/svg">
<path fill-rule="evenodd" clip-rule="evenodd" d="M18.5979 17.5159C18.8256 17.6757 19.0491 17.8446 19.2678 18.0225C19.4972 18.2093 19.7341 18.3846 19.9775 18.5481C19.9839 18.5493 19.9904 18.5505 19.9969 18.5518L19.9971 18.5518C19.9981 18.552 20.0009 18.5525 20.0054 18.5534C20.0094 18.5541 20.0147 18.555 20.0213 18.5562C20.0297 18.5577 20.0401 18.5595 20.0525 18.5615C20.0971 18.5689 20.1672 18.5797 20.2597 18.5915C20.445 18.6151 20.7184 18.6424 21.0552 18.6542C21.7328 18.6779 22.6439 18.6381 23.6005 18.3935C25.4642 17.9172 27.5429 16.667 28.4411 13.3627C28.586 12.8297 29.1355 12.5151 29.6684 12.66C30.2014 12.8049 30.516 13.3544 30.3711 13.8873C29.3398 17.6815 26.9476 19.4262 24.6747 20.1637C25.4584 20.2193 26.2531 20.1796 27.0415 20.0398L28.8255 19.7237C29.3693 19.6273 29.8883 19.99 29.9847 20.5338C30.081 21.0777 29.7183 21.5966 29.1745 21.693L27.3905 22.0091C24.0568 22.5999 20.631 21.7109 18.0052 19.5737C14.3578 16.6048 9.10124 16.6985 5.56193 19.7954L4.58101 20.6537C4.46918 20.7688 4.37113 20.8615 4.29456 20.9307C4.24635 20.9742 4.20643 21.0087 4.17668 21.0337C4.16179 21.0462 4.14943 21.0564 4.13982 21.0643L4.13439 21.0687L4.12748 21.0742L4.12292 21.0779L4.12104 21.0794L4.1202 21.08C4.1201 21.0801 4.12 21.0802 4.10915 21.0666L4.10869 21.067L4.11944 21.0806C4.08143 21.1106 4.04192 21.1374 4.00124 21.161L3.65852 21.4609C3.24288 21.8246 2.61112 21.7825 2.24744 21.3668C1.88375 20.9512 1.92587 20.3194 2.34151 19.9558L3.19766 19.2066L3.2094 19.1941C3.42345 18.9653 3.69485 18.6313 3.92732 18.2122C4.38328 17.39 4.68611 16.2606 4.12585 14.8748C3.91884 14.3628 4.1661 13.7799 4.67812 13.5729C5.19014 13.3659 5.77303 13.6132 5.98004 14.1252C6.36913 15.0876 6.47668 15.9833 6.41344 16.7879C6.95533 16.4973 7.51532 16.2525 8.08774 16.0536C8.13487 15.9936 8.18967 15.938 8.25195 15.8884L8.25211 15.8883C8.25359 15.8871 8.25764 15.8837 8.26405 15.8784C8.27688 15.8676 8.29905 15.8485 8.32887 15.8216C8.38866 15.7676 8.47824 15.6826 8.5844 15.5691C8.79846 15.3403 9.06985 15.0063 9.30232 14.5872C9.75828 13.765 10.0611 12.6356 9.50085 11.2498C9.29384 10.7378 9.5411 10.1549 10.0531 9.94791C10.5651 9.74089 11.148 9.98815 11.355 10.5002C12.168 12.5109 11.7519 14.2308 11.117 15.4357C11.4881 15.4103 11.8602 15.4026 12.232 15.4126C12.2344 15.412 12.2367 15.4113 12.2391 15.4107C12.2426 15.4098 12.2461 15.4088 12.2496 15.4079L12.2542 15.4067C12.2571 15.4059 12.2613 15.4048 12.2667 15.4032C12.2721 15.4017 12.2788 15.3998 12.2866 15.3976C12.318 15.3885 12.3685 15.3733 12.4353 15.3513C12.5692 15.3073 12.7672 15.2366 13.008 15.1341C13.492 14.9278 14.1342 14.5986 14.7719 14.1092C16.0296 13.144 17.2645 11.5692 17.2686 8.99839C17.2695 8.4461 17.7179 7.99911 18.2702 8C18.8225 8.00089 19.2695 8.44933 19.2686 9.00161C19.2632 12.3361 17.6138 14.4494 15.9896 15.6958C15.9792 15.7038 15.9688 15.7117 15.9585 15.7196C16.0568 15.7239 16.1621 15.7269 16.2736 15.7282C17.005 15.7365 17.9706 15.6666 18.9488 15.3686C19.922 15.072 20.885 14.5573 21.659 13.687C22.4281 12.8222 23.0665 11.544 23.2961 9.62355C23.3616 9.07517 23.8593 8.68376 24.4077 8.74932C24.9561 8.81488 25.3475 9.31257 25.2819 9.86095C25.0108 12.1287 24.2306 13.805 23.1534 15.0161C22.0811 16.2218 20.77 16.9044 19.5318 17.2817C19.2157 17.378 18.9029 17.455 18.5979 17.5159ZM19.9969 18.5612L19.9974 18.5615L19.9993 18.5522L19.9984 18.5521C19.9985 18.5521 19.9986 18.5521 19.9969 18.5612Z" fill="black"/>
</svg>
