<svg width="32" height="32" viewBox="0 0 32 32" fill="none" xmlns="http://www.w3.org/2000/svg">
<path d="M17.5749 28.9001C24.0109 28.121 28.9977 22.641 28.9977 15.9964C28.9977 8.81805 23.1783 2.99872 16 2.99872C8.82171 2.99872 3.00238 8.81805 3.00238 15.9964C3.00238 22.0923 7.19845 27.2076 12.8604 28.612L12.8596 19.9686H10.1771V15.9964H12.8596V14.285C12.8596 9.86075 14.8613 7.81218 19.2025 7.81218C20.0242 7.81218 21.4431 7.97321 22.0259 8.13423V11.7324C21.719 11.7014 21.1832 11.6855 20.5232 11.6855C18.3916 11.6855 17.5699 12.4913 17.5699 14.5919V15.9964H21.8179L21.09 19.9679H17.5756L17.5749 28.9001Z" fill="black"/>
</svg>
