<svg width="32" height="32" viewBox="0 0 32 32" fill="none" xmlns="http://www.w3.org/2000/svg">
<path d="M19.7023 18.7169L23.2356 13.4909C23.5853 12.9762 22.9221 12.4167 22.4156 12.786L18.6048 15.4717C18.4796 15.5588 18.3272 15.606 18.1707 15.606C18.0141 15.606 17.8617 15.5588 17.7365 15.4717L14.9147 13.5021C14.0705 12.9203 12.8646 13.1329 12.2978 13.9497L8.76437 19.1757C8.41465 19.6905 9.07792 20.25 9.58441 19.8807L13.3952 17.1949C13.5204 17.1079 13.6728 17.0607 13.8293 17.0607C13.9859 17.0607 14.1383 17.1079 14.2635 17.1949L17.0853 19.1309C17.9295 19.7464 19.1355 19.5339 19.7023 18.7169Z" fill="black"/>
<path fill-rule="evenodd" clip-rule="evenodd" d="M16 3C8.82029 3 3 8.82029 3 16C3 19.6868 4.53592 23.0161 7 25.3808V28.6667C7 28.9881 7.15452 29.29 7.41529 29.4779C7.67605 29.6659 8.01128 29.7171 8.31623 29.6153L12.0224 28.38C13.2772 28.7828 14.6141 29 16 29C23.1797 29 29 23.1797 29 16C29 8.82029 23.1797 3 16 3ZM5 16C5 9.92487 9.92487 5 16 5C22.0751 5 27 9.92487 27 16C27 22.0751 22.0751 27 16 27C14.7207 27 13.4943 26.782 12.3548 26.382C12.1455 26.3084 11.9178 26.3067 11.7073 26.3768L9 27.2792V24.9444C9 24.66 8.87887 24.3889 8.66692 24.1993C6.41491 22.1837 5 19.2577 5 16Z" fill="black"/>
</svg>
