<svg width="32" height="32" viewBox="0 0 32 32" fill="none" xmlns="http://www.w3.org/2000/svg">
<path fill-rule="evenodd" clip-rule="evenodd" d="M15.2929 3.03636C15.6834 2.64584 16.3166 2.64584 16.7071 3.03636L21.4211 7.75041C21.8117 8.14093 21.8117 8.7741 21.4211 9.16462L16.7071 13.8787C16.3166 14.2692 15.6834 14.2692 15.2929 13.8787L10.5788 9.16462C10.1883 8.7741 10.1883 8.14093 10.5788 7.75041L15.2929 3.03636ZM16 5.15768L12.7002 8.45751L16 11.7573L19.2998 8.45751L16 5.15768Z" fill="black"/>
<path fill-rule="evenodd" clip-rule="evenodd" d="M7.75041 10.5788C8.14093 10.1883 8.7741 10.1883 9.16462 10.5788L13.8787 15.2929C14.2692 15.6834 14.2692 16.3166 13.8787 16.7071L9.16462 21.4211C8.7741 21.8117 8.14093 21.8117 7.75041 21.4211L3.03636 16.7071C2.64584 16.3166 2.64584 15.6834 3.03636 15.2929L7.75041 10.5788ZM8.45751 12.7002L5.15768 16L8.45751 19.2998L11.7573 16L8.45751 12.7002Z" fill="black"/>
<path fill-rule="evenodd" clip-rule="evenodd" d="M22.8354 10.5788C23.2259 10.1883 23.859 10.1883 24.2496 10.5788L28.9636 15.2929C29.3541 15.6834 29.3541 16.3166 28.9636 16.7071L24.2496 21.4211C23.859 21.8117 23.2259 21.8117 22.8354 21.4211L18.1213 16.7071C17.7308 16.3166 17.7308 15.6834 18.1213 15.2929L22.8354 10.5788ZM23.5425 12.7002L20.2426 16L23.5425 19.2998L26.8423 16L23.5425 12.7002Z" fill="black"/>
<path fill-rule="evenodd" clip-rule="evenodd" d="M15.2929 18.1213C15.6834 17.7308 16.3166 17.7308 16.7071 18.1213L21.4211 22.8354C21.8117 23.2259 21.8117 23.859 21.4211 24.2496L16.7071 28.9636C16.3166 29.3541 15.6834 29.3541 15.2929 28.9636L10.5788 24.2496C10.1883 23.859 10.1883 23.2259 10.5788 22.8354L15.2929 18.1213ZM16 20.2426L12.7002 23.5425L16 26.8423L19.2998 23.5425L16 20.2426Z" fill="black"/>
</svg>
