<svg width="32" height="32" viewBox="0 0 32 32" fill="none" xmlns="http://www.w3.org/2000/svg">
<path fill-rule="evenodd" clip-rule="evenodd" d="M5.58579 3.58579C5.96086 3.21071 6.46957 3 7 3H19C19.2652 3 19.5196 3.10536 19.7071 3.29289L26.7071 10.2929C26.8946 10.4804 27 10.7348 27 11V27C27 27.5304 26.7893 28.0391 26.4142 28.4142C26.0391 28.7893 25.5304 29 25 29H7C6.46957 29 5.96086 28.7893 5.58579 28.4142C5.21071 28.0391 5 27.5304 5 27V5C5 4.46957 5.21071 3.96086 5.58579 3.58579ZM18 5L7 5L7 27H25V12H19C18.4477 12 18 11.5523 18 11V5ZM20 6.41421L23.5858 10H20V6.41421ZM15.2929 14.2929C15.6834 13.9024 16.3166 13.9024 16.7071 14.2929L20.2071 17.7929C20.5976 18.1834 20.5976 18.8166 20.2071 19.2071C19.8166 19.5976 19.1834 19.5976 18.7929 19.2071L17 17.4142V23C17 23.5523 16.5523 24 16 24C15.4477 24 15 23.5523 15 23V17.4142L13.2071 19.2071C12.8166 19.5976 12.1834 19.5976 11.7929 19.2071C11.4024 18.8166 11.4024 18.1834 11.7929 17.7929L15.2929 14.2929Z" fill="black"/>
</svg>
