<svg width="32" height="32" viewBox="0 0 32 32" fill="none" xmlns="http://www.w3.org/2000/svg">
<path fill-rule="evenodd" clip-rule="evenodd" d="M5.58579 3.58579C5.96086 3.21071 6.46957 3 7 3H19C19.2652 3 19.5196 3.10536 19.7071 3.29289L26.7071 10.2929C26.8946 10.4804 27 10.7348 27 11V16C27 16.5523 26.5523 17 26 17C25.4477 17 25 16.5523 25 16V12H19C18.4477 12 18 11.5523 18 11V5L7 5L7 16C7 16.5523 6.55228 17 6 17C5.44772 17 5 16.5523 5 16V5C5 4.46957 5.21071 3.96086 5.58579 3.58579ZM20 6.41421L23.5858 10H20V6.41421ZM23.1664 22.0718C23.077 22.1484 23.0024 22.3007 23.0024 22.532C23.0018 22.527 23.0024 22.5438 23.0024 22.532C23.0133 22.5438 23.0441 22.5666 23.1187 22.6089C23.3563 22.7438 23.7106 22.8416 24.2567 22.9866L24.2874 22.9948C24.7509 23.1178 25.3847 23.2861 25.8954 23.5972C26.4902 23.9597 27 24.5686 27 25.5C27 26.4427 26.5953 27.1775 25.8984 27.6235C25.274 28.0231 24.5182 28.125 23.875 28.125L23.8724 28.125C22.9819 28.1226 22.1159 27.834 21.4021 27.3016C20.9594 26.9714 20.8682 26.3448 21.1984 25.9021C21.5286 25.4594 22.1552 25.3682 22.5979 25.6984C22.9673 25.974 23.4155 26.1235 23.8763 26.125C24.3574 26.1248 24.6636 26.0393 24.8203 25.939C24.8856 25.8972 24.9194 25.8569 24.9418 25.8145C24.9654 25.7698 25 25.6772 25 25.5C25 25.5037 25 25.496 25 25.5C25.0005 25.439 25.0009 25.3942 24.8546 25.3051C24.6266 25.1662 24.2773 25.0615 23.7433 24.9196C23.7146 24.912 23.6851 24.9042 23.6549 24.8962C23.2082 24.7783 22.6113 24.6207 22.1313 24.3482C21.8577 24.1928 21.568 23.9727 21.3473 23.6509C21.1178 23.3164 21 22.9257 21 22.5C21 21.7313 21.298 21.0391 21.8648 20.5532C22.4153 20.0814 23.1368 19.875 23.8776 19.875C24.7681 19.8774 25.6341 20.166 26.3479 20.6984C26.7906 21.0286 26.8818 21.6552 26.5516 22.0979C26.2214 22.5406 25.5948 22.6318 25.1521 22.3016C24.7827 22.0261 24.3346 21.8765 23.8738 21.875C23.4904 21.8752 23.2721 21.9812 23.1664 22.0718ZM5.9 20.2C6.34183 19.8686 6.96863 19.9582 7.3 20.4L8.75 22.3333L10.2 20.4C10.5314 19.9582 11.1582 19.8686 11.6 20.2C12.0418 20.5314 12.1314 21.1582 11.8 21.6L10 24L11.8 26.4C12.1314 26.8418 12.0418 27.4686 11.6 27.8C11.1582 28.1314 10.5314 28.0418 10.2 27.6L8.75 25.6667L7.3 27.6C6.96863 28.0418 6.34183 28.1314 5.9 27.8C5.45817 27.4686 5.36863 26.8418 5.7 26.4L7.5 24L5.7 21.6C5.36863 21.1582 5.45817 20.5314 5.9 20.2ZM15 20C15.5523 20 16 20.4477 16 21V26H18.5C19.0523 26 19.5 26.4477 19.5 27C19.5 27.5523 19.0523 28 18.5 28H15C14.4477 28 14 27.5523 14 27V21C14 20.4477 14.4477 20 15 20Z" fill="black"/>
</svg>
