<svg width="32" height="32" viewBox="0 0 32 32" fill="none" xmlns="http://www.w3.org/2000/svg">
<path fill-rule="evenodd" clip-rule="evenodd" d="M5.58579 3.58579C5.96086 3.21071 6.46957 3 7 3H19C19.2652 3 19.5196 3.10536 19.7071 3.29289L26.7071 10.2929C26.8946 10.4804 27 10.7348 27 11V27C27 27.5304 26.7893 28.0391 26.4142 28.4142C26.0391 28.7893 25.5304 29 25 29H7C6.46957 29 5.96086 28.7893 5.58579 28.4142C5.21071 28.0391 5 27.5304 5 27V5C5 4.46957 5.21071 3.96086 5.58579 3.58579ZM18 5L7 5L7 27H25V12H19C18.4477 12 18 11.5523 18 11V5ZM20 6.41421L23.5858 10H20V6.41421Z" fill="black"/>
<path fill-rule="evenodd" clip-rule="evenodd" d="M21.7214 15.3075C22.1039 15.7059 22.0909 16.3389 21.6925 16.7214L15.4425 22.7214C15.0556 23.0929 14.4444 23.0929 14.0575 22.7214L10.3075 19.1214C9.90906 18.7389 9.89614 18.1059 10.2786 17.7075C10.6611 17.3091 11.2941 17.2961 11.6925 17.6786L14.75 20.6138L20.3075 15.2786C20.7059 14.8961 21.3389 14.9091 21.7214 15.3075Z" fill="black"/>
</svg>
