<svg width="32" height="32" viewBox="0 0 32 32" fill="none" xmlns="http://www.w3.org/2000/svg">
<path fill-rule="evenodd" clip-rule="evenodd" d="M5.58579 3.58579C5.96086 3.21071 6.46957 3 7 3H19C19.2652 3 19.5196 3.10536 19.7071 3.29289L26.7071 10.2929C26.8946 10.4804 27 10.7348 27 11V16C27 16.5523 26.5523 17 26 17C25.4477 17 25 16.5523 25 16V12H19C18.4477 12 18 11.5523 18 11V5L7 5L7 16C7 16.5523 6.55228 17 6 17C5.44772 17 5 16.5523 5 16V5C5 4.46957 5.21071 3.96086 5.58579 3.58579ZM20 6.41421L23.5858 10H20V6.41421ZM6 21C6 20.4477 6.44772 20 7 20H11C11.3688 20 11.7077 20.203 11.8817 20.5281C12.0557 20.8533 12.0366 21.2478 11.8321 21.5547L8.86852 26H11C11.5523 26 12 26.4477 12 27C12 27.5523 11.5523 28 11 28H7C6.6312 28 6.29234 27.797 6.11833 27.4719C5.94431 27.1467 5.96338 26.7522 6.16795 26.4453L9.13148 22H7C6.44772 22 6 21.5523 6 21ZM16 20C16.5523 20 17 20.4477 17 21V27C17 27.5523 16.5523 28 16 28C15.4477 28 15 27.5523 15 27V21C15 20.4477 15.4477 20 16 20ZM20 21C20 20.4477 20.4477 20 21 20H23C23.7957 20 24.5587 20.3161 25.1213 20.8787C25.6839 21.4413 26 22.2043 26 23C26 23.7957 25.6839 24.5587 25.1213 25.1213C24.5587 25.6839 23.7957 26 23 26H22V27C22 27.5523 21.5523 28 21 28C20.4477 28 20 27.5523 20 27V21ZM22 24H23C23.2652 24 23.5196 23.8946 23.7071 23.7071C23.8946 23.5196 24 23.2652 24 23C24 22.7348 23.8946 22.4804 23.7071 22.2929C23.5196 22.1054 23.2652 22 23 22H22V24Z" fill="black"/>
</svg>
