<svg width="32" height="32" viewBox="0 0 32 32" fill="none" xmlns="http://www.w3.org/2000/svg">
<path fill-rule="evenodd" clip-rule="evenodd" d="M7 4C7.55228 4 8 4.44772 8 5V16H10C10.5523 16 11 16.4477 11 17C11 17.5523 10.5523 18 10 18H4C3.44772 18 3 17.5523 3 17C3 16.4477 3.44772 16 4 16H6V5C6 4.44772 6.44772 4 7 4ZM16 4C16.5523 4 17 4.44772 17 5V10H19C19.5523 10 20 10.4477 20 11C20 11.5523 19.5523 12 19 12H13C12.4477 12 12 11.5523 12 11C12 10.4477 12.4477 10 13 10H15V5C15 4.44772 15.4477 4 16 4ZM25 4C25.5523 4 26 4.44772 26 5V20H28C28.5523 20 29 20.4477 29 21C29 21.5523 28.5523 22 28 22H22C21.4477 22 21 21.5523 21 21C21 20.4477 21.4477 20 22 20H24V5C24 4.44772 24.4477 4 25 4ZM16 14C16.5523 14 17 14.4477 17 15V27C17 27.5523 16.5523 28 16 28C15.4477 28 15 27.5523 15 27V15C15 14.4477 15.4477 14 16 14ZM7 20C7.55228 20 8 20.4477 8 21V27C8 27.5523 7.55228 28 7 28C6.44772 28 6 27.5523 6 27V21C6 20.4477 6.44772 20 7 20ZM25 24C25.5523 24 26 24.4477 26 25V27C26 27.5523 25.5523 28 25 28C24.4477 28 24 27.5523 24 27V25C24 24.4477 24.4477 24 25 24Z" fill="black"/>
</svg>
