<svg width="32" height="32" viewBox="0 0 32 32" fill="none" xmlns="http://www.w3.org/2000/svg">
<path d="M30.7287 15.2037C30.6012 14.9796 30.4303 14.7832 30.2259 14.6259C30.0216 14.4686 29.788 14.3535 29.5387 14.2875C28.6345 14.0547 27.7 13.9612 26.7675 14.01C27.2675 11.5288 26.8925 9.56625 26.51 8.4025C26.3575 7.92446 26.0325 7.52032 25.5983 7.26889C25.164 7.01746 24.6517 6.93675 24.1612 7.0425C22.8893 7.32579 21.6798 7.83923 20.5925 8.5575C19.7962 6.9308 18.6368 5.50881 17.2037 4.40125C16.8565 4.14079 16.4341 4 16 4C15.5659 4 15.1435 4.14079 14.7962 4.40125C13.3629 5.50849 12.2034 6.93056 11.4075 8.5575C10.3202 7.83923 9.11071 7.32579 7.83874 7.0425C7.34824 6.93675 6.83594 7.01746 6.40171 7.26889C5.96749 7.52032 5.64246 7.92446 5.48999 8.4025C5.11499 9.56625 4.73999 11.5275 5.23249 14.01C4.30001 13.9612 3.36553 14.0547 2.46124 14.2875C2.21198 14.3535 1.97836 14.4686 1.77405 14.6259C1.56973 14.7832 1.3988 14.9796 1.27124 15.2037C1.13775 15.4333 1.05131 15.6872 1.01697 15.9505C0.982635 16.2138 1.00108 16.4814 1.07124 16.7375C1.49499 18.3087 2.79624 21.2975 6.73749 23.6525C10.6787 26.0075 14.1412 26 16.0062 26C17.8712 26 21.34 26 25.2562 23.6525C29.1975 21.2975 30.4987 18.3087 30.9225 16.7375C30.9936 16.4818 31.0131 16.2145 30.9798 15.9511C30.9465 15.6878 30.8612 15.4338 30.7287 15.2037ZM7.39249 9.0175C7.39399 9.0113 7.3978 9.0059 7.40314 9.00241C7.40849 8.99893 7.41496 8.99762 7.42124 8.99875C8.58435 9.26149 9.68196 9.75778 10.6475 10.4575C10.2079 11.8957 9.98953 13.3924 9.99999 14.8962C9.99999 17.2387 10.4712 19.1462 11.1387 20.6812C10.1898 19.7315 9.36871 18.662 8.69624 17.5C6.44374 13.5775 6.91249 10.5 7.39249 9.0175ZM7.76749 21.9363C4.43374 19.9463 3.35249 17.5062 2.99999 16.2125C3.91977 15.986 4.87419 15.9364 5.81249 16.0662C6.12574 16.9053 6.50831 17.7169 6.95624 18.4925C8.05606 20.3887 9.49694 22.0652 11.2062 23.4375C9.99756 23.09 8.83974 22.5853 7.76249 21.9363H7.76749ZM16 23.8C14.8337 22.9325 12 20.2712 12 14.8962C12 9.5875 14.7975 6.905 16 6C17.2025 6.9075 20 9.59 20 14.8988C20 20.2712 17.1662 22.9325 16 23.8ZM21.3525 10.4575C22.3181 9.75822 23.4157 9.26237 24.5787 9C24.585 8.99887 24.5915 9.00017 24.5968 9.00366C24.6022 9.00715 24.606 9.01255 24.6075 9.01875C25.0875 10.5 25.5562 13.5775 23.3037 17.5C22.6319 18.6636 21.8107 19.7343 20.8612 20.685C21.5287 19.1525 22 17.2425 22 14.9C22.0108 13.3949 21.7925 11.8969 21.3525 10.4575ZM29 16.215C28.6537 17.4963 27.575 19.9413 24.2387 21.9363C23.1614 22.5848 22.0036 23.0891 20.795 23.4363C22.5043 22.0639 23.9452 20.3874 25.045 18.4912C25.4929 17.7156 25.8755 16.9041 26.1887 16.065C27.1268 15.9357 28.0808 15.9862 29 16.2138V16.215Z" fill="black"/>
</svg>
