<svg width="32" height="32" viewBox="0 0 32 32" fill="none" xmlns="http://www.w3.org/2000/svg">
<path fill-rule="evenodd" clip-rule="evenodd" d="M11.5858 7.00001L13.5858 9.00001H5L5 7.00001H11.5858ZM5 11V25H27V11H5ZM16.4142 9.00001L12.9946 5.5804L12.9929 5.57865C12.8076 5.39431 12.5878 5.24831 12.3461 5.14902C12.1049 5.05 11.8467 4.99936 11.5861 5.00001H5C4.46957 5.00001 3.96086 5.21072 3.58579 5.58579C3.21071 5.96086 3 6.46957 3 7.00001V25.075C3 25.3278 3.04979 25.5781 3.14653 25.8117C3.24327 26.0452 3.38507 26.2574 3.56382 26.4362C3.74257 26.6149 3.95478 26.7567 4.18833 26.8535C4.42189 26.9502 4.6722 27 4.925 27H27.1125C27.6131 27 28.0932 26.8011 28.4472 26.4472C28.8011 26.0932 29 25.6131 29 25.1125V11C29 10.4696 28.7893 9.96087 28.4142 9.58579C28.0391 9.21072 27.5304 9.00001 27 9.00001H16.4142Z" fill="black"/>
</svg>
