<svg width="32" height="32" viewBox="0 0 32 32" fill="none" xmlns="http://www.w3.org/2000/svg">
<path fill-rule="evenodd" clip-rule="evenodd" d="M9.29704 3.83978C10.0482 3.08866 11.0669 2.66669 12.1292 2.66669C13.1914 2.66669 14.2133 3.09178 14.9644 3.8429C15.2529 4.13398 15.4823 4.48412 15.6667 4.85214C15.851 4.48412 16.0804 4.13399 16.369 3.84291C17.1201 3.09178 18.1419 2.66669 19.2042 2.66669C20.2664 2.66669 21.2852 3.08866 22.0363 3.83978C22.7874 4.59091 23.2094 5.60965 23.2094 6.67189C23.2094 7.601 22.8866 8.49681 22.303 9.20939H26.6667C27.7712 9.20939 28.6667 10.1048 28.6667 11.2094V15.2094C28.6667 16.314 27.7712 17.2094 26.6667 17.2094V25.2094C26.6667 25.7398 26.456 26.2485 26.0809 26.6236C25.7058 26.9987 25.1971 27.2094 24.6667 27.2094H6.66667C6.13624 27.2094 5.62753 26.9987 5.25246 26.6236C4.87739 26.2485 4.66667 25.7398 4.66667 25.2094V17.2094C3.5621 17.2094 2.66667 16.314 2.66667 15.2094V11.2094C2.66667 10.1048 3.5621 9.20939 4.66667 9.20939H9.0303C8.44677 8.49681 8.12395 7.601 8.12395 6.67189C8.12395 5.60965 8.54592 4.59091 9.29704 3.83978ZM14.6667 11.2094H4.66667V15.2094H14.6667V11.2094ZM14.6667 17.2094H6.66667V25.2094H14.6667V17.2094ZM16.6667 25.2094V17.2094H24.6667V25.2094H16.6667ZM16.6667 15.2094V11.2094H26.6667V15.2094H16.6667ZM14.6194 9.1621C14.5946 8.83337 14.557 8.45251 14.5001 8.05377C14.4166 7.46851 14.2949 6.86897 14.1218 6.34822C13.9435 5.81186 13.74 5.44942 13.5454 5.25234C13.1695 4.87733 12.6602 4.66669 12.1292 4.66669C11.5973 4.66669 11.0873 4.87795 10.7113 5.254C10.3352 5.63005 10.1239 6.14008 10.1239 6.67189C10.1239 7.20291 10.3346 7.71221 10.7096 8.0881C10.9066 8.28268 11.2691 8.48626 11.8055 8.66453C12.3262 8.8376 12.9258 8.95935 13.511 9.04285C13.9098 9.09974 14.2906 9.13733 14.6194 9.1621ZM16.714 9.1621C17.0427 9.13733 17.4236 9.09974 17.8223 9.04285C18.4076 8.95935 19.0071 8.8376 19.5278 8.66453C20.0642 8.48627 20.4266 8.2827 20.6237 8.08813C20.9987 7.71224 21.2094 7.20292 21.2094 6.67189C21.2094 6.14008 20.9981 5.63005 20.6221 5.254C20.246 4.87795 19.736 4.66669 19.2042 4.66669C18.6731 4.66669 18.1638 4.87733 17.7879 5.25234C17.5934 5.44941 17.3898 5.81186 17.2115 6.34822C17.0385 6.86897 16.9167 7.46851 16.8332 8.05376C16.7763 8.45251 16.7387 8.83337 16.714 9.1621Z" fill="black"/>
</svg>
