<svg width="32" height="32" viewBox="0 0 32 32" fill="none" xmlns="http://www.w3.org/2000/svg">
<path fill-rule="evenodd" clip-rule="evenodd" d="M19.4285 3.4568C24.9447 4.96106 29 10.0069 29 15.9999C29 18.0222 28.5383 19.9366 27.7145 21.6435C27.6918 21.7052 27.6627 21.7657 27.6269 21.8239L27.6206 21.8339C25.5365 25.977 21.3021 28.8523 16.3825 28.9944C16.3273 29.0004 16.2711 29.0017 16.2144 28.9982C16.143 28.9994 16.0716 28.9999 16 28.9999C8.8203 28.9999 3 23.1796 3 15.9999C3 8.82024 8.8203 2.99994 16 2.99994C17.1047 2.99994 18.1772 3.13773 19.2013 3.39706C19.2791 3.40803 19.3554 3.4281 19.4285 3.4568ZM5 15.9999C5 14.2136 5.4258 12.5267 6.18144 11.0353L7.48588 14.5062C7.5995 14.8225 7.79147 15.1048 8.04392 15.3268C8.29926 15.5513 8.60793 15.7066 8.94042 15.7777L11.6145 16.3525L12.0863 17.3334L12.095 17.3511C12.2617 17.6809 12.5156 17.9588 12.829 18.1547C13.1424 18.3506 13.5035 18.457 13.8731 18.4623L14.0361 18.4624L13.0751 20.6159C12.9148 20.9723 12.8625 21.3679 12.9246 21.7538C12.9868 22.1405 13.1611 22.5003 13.426 22.7888L15.7785 25.3329L15.4555 26.9867C9.63329 26.7029 5 21.8925 5 15.9999ZM7.92311 9.98447L8.95642 7.55044C10.8646 5.95808 13.3204 4.99994 16 4.99994C16.8259 4.99994 17.6305 5.09096 18.4044 5.26352L19.3478 6.97305L15.9921 10.0079L14.4412 10.8624L11.7875 10.8624C11.3958 10.8644 11.0081 10.9807 10.6815 11.1969C10.3549 11.4132 10.0985 11.72 9.94378 12.0799L9.29199 13.6269L7.92311 9.98447ZM12.0302 14.3962L11.2122 14.2204L11.792 12.8624C11.792 12.8624 14.1869 12.8617 14.4893 12.8621C14.7917 12.8624 15.1233 12.7709 15.4062 12.6208L16.9581 11.763C17.0969 11.6865 17.2256 11.5929 17.3412 11.4844L20.706 8.44469C21.0331 8.1405 21.2496 7.73614 21.3216 7.29531C21.3749 6.96916 21.3467 6.63675 21.2421 6.32695C24.6717 8.18949 27 11.8228 27 15.9999C27 17.3508 26.7565 18.6448 26.311 19.8404L20.5185 16.2774C20.2783 16.1251 20.007 16.0286 19.7245 15.9952L16.8751 15.6094C16.4439 15.5486 16.0048 15.6319 15.6258 15.8464C15.3578 15.9983 15.1305 16.2097 14.9604 16.4624L13.889 16.4587L13.4158 15.4836C13.2843 15.2075 13.0891 14.963 12.8481 14.7747C12.6083 14.5871 12.3283 14.4576 12.0302 14.3962ZM25.4388 21.652C23.7621 24.446 20.88 26.434 17.5116 26.8969L17.7438 25.7182C17.8002 25.4115 17.7872 25.0833 17.7015 24.7835C17.6159 24.4836 17.4621 24.2076 17.2523 23.9769L14.8992 21.4361L16.6144 17.5924L19.4666 17.9785L25.4388 21.652Z" fill="black"/>
</svg>
