<svg width="32" height="32" viewBox="0 0 32 32" fill="none" xmlns="http://www.w3.org/2000/svg">
<path d="M5.98914 11C5.98914 10.2089 6.22373 9.43552 6.66326 8.77772C7.10278 8.11992 7.7275 7.60723 8.4584 7.30448C9.18931 7.00173 9.99357 6.92252 10.7695 7.07686C11.5454 7.2312 12.2582 7.61216 12.8176 8.17157C13.377 8.73098 13.7579 9.44371 13.9123 10.2196C14.0666 10.9956 13.9874 11.7998 13.6847 12.5307C13.3819 13.2616 12.8692 13.8864 12.2114 14.3259C11.5536 14.7654 10.7803 15 9.98914 15C8.92827 15 7.91085 14.5786 7.16071 13.8284C6.41056 13.0783 5.98914 12.0609 5.98914 11ZM9.98914 13C10.3847 13 10.7714 12.8827 11.1003 12.6629C11.4292 12.4432 11.6855 12.1308 11.8369 11.7654C11.9883 11.3999 12.0279 10.9978 11.9507 10.6098C11.8735 10.2219 11.6831 9.86549 11.4033 9.58579C11.1236 9.30608 10.7673 9.1156 10.3793 9.03843C9.99135 8.96126 9.58922 9.00087 9.22377 9.15224C8.85832 9.30362 8.54596 9.55996 8.3262 9.88886C8.10643 10.2178 7.98914 10.6044 7.98914 11C7.98914 11.5304 8.19985 12.0391 8.57492 12.4142C8.95 12.7893 9.4587 13 9.98914 13ZM8.81164 25.8275L4.86414 17.1338C3.60553 16.0799 2.70158 14.6644 2.27493 13.0793C1.84827 11.4941 1.91958 9.81611 2.47916 8.27289C3.03875 6.72966 4.05952 5.39593 5.40299 4.45266C6.74646 3.50938 8.34759 3.00223 9.98914 3C10.0444 3.00023 10.0996 3.00483 10.1541 3.01375L27.3179 5.875C27.7848 5.95281 28.209 6.19374 28.5151 6.55491C28.8211 6.91609 28.9891 7.37411 28.9891 7.8475V14.1525C28.9891 14.6259 28.8211 15.0839 28.5151 15.4451C28.209 15.8063 27.7848 16.0472 27.3179 16.125L14.9891 18.18V25C14.9891 25.5304 14.7784 26.0391 14.4033 26.4142C14.0283 26.7893 13.5196 27 12.9891 27C12.9891 28.3261 12.4624 29.5979 11.5247 30.5355C10.587 31.4732 9.31522 32 7.98914 32H5.98914C5.72392 32 5.46956 31.8946 5.28203 31.7071C5.09449 31.5196 4.98914 31.2652 4.98914 31C4.98914 30.7348 5.09449 30.4804 5.28203 30.2929C5.46956 30.1054 5.72392 30 5.98914 30H7.98914C8.78478 30 9.54785 29.6839 10.1105 29.1213C10.6731 28.5587 10.9891 27.7956 10.9891 27H10.6329C10.2488 27.0001 9.87276 26.8896 9.54979 26.6816C9.22682 26.4737 8.97056 26.1772 8.81164 25.8275ZM26.9891 7.8475L9.90914 5C8.31784 5 6.79171 5.63214 5.66649 6.75736C4.54128 7.88258 3.90914 9.4087 3.90914 11C3.90914 12.5913 4.54128 14.1174 5.66649 15.2426C6.79171 16.3679 8.31784 17 9.90914 17L26.9891 14.1538V7.8475ZM10.1541 18.9862C10.0996 18.9952 10.0444 18.9998 9.98914 19C9.23537 18.9998 8.48544 18.8929 7.76163 18.6825L10.6366 25H12.9891V18.5138L10.1541 18.9862Z" fill="black"/>
</svg>
