<svg width="32" height="32" viewBox="0 0 32 32" fill="none" xmlns="http://www.w3.org/2000/svg">
<path fill-rule="evenodd" clip-rule="evenodd" d="M16 3C11.3518 3 8.03705 4.70987 5.9182 7.54046C3.83455 10.324 3 14.0669 3 18C3 25.2401 3.88577 27.8856 4.05476 28.3288C4.20387 28.7198 4.57132 29 5 29H10.5C10.8206 29 11.1218 28.8463 11.3099 28.5866C11.5828 28.2097 11.473 27.7953 11.3655 27.3896C11.3543 27.3472 11.343 27.3048 11.3323 27.2626C11.2536 26.954 11.1427 26.4755 11.0204 25.8174C10.7027 24.1063 10.3088 21.1801 10.2105 16.8703C11.2044 17.4842 12.4608 18.0626 13.9041 18.4688C16.1116 19.0902 18.8019 19.322 21.7263 18.6364C21.6312 21.2766 21.2651 23.4096 20.9022 24.9323C20.586 26.2593 20.2723 27.1222 20.1438 27.451C20.0007 27.8171 19.9322 28.1943 20.1631 28.5473C20.3478 28.8298 20.6625 29 21 29H27C27.4918 29 27.8387 28.6457 27.9889 28.2074C28.0921 27.9063 28.292 27.2276 28.4872 26.0199C28.7473 24.4106 29 21.8561 29 18C29 14.0669 28.1654 10.324 26.0818 7.54046C23.9629 4.70987 20.6482 3 16 3ZM5 18C5 23.2204 5.47392 25.898 5.74448 27H9.21748C9.16604 26.7613 9.11099 26.4891 9.05407 26.1826C8.6643 24.0838 8.1875 20.3786 8.1875 14.8125C8.1875 14.4036 8.43645 14.0359 8.81611 13.884C9.19577 13.7322 9.62963 13.8267 9.91164 14.1228C10.598 14.8436 12.2073 15.9136 14.4459 16.5437C16.6588 17.1665 19.4287 17.3422 22.4404 16.3616C22.7449 16.2625 23.0784 16.3152 23.3375 16.5033C23.5967 16.6914 23.75 16.9923 23.75 17.3125C23.75 20.7436 23.3011 23.4936 22.8478 25.3959C22.6978 26.0252 22.5473 26.5619 22.4124 27H26.2555C26.3303 26.6952 26.4209 26.269 26.5128 25.7007C26.7527 24.2168 27 21.7713 27 18C27 14.3057 26.2095 11.0486 24.4807 8.73898C22.7871 6.47643 20.1018 5 16 5C11.8982 5 9.21295 6.47643 7.51931 8.73898C5.79045 11.0486 5 14.3057 5 18Z" fill="black"/>
</svg>
