<svg width="32" height="32" viewBox="0 0 32 32" fill="none" xmlns="http://www.w3.org/2000/svg">
<path d="M3.33333 7.99998C3.33333 7.07951 4.07952 6.33331 4.99999 6.33331H27C27.9205 6.33331 28.6667 7.0795 28.6667 7.99998C28.6667 8.92045 27.9205 9.66665 27 9.66665H4.99999C4.07952 9.66665 3.33333 8.92045 3.33333 7.99998Z" fill="black"/>
<path d="M3.33333 16C3.33333 15.0795 4.07952 14.3333 4.99999 14.3333H27C27.9205 14.3333 28.6667 15.0795 28.6667 16C28.6667 16.9205 27.9205 17.6666 27 17.6666H4.99999C4.07952 17.6666 3.33333 16.9205 3.33333 16Z" fill="black"/>
<path d="M3.33333 24C3.33333 23.0795 4.07952 22.3333 4.99999 22.3333H27C27.9205 22.3333 28.6667 23.0795 28.6667 24C28.6667 24.9205 27.9205 25.6666 27 25.6666H4.99999C4.07952 25.6666 3.33333 24.9205 3.33333 24Z" fill="black"/>
</svg>
