<svg width="32" height="32" viewBox="0 0 32 32" fill="none" xmlns="http://www.w3.org/2000/svg">
<path d="M29.415 22.5L24.885 17.9687L20.3275 2.93247C20.198 2.50432 19.9648 2.11472 19.6488 1.79818C19.3327 1.48164 18.9435 1.24794 18.5155 1.11777C18.0876 0.987605 17.6341 0.964992 17.1953 1.05194C16.7565 1.13888 16.346 1.3327 16 1.61622C15.654 1.3327 15.2434 1.13888 14.8047 1.05194C14.3659 0.964992 13.9124 0.987605 13.4845 1.11777C13.0565 1.24794 12.6672 1.48164 12.3512 1.79818C12.0351 2.11472 11.802 2.50432 11.6725 2.93247L7.11499 17.97L2.58499 22.5C2.2102 22.875 1.99966 23.3835 1.99966 23.9137C1.99966 24.4439 2.2102 24.9524 2.58499 25.3275L6.67124 29.4137C6.85696 29.5995 7.07746 29.7468 7.32014 29.8474C7.56282 29.9479 7.82293 29.9997 8.08561 29.9997C8.3483 29.9997 8.6084 29.9479 8.85109 29.8474C9.09377 29.7468 9.31427 29.5995 9.49999 29.4137L15.535 23.375C15.7023 23.2073 15.8577 23.0281 16 22.8387C16.1423 23.0281 16.2977 23.2073 16.465 23.375L22.5 29.415C22.6857 29.6007 22.9062 29.7481 23.1489 29.8486C23.3916 29.9492 23.6517 30.0009 23.9144 30.0009C24.177 30.0009 24.4372 29.9492 24.6798 29.8486C24.9225 29.7481 25.143 29.6007 25.3287 29.415L29.415 25.3287C29.6008 25.143 29.7481 24.9225 29.8487 24.6798C29.9492 24.4371 30.0009 24.177 30.0009 23.9143C30.0009 23.6517 29.9492 23.3916 29.8487 23.1489C29.7481 22.9062 29.6008 22.6857 29.415 22.5ZM8.08499 28L3.99999 23.915L5.58624 22.3287L9.67249 26.415L8.08499 28ZM15 19.8437C15.002 20.2382 14.9257 20.6292 14.7755 20.9939C14.6253 21.3587 14.4042 21.69 14.125 21.9687L11.085 25L6.99999 20.915L8.70624 19.2075C8.82268 19.091 8.90855 18.9476 8.95624 18.79L13.5812 3.51247C13.6281 3.34247 13.7356 3.1955 13.8834 3.09925C14.0312 3.003 14.209 2.96412 14.3835 2.98995C14.558 3.01577 14.7169 3.1045 14.8305 3.23943C14.9441 3.37436 15.0043 3.54617 15 3.72247V19.8437ZM17.875 21.9687C17.5958 21.69 17.3747 21.3587 17.2245 20.9939C17.0743 20.6292 16.998 20.2382 17 19.8437V3.71872C17 3.54553 17.0623 3.37811 17.1754 3.24697C17.2885 3.11584 17.445 3.0297 17.6163 3.00425C17.7876 2.9788 17.9624 3.01574 18.1088 3.10834C18.2551 3.20093 18.3634 3.34302 18.4137 3.50872L23.0387 18.7862C23.0864 18.9438 23.1723 19.0873 23.2887 19.2037L25.1 21.015L20.925 25.015L17.875 21.9687ZM23.915 28L22.345 26.4287L26.5187 22.4287L28 23.915L23.915 28Z" fill="black"/>
</svg>
