<svg width="32" height="32" viewBox="0 0 32 32" fill="none" xmlns="http://www.w3.org/2000/svg">
<path d="M27.525 12.5L25.275 8.6025C24.98 8.0908 24.5602 7.6621 24.0549 7.35631C23.5495 7.05053 22.975 6.8776 22.3849 6.85365C21.7947 6.82969 21.2081 6.95548 20.6796 7.2193C20.1511 7.48313 19.698 7.8764 19.3625 8.3625L17.445 5.03875C17.1417 4.51348 16.707 4.07606 16.1837 3.76937C15.6604 3.46268 15.0664 3.29726 14.4599 3.28932C13.8534 3.28138 13.2552 3.43119 12.7241 3.72408C12.1929 4.01696 11.747 4.44285 11.43 4.96C10.8109 4.40265 10.0134 4.08437 9.18071 4.06235C8.34802 4.04033 7.53477 4.31602 6.88712 4.83986C6.23947 5.3637 5.79988 6.10136 5.64736 6.92026C5.49483 7.73916 5.63937 8.58561 6.055 9.3075L6.4725 10.0312C5.88368 10.0786 5.31641 10.2741 4.82354 10.5998C4.33067 10.9254 3.92824 11.3705 3.65373 11.8935C3.37922 12.4166 3.24157 13.0006 3.25359 13.5912C3.26562 14.1818 3.42693 14.7598 3.7225 15.2712L8.4725 23.4987C9.1918 24.752 10.1524 25.8502 11.2988 26.7299C12.4452 27.6096 13.7546 28.2533 15.1513 28.6237C16.0858 28.8734 17.049 28.9995 18.0163 28.9987C19.9455 28.9955 21.8399 28.485 23.5095 27.5184C25.1791 26.5517 26.5651 25.163 27.5285 23.4915C28.4918 21.82 28.9986 19.9245 28.998 17.9953C28.9974 16.066 28.4894 14.1709 27.525 12.5ZM26.6912 20.3287C26.2306 22.0481 25.2705 23.5923 23.9322 24.7661C22.5939 25.9398 20.9377 26.6903 19.1729 26.9227C17.4081 27.1551 15.614 26.859 14.0175 26.0717C12.421 25.2845 11.0938 24.0415 10.2038 22.5L5.45375 14.2725C5.35526 14.1019 5.29134 13.9135 5.26565 13.7182C5.23995 13.5228 5.25298 13.3243 5.304 13.134C5.40703 12.7497 5.65851 12.422 6.00313 12.2231C6.34774 12.0242 6.75726 11.9703 7.14159 12.0734C7.33189 12.1244 7.51028 12.2124 7.66658 12.3323C7.82287 12.4523 7.95401 12.6019 8.0525 12.7725L10.8025 17.535C10.8662 17.6523 10.9528 17.7557 11.0571 17.8391C11.1615 17.9224 11.2814 17.9841 11.41 18.0203C11.5385 18.0565 11.673 18.0666 11.8055 18.0501C11.938 18.0335 12.0658 17.9905 12.1815 17.9237C12.2971 17.8569 12.3982 17.7677 12.4788 17.6612C12.5593 17.5547 12.6178 17.4331 12.6506 17.3037C12.6834 17.1742 12.69 17.0395 12.6699 16.9075C12.6499 16.7755 12.6036 16.6488 12.5338 16.535L7.78375 8.30875C7.63543 8.0518 7.56663 7.75665 7.58606 7.46061C7.60549 7.16456 7.71227 6.88093 7.8929 6.64558C8.07353 6.41022 8.31989 6.23372 8.60084 6.13839C8.88178 6.04305 9.18469 6.03317 9.47125 6.11C9.66186 6.16027 9.84059 6.24794 9.99702 6.36789C10.1535 6.48785 10.2845 6.6377 10.3825 6.80875L14.6325 14.17C14.7688 14.3922 14.9864 14.5524 15.2391 14.6165C15.4917 14.6806 15.7594 14.6435 15.9851 14.5131C16.2108 14.3827 16.3767 14.1694 16.4474 13.9185C16.5182 13.6676 16.4881 13.3991 16.3638 13.17L13.1138 7.545C12.9234 7.20106 12.8757 6.79616 12.9809 6.4174C13.086 6.03864 13.3357 5.7163 13.6761 5.51972C14.0165 5.32314 14.4204 5.26805 14.801 5.36628C15.1817 5.46452 15.5085 5.70823 15.7113 6.045L20 13.4725C18.9082 14.3771 18.1714 15.6385 17.9198 17.0338C17.6682 18.4292 17.918 19.8685 18.625 21.0975C18.7576 21.3272 18.9761 21.4949 19.2323 21.5636C19.4885 21.6323 19.7615 21.5964 19.9912 21.4637C20.221 21.3311 20.3886 21.1127 20.4573 20.8565C20.526 20.6003 20.4901 20.3272 20.3575 20.0975C19.8271 19.1788 19.6834 18.0871 19.9579 17.0625C20.2324 16.0379 20.9027 15.1642 21.8213 14.6337C21.935 14.5681 22.0348 14.4807 22.1147 14.3765C22.1947 14.2723 22.2534 14.1534 22.2874 14.0265C22.3214 13.8996 22.3301 13.7673 22.313 13.6371C22.2958 13.5068 22.2532 13.3812 22.1875 13.2675L20.9375 11.1025C20.7472 10.7586 20.6994 10.3537 20.8046 9.9749C20.9098 9.59614 21.1594 9.2738 21.4998 9.07722C21.8402 8.88064 22.2442 8.82555 22.6248 8.92378C23.0054 9.02202 23.3322 9.26573 23.535 9.6025L25.785 13.5C26.3802 14.5215 26.7668 15.651 26.9223 16.8229C27.0779 17.9949 26.9993 19.1861 26.6912 20.3275V20.3287ZM23.0338 3.74125C23.0677 3.61434 23.1263 3.49536 23.2063 3.39111C23.2862 3.28686 23.3859 3.19939 23.4997 3.13368C23.6134 3.06798 23.739 3.02534 23.8693 3.00819C23.9995 2.99104 24.1319 2.99973 24.2588 3.03375C26.2475 3.5675 27.8837 4.7975 28.8662 6.5C28.9989 6.72974 29.0348 7.00275 28.9661 7.25897C28.8974 7.51519 28.7297 7.73364 28.5 7.86625C28.2703 7.99885 27.9972 8.03476 27.741 7.96608C27.4848 7.89739 27.2664 7.72974 27.1338 7.5C26.4188 6.26 25.2137 5.36 23.7412 4.96625C23.6143 4.9323 23.4954 4.87368 23.3911 4.79374C23.2869 4.7138 23.1994 4.6141 23.1337 4.50033C23.068 4.38657 23.0253 4.26098 23.0082 4.13073C22.991 4.00049 22.9997 3.86814 23.0338 3.74125ZM10.1138 29.625C10.0324 29.7282 9.9316 29.8144 9.81697 29.8786C9.70234 29.9428 9.57618 29.9838 9.4457 29.9993C9.31522 30.0147 9.18298 30.0043 9.05652 29.9686C8.93007 29.9329 8.8119 29.8726 8.70875 29.7912C7.33375 28.705 6.195 27.3437 5.13375 25.5062C5.00114 25.2765 4.96523 25.0035 5.03392 24.7473C5.1026 24.491 5.27026 24.2726 5.5 24.14C5.72974 24.0074 6.00276 23.9715 6.25898 24.0402C6.5152 24.1088 6.73364 24.2765 6.86625 24.5062C7.79625 26.1162 8.775 27.2962 9.9475 28.2212C10.1556 28.3854 10.29 28.6255 10.3212 28.8887C10.3523 29.1519 10.2777 29.4168 10.1138 29.625Z" fill="black"/>
</svg>
