<svg width="32" height="32" viewBox="0 0 32 32" fill="none" xmlns="http://www.w3.org/2000/svg">
<path d="M2.29289 3.29289C2.68342 2.90237 3.31643 2.90237 3.70696 3.29289L7.31828 6.90422C8.32461 6.31834 9.47029 5.99994 10.6513 5.99992C12.8054 5.99992 14.7506 6.94015 15.9999 8.54485C17.2492 6.94015 19.1945 5.99992 21.3486 5.99992C23.1572 5.99995 24.8844 6.74444 26.1523 8.05754C27.419 9.36958 28.1249 11.1424 28.1249 12.9833C28.1248 15.0668 27.3331 17.0138 26.2255 18.7236C25.308 20.1399 24.1477 21.429 22.9648 22.5507L26.9999 26.5859V22.9999C26.9999 22.4476 27.4476 21.9999 27.9999 21.9999C28.5522 22 28.9999 22.4477 28.9999 22.9999V28.9999C28.9999 29.5521 28.5521 29.9999 27.9999 29.9999H21.9999C21.4477 29.9999 21 29.5522 20.9999 28.9999C20.9999 28.4476 21.4476 27.9999 21.9999 27.9999H25.5859L21.4667 23.8808C20.2963 24.8558 19.1729 25.6608 18.2929 26.248C17.7576 26.6051 17.3103 26.8845 16.995 27.0751C16.8284 27.1759 16.661 27.2756 16.4911 27.371C16.1901 27.5396 15.8143 27.5411 15.5126 27.373C15.3415 27.2772 15.1726 27.1766 15.0048 27.0751C14.6896 26.8845 14.2422 26.6051 13.707 26.248C12.6383 25.5349 11.2084 24.5034 9.77434 23.2323C8.34379 21.9644 6.88313 20.4351 5.77434 18.7236C4.66676 17.0138 3.87504 15.0668 3.87492 12.9833C3.87492 11.191 4.54451 9.46382 5.74895 8.16301L2.29289 4.70696C1.90237 4.31643 1.90237 3.68342 2.29289 3.29289ZM21.3486 7.99992C19.322 7.99992 17.6336 9.13185 16.9296 10.913C16.7787 11.2946 16.4103 11.5458 15.9999 11.5458C15.5896 11.5458 15.2211 11.2946 15.0702 10.913C14.3663 9.13185 12.6779 7.99992 10.6513 7.99992C10.0118 7.99994 9.3838 8.13407 8.80266 8.3886L11.707 11.2929C12.0975 11.6834 12.0975 12.3164 11.707 12.707C11.3164 13.0975 10.6834 13.0975 10.2929 12.707L7.16496 9.57903C6.34117 10.4973 5.87492 11.7122 5.87492 12.9833C5.87504 14.5557 6.47388 16.1266 7.45207 17.6366C8.42917 19.1449 9.74994 20.5382 11.1005 21.7353C12.4474 22.9291 13.7992 23.9052 14.8163 24.5839C15.3016 24.9077 15.7089 25.1631 15.9999 25.3398C16.2909 25.1631 16.6982 24.9077 17.1835 24.5839C18.148 23.9403 19.4117 23.0274 20.6884 21.9169C20.7196 21.8736 20.754 21.8318 20.7929 21.7929C20.864 21.7218 20.943 21.6633 21.0273 21.6181C22.3325 20.4472 23.6019 19.0967 24.5478 17.6366C25.526 16.1266 26.1248 14.5557 26.1249 12.9833C26.1249 11.6508 25.6135 10.3792 24.7138 9.44719C23.8151 8.5164 22.6038 7.99995 21.3486 7.99992Z" fill="black"/>
</svg>
