<svg width="32" height="32" viewBox="0 0 32 32" fill="none" xmlns="http://www.w3.org/2000/svg">
<path d="M29.9762 12.4375C29.3275 20.865 17.0138 27.5913 16.4762 27.88C16.3306 27.9584 16.1679 27.9994 16.0025 27.9994C15.8371 27.9994 15.6744 27.9584 15.5288 27.88C14.975 27.5838 2 20.5 2 11.75C1.99965 10.3461 2.38066 8.96848 3.10234 7.76425C3.82401 6.56003 4.85925 5.57446 6.09746 4.9128C7.33568 4.25114 8.73037 3.93826 10.1326 4.00756C11.5348 4.07686 12.8918 4.52575 14.0588 5.30628C14.1206 5.34728 14.1725 5.40154 14.2108 5.46511C14.2491 5.52867 14.2727 5.59996 14.28 5.6738C14.2873 5.74764 14.2781 5.82218 14.253 5.89201C14.2279 5.96184 14.1876 6.02521 14.135 6.07753L12.465 7.75003C12.2776 7.93755 12.1723 8.1918 12.1723 8.4569C12.1723 8.72201 12.2776 8.97626 12.465 9.16378L16.5312 13.23L13.875 15.875C13.7782 15.967 13.7008 16.0773 13.6474 16.1997C13.594 16.322 13.5656 16.4537 13.5639 16.5872C13.5621 16.7207 13.5872 16.8531 13.6375 16.9768C13.6878 17.1004 13.7623 17.2127 13.8567 17.3071C13.951 17.4015 14.0634 17.476 14.187 17.5263C14.3107 17.5766 14.4431 17.6016 14.5766 17.5999C14.71 17.5982 14.8418 17.5698 14.9641 17.5164C15.0864 17.4629 15.1968 17.3855 15.2887 17.2888L18.6488 13.93C18.8361 13.7425 18.9414 13.4883 18.9414 13.2232C18.9414 12.9581 18.8361 12.7038 18.6488 12.5163L14.5875 8.45378L16.7712 6.27003C17.4953 5.5423 18.3574 4.96661 19.3071 4.57679C20.2568 4.18696 21.2747 3.99087 22.3013 4.00003C26.8413 4.02878 30.3237 7.91128 29.9762 12.4375Z" fill="black"/>
</svg>
