<svg width="32" height="32" viewBox="0 0 32 32" fill="none" xmlns="http://www.w3.org/2000/svg">
<path fill-rule="evenodd" clip-rule="evenodd" d="M13.4884 26.6029C14.0885 27.007 14.5898 27.3219 14.943 27.5369C15.1189 27.6439 15.408 27.8123 15.506 27.8695C15.8096 28.0395 16.1865 28.0417 16.4901 27.8717C16.5921 27.8123 16.8836 27.6424 17.057 27.5369C17.4102 27.3219 17.9115 27.007 18.5116 26.6029C19.71 25.796 21.3122 24.6269 22.919 23.1808C26.072 20.3431 29.5 16.2103 29.5 11.5C29.5 9.76619 28.8993 8.08593 27.8001 6.7451C26.7008 5.40426 25.171 4.48569 23.4709 4.14566C21.7707 3.80563 20.0053 4.06515 18.4749 4.88006C17.4979 5.40033 16.6552 6.12646 16 7C15.3448 6.12646 14.5021 5.40033 13.5251 4.88006C11.9947 4.06515 10.2293 3.80563 8.52913 4.14566C6.82898 4.48569 5.29916 5.40426 4.19993 6.7451C3.10071 8.08593 2.5 9.76619 2.5 11.5C2.5 16.2103 5.92804 20.3431 9.08104 23.1808C10.6878 24.6269 12.29 25.796 13.4884 26.6029ZM12.5851 6.64538C11.4628 6.04778 10.1681 5.85746 8.92136 6.10682C7.67459 6.35617 6.55271 7.02979 5.74662 8.01307C4.94052 8.99635 4.5 10.2285 4.5 11.5C4.5 15.2897 7.32196 18.9069 10.419 21.6942C11.9372 23.0606 13.46 24.1728 14.6054 24.944C15.1771 25.3289 15.6696 25.6378 16 25.8389C16.3304 25.6378 16.8229 25.3289 17.3946 24.944C18.54 24.1728 20.0628 23.0606 21.581 21.6942C24.678 18.9069 27.5 15.2897 27.5 11.5C27.5 10.2285 27.0595 8.99635 26.2534 8.01307C25.4473 7.02979 24.3254 6.35617 23.0786 6.10682C21.8319 5.85746 20.5372 6.04778 19.4149 6.64538C18.2927 7.24299 17.4121 8.21097 16.9231 9.38463C16.7678 9.75727 16.4037 10 16 10C15.5963 10 15.2322 9.75727 15.0769 9.38463C14.5879 8.21097 13.7073 7.24299 12.5851 6.64538Z" fill="black"/>
</svg>
