<svg width="32" height="32" viewBox="0 0 32 32" fill="none" xmlns="http://www.w3.org/2000/svg">
<path fill-rule="evenodd" clip-rule="evenodd" d="M7.5467 8.96098C5.95661 10.8685 5 13.3225 5 16C5 18.6775 5.95662 21.1315 7.54671 23.039L11.1092 19.4765C10.4108 18.4957 10 17.2958 10 16C10 14.7042 10.4108 13.5043 11.1092 12.5235L7.5467 8.96098ZM6.74878 6.86682C4.43084 9.21453 3 12.4402 3 16C3 19.5598 4.4308 22.7854 6.74868 25.1331C6.76655 25.1542 6.78544 25.1747 6.80534 25.1946C6.82525 25.2145 6.84578 25.2334 6.86688 25.2513C9.21458 27.5692 12.4402 29 16 29C19.5597 29 22.7851 27.5693 25.1328 25.2516C25.154 25.2336 25.1747 25.2146 25.1947 25.1946C25.2147 25.1746 25.2337 25.1539 25.2517 25.1327C27.5693 22.7851 29 19.5596 29 16C29 12.4403 27.5693 9.21484 25.2516 6.86716C25.2336 6.84599 25.2147 6.82538 25.1947 6.80541C25.1747 6.78544 25.1541 6.76649 25.133 6.74856C22.7853 4.43075 19.5597 3 16 3C12.4401 3 9.21447 4.43087 6.86675 6.74885C6.8457 6.76669 6.82521 6.78554 6.80534 6.80541C6.78548 6.82527 6.76663 6.84576 6.74878 6.86682ZM8.96091 7.54676L12.5234 11.1093C13.5043 10.4108 14.7042 10 16 10C17.2959 10 18.4958 10.4108 19.4766 11.1093L23.0391 7.54678C21.1316 5.95664 18.6775 5 16 5C13.3225 5 10.8684 5.95663 8.96091 7.54676ZM24.4533 8.961L20.8908 12.5235C21.5892 13.5043 22 14.7042 22 16C22 17.2958 21.5892 18.4957 20.8908 19.4765L24.4533 23.039C26.0434 21.1315 27 18.6775 27 16C27 13.3225 26.0434 10.8685 24.4533 8.961ZM23.0391 24.4532L19.4766 20.8907C18.4958 21.5892 17.2959 22 16 22C14.7042 22 13.5043 21.5892 12.5234 20.8907L8.96092 24.4533C10.8684 26.0434 13.3225 27 16 27C18.6775 27 21.1316 26.0434 23.0391 24.4532ZM16 12C13.7909 12 12 13.7909 12 16C12 18.2091 13.7909 20 16 20C18.2091 20 20 18.2091 20 16C20 13.7909 18.2091 12 16 12Z" fill="black"/>
</svg>
