<svg width="32" height="32" viewBox="0 0 32 32" fill="none" xmlns="http://www.w3.org/2000/svg">
<path fill-rule="evenodd" clip-rule="evenodd" d="M14.6515 3.8733C15.02 3.53689 15.501 3.35034 16 3.35034C16.4991 3.35034 16.9815 3.53821 17.35 3.87471L27.3475 12.96C27.3523 12.9643 27.357 12.9686 27.3616 12.973C27.5592 13.1596 27.7175 13.3839 27.8271 13.6327C27.9367 13.8814 27.9955 14.1496 27.9999 14.4213C28 14.4267 28 14.4321 28 14.4375V26C28 26.5305 27.7893 27.0392 27.4142 27.4142C27.0391 27.7893 26.5304 28 26 28H20C19.4696 28 18.9609 27.7893 18.5858 27.4142C18.2107 27.0392 18 26.5305 18 26V20L14 20L14 26C14 26.5305 13.7893 27.0392 13.4142 27.4142C13.0391 27.7893 12.5304 28 12 28H6C5.46957 28 4.96086 27.7893 4.58579 27.4142C4.21071 27.0392 4 26.5305 4 26V14.4375C4 14.4321 4.00004 14.4267 4.00013 14.4213C4.00453 14.1496 4.06326 13.8814 4.17288 13.6327C4.28249 13.3839 4.44076 13.1596 4.63838 12.973C4.64304 12.9686 4.64773 12.9643 4.65247 12.96L14.6515 3.8733ZM6.00947 14.4292L15.9975 5.35259L25.997 14.4392C25.9966 14.4351 25.9986 14.443 25.997 14.4392L26 26H20V20C20 19.4696 19.7893 18.9609 19.4142 18.5858C19.0391 18.2107 18.5304 18 18 18H14C13.4696 18 12.9609 18.2107 12.5858 18.5858C12.2107 18.9609 12 19.4696 12 20V26H6V14.4511C6.00035 14.447 6.00138 14.443 6.00305 14.4392C6.00465 14.4355 6.00682 14.4322 6.00947 14.4292Z" fill="black"/>
</svg>
