<svg width="32" height="32" viewBox="0 0 32 32" fill="none" xmlns="http://www.w3.org/2000/svg">
<path fill-rule="evenodd" clip-rule="evenodd" d="M14.6515 3.87324C15.02 3.53682 15.501 3.35028 16 3.35028C16.4991 3.35028 16.9801 3.53687 17.3486 3.87337L27.3616 12.9729C27.5592 13.1596 27.7175 13.3839 27.8271 13.6326C27.9367 13.8813 27.9955 14.1495 27.9999 14.4213C27.9999 18.943 28 26 28 26C28 26.5304 27.7893 27.0391 27.4142 27.4142C27.0391 27.7893 26.5304 28 26 28H6C5.46957 28 4.96086 27.7893 4.58579 27.4142C4.21071 27.0391 4 26.5304 4 26L4.00013 14.4213C4.00453 14.1495 4.06326 13.8813 4.17288 13.6326C4.28249 13.3839 4.44076 13.1596 4.63838 12.9729L14.6515 3.87324ZM6.00305 14.4391L16 5.33335L25.997 14.4391L26 26H6L6.00305 14.4391Z" fill="black"/>
</svg>
