<svg width="32" height="32" viewBox="0 0 32 32" fill="none" xmlns="http://www.w3.org/2000/svg">
<path fill-rule="evenodd" clip-rule="evenodd" d="M3 7C3 5.89543 3.89543 5 5 5H27C28.1046 5 29 5.89543 29 7V25C29 26.1046 28.1046 27 27 27H5C3.89543 27 3 26.1046 3 25V7ZM27 7H5V25H27V7ZM11.5125 13C10.4079 13 9.5125 13.8954 9.5125 15C9.5125 16.0539 10.3277 16.9175 11.362 16.9944C11.4121 16.9929 11.4623 16.9922 11.5125 16.9922C11.5627 16.9922 11.6129 16.9929 11.663 16.9944C12.6973 16.9175 13.5125 16.0539 13.5125 15C13.5125 13.8954 12.6171 13 11.5125 13ZM14.3167 17.8525C15.0548 17.1268 15.5125 16.1169 15.5125 15C15.5125 12.7909 13.7216 11 11.5125 11C9.30336 11 7.5125 12.7909 7.5125 15C7.5125 16.1169 7.97024 17.1268 8.70835 17.8525C8.61931 17.9128 8.53202 17.9761 8.44664 18.0424C7.56963 18.7232 6.94413 19.6764 6.66875 20.752C6.53176 21.287 6.85443 21.8318 7.38946 21.9688C7.92449 22.1057 8.46926 21.7831 8.60625 21.248C8.77148 20.6027 9.14678 20.0308 9.67298 19.6223C10.1557 19.2476 10.7403 19.0301 11.3479 18.9967C11.4025 18.9989 11.4574 19 11.5125 19C11.5676 19 11.6225 18.9989 11.6771 18.9967C12.2847 19.0301 12.8693 19.2476 13.352 19.6223C13.8782 20.0308 14.2535 20.6027 14.4187 21.248C14.5557 21.7831 15.1005 22.1057 15.6355 21.9688C16.1706 21.8318 16.4932 21.287 16.3562 20.752C16.0809 19.6764 15.4554 18.7232 14.5784 18.0424C14.493 17.9761 14.4057 17.9128 14.3167 17.8525ZM18 14C18 13.4477 18.4477 13 19 13H24C24.5523 13 25 13.4477 25 14C25 14.5523 24.5523 15 24 15H19C18.4477 15 18 14.5523 18 14ZM18 18C18 17.4477 18.4477 17 19 17H24C24.5523 17 25 17.4477 25 18C25 18.5523 24.5523 19 24 19H19C18.4477 19 18 18.5523 18 18Z" fill="black"/>
</svg>
