<svg width="32" height="32" viewBox="0 0 32 32" fill="none" xmlns="http://www.w3.org/2000/svg">
<path fill-rule="evenodd" clip-rule="evenodd" d="M16 14C17.1046 14 18 13.1046 18 12C18 10.8954 17.1046 10 16 10C14.8954 10 14 10.8954 14 12C14 13.1046 14.8954 14 16 14ZM16 16C18.2091 16 20 14.2091 20 12C20 9.79086 18.2091 8 16 8C13.7909 8 12 9.79086 12 12C12 14.2091 13.7909 16 16 16Z" fill="black"/>
<path d="M10 20C10 19.4477 10.4477 19 11 19H21C21.5523 19 22 19.4477 22 20C22 20.5523 21.5523 21 21 21H11C10.4477 21 10 20.5523 10 20Z" fill="black"/>
<path d="M12 24C12 23.4477 12.4477 23 13 23H19C19.5523 23 20 23.4477 20 24C20 24.5523 19.5523 25 19 25H13C12.4477 25 12 24.5523 12 24Z" fill="black"/>
<path fill-rule="evenodd" clip-rule="evenodd" d="M23 5H7L7 27H23C24.1046 27 25 26.1046 25 25V7C25 5.89543 24.1046 5 23 5ZM7 3C5.89543 3 5 3.89543 5 5V27C5 28.1046 5.89543 29 7 29H23C25.2091 29 27 27.2091 27 25V7C27 4.79086 25.2091 3 23 3H7Z" fill="black"/>
</svg>
