<svg width="32" height="32" viewBox="0 0 32 32" fill="none" xmlns="http://www.w3.org/2000/svg">
<path fill-rule="evenodd" clip-rule="evenodd" d="M25.5333 7.00001L16.3883 17.0595L18.4145 19.0859L20.9181 16.5852C20.9182 16.5851 20.9182 16.585 20.9183 16.585C21.2933 16.2103 21.8018 15.9998 22.3319 15.9998C22.8621 15.9998 23.3706 16.2104 23.7456 16.5852L23.7461 16.5857L27 19.842V7.00001H25.5333ZM27 22.6715L22.3319 17.9998L19.8286 20.5002L24.328 25H27V22.6715ZM23.9144 27C23.914 27 23.9135 27 23.9131 27H7.35146L6.73994 27.6727C6.36843 28.0813 5.73598 28.1115 5.32733 27.7399C4.91867 27.3684 4.88855 26.736 5.26006 26.3273L25.2601 4.32733C25.6316 3.91868 26.264 3.88856 26.6727 4.26007C26.8897 4.45733 26.9999 4.72817 27 5.00001C28.1046 5.00001 29 5.89544 29 7.00001V25C29 26.1046 28.1046 27 27 27H23.9144ZM9.16964 25H21.4997L17.7275 21.2274C17.7203 21.2206 17.7132 21.2137 17.7062 21.2067C17.6995 21.1999 17.6928 21.1931 17.6863 21.1862L15.0414 18.541L9.16964 25ZM3 7.00001C3 5.89544 3.89543 5.00001 5 5.00001H19.75C20.3023 5.00001 20.75 5.44772 20.75 6.00001C20.75 6.55229 20.3023 7.00001 19.75 7.00001H5V18.6717L10.085 13.5858C10.0851 13.5857 10.0852 13.5856 10.0853 13.5855C10.271 13.3997 10.4915 13.2523 10.7341 13.1517C10.9769 13.051 11.2372 12.9992 11.5 12.9992C11.7628 12.9992 12.0231 13.051 12.2659 13.1517C12.5087 13.2523 12.7293 13.3998 12.915 13.5858C13.3053 13.9765 13.305 14.6097 12.9142 15C12.5235 15.3903 11.8903 15.39 11.5 14.9992L5 21.5004V23.25C5 23.8023 4.55228 24.25 4 24.25C3.44772 24.25 3 23.8023 3 23.25V7.00001Z" fill="black"/>
</svg>
