<svg width="32" height="32" viewBox="0 0 32 32" fill="none" xmlns="http://www.w3.org/2000/svg">
<path d="M16 5.34202C19.4712 5.34202 19.8824 5.35502 21.2533 5.41763C22.5209 5.47546 23.2092 5.68701 23.6673 5.86518C24.2744 6.10117 24.7072 6.3825 25.1622 6.83743C25.617 7.29235 25.8989 7.72533 26.1344 8.33232C26.3126 8.79036 26.5241 9.47868 26.5819 10.7463C26.6445 12.1172 26.6576 12.5283 26.6576 15.9996C26.6576 19.4709 26.6446 19.8818 26.5819 21.2528C26.5241 22.5204 26.3126 23.2087 26.1344 23.6667C25.8984 24.2738 25.6171 24.7067 25.1622 25.1616C24.7072 25.6165 24.2742 25.8984 23.6673 26.1339C23.2092 26.312 22.5209 26.5236 21.2533 26.5814C19.8825 26.6439 19.4713 26.657 16 26.657C12.5287 26.657 12.1177 26.644 10.7468 26.5814C9.4792 26.5236 8.79088 26.312 8.33284 26.1339C7.72575 25.8978 7.29287 25.6165 6.83795 25.1616C6.38313 24.7067 6.10117 24.2737 5.8657 23.6667C5.68743 23.2087 5.47598 22.5204 5.41815 21.2528C5.35565 19.8819 5.34254 19.4708 5.34254 15.9996C5.34254 12.5284 5.35554 12.1173 5.41815 10.7463C5.47598 9.47868 5.68753 8.79036 5.8657 8.33232C6.10169 7.72523 6.38302 7.29235 6.83795 6.83743C7.29287 6.38261 7.72585 6.10065 8.33284 5.86518C8.79088 5.68701 9.4792 5.47546 10.7468 5.41763C12.1176 5.35565 12.5288 5.34202 16 5.34202ZM16 3C12.4694 3 12.0265 3.01508 10.64 3.07811C9.2561 3.14114 8.31141 3.36111 7.48456 3.68249C6.62952 4.0149 5.9048 4.45942 5.18206 5.18206C4.45942 5.9048 4.01448 6.62952 3.68249 7.48456C3.36101 8.31152 3.14114 9.25662 3.07811 10.64C3.01508 12.0266 3 12.4695 3 16C3 19.5305 3.01508 19.9735 3.07811 21.36C3.14114 22.7439 3.36111 23.6886 3.68249 24.5154C4.0149 25.3705 4.45942 26.0952 5.18206 26.8179C5.9048 27.5407 6.63004 27.9851 7.48456 28.3175C8.31152 28.639 9.25662 28.8589 10.64 28.9219C12.0265 28.9849 12.4694 29 16 29C19.5306 29 19.9735 28.9849 21.36 28.9219C22.7439 28.8589 23.6886 28.6389 24.5154 28.3175C25.3705 27.985 26.0952 27.5406 26.8179 26.8179C27.5407 26.0952 27.9851 25.37 28.3175 24.5154C28.639 23.6886 28.8589 22.7434 28.9219 21.36C28.9849 19.9735 29 19.5306 29 16C29 12.4694 28.9849 12.0265 28.9219 10.64C28.8589 9.2561 28.6389 8.31141 28.3175 7.48456C27.985 6.62952 27.5406 5.9048 26.8179 5.18206C26.0952 4.45942 25.37 4.0149 24.5154 3.68249C23.6886 3.36101 22.7434 3.14114 21.36 3.07811C19.9736 3.01508 19.5306 3 16 3ZM16 9.32444C12.3131 9.32444 9.32444 12.3131 9.32444 16C9.32444 19.6869 12.3131 22.6757 16 22.6757C19.6869 22.6757 22.6757 19.6869 22.6757 16C22.6757 12.3131 19.6869 9.32444 16 9.32444ZM16 20.3336C13.6069 20.3336 11.6665 18.3938 11.6665 16.0001C11.6665 13.6064 13.6069 11.6666 16 11.6666C18.3931 11.6666 20.3335 13.6064 20.3335 16.0001C20.3335 18.3938 18.3931 20.3336 16 20.3336ZM22.9393 7.50078C22.0775 7.50078 21.3793 8.19898 21.3793 9.06078C21.3793 9.92258 22.0775 10.6209 22.9393 10.6209C23.8011 10.6209 24.4994 9.92258 24.4994 9.06078C24.4994 8.19898 23.8012 7.50078 22.9393 7.50078Z" fill="black"/>
</svg>
