<svg width="32" height="32" viewBox="0 0 32 32" fill="none" xmlns="http://www.w3.org/2000/svg">
<path d="M2.01758 2.81443C2.12022 2.27187 2.643 1.91508 3.18555 2.01756L20.3887 5.27146C21.3311 5.44978 22.4328 5.82367 23.2285 6.70994C25.9587 9.75129 25.3062 14.4509 22.2861 17.0176L20.9941 29.1064C20.9353 29.6555 20.4427 30.0529 19.8936 29.9941C19.3444 29.9353 18.9471 29.4427 19.0059 28.8935L20.3428 16.3935C20.3723 16.1179 20.5147 15.8667 20.7363 15.7002C23.2271 13.8294 23.6982 10.2269 21.7402 8.04588C21.3736 7.63753 20.7837 7.38241 20.0166 7.23728L2.81445 3.9824C2.27189 3.87975 1.9151 3.35698 2.01758 2.81443Z" fill="black"/>
<path d="M13.125 13.5236C13.3866 13.0374 13.9932 12.855 14.4795 13.1164C14.9658 13.3781 15.1482 13.9846 14.8867 14.4709C14.4099 15.3572 13.6173 15.7319 13.0303 15.885C12.9766 15.899 12.9235 15.9092 12.8721 15.9201C12.8459 16.1016 12.8143 16.3123 12.7832 16.549C12.6693 17.4165 12.5324 18.6253 12.4414 19.9885C12.2685 22.5778 12.2698 25.6085 12.8389 27.924L12.96 28.3772L12.9834 28.4768C13.0756 28.9752 12.7773 29.4723 12.2803 29.6174C11.7832 29.7625 11.2636 29.5042 11.0732 29.0344L11.04 28.9377L10.9004 28.4182C10.2478 25.7735 10.2703 22.4767 10.4453 19.8557C10.5398 18.4401 10.6818 17.1871 10.7998 16.2883C10.816 16.1653 10.8335 16.0491 10.8486 15.9397C9.21278 15.8532 7.35639 15.756 5.80566 15.674C4.8503 15.6236 4.01085 15.5788 3.41015 15.5471C3.10976 15.5312 2.86869 15.5187 2.70312 15.51C2.62042 15.5056 2.55598 15.5025 2.51269 15.5002C2.49127 15.4991 2.47485 15.4979 2.46387 15.4973C2.45838 15.497 2.45396 15.4974 2.45117 15.4973C2.44989 15.4972 2.44892 15.4963 2.44824 15.4963L2.3457 15.4865C1.84476 15.409 1.4738 14.9626 1.50098 14.4455C1.52829 13.9285 1.94403 13.5239 2.45019 13.4992H2.55664C2.55941 13.4994 2.56388 13.4999 2.56933 13.5002C2.58041 13.5008 2.59748 13.502 2.61914 13.5031C2.66241 13.5054 2.7262 13.5085 2.80859 13.5129C2.97416 13.5217 3.21523 13.5341 3.51562 13.55C4.11631 13.5817 4.95576 13.6265 5.91113 13.677C7.82237 13.7779 10.1977 13.9032 12.0527 14.0012C12.0592 14.0015 12.0658 14.0017 12.0723 14.0022C12.0748 14.0023 12.0787 14.003 12.085 14.0031C12.1037 14.0036 12.1369 14.0033 12.1807 14.0012C12.2712 13.9968 12.3946 13.9835 12.5254 13.9494C12.7912 13.8801 13.0016 13.7528 13.125 13.5236Z" fill="black"/>
<path d="M26.6525 2.29155C27.043 1.90103 27.6762 1.90103 28.0667 2.29155C28.4572 2.68207 28.4572 3.31524 28.0667 3.70576L25.9454 5.82708C25.5549 6.21761 24.9217 6.21761 24.5312 5.82708C24.1406 5.43656 24.1406 4.8034 24.5312 4.41287L26.6525 2.29155Z" fill="black"/>
<path d="M29.7578 6.70474C30.298 6.58991 30.829 6.93476 30.9438 7.47497C31.0587 8.01519 30.7138 8.5462 30.1736 8.66103L27.2392 9.28477C26.6989 9.39959 26.1679 9.05475 26.0531 8.51453C25.9383 7.97431 26.2831 7.4433 26.8233 7.32847L29.7578 6.70474Z" fill="black"/>
</svg>
