<svg width="32" height="32" viewBox="0 0 32 32" fill="none" xmlns="http://www.w3.org/2000/svg">
<path fill-rule="evenodd" clip-rule="evenodd" d="M18.4525 7.17432L15.9947 9.63213C15.6041 10.0227 14.971 10.0227 14.5804 9.63213C14.1899 9.24161 14.1899 8.60844 14.5804 8.21792L17.0554 5.74292C17.0664 5.732 17.0775 5.72135 17.0889 5.71095C18.3269 4.5826 19.952 3.97464 21.6266 4.0134C23.3012 4.05217 24.8965 4.73469 26.0809 5.91913C27.2654 7.10356 27.9479 8.69883 27.9867 10.3734C28.0254 12.048 27.4175 13.6732 26.2891 14.9112C24.8957 16.3003 22.721 18.4683 22.721 18.4683C22.1185 19.0726 21.4014 19.5536 20.6133 19.8809C19.8246 20.2084 18.979 20.377 18.125 20.377C17.2711 20.377 16.4255 20.2084 15.6368 19.8809C14.8481 19.5533 14.1319 19.0733 13.5291 18.4683C13.1393 18.0771 13.1405 17.4439 13.5318 17.0541C13.923 16.6643 14.5562 16.6655 14.946 17.0567C15.3629 17.4752 15.8583 17.8073 16.4039 18.0338C16.9494 18.2604 17.5343 18.377 18.125 18.377C18.7158 18.377 19.3007 18.2604 19.8462 18.0338C20.3918 17.8073 20.8872 17.4752 21.3041 17.0567L24.8263 13.547C25.5983 12.6913 26.0139 11.5724 25.9872 10.4197C25.9603 9.25939 25.4874 8.15403 24.6667 7.33334C23.846 6.51265 22.7407 6.03973 21.5804 6.01287C20.4274 5.98618 19.3082 6.40196 18.4525 7.17432ZM13.8751 13.623C13.2844 13.623 12.6995 13.7396 12.1539 13.9662C11.6084 14.1928 11.1129 14.5248 10.696 14.9433L7.17382 18.4531C6.40181 19.3087 5.98624 20.4276 6.01293 21.5803C6.03979 22.7407 6.51271 23.846 7.3334 24.6667C8.15409 25.4874 9.25945 25.9603 10.4198 25.9872C11.5728 26.0139 12.6919 25.5981 13.5477 24.8257L16.0055 22.3679C16.396 21.9774 17.0292 21.9774 17.4197 22.3679C17.8102 22.7584 17.8102 23.3916 17.4197 23.7821L14.9447 26.2571C14.9338 26.268 14.9226 26.2787 14.9112 26.2891C13.6732 27.4175 12.0481 28.0254 10.3735 27.9866C8.69889 27.9479 7.10362 27.2654 5.91919 26.0809C4.73475 24.8965 4.05223 23.3012 4.01347 21.6266C3.9747 19.952 4.58266 18.3269 5.71101 17.0889L9.27916 13.5317C9.88162 12.9274 10.5987 12.4465 11.3868 12.1192C12.1755 11.7916 13.0211 11.623 13.8751 11.623C14.7291 11.623 15.5747 11.7916 16.3633 12.1192C17.152 12.4467 17.8683 12.9268 18.471 13.5317C18.8608 13.923 18.8596 14.5562 18.4684 14.946C18.0771 15.3357 17.4439 15.3346 17.0542 14.9433C16.6372 14.5248 16.1418 14.1928 15.5963 13.9662C15.0507 13.7396 14.4658 13.623 13.8751 13.623Z" fill="black"/>
</svg>
