<svg width="32" height="32" viewBox="0 0 32 32" fill="none" xmlns="http://www.w3.org/2000/svg">
<path d="M27.05 3H4.95C4.43283 3 3.93684 3.20545 3.57114 3.57114C3.20545 3.93684 3 4.43283 3 4.95V27.05C3 27.5672 3.20545 28.0631 3.57114 28.4288C3.93684 28.7945 4.43283 29 4.95 29H27.05C27.5672 29 28.0631 28.7945 28.4288 28.4288C28.7945 28.0631 29 27.5672 29 27.05V4.95C29 4.43283 28.7945 3.93684 28.4288 3.57114C28.0631 3.20545 27.5672 3 27.05 3ZM10.8 25.1H6.9V13.4H10.8V25.1ZM8.85 11.125C8.40303 11.1122 7.96975 10.968 7.60427 10.7104C7.2388 10.4528 6.95735 10.0932 6.79508 9.6765C6.63282 9.25984 6.59693 8.8046 6.69192 8.36766C6.7869 7.93072 7.00854 7.53146 7.32914 7.21976C7.64974 6.90807 8.05509 6.69776 8.49453 6.61512C8.93397 6.53248 9.38802 6.58117 9.79995 6.7551C10.2119 6.92904 10.5634 7.22051 10.8106 7.59309C11.0579 7.96567 11.1898 8.40285 11.19 8.85C11.1797 9.46145 10.9278 10.044 10.4894 10.4703C10.0509 10.8966 9.4615 11.132 8.85 11.125ZM25.1 25.1H21.2V18.938C21.2 17.092 20.42 16.429 19.406 16.429C19.1087 16.4488 18.8182 16.5271 18.5513 16.6595C18.2844 16.7919 18.0462 16.9757 17.8505 17.2004C17.6548 17.425 17.5055 17.6862 17.411 17.9687C17.3165 18.2513 17.2788 18.5498 17.3 18.847C17.2935 18.9075 17.2935 18.9685 17.3 19.029V25.1H13.4V13.4H17.17V15.09C17.5503 14.5115 18.0727 14.0403 18.6873 13.7217C19.3019 13.403 19.9881 13.2475 20.68 13.27C22.695 13.27 25.048 14.388 25.048 18.028L25.1 25.1Z" fill="black"/>
</svg>
