<svg width="32" height="32" viewBox="0 0 32 32" fill="none" xmlns="http://www.w3.org/2000/svg">
<path fill-rule="evenodd" clip-rule="evenodd" d="M7.52571 5.64935C7.82052 5.83156 7.99998 6.15342 7.99998 6.5V13.5C7.99998 14.0523 7.55226 14.5 6.99997 14.5C6.44769 14.5 5.99997 14.0523 5.99997 13.5V8.11804L5.44719 8.39443C4.95321 8.64142 4.35254 8.44119 4.10555 7.94721C3.85856 7.45324 4.05878 6.85256 4.55276 6.60557L6.55276 5.60557C6.86275 5.45058 7.23089 5.46714 7.52571 5.64935ZM12 8C12 7.44772 12.4477 7 13 7H27C27.5523 7 28 7.44772 28 8C28 8.55229 27.5523 9 27 9H13C12.4477 9 12 8.55229 12 8ZM12 16C12 15.4477 12.4477 15 13 15H27C27.5523 15 28 15.4477 28 16C28 16.5523 27.5523 17 27 17H13C12.4477 17 12 16.5523 12 16ZM6.81552 18.9824C6.71034 18.9746 6.60471 18.9891 6.50551 19.0249C6.40632 19.0607 6.31579 19.117 6.23983 19.1902C6.16388 19.2633 6.10421 19.3517 6.06471 19.4495C5.8579 19.9616 5.27511 20.2091 4.76301 20.0022C4.25091 19.7954 4.00342 19.2126 4.21024 18.7005C4.35504 18.342 4.57383 18.018 4.85233 17.7497C5.13083 17.4815 5.46277 17.2749 5.8265 17.1437C6.19022 17.0124 6.57754 16.9593 6.96317 16.9878C7.34881 17.0164 7.72409 17.1259 8.06451 17.3093C8.40493 17.4928 8.70285 17.7459 8.93881 18.0523C9.17477 18.3586 9.34347 18.7113 9.4339 19.0872C9.52432 19.4632 9.53444 19.854 9.46359 20.2342C9.39275 20.6143 9.24253 20.9752 9.02274 21.2934C9.01553 21.3038 9.00813 21.3141 9.00054 21.3243L6.99764 24H8.49998C9.05226 24 9.49998 24.4477 9.49998 25C9.49998 25.5523 9.05226 26 8.49998 26H4.99997C4.62137 26 4.27523 25.7862 4.10576 25.4476C3.93628 25.1091 3.97254 24.7038 4.19941 24.4008L7.38564 20.1442C7.441 20.0605 7.47904 19.9665 7.49745 19.8677C7.51677 19.7641 7.51401 19.6575 7.48935 19.5549C7.46469 19.4524 7.41868 19.3562 7.35433 19.2727C7.28997 19.1891 7.20872 19.1201 7.11588 19.0701C7.02303 19.02 6.92069 18.9902 6.81552 18.9824ZM12 24C12 23.4477 12.4477 23 13 23H27C27.5523 23 28 23.4477 28 24C28 24.5523 27.5523 25 27 25H13C12.4477 25 12 24.5523 12 24Z" fill="black"/>
</svg>
