<svg width="32" height="32" viewBox="0 0 32 32" fill="none" xmlns="http://www.w3.org/2000/svg">
<path d="M21.4 6.64689C21.7314 6.07294 22.4696 5.87158 23.0076 6.2586C24.4914 7.32604 25.7164 8.7218 26.5831 10.3432C27.6389 12.3185 28.1208 14.5498 27.9743 16.7848C27.8278 19.0198 27.0588 21.1691 25.7542 22.9897C24.4496 24.8103 22.6615 26.2294 20.5922 27.0865C18.5229 27.9436 16.2551 28.2045 14.0453 27.8397C11.8354 27.4748 9.77179 26.4988 8.08785 25.022C6.40391 23.5453 5.16688 21.6267 4.51672 19.4834C3.98303 17.7241 3.86225 15.8709 4.15672 14.0669C4.26348 13.4128 4.92784 13.0332 5.568 13.2047C6.20816 13.3763 6.58006 14.0343 6.48968 14.6908C6.30137 16.0588 6.40979 17.4563 6.81337 18.7867C7.33351 20.5014 8.32313 22.0362 9.67028 23.2176C11.0174 24.3991 12.6683 25.1799 14.4362 25.4717C16.2041 25.7636 18.0184 25.5549 19.6738 24.8692C21.3292 24.1835 22.7596 23.0482 23.8033 21.5918C24.847 20.1353 25.4623 18.4158 25.5794 16.6278C25.6966 14.8399 25.3111 13.0548 24.4664 11.4746C23.8111 10.2484 22.8996 9.1836 21.7991 8.34944C21.2709 7.9491 21.0686 7.22085 21.4 6.64689Z" fill="black"/>
</svg>
