<svg width="32" height="32" viewBox="0 0 32 32" fill="none" xmlns="http://www.w3.org/2000/svg">
<path fill-rule="evenodd" clip-rule="evenodd" d="M16 3.33331C15.0717 3.33331 14.1815 3.70206 13.5251 4.35844C12.8687 5.01482 12.5 5.90506 12.5 6.83331V10.3333H19.5V6.83331C19.5 5.90506 19.1313 5.01482 18.4749 4.35844C17.8185 3.70206 16.9283 3.33331 16 3.33331ZM21.5 10.3333V6.83331C21.5 5.37462 20.9205 3.97568 19.8891 2.94423C18.8576 1.91278 17.4587 1.33331 16 1.33331C14.5413 1.33331 13.1424 1.91278 12.1109 2.94423C11.0795 3.97568 10.5 5.37462 10.5 6.83331V10.3333H6C4.89543 10.3333 4 11.2287 4 12.3333V26.3333C4 27.4379 4.89543 28.3333 6 28.3333H26C27.1046 28.3333 28 27.4379 28 26.3333V12.3333C28 11.2287 27.1046 10.3333 26 10.3333H21.5ZM6 12.3333V26.3333H26V12.3333H6Z" fill="black"/>
<path d="M16 20.8333C16.8284 20.8333 17.5 20.1617 17.5 19.3333C17.5 18.5049 16.8284 17.8333 16 17.8333C15.1716 17.8333 14.5 18.5049 14.5 19.3333C14.5 20.1617 15.1716 20.8333 16 20.8333Z" fill="black"/>
</svg>
