<svg width="32" height="32" viewBox="0 0 32 32" fill="none" xmlns="http://www.w3.org/2000/svg">
<path fill-rule="evenodd" clip-rule="evenodd" d="M8 25.5C8 26.0523 8.44771 26.5 9 26.5L23 26.5C23.5523 26.5 24 26.0523 24 25.5L24 6.5C24 5.94771 23.5523 5.5 23 5.5L9 5.5C8.44771 5.5 8 5.94772 8 6.5L8 25.5ZM9 28.5C7.34315 28.5 6 27.1569 6 25.5L6 6.5C6 4.84315 7.34314 3.5 9 3.5L23 3.5C24.6569 3.5 26 4.84314 26 6.5L26 25.5C26 27.1569 24.6569 28.5 23 28.5L9 28.5ZM10 22.8999C10 22.3476 10.4477 21.8999 11 21.8999L21 21.8999C21.5523 21.8999 22 22.3476 22 22.8999C22 23.4522 21.5523 23.8999 21 23.8999L11 23.8999C10.4477 23.8999 10 23.4522 10 22.8999Z" fill="black"/>
</svg>
