<svg width="32" height="32" viewBox="0 0 32 32" fill="none" xmlns="http://www.w3.org/2000/svg">
<path fill-rule="evenodd" clip-rule="evenodd" d="M15.4453 3.16795C15.7812 2.94402 16.2188 2.94402 16.5547 3.16795L28.5547 11.1679C28.8329 11.3534 29 11.6656 29 12V25C29 25.5304 28.7893 26.0391 28.4142 26.4142C28.0391 26.7893 27.5304 27 27 27H5C4.46957 27 3.96086 26.7893 3.58579 26.4142C3.21071 26.0391 3 25.5304 3 25V12C3 11.6656 3.1671 11.3534 3.4453 11.1679L15.4453 3.16795ZM5 13.9418V25H27V13.9417L18.7682 19.8141C18.5987 19.935 18.3957 20 18.1875 20H13.8125C13.6043 20 13.4013 19.935 13.2318 19.8141L5 13.9418ZM26.239 12.0279L16 5.20185L5.76098 12.0279L14.1326 18H17.8674L26.239 12.0279Z" fill="black"/>
</svg>
