<svg width="32" height="32" viewBox="0 0 32 32" fill="none" xmlns="http://www.w3.org/2000/svg">
<path fill-rule="evenodd" clip-rule="evenodd" d="M11.1 6L9 6L9 13.2505L14.5517 18H17.4493L23 13.2508V6H20.9C20.4367 8.28224 18.419 10 16 10C13.581 10 11.5633 8.28224 11.1 6ZM26.3694 13L18.4689 19.7598C18.2877 19.9148 18.0572 20 17.8188 20H14.1823C13.9439 20 13.7134 19.9148 13.5322 19.7599L5.63061 13H5V25H27V13H26.3694ZM6.0066 11C6.00251 11 5.99842 11 5.99433 11H5C3.89543 11 3 11.8954 3 13V25C3 25.5304 3.21071 26.0391 3.58579 26.4142C3.96086 26.7893 4.46957 27 5 27H27C27.5304 27 28.0391 26.7893 28.4142 26.4142C28.7893 26.0391 29 25.5304 29 25V13C29 11.8954 28.1046 11 27 11H26.0056C26.0016 11 25.9975 11 25.9935 11H25V6C25 4.89543 24.1046 4 23 4H20C19.4477 4 19 4.44772 19 5C19 6.65685 17.6569 8 16 8C14.3431 8 13 6.65685 13 5C13 4.73478 12.8946 4.48043 12.7071 4.29289C12.5196 4.10536 12.2652 4 12 4L9 4C7.89543 4 7 4.89543 7 6L7 11H6.0066Z" fill="black"/>
</svg>
