<svg width="32" height="32" viewBox="0 0 32 32" fill="none" xmlns="http://www.w3.org/2000/svg">
<path fill-rule="evenodd" clip-rule="evenodd" d="M14.0145 2.14251C13.7056 1.95715 13.3208 1.95229 13.0073 2.1298C12.6938 2.30731 12.5 2.63973 12.5 3V12H12.25C11.6977 12 11.25 12.4477 11.25 13V17.125H10.25C9.69772 17.125 9.25 17.5727 9.25 18.125V29.125C9.25 30.2296 10.1454 31.125 11.25 31.125H20.75C21.8546 31.125 22.75 30.2296 22.75 29.125V18.125C22.75 17.5727 22.3023 17.125 21.75 17.125H20.75V13C20.75 12.4477 20.3023 12 19.75 12H19.5V6C19.5 5.64874 19.3157 5.32323 19.0145 5.14251L14.0145 2.14251ZM17.5 12V6.56619L14.5 4.76619V12H17.5ZM13.25 14V17.125H18.75V14H13.25ZM11.25 19.125H20.75V29.125H11.25V19.125Z" fill="black"/>
</svg>
