<svg width="32" height="32" viewBox="0 0 32 32" fill="none" xmlns="http://www.w3.org/2000/svg">
<path fill-rule="evenodd" clip-rule="evenodd" d="M28.3443 3.18693C28.0014 3.02728 27.6203 2.96812 27.2452 3.0163C26.8701 3.06448 26.5163 3.21802 26.225 3.45914C23.0826 6.09175 19.8755 7.40989 17.4625 8.0662C15.0496 8.7225 13.7092 8.70891 13.7517 8.7078L8.5 8.71708C6.9087 8.71708 5.38258 9.34922 4.25736 10.4744C3.13214 11.5997 2.5 13.1258 2.5 14.7171C2.5 16.3084 3.13214 17.8345 4.25736 18.9597C5.1936 19.896 6.40736 20.4908 7.70531 20.6642L9.18023 26.5862C9.25844 26.8969 9.41013 27.1842 9.62252 27.424C9.83491 27.6638 10.1018 27.849 10.4007 27.9642C10.6996 28.0794 11.0218 28.121 11.3402 28.0857C11.658 28.0505 11.9642 27.9385 12.2302 27.7612L13.5994 26.8526C13.8776 26.6709 14.1059 26.4222 14.2633 26.1294C14.4207 25.8363 14.5021 25.5084 14.5 25.1757V20.7903L14.5519 20.7962C15.2499 20.877 16.2562 21.0398 17.4625 21.368C19.8755 22.0243 23.0826 23.3424 26.225 25.975C26.5163 26.2161 26.8701 26.3697 27.2452 26.4179C27.6203 26.466 28.0014 26.4069 28.3443 26.2472C28.6871 26.0876 28.9777 25.834 29.1823 25.5159C29.3868 25.1978 29.497 24.8282 29.5 24.45L29.5 4.98415C29.497 4.60596 29.3868 4.23638 29.1823 3.91827C28.9777 3.60017 28.6871 3.34658 28.3443 3.18693ZM9.77956 20.7171L11.1197 26.0979L12.4999 25.1819L12.5 20.7171H9.77956ZM8.49996 18.7171H12.5V10.7171L8.5 10.7171C7.43913 10.7171 6.42172 11.1385 5.67157 11.8887C4.92143 12.6388 4.5 13.6562 4.5 14.7171C4.5 15.7779 4.92143 16.7954 5.67157 17.5455C6.42172 18.2957 7.4391 18.7171 8.49996 18.7171ZM14.5 10.655V18.7791C14.5886 18.7879 14.6826 18.798 14.7817 18.8094C15.5657 18.9002 16.6719 19.0802 17.9875 19.4381C20.6171 20.1533 24.0938 21.5818 27.5 24.4341V5.00005C24.0938 7.85232 20.6171 9.28084 17.9874 9.99608C16.6719 10.3539 15.5657 10.534 14.7817 10.6247C14.6826 10.6362 14.5886 10.6462 14.5 10.655Z" fill="black"/>
</svg>
