<svg width="32" height="32" viewBox="0 0 32 32" fill="none" xmlns="http://www.w3.org/2000/svg">
<path d="M8.52606 8.99848H13.5011C13.8648 8.97723 20.2036 8.53098 26.2398 3.46848C26.5313 3.22367 26.8866 3.06713 27.264 3.01725C27.6414 2.96737 28.0251 3.02621 28.3702 3.18688C28.7153 3.34754 29.0074 3.60335 29.2121 3.92425C29.4169 4.24516 29.5258 4.61782 29.5261 4.99848V24.9985C29.526 25.3792 29.4173 25.7521 29.2126 26.0732C29.008 26.3943 28.7159 26.6502 28.3708 26.8111C28.0256 26.9719 27.6418 27.0308 27.2643 26.981C26.8868 26.9312 26.5314 26.7746 26.2398 26.5297C21.5186 22.5697 16.6148 21.4347 14.5261 21.1172V25.0822C14.5265 25.4118 14.4455 25.7364 14.2902 26.0271C14.1349 26.3178 13.9102 26.5656 13.6361 26.7485L12.2611 27.6647C11.9953 27.8421 11.6909 27.9532 11.3733 27.9888C11.0558 28.0244 10.7344 27.9833 10.4359 27.8691C10.1375 27.7549 9.8708 27.5709 9.65812 27.3324C9.44545 27.0939 9.293 26.808 9.21356 26.4985L7.74231 20.9535C6.22139 20.7666 4.8296 20.0049 3.85237 18.8246C2.87514 17.6443 2.38655 16.1348 2.48679 14.6057C2.58704 13.0767 3.26852 11.6439 4.39148 10.6013C5.51444 9.55863 6.99376 8.98517 8.52606 8.99848ZM11.1511 25.9847V25.9985L12.5261 25.0822V20.9985H9.82606L11.1511 25.9847ZM8.52606 18.9985H12.5261V10.9985H8.52606C7.4652 10.9985 6.44778 11.4199 5.69764 12.1701C4.94749 12.9202 4.52606 13.9376 4.52606 14.9985C4.52606 16.0593 4.94749 17.0768 5.69764 17.8269C6.44778 18.5771 7.4652 18.9985 8.52606 18.9985Z" fill="black"/>
</svg>
