<svg width="32" height="32" viewBox="0 0 32 32" fill="none" xmlns="http://www.w3.org/2000/svg">
<path d="M12 2H10C8.34315 2 7 3.34315 7 5V27C7 28.6569 8.34315 30 10 30H22C23.6569 30 25 28.6569 25 27V21H23V27C23 27.5523 22.5523 28 22 28H10C9.44771 28 9 27.5523 9 27V5C9 4.44772 9.44771 4 10 4H12V2Z" fill="black"/>
<path fill-rule="evenodd" clip-rule="evenodd" d="M17.127 3.65576C18.6667 2.47298 20.584 1.89052 22.5214 2.017C24.4588 2.14348 26.2841 2.97025 27.657 4.34317C29.0298 5.71608 29.8565 7.54143 29.983 9.47888C30.1095 11.4163 29.5271 13.3337 28.3443 14.8734C27.1616 16.4132 25.4593 17.4702 23.5548 17.8475C21.8019 18.1947 19.9879 17.9443 18.4 17.144L16.0842 17.9164C15.8053 18.0094 15.5059 18.0229 15.2196 17.9554C14.9334 17.8878 14.6717 17.7419 14.4637 17.5339C14.2558 17.326 14.1099 17.0642 14.0423 16.778C13.9748 16.4918 13.9883 16.1924 14.0813 15.9135L14.8562 13.5998C14.0562 12.012 13.8059 10.1982 14.1531 8.4455C14.5304 6.54093 15.5874 4.83855 17.127 3.65576ZM22.3911 4.01275C20.9381 3.9179 19.5002 4.35473 18.3454 5.2418C17.1907 6.12888 16.3979 7.40566 16.115 8.83411C15.832 10.2626 16.0782 11.7452 16.8076 13.0055C16.9513 13.2538 16.9815 13.5519 16.8903 13.824L16.2436 15.7549L18.1777 15.1098C18.4495 15.0192 18.747 15.0495 18.995 15.193C20.2553 15.9224 21.7378 16.1686 23.1661 15.8856C24.5945 15.6027 25.8712 14.8099 26.7582 13.6551C27.6453 12.5003 28.0821 11.0623 27.9872 9.60916C27.8924 8.15605 27.2723 6.78703 26.2427 5.75735C25.2131 4.72767 23.8441 4.10761 22.3911 4.01275Z" fill="black"/>
</svg>
