<svg width="32" height="32" viewBox="0 0 32 32" fill="none" xmlns="http://www.w3.org/2000/svg">
<path d="M29.1925 17.7787C29.0642 17.6502 28.9034 17.559 28.7272 17.515C28.551 17.4709 28.3662 17.4757 28.1925 17.5287C26.2857 18.1052 24.2583 18.1535 22.3262 17.6686C20.3941 17.1837 18.6297 16.1836 17.2212 14.7751C15.8126 13.3665 14.8126 11.6022 14.3276 9.67007C13.8427 7.73798 13.891 5.71053 14.4675 3.80374C14.521 3.62999 14.5261 3.44495 14.4823 3.26851C14.4385 3.09207 14.3474 2.9309 14.2189 2.80235C14.0903 2.6738 13.9292 2.58273 13.7527 2.53892C13.5763 2.49512 13.3912 2.50024 13.2175 2.55374C10.5813 3.3613 8.26692 4.97973 6.60374 7.17874C5.14926 9.10981 4.26206 11.4082 4.04183 13.8157C3.82159 16.2232 4.27704 18.6444 5.357 20.8074C6.43697 22.9703 8.09867 24.7892 10.1554 26.0598C12.2121 27.3304 14.5824 28.0023 17 28C19.8204 28.0087 22.5658 27.0918 24.815 25.39C27.014 23.7268 28.6324 21.4125 29.44 18.7762C29.4929 18.6031 29.4978 18.4189 29.4542 18.2433C29.4106 18.0676 29.3202 17.907 29.1925 17.7787ZM23.6125 23.7925C21.4944 25.3878 18.8714 26.1643 16.2262 25.9791C13.581 25.7939 11.0917 24.6594 9.21667 22.7845C7.34159 20.9096 6.20689 18.4204 6.02146 15.7752C5.83603 13.1301 6.61234 10.5069 8.20749 8.38874C9.24675 7.01632 10.5903 5.9038 12.1325 5.13874C12.0446 5.75527 12.0004 6.37723 12 6.99999C12.0036 10.4467 13.3744 13.7512 15.8116 16.1884C18.2488 18.6255 21.5533 19.9964 25 20C25.624 19.9998 26.2472 19.9555 26.865 19.8675C26.0992 21.4099 24.9858 22.7535 23.6125 23.7925Z" fill="black"/>
</svg>
