<svg width="32" height="32" viewBox="0 0 32 32" fill="none" xmlns="http://www.w3.org/2000/svg">
<path fill-rule="evenodd" clip-rule="evenodd" d="M16 24.875C13.7595 24.875 11.6233 23.9312 10.0578 22.2721C8.49409 20.615 7.625 18.3792 7.625 16.0592V11.4879C6.5722 13.0845 6 14.961 6 16.8948V29C6 29.5523 5.55228 30 5 30C4.44772 30 4 29.5523 4 29V16.8948C4 13.737 5.26664 10.7105 7.51813 8.48054C7.55206 8.44694 7.58778 8.41626 7.625 8.38851V7C7.625 4.23858 9.86358 2 12.625 2H19.375C22.1364 2 24.375 4.23858 24.375 7V8.38851C24.4122 8.41626 24.4479 8.44694 24.4819 8.48054C26.7334 10.7105 28 13.737 28 16.8948V29C28 29.5523 27.5523 30 27 30C26.4477 30 26 29.5523 26 29V16.8948C26 14.961 25.4278 13.0845 24.375 11.4879V16.0592C24.375 18.3792 23.5059 20.615 21.9422 22.2721C20.3767 23.9312 18.2405 24.875 16 24.875ZM11.5124 20.8995C12.713 22.1719 14.3286 22.875 16 22.875C17.6714 22.875 19.287 22.1719 20.4876 20.8995C21.6901 19.6252 22.375 17.885 22.375 16.0592V7C22.375 5.34315 21.0319 4 19.375 4H12.625C10.9681 4 9.625 5.34315 9.625 7V16.0592C9.625 17.885 10.3099 19.6252 11.5124 20.8995Z" fill="black"/>
</svg>
