<svg width="32" height="32" viewBox="0 0 32 32" fill="none" xmlns="http://www.w3.org/2000/svg">
<path d="M28.6662 12.2696L6.67623 4.11525L6.65623 4.10899C6.30227 3.98708 5.92122 3.96699 5.55641 4.05101C5.1916 4.13503 4.85769 4.31979 4.59265 4.58427C4.32762 4.84875 4.14211 5.18233 4.05722 5.54707C3.97234 5.91181 3.99148 6.29306 4.11248 6.64745C4.114 6.65428 4.11609 6.66097 4.11873 6.66745L12.2762 28.6657C12.4102 29.0579 12.6643 29.398 13.0025 29.6375C13.3407 29.877 13.7457 30.0038 14.16 30H14.1975C14.62 29.9967 15.0303 29.8578 15.3679 29.6036C15.7055 29.3494 15.9525 28.9935 16.0725 28.5882L19.0175 19.0146L28.5875 16.0685C28.9896 15.9447 29.3425 15.6972 29.5959 15.3612C29.8493 15.0252 29.9903 14.6178 29.9989 14.197C30.0074 13.7762 29.8832 13.3635 29.6437 13.0174C29.4042 12.6713 29.063 12.4097 28.6662 12.2696ZM28 14.1565L18.43 17.1026C18.1185 17.1986 17.8351 17.3694 17.6046 17.5999C17.3741 17.8305 17.2035 18.114 17.1075 18.4256L14.1625 27.9992L14.155 27.978L5.99998 5.99095L27.9775 14.1465L27.9975 14.154L28 14.1565Z" fill="black"/>
</svg>
