<svg width="32" height="32" viewBox="0 0 32 32" fill="none" xmlns="http://www.w3.org/2000/svg">
<path d="M30.0097 14.1975C30.0066 14.62 29.8678 15.0304 29.6135 15.3681C29.3593 15.7057 29.0032 15.9526 28.5979 16.0725L19.0243 19.0175L16.0782 28.5875C15.9581 28.9926 15.711 29.3484 15.3733 29.6025C15.0356 29.8566 14.6252 29.9955 14.2025 29.9987H14.165C13.7505 30.0026 13.3454 29.8758 13.0071 29.6364C12.6688 29.397 12.4146 29.0571 12.2806 28.665L4.12501 6.67623C4.12237 6.66975 4.12028 6.66306 4.11876 6.65623C3.99684 6.30227 3.97675 5.92122 4.06077 5.55641C4.14479 5.1916 4.32955 4.85769 4.59403 4.59265C4.85851 4.32762 5.19209 4.14211 5.55683 4.05722C5.92157 3.97234 6.30282 3.99148 6.6572 4.11248L6.67721 4.11873L28.6754 12.2762C29.0737 12.4123 29.4181 12.6722 29.6581 13.0179C29.8982 13.3635 30.0213 13.7769 30.0097 14.1975Z" fill="black"/>
</svg>
