<svg width="32" height="32" viewBox="0 0 32 32" fill="none" xmlns="http://www.w3.org/2000/svg">
<path d="M6.64952 4.11702C6.29655 3.99697 5.91706 3.97797 5.55387 4.06216C5.19067 4.14636 4.85825 4.33039 4.5941 4.5935C4.32996 4.8566 4.14461 5.1883 4.05899 5.55116C3.97336 5.91401 3.99086 6.29358 4.10952 6.64702L8.19994 17.6759C8.39201 18.1937 8.96749 18.4578 9.4853 18.2657C10.0031 18.0736 10.2672 17.4982 10.0751 16.9804L6.0063 6.01118L16.9798 10.0813C17.4976 10.2734 18.073 10.0093 18.2651 9.49152C18.4572 8.9737 18.1931 8.39823 17.6753 8.20617L6.64952 4.11702Z" fill="black"/>
<path fill-rule="evenodd" clip-rule="evenodd" d="M25.2601 4.32733C25.6316 3.91868 26.264 3.88856 26.6727 4.26007C27.0814 4.63157 27.1115 5.26402 26.74 5.67268L22.7318 10.0817L28.6666 12.283C29.0602 12.4219 29.4006 12.6806 29.64 13.023C29.8818 13.3689 30.008 13.7824 30.0005 14.2044C29.993 14.6264 29.8522 15.0352 29.5983 15.3723C29.3444 15.7092 28.9905 15.9573 28.5872 16.081L19.0183 19.0191L16.0745 28.5878C15.9508 28.9909 15.7028 29.3446 15.366 29.5983C15.0289 29.8522 14.6201 29.993 14.1981 30.0005C13.7761 30.008 13.3626 29.8818 13.0167 29.64C12.7174 29.4307 12.4821 29.1443 12.3347 28.8125L10.4104 23.6352L6.73996 27.6727C6.36845 28.0813 5.736 28.1115 5.32735 27.7399C4.91869 27.3684 4.88857 26.736 5.26008 26.3273L25.2601 4.32733ZM14.1551 27.9797L14.1626 28.0008L17.1067 18.431C17.2026 18.1189 17.3734 17.8351 17.6043 17.6043C17.8352 17.3733 18.1193 17.2024 18.4315 17.1065L28.0003 14.169L21.2816 11.6769L11.9254 21.9687L14.1551 27.9797Z" fill="black"/>
</svg>
