<svg width="32" height="32" viewBox="0 0 32 32" fill="none" xmlns="http://www.w3.org/2000/svg">
<path fill-rule="evenodd" clip-rule="evenodd" d="M16 5C9.92487 5 5 9.92487 5 16C5 22.0751 9.92487 27 16 27C22.0751 27 27 22.0751 27 16C27 9.92487 22.0751 5 16 5ZM3 16C3 8.8203 8.8203 3 16 3C23.1797 3 29 8.8203 29 16C29 23.1797 23.1797 29 16 29C8.8203 29 3 23.1797 3 16ZM16.1855 11.0051C15.7859 10.9651 15.3847 11.0648 15.0503 11.2872C14.7159 11.5096 14.4689 11.841 14.3513 12.225C14.2336 12.609 14.2526 13.0219 14.4051 13.3934C14.5575 13.765 14.8339 14.0723 15.1874 14.263C15.5408 14.4537 15.9494 14.5161 16.3436 14.4396C16.7379 14.3631 17.0935 14.1523 17.3499 13.8432C17.6055 13.5351 17.7468 13.1482 17.75 12.7479C17.7483 12.2826 17.5652 11.8363 17.2396 11.5038C16.9562 11.2211 16.5839 11.0449 16.1855 11.0051ZM13.9428 9.62189C14.6621 9.14348 15.5249 8.92903 16.3846 9.01501C17.2442 9.101 18.0527 9.48742 18.663 10.0988C19.3581 10.8057 19.7484 11.7645 19.75 12.7559C19.7449 13.6197 19.4408 14.4552 18.8892 15.1201C18.8062 15.2202 18.7184 15.3154 18.6262 15.4056C18.759 15.5097 18.8861 15.6221 19.0066 15.7423C19.4021 16.1373 19.7157 16.6067 19.9291 17.1233C20.1425 17.64 20.2515 18.1938 20.25 18.7528C20.2473 19.7325 19.9052 20.681 19.2819 21.4369C18.6586 22.1928 17.7926 22.7093 16.8314 22.8987C15.8701 23.088 14.873 22.9384 14.0096 22.4753C13.1462 22.0122 12.47 21.2643 12.096 20.3587C11.7219 19.4532 11.6732 18.4461 11.9582 17.5087C12.2119 16.674 12.7162 15.9405 13.3989 15.4056C13.0377 15.0522 12.7493 14.6267 12.5547 14.1525C12.2268 13.3533 12.1859 12.4651 12.439 11.6391C12.6921 10.8131 13.2234 10.1003 13.9428 9.62189ZM16.2311 16.5142C15.7162 16.4637 15.1998 16.5931 14.7696 16.8805C14.3395 17.1678 14.0222 17.5954 13.8717 18.0903C13.7213 18.5853 13.747 19.1171 13.9445 19.5952C14.142 20.0734 14.499 20.4683 14.9549 20.7128C15.4108 20.9573 15.9373 21.0363 16.4449 20.9364C16.9525 20.8364 17.4097 20.5636 17.7388 20.1645C18.0679 19.7654 18.2486 19.2645 18.25 18.7472C18.2508 18.4521 18.1932 18.1597 18.0805 17.8868C17.9679 17.614 17.8023 17.3662 17.5934 17.1577C17.2274 16.7921 16.7459 16.5648 16.2311 16.5142Z" fill="black"/>
</svg>
