<svg width="32" height="32" viewBox="0 0 32 32" fill="none" xmlns="http://www.w3.org/2000/svg">
<path fill-rule="evenodd" clip-rule="evenodd" d="M16 5C9.92487 5 5 9.92487 5 16C5 22.0751 9.92487 27 16 27C22.0751 27 27 22.0751 27 16C27 9.92487 22.0751 5 16 5ZM3 16C3 8.8203 8.8203 3 16 3C23.1797 3 29 8.8203 29 16C29 23.1797 23.1797 29 16 29C8.8203 29 3 23.1797 3 16ZM16 11.5C14.6193 11.5 13.5 12.6193 13.5 14C13.5 15.3807 14.6193 16.5 16 16.5C16.8517 16.5 17.6039 16.0741 18.0553 15.4237L18.1661 15.2378C18.1795 15.2153 18.1937 15.1935 18.2086 15.1724C18.3946 14.8228 18.5 14.4237 18.5 14C18.5 12.6193 17.3807 11.5 16 11.5ZM19.7408 16.5022C20.2203 15.7867 20.5 14.926 20.5 14C20.5 11.5147 18.4853 9.5 16 9.5C13.5147 9.5 11.5 11.5147 11.5 14C11.5 16.4853 13.5147 18.5 16 18.5C16.0752 18.5 16.1499 18.4982 16.2242 18.4945L14.1411 21.9878C13.8583 22.4622 14.0135 23.076 14.4878 23.3589C14.9622 23.6418 15.576 23.4865 15.8589 23.0122L19.7408 16.5022Z" fill="black"/>
</svg>
