<svg width="32" height="32" viewBox="0 0 32 32" fill="none" xmlns="http://www.w3.org/2000/svg">
<path fill-rule="evenodd" clip-rule="evenodd" d="M16 5C9.92487 5 5 9.92487 5 16C5 22.0751 9.92487 27 16 27C22.0751 27 27 22.0751 27 16C27 9.92487 22.0751 5 16 5ZM3 16C3 8.8203 8.8203 3 16 3C23.1797 3 29 8.8203 29 16C29 23.1797 23.1797 29 16 29C8.8203 29 3 23.1797 3 16ZM16.9719 9.61833C17.297 9.79234 17.5 10.1312 17.5 10.5V22C17.5 22.5523 17.0523 23 16.5 23C15.9477 23 15.5 22.5523 15.5 22V12.3685L14.0547 13.3321C13.5952 13.6384 12.9743 13.5142 12.6679 13.0547C12.3616 12.5952 12.4858 11.9743 12.9453 11.6679L15.9453 9.66795C16.2522 9.46338 16.6467 9.44431 16.9719 9.61833Z" fill="black"/>
</svg>
