<svg width="32" height="32" viewBox="0 0 32 32" fill="none" xmlns="http://www.w3.org/2000/svg">
<path fill-rule="evenodd" clip-rule="evenodd" d="M16 5C9.92487 5 5 9.92487 5 16C5 22.0751 9.92487 27 16 27C22.0751 27 27 22.0751 27 16C27 9.92487 22.0751 5 16 5ZM3 16C3 8.8203 8.8203 3 16 3C23.1797 3 29 8.8203 29 16C29 23.1797 23.1797 29 16 29C8.8203 29 3 23.1797 3 16ZM17.5122 8.64111C17.9865 8.92396 18.1417 9.5378 17.8589 10.0122L15.7758 13.5055C15.8501 13.5018 15.9248 13.5 16 13.5C18.4853 13.5 20.5 15.5147 20.5 18C20.5 20.4853 18.4853 22.5 16 22.5C13.5147 22.5 11.5 20.4853 11.5 18C11.5 17.074 11.7797 16.2133 12.2592 15.4978L16.1411 8.98785C16.424 8.51349 17.0378 8.35825 17.5122 8.64111ZM13.7914 16.8276C13.6054 17.1772 13.5 17.5763 13.5 18C13.5 19.3807 14.6193 20.5 16 20.5C17.3807 20.5 18.5 19.3807 18.5 18C18.5 16.6193 17.3807 15.5 16 15.5C15.1483 15.5 14.3961 15.9259 13.9447 16.5763L13.8339 16.7622C13.8205 16.7847 13.8063 16.8065 13.7914 16.8276Z" fill="black"/>
</svg>
