<svg width="32" height="32" viewBox="0 0 32 32" fill="none" xmlns="http://www.w3.org/2000/svg">
<path fill-rule="evenodd" clip-rule="evenodd" d="M16 5C9.92487 5 5 9.92487 5 16C5 22.0751 9.92487 27 16 27C22.0751 27 27 22.0751 27 16C27 9.92487 22.0751 5 16 5ZM3 16C3 8.8203 8.8203 3 16 3C23.1797 3 29 8.8203 29 16C29 23.1797 23.1797 29 16 29C8.8203 29 3 23.1797 3 16Z" fill="black"/>
<path fill-rule="evenodd" clip-rule="evenodd" d="M16.3955 11.0468C15.9437 10.9557 15.4742 11.0234 15.0666 11.2385C14.6589 11.4537 14.3381 11.803 14.1583 12.2274C13.943 12.736 13.3561 12.9737 12.8476 12.7583C12.339 12.543 12.1013 11.9561 12.3167 11.4476C12.6761 10.5987 13.3178 9.89998 14.1331 9.46973C14.9484 9.03947 15.8873 8.90404 16.791 9.08634C17.6947 9.26864 18.5077 9.75749 19.0924 10.4702C19.6769 11.1826 19.9975 12.0749 20 12.9964C20.0034 13.7959 19.7641 14.5777 19.3138 15.2383L14.9986 21H19C19.5523 21 20 21.4477 20 22C20 22.5523 19.5523 23 19 23H13C12.6213 23 12.2751 22.7861 12.1057 22.4475C11.9363 22.1088 11.9726 21.7035 12.1997 21.4004L17.6724 14.0951C17.8876 13.7724 18.0018 13.3927 18 13.0045L18 13.0024C17.9989 12.5415 17.8386 12.0951 17.5462 11.7388C17.2538 11.3824 16.8473 11.138 16.3955 11.0468Z" fill="black"/>
</svg>
