<svg width="32" height="32" viewBox="0 0 32 32" fill="none" xmlns="http://www.w3.org/2000/svg">
<path fill-rule="evenodd" clip-rule="evenodd" d="M16 5C9.92487 5 5 9.92487 5 16C5 22.0751 9.92487 27 16 27C22.0751 27 27 22.0751 27 16C27 9.92487 22.0751 5 16 5ZM3 16C3 8.8203 8.8203 3 16 3C23.1797 3 29 8.8203 29 16C29 23.1797 23.1797 29 16 29C8.8203 29 3 23.1797 3 16ZM12.9878 10.3403C13.0662 9.85593 13.4844 9.5 13.975 9.5H19C19.5523 9.5 20 9.94772 20 10.5C20 11.0523 19.5523 11.5 19 11.5H14.8262L14.3162 14.6517C14.4089 14.627 14.5025 14.6052 14.597 14.5864C15.4699 14.4128 16.3747 14.502 17.1969 14.8426C18.0192 15.1832 18.7219 15.76 19.2164 16.5C19.7108 17.24 19.9747 18.11 19.9747 19C19.9747 19.89 19.7108 20.76 19.2164 21.5C18.7219 22.24 18.0192 22.8168 17.1969 23.1574C16.3747 23.498 15.4699 23.5872 14.597 23.4136C13.7241 23.24 12.9223 22.8114 12.2929 22.1821C11.9024 21.7916 11.9024 21.1585 12.2929 20.7679C12.6834 20.3774 13.3165 20.3774 13.7071 20.7679C14.0567 21.1175 14.5022 21.3555 14.9871 21.452C15.4721 21.5484 15.9747 21.4989 16.4315 21.3097C16.8883 21.1204 17.2787 20.8 17.5534 20.3889C17.8281 19.9778 17.9747 19.4944 17.9747 19C17.9747 18.5056 17.8281 18.0222 17.5534 17.6111C17.2787 17.2 16.8883 16.8796 16.4315 16.6903C15.9747 16.5011 15.4721 16.4516 14.9871 16.548C14.5022 16.6445 14.0567 16.8825 13.7071 17.2321C13.4003 17.5389 12.9307 17.6128 12.5445 17.4152C12.1583 17.2176 11.9435 16.7935 12.0128 16.3653L12.9878 10.3403Z" fill="black"/>
</svg>
