<svg width="32" height="32" viewBox="0 0 32 32" fill="none" xmlns="http://www.w3.org/2000/svg">
<path fill-rule="evenodd" clip-rule="evenodd" d="M16 5C9.92487 5 5 9.92487 5 16C5 22.0751 9.92487 27 16 27C22.0751 27 27 22.0751 27 16C27 9.92487 22.0751 5 16 5ZM3 16C3 8.8203 8.8203 3 16 3C23.1797 3 29 8.8203 29 16C29 23.1797 23.1797 29 16 29C8.8203 29 3 23.1797 3 16ZM15.8328 8.55701C16.3536 8.74082 16.6268 9.31202 16.443 9.83282L13.9134 17H17.5V14C17.5 13.4477 17.9477 13 18.5 13C19.0523 13 19.5 13.4477 19.5 14V22C19.5 22.5523 19.0523 23 18.5 23C17.9477 23 17.5 22.5523 17.5 22V19H12.5C12.1755 19 11.8711 18.8425 11.6837 18.5776C11.4962 18.3126 11.449 17.9732 11.557 17.6672L14.557 9.16718C14.7408 8.64638 15.312 8.3732 15.8328 8.55701Z" fill="black"/>
</svg>
