<svg width="32" height="32" viewBox="0 0 32 32" fill="none" xmlns="http://www.w3.org/2000/svg">
<path d="M21.7068 19.7068C21.8943 19.5193 21.9997 19.2649 21.9997 18.9997V10.9997C21.9997 10.7345 21.8943 10.4801 21.7068 10.2926C21.5192 10.1051 21.2649 9.99969 20.9997 9.99969H12.9997C12.7344 9.99969 12.4801 10.1051 12.2925 10.2926C12.105 10.4801 11.9997 10.7345 11.9997 10.9997C11.9997 11.2649 12.105 11.5193 12.2925 11.7068C12.4801 11.8943 12.7344 11.9997 12.9997 11.9997H18.5847L10.2934 20.2922C10.1058 20.4798 10.0004 20.7343 10.0004 20.9997C10.0004 21.2651 10.1058 21.5196 10.2934 21.7072C10.481 21.8948 10.7355 22.0003 11.0009 22.0003C11.2663 22.0003 11.5208 21.8948 11.7084 21.7072L19.9997 13.4147V18.9997C19.9997 19.2649 20.105 19.5193 20.2925 19.7068C20.4801 19.8943 20.7344 19.9997 20.9997 19.9997C21.2649 19.9997 21.5192 19.8943 21.7068 19.7068Z" fill="black"/>
</svg>
