<svg width="32" height="32" viewBox="0 0 32 32" fill="none" xmlns="http://www.w3.org/2000/svg">
<path fill-rule="evenodd" clip-rule="evenodd" d="M4.58579 4.58579C4.96086 4.21071 5.46957 4 6 4H12C12.5523 4 13 4.44772 13 5C13 5.55228 12.5523 6 12 6L6 6L6 26H26V20C26 19.4477 26.4477 19 27 19C27.5523 19 28 19.4477 28 20V26C28 26.5304 27.7893 27.0391 27.4142 27.4142C27.0391 27.7893 26.5304 28 26 28H6C5.46957 28 4.96086 27.7893 4.58579 27.4142C4.21071 27.0391 4 26.5304 4 26V6C4 5.46957 4.21071 4.96086 4.58579 4.58579ZM18 4.99984C18.0001 4.44756 18.4479 3.99991 19.0002 4L26.95 4.00124C27.2223 3.9877 27.4991 4.08491 27.7071 4.29289C27.9151 4.50087 28.0123 4.77767 27.9988 5.04998L28 12.9998C28.0001 13.5521 27.5524 13.9999 27.0002 14C26.4479 14.0001 26.0001 13.5524 26 13.0002L25.9991 7.41509L15.7071 17.7071C15.3166 18.0976 14.6834 18.0976 14.2929 17.7071C13.9024 17.3166 13.9024 16.6834 14.2929 16.2929L24.5849 6.00087L18.9998 6C18.4476 5.99991 17.9999 5.55213 18 4.99984Z" fill="black"/>
</svg>
