<svg width="32" height="32" viewBox="0 0 32 32" fill="none" xmlns="http://www.w3.org/2000/svg">
<path fill-rule="evenodd" clip-rule="evenodd" d="M13.7304 1.29289C14.1209 0.902369 14.7541 0.902369 15.1446 1.29289L28.5821 14.7304C28.9727 15.1209 28.9727 15.7541 28.5821 16.1446L16.5571 28.1696L16.5519 28.1748C15.9883 28.7302 15.2288 29.0415 14.4375 29.0415C13.6463 29.0415 12.8868 28.7302 12.3232 28.1748L12.3179 28.1696L1.70542 17.5571L1.70022 17.5519C1.14487 16.9882 0.833557 16.2288 0.833557 15.4375C0.833557 14.6462 1.14487 13.8868 1.70022 13.3231L1.70542 13.3179L7.30457 7.71875L4.03042 4.44461C3.6399 4.05408 3.6399 3.42092 4.03042 3.03039C4.42095 2.63987 5.05411 2.63987 5.44464 3.03039L8.71878 6.30454L13.7304 1.29289ZM8.71878 9.13296L3.12273 14.729C2.9374 14.9182 2.83356 15.1726 2.83356 15.4375C2.83356 15.7024 2.9374 15.9568 3.12273 16.146C3.12343 16.1467 3.12414 16.1474 3.12484 16.1481L13.7269 26.7502C13.7276 26.7509 13.7284 26.7516 13.7291 26.7524C13.9183 26.9377 14.1726 27.0415 14.4375 27.0415C14.7024 27.0415 14.9567 26.9377 15.1459 26.7524C15.1467 26.7516 15.1474 26.7509 15.1482 26.7502L26.4608 15.4375L14.4375 3.41421L10.133 7.71875L13.8349 11.4207C14.3301 11.1524 14.8973 11 15.5 11C17.433 11 19 12.567 19 14.5C19 16.433 17.433 18 15.5 18C13.567 18 12 16.433 12 14.5C12 13.8972 12.1524 13.3301 12.4207 12.8349L8.71878 9.13296ZM14.3743 13.5086C14.1414 13.773 14 14.12 14 14.5C14 15.3284 14.6716 16 15.5 16C16.3285 16 17 15.3284 17 14.5C17 13.6716 16.3285 13 15.5 13C15.12 13 14.773 13.1413 14.5087 13.3743C14.4886 13.3985 14.4673 13.4219 14.4446 13.4446C14.422 13.4673 14.3985 13.4886 14.3743 13.5086ZM29.2071 19.7929L28.5 20.5L27.7929 19.7929C28.1834 19.4024 28.8166 19.4024 29.2071 19.7929ZM28.5 22.0347C28.3664 22.2085 28.224 22.4043 28.0821 22.6172C27.4903 23.5049 27 24.5506 27 25.5C27 25.8978 27.1581 26.2794 27.4394 26.5607C27.7207 26.842 28.1022 27 28.5 27C28.8979 27 29.2794 26.842 29.5607 26.5607C29.842 26.2794 30 25.8978 30 25.5C30 24.5506 29.5098 23.5049 28.918 22.6172C28.776 22.4043 28.6337 22.2085 28.5 22.0347ZM28.5 20.5C27.7929 19.7929 27.7927 19.7931 27.7925 19.7933L27.7921 19.7937L27.7883 19.7975L27.7801 19.8058C27.7735 19.8126 27.7645 19.8217 27.7534 19.8333C27.7311 19.8563 27.7 19.8887 27.6616 19.93C27.5846 20.0124 27.4775 20.1304 27.3501 20.2789C27.0964 20.5749 26.7579 20.9979 26.418 21.5078C25.7598 22.4951 25 23.9494 25 25.5C25 26.4283 25.3688 27.3185 26.0252 27.9749C26.6815 28.6313 27.5718 29 28.5 29C29.4283 29 30.3185 28.6313 30.9749 27.9749C31.6313 27.3185 32 26.4283 32 25.5C32 23.9494 31.2403 22.4951 30.5821 21.5078C30.2421 20.9979 29.9037 20.5749 29.6499 20.2789C29.5226 20.1304 29.4154 20.0124 29.3385 19.93C29.3 19.8887 29.269 19.8563 29.2467 19.8333C29.2356 19.8217 29.2266 19.8126 29.2199 19.8058L29.2117 19.7975L29.2079 19.7937L29.2075 19.7933C29.2073 19.7931 29.2071 19.7929 28.5 20.5Z" fill="black"/>
</svg>
