<svg width="32" height="32" viewBox="0 0 32 32" fill="none" xmlns="http://www.w3.org/2000/svg">
<path d="M30 15.9862C30.0009 16.3426 29.9066 16.6927 29.7269 17.0003C29.5471 17.308 29.2884 17.5621 28.9775 17.7362L7.9875 29.7375C7.6863 29.9082 7.34624 29.9986 7 30C6.68099 29.9983 6.36702 29.9203 6.08429 29.7725C5.80157 29.6247 5.5583 29.4114 5.37479 29.1505C5.19128 28.8895 5.07285 28.5885 5.0294 28.2724C4.98595 27.9564 5.01873 27.6345 5.125 27.3337L8.5 17.34C8.53299 17.2423 8.59538 17.1572 8.67862 17.0963C8.76187 17.0354 8.8619 17.0018 8.965 17H18C18.1371 17.0003 18.2728 16.9724 18.3986 16.918C18.5245 16.8637 18.6378 16.7841 18.7316 16.6841C18.8254 16.5841 18.8976 16.4659 18.9438 16.3368C18.9899 16.2077 19.0091 16.0705 19 15.9337C18.9773 15.6766 18.8583 15.4375 18.6669 15.2644C18.4754 15.0912 18.2256 14.9968 17.9675 15H8.9675C8.8629 15 8.76092 14.9672 8.67593 14.9062C8.59095 14.8452 8.52723 14.7591 8.49375 14.66L5.11875 4.66748C4.98442 4.28447 4.9698 3.86966 5.07684 3.47814C5.18387 3.08662 5.40749 2.73694 5.718 2.47554C6.0285 2.21415 6.41119 2.05341 6.81522 2.01468C7.21925 1.97595 7.6255 2.06107 7.98 2.25873L28.98 14.245C29.2891 14.4187 29.5465 14.6716 29.7257 14.9775C29.905 15.2835 29.9996 15.6316 30 15.9862Z" fill="black"/>
</svg>
