<svg width="32" height="32" viewBox="0 0 32 32" fill="none" xmlns="http://www.w3.org/2000/svg">
<path d="M19 10C19.7911 10 20.5645 9.76541 21.2223 9.32588C21.8801 8.88636 22.3928 8.26164 22.6955 7.53074C22.9983 6.79983 23.0775 5.99556 22.9231 5.21964C22.7688 4.44372 22.3878 3.73098 21.8284 3.17157C21.269 2.61216 20.5563 2.2312 19.7804 2.07686C19.0044 1.92252 18.2002 2.00173 17.4693 2.30448C16.7384 2.60723 16.1137 3.11992 15.6741 3.77772C15.2346 4.43552 15 5.20888 15 6C15 7.06087 15.4214 8.07828 16.1716 8.82843C16.9217 9.57858 17.9391 10 19 10ZM19 4C19.3956 4 19.7822 4.1173 20.1111 4.33706C20.44 4.55683 20.6964 4.86918 20.8478 5.23464C20.9991 5.60009 21.0387 6.00222 20.9616 6.39018C20.8844 6.77815 20.6939 7.13451 20.4142 7.41422C20.1345 7.69392 19.7781 7.8844 19.3902 7.96157C19.0022 8.03874 18.6001 7.99914 18.2346 7.84776C17.8692 7.69639 17.5568 7.44004 17.3371 7.11114C17.1173 6.78224 17 6.39557 17 6C17 5.46957 17.2107 4.96086 17.5858 4.58579C17.9609 4.21072 18.4696 4 19 4ZM27 18C27 18.2652 26.8946 18.5196 26.7071 18.7071C26.5196 18.8946 26.2652 19 26 19C21.5863 19 19.3813 16.7738 17.61 14.985C17.2675 14.6388 16.94 14.31 16.61 14.005L14.9313 17.865L19.5813 21.1863C19.7108 21.2788 19.8163 21.4009 19.8892 21.5424C19.962 21.684 20 21.8408 20 22V29C20 29.2652 19.8946 29.5196 19.7071 29.7071C19.5196 29.8946 19.2652 30 19 30C18.7348 30 18.4804 29.8946 18.2929 29.7071C18.1054 29.5196 18 29.2652 18 29V22.515L14.1163 19.74L9.9175 29.3988C9.83979 29.5775 9.71156 29.7296 9.54855 29.8364C9.38555 29.9432 9.19489 30.0001 9 30C8.86269 30.0003 8.72684 29.9718 8.60125 29.9163C8.35816 29.8106 8.16697 29.6127 8.06969 29.3661C7.97242 29.1195 7.97703 28.8444 8.0825 28.6013L14.8425 13.055C13.6788 12.8488 12.2275 13.205 10.505 14.1275C9.13125 14.8853 7.8491 15.7983 6.68375 16.8488C6.48924 17.023 6.23429 17.1142 5.97339 17.103C5.71249 17.0917 5.46636 16.9788 5.28759 16.7885C5.10882 16.5981 5.01161 16.3454 5.01673 16.0843C5.02186 15.8232 5.12891 15.5745 5.315 15.3913C5.6275 15.0975 13.0263 8.2375 17.655 12.2563C18.1338 12.6713 18.59 13.1313 19.03 13.5775C20.7738 15.3375 22.42 17 26 17C26.2652 17 26.5196 17.1054 26.7071 17.2929C26.8946 17.4804 27 17.7348 27 18Z" fill="black"/>
</svg>
