<svg width="32" height="32" viewBox="0 0 32 32" fill="none" xmlns="http://www.w3.org/2000/svg">
<path d="M27.7963 19.8076L21.9075 17.1688L21.8913 17.1613C21.5856 17.0305 21.2521 16.9781 20.921 17.0086C20.5899 17.0392 20.2716 17.1518 19.995 17.3363C19.9624 17.3578 19.9311 17.3812 19.9013 17.4063L16.8588 20.0001C14.9313 19.0638 12.9413 17.0888 12.005 15.1863L14.6025 12.0976C14.6275 12.0663 14.6513 12.0351 14.6738 12.0013C14.8543 11.7254 14.9638 11.4092 14.9926 11.0808C15.0214 10.7523 14.9686 10.4219 14.8388 10.1188V10.1038L12.1925 4.20505C12.0209 3.80913 11.7259 3.47932 11.3515 3.26485C10.9771 3.05038 10.5433 2.96275 10.115 3.01505C8.42122 3.23794 6.86649 4.06976 5.74118 5.35517C4.61587 6.64058 3.99695 8.29167 4.00001 10.0001C4.00001 19.9251 12.075 28.0001 22 28.0001C23.7084 28.0031 25.3595 27.3842 26.6449 26.2589C27.9303 25.1336 28.7621 23.5788 28.985 21.8851C29.0374 21.4569 28.95 21.0232 28.7357 20.6488C28.5215 20.2744 28.1919 19.9793 27.7963 19.8076ZM22 26.0001C17.758 25.9954 13.691 24.3082 10.6914 21.3086C7.69184 18.3091 6.00464 14.2421 6.00001 10.0001C5.99531 8.77941 6.43507 7.5988 7.23718 6.67869C8.03929 5.75857 9.14889 5.16189 10.3588 5.00005C10.3583 5.00504 10.3583 5.01006 10.3588 5.01505L12.9838 10.8901L10.4 13.9826C10.3738 14.0127 10.35 14.0449 10.3288 14.0788C10.1407 14.3674 10.0303 14.6998 10.0084 15.0436C9.9865 15.3875 10.0538 15.7311 10.2038 16.0413C11.3363 18.3576 13.67 20.6738 16.0113 21.8051C16.3237 21.9536 16.6694 22.0186 17.0144 21.9936C17.3595 21.9686 17.6922 21.8546 17.98 21.6626C18.0121 21.6409 18.043 21.6176 18.0725 21.5926L21.1113 19.0001L26.9863 21.6313C26.9863 21.6313 26.9963 21.6313 27 21.6313C26.8402 22.8429 26.2444 23.9547 25.3241 24.7588C24.4038 25.5629 23.2221 26.0042 22 26.0001Z" fill="black"/>
</svg>
