<svg width="32" height="32" viewBox="0 0 32 32" fill="none" xmlns="http://www.w3.org/2000/svg">
<path d="M29.4163 13L22.7325 19.7062C23.3025 21.29 23.5387 23.9425 21.0837 27.2062C20.9121 27.4357 20.6928 27.6254 20.4411 27.7624C20.1893 27.8994 19.9109 27.9804 19.625 28C19.5775 28 19.5312 28 19.4837 28C19.2209 28 18.9607 27.9483 18.7179 27.8477C18.4751 27.7471 18.2545 27.5996 18.0687 27.4137L12.0362 21.375L6.7075 26.7075C6.51986 26.8951 6.26536 27.0005 6 27.0005C5.73464 27.0005 5.48014 26.8951 5.2925 26.7075C5.10486 26.5198 4.99944 26.2653 4.99944 26C4.99944 25.7346 5.10486 25.4801 5.2925 25.2925L10.625 19.9637L4.5875 13.9262C4.38905 13.7275 4.23467 13.4893 4.1344 13.2269C4.03414 12.9646 3.99025 12.6841 4.00558 12.4037C4.02091 12.1233 4.09512 11.8493 4.22338 11.5994C4.35164 11.3496 4.53107 11.1296 4.75 10.9537C7.9275 8.38997 10.9687 8.89372 12.3 9.31122L19 2.58747C19.1857 2.40171 19.4062 2.25435 19.6489 2.15381C19.8916 2.05327 20.1517 2.00153 20.4144 2.00153C20.6771 2.00153 20.9372 2.05327 21.1798 2.15381C21.4225 2.25435 21.643 2.40171 21.8288 2.58747L29.415 10.1725C29.79 10.5473 30.0007 11.0558 30.0009 11.586C30.0012 12.1162 29.7909 12.6248 29.4163 13Z" fill="black"/>
</svg>
