<svg width="32" height="32" viewBox="0 0 32 32" fill="none" xmlns="http://www.w3.org/2000/svg">
<path d="M11.1792 28.044C11.0167 26.5707 11.1358 25.1515 11.45 23.7865L12.75 18.1857C12.5153 17.4609 12.3911 16.705 12.3817 15.9432C12.3817 14.1232 13.2483 12.8232 14.635 12.8232C15.5883 12.8232 16.2925 13.4949 16.2925 14.7732C16.2925 15.1849 16.213 15.6471 16.0542 16.1599L15.48 18.034C15.3717 18.3951 15.3175 18.7238 15.3175 19.0199C15.3175 20.3199 16.3142 21.0565 17.5817 21.0565C19.835 21.0565 21.4492 18.7165 21.4492 15.6832C21.4492 12.3032 19.2392 10.1474 15.9675 10.1474C12.3275 10.1474 10.02 12.5199 10.02 15.8132C10.02 17.1457 10.4317 18.3807 11.2225 19.2257C10.9625 19.659 10.6808 19.7457 10.2692 19.7457C8.96916 19.7457 7.73416 17.904 7.73416 15.4124C7.73416 11.0899 11.2008 7.6557 16.0542 7.6557C21.1458 7.6557 24.3525 11.209 24.3525 15.5965C24.3525 20.0057 21.2325 23.3207 17.8742 23.3207C17.2342 23.3321 16.6003 23.1941 16.023 22.9177C15.4456 22.6412 14.9407 22.2339 14.5483 21.7282L13.8875 24.4365C13.53 25.8232 12.9883 27.1449 12.1325 28.4124C14.0796 29.0191 16.1422 29.1592 18.1535 28.8214C20.1648 28.4835 22.0684 27.6772 23.7104 26.4676C25.3525 25.2579 26.6869 23.6789 27.6058 21.8582C28.5246 20.0374 29.0023 18.026 29 15.9865C29.0028 13.6247 28.3622 11.3067 27.1468 9.28148C25.9314 7.25631 24.1873 5.6005 22.1018 4.49192C20.0163 3.38333 17.6681 2.86386 15.3096 2.9893C12.951 3.11474 10.6712 3.88035 8.71506 5.20389C6.75888 6.52744 5.20023 8.3589 4.20654 10.5016C3.21285 12.6442 2.82167 15.0171 3.07501 17.3654C3.32835 19.7136 4.21664 21.9485 5.64446 23.8299C7.07229 25.7113 8.9857 27.1682 11.1792 28.044Z" fill="black"/>
</svg>
