<svg width="32" height="32" viewBox="0 0 32 32" fill="none" xmlns="http://www.w3.org/2000/svg">
<path fill-rule="evenodd" clip-rule="evenodd" d="M5.32733 4.26007C5.73598 3.88856 6.36843 3.91868 6.73994 4.32733L26.7399 26.3273C27.1114 26.736 27.0813 27.3684 26.6727 27.7399C26.264 28.1115 25.6316 28.0813 25.2601 27.6727L5.26006 5.67268C4.88855 5.26402 4.91867 4.63157 5.32733 4.26007ZM13 5.00001C13 4.44772 13.4477 4.00001 14 4.00001H18C18.5523 4.00001 19 4.44772 19 5.00001C19 5.55229 18.5523 6.00001 18 6.00001H14C13.4477 6.00001 13 5.55229 13 5.00001ZM22 5.00001C22 4.44772 22.4477 4.00001 23 4.00001H26C26.5304 4.00001 27.0391 4.21072 27.4142 4.58579C27.7893 4.96087 28 5.46958 28 6.00001V9.00001C28 9.55229 27.5523 10 27 10C26.4477 10 26 9.55229 26 9.00001V6.00001H23C22.4477 6.00001 22 5.55229 22 5.00001ZM5 13C5.55228 13 6 13.4477 6 14V18C6 18.5523 5.55228 19 5 19C4.44772 19 4 18.5523 4 18V14C4 13.4477 4.44772 13 5 13ZM27 13C27.5523 13 28 13.4477 28 14V18C28 18.5523 27.5523 19 27 19C26.4477 19 26 18.5523 26 18V14C26 13.4477 26.4477 13 27 13ZM5 22C5.55228 22 6 22.4477 6 23V26H9C9.55229 26 10 26.4477 10 27C10 27.5523 9.55229 28 9 28H6C5.46957 28 4.96086 27.7893 4.58579 27.4142C4.21071 27.0392 4 26.5304 4 26V23C4 22.4477 4.44772 22 5 22ZM13 27C13 26.4477 13.4477 26 14 26H18C18.5523 26 19 26.4477 19 27C19 27.5523 18.5523 28 18 28H14C13.4477 28 13 27.5523 13 27Z" fill="black"/>
</svg>
