<svg width="32" height="32" viewBox="0 0 32 32" fill="none" xmlns="http://www.w3.org/2000/svg">
<path fill-rule="evenodd" clip-rule="evenodd" d="M16 5.33337C16.5523 5.33337 17 5.78109 17 6.33337V15H25.6667C26.219 15 26.6667 15.4478 26.6667 16C26.6667 16.5523 26.219 17 25.6667 17H17V25.6667C17 26.219 16.5523 26.6667 16 26.6667C15.4477 26.6667 15 26.219 15 25.6667V17H6.33334C5.78106 17 5.33334 16.5523 5.33334 16C5.33334 15.4478 5.78106 15 6.33334 15H15V6.33337C15 5.78109 15.4477 5.33337 16 5.33337Z" fill="black"/>
</svg>
