<svg width="32" height="32" viewBox="0 0 32 32" fill="none" xmlns="http://www.w3.org/2000/svg">
<path d="M23.5 16C24.3284 16 25 15.3284 25 14.5C25 13.6716 24.3284 13 23.5 13C22.6716 13 22 13.6716 22 14.5C22 15.3284 22.6716 16 23.5 16Z" fill="black"/>
<path fill-rule="evenodd" clip-rule="evenodd" d="M7 5C7 4.44772 7.44772 4 8 4H24C24.5523 4 25 4.44772 25 5V9H26.8337C28.5054 9 30 10.2689 30 12V22C30 22.5523 29.5523 23 29 23H25V27C25 27.5523 24.5523 28 24 28H20C19.4477 28 19 27.5523 19 27C19 25.3431 17.6569 24 16 24C14.3431 24 13 25.3431 13 27C13 27.5523 12.5523 28 12 28H8C7.44772 28 7 27.5523 7 27V23H3C2.44772 23 2 22.5523 2 22V12C2 10.2689 3.49459 9 5.16625 9H7V5ZM5.16625 11C4.44541 11 4 11.5211 4 12V21H7V19C7 18.4477 7.44772 18 8 18H24C24.5523 18 25 18.4477 25 19V21H28V12C28 11.5211 27.5546 11 26.8337 11H5.16625ZM23 9H9V6H23V9ZM23 20H9V26H11.1C11.5633 23.7178 13.581 22 16 22C18.419 22 20.4367 23.7178 20.9 26H23V20Z" fill="black"/>
</svg>
