<svg width="32" height="32" viewBox="0 0 32 32" fill="none" xmlns="http://www.w3.org/2000/svg">
<path d="M25 14.5C25 15.3284 24.3284 16 23.5 16C22.6716 16 22 15.3284 22 14.5C22 13.6716 22.6716 13 23.5 13C24.3284 13 25 13.6716 25 14.5Z" fill="black"/>
<path fill-rule="evenodd" clip-rule="evenodd" d="M8 4C7.44772 4 7 4.44772 7 5V9H5.6625C3.99829 9 2.5 10.2751 2.5 12V22C2.5 22.5523 2.94772 23 3.5 23H7V27.5C7 28.0523 7.44772 28.5 8 28.5H24C24.5523 28.5 25 28.0523 25 27.5V23H28.5C29.0523 23 29.5 22.5523 29.5 22V12C29.5 10.2751 28.0017 9 26.3375 9H25V5C25 4.44772 24.5523 4 24 4H8ZM5.6625 11H26.3375C27.0483 11 27.5 11.5249 27.5 12V21H25V19C25 18.4477 24.5523 18 24 18H8C7.44772 18 7 18.4477 7 19V21H4.5V12C4.5 11.5249 4.95171 11 5.6625 11ZM9 9H23V6H9V9ZM9 20H23V26.5H9V20Z" fill="black"/>
</svg>
