<svg width="32" height="32" viewBox="0 0 32 32" fill="none" xmlns="http://www.w3.org/2000/svg">
<path fill-rule="evenodd" clip-rule="evenodd" d="M17.9476 6.19275C16.0075 5.80624 13.9964 6.00379 12.1687 6.76043C10.341 7.51707 8.7787 8.79879 7.67952 10.4435C6.58035 12.0881 5.99365 14.0218 5.99365 16C5.99365 17.9782 6.58035 19.9119 7.67952 21.5566C8.27335 22.4451 9.00234 23.2277 9.83534 23.8788C10.2705 24.2189 10.3475 24.8474 10.0074 25.2825C9.66727 25.7176 9.03881 25.7947 8.60368 25.4545C7.60409 24.6732 6.72929 23.7341 6.0167 22.6679C4.69769 20.6943 3.99365 18.3738 3.99365 16C3.99365 13.6262 4.69769 11.3057 6.0167 9.33215C7.33571 7.35854 9.21043 5.82048 11.4037 4.91251C13.597 4.00455 16.0103 3.76748 18.3383 4.2313C20.666 4.69503 22.8038 5.83857 24.4815 7.51729L27.025 10.0533V7.46251C27.025 6.91022 27.4727 6.46251 28.025 6.46251C28.5773 6.46251 29.025 6.91022 29.025 7.46251V12.4625C29.025 13.0148 28.5773 13.4625 28.025 13.4625H23.025C22.4727 13.4625 22.025 13.0148 22.025 12.4625C22.025 11.9102 22.4727 11.4625 23.025 11.4625H25.6057L23.0689 8.93315L23.0676 8.93182C21.6694 7.53248 19.8876 6.57926 17.9476 6.19275ZM23.871 23.6838C24.226 24.1069 24.1708 24.7376 23.7477 25.0927L22.9817 25.7354C22.5586 26.0904 21.9278 26.0353 21.5728 25.6122C21.2178 25.1891 21.273 24.5584 21.6961 24.2034L22.4621 23.5606C22.8852 23.2056 23.516 23.2607 23.871 23.6838ZM11.7008 26.2412C11.8437 25.7077 12.392 25.3911 12.9255 25.5341L13.8914 25.7929C14.4249 25.9358 14.7415 26.4842 14.5985 27.0176C14.4556 27.5511 13.9073 27.8677 13.3738 27.7248L12.4079 27.4659C11.8744 27.323 11.5578 26.7747 11.7008 26.2412ZM19.6221 26.5099C19.7275 27.052 19.3735 27.5769 18.8313 27.6823L17.8497 27.8731C17.3075 27.9785 16.7826 27.6244 16.6772 27.0823C16.5719 26.5402 16.9259 26.0153 17.4681 25.9099L18.4497 25.7191C18.9918 25.6137 19.5167 25.9677 19.6221 26.5099Z" fill="black"/>
</svg>
