<svg width="32" height="32" viewBox="0 0 32 32" fill="none" xmlns="http://www.w3.org/2000/svg">
<path fill-rule="evenodd" clip-rule="evenodd" d="M15.4083 14.8224C14.8561 14.8224 14.4083 15.2701 14.4083 15.8224V19.4595C14.3865 19.4916 14.3636 19.526 14.3397 19.5627C14.174 19.8177 13.9625 20.1855 13.7542 20.6662C13.3365 21.6302 12.9352 23.0399 12.9352 24.8883C12.9352 26.732 13.3344 28.2676 13.7343 29.3443C13.9346 29.8835 14.1362 30.3108 14.2909 30.6084C14.3684 30.7573 14.4343 30.8741 14.4827 30.9565C14.5069 30.9978 14.5267 31.0305 14.5415 31.0543C14.5489 31.0663 14.555 31.076 14.5598 31.0835L14.5659 31.0931L14.5682 31.0966L14.5695 31.0987C14.754 31.3825 15.0699 31.5543 15.4083 31.5543H27.1935C27.532 31.5543 27.8479 31.3825 28.0323 31.0987L28.0327 31.098L28.0337 31.0966L28.0359 31.0931L28.042 31.0835C28.0468 31.076 28.0529 31.0663 28.0603 31.0543C28.0751 31.0305 28.0949 30.9978 28.1192 30.9565C28.1676 30.8741 28.2335 30.7573 28.3109 30.6084C28.4656 30.3108 28.6672 29.8835 28.8675 29.3443C29.2674 28.2676 29.6666 26.732 29.6666 24.8883C29.6666 23.0399 29.2654 21.6302 28.8476 20.6662C28.6393 20.1855 28.4278 19.8177 28.2621 19.5627C28.2383 19.526 28.2153 19.4916 28.1935 19.4596V15.8224C28.1935 15.2701 27.7458 14.8224 27.1935 14.8224H15.4083ZM16.4083 18.7886H26.1935V16.8224H16.4083V18.7886ZM15.9316 20.789C15.8322 20.9548 15.7117 21.179 15.5893 21.4614C15.2705 22.1972 14.9352 23.3372 14.9352 24.8883C14.9352 26.4442 15.2725 27.7416 15.6092 28.6479C15.7482 29.0223 15.8863 29.3277 15.9987 29.5543H26.6032C26.7155 29.3277 26.8536 29.0223 26.9926 28.6479C27.3293 27.7416 27.6666 26.4442 27.6666 24.8883C27.6666 23.3372 27.3313 22.1972 27.0125 21.4614C26.8901 21.179 26.7696 20.9548 26.6702 20.789H15.9316Z" fill="black"/>
<path d="M21.7158 18.5814H19.7099L19.7099 18.5818H21.7158L21.7158 18.5814Z" fill="black"/>
<path d="M16.792 18.5818L16.792 18.5814H14.7913L14.7913 18.5818H16.792Z" fill="black"/>
<path d="M11.5632 23.0258C11.4432 22.8796 11.3172 22.6997 11.1882 22.4785C10.6187 21.5021 10.2022 20.0215 10.2022 18.2779C10.2022 16.5344 10.6187 15.0537 11.1882 14.0773C11.7865 13.0518 12.319 12.9122 12.4989 12.9122C12.6157 12.9122 12.8813 12.9711 13.217 13.2933H15.6623C14.877 11.8295 13.7504 10.9122 12.4989 10.9122C10.1259 10.9122 8.20222 14.2099 8.20222 18.2779C8.20222 21.6948 9.55938 24.5682 11.4 25.4006C11.4 25.394 11.4 25.3874 11.4 25.3808C11.4 24.5127 11.4624 23.7277 11.5632 23.0258Z" fill="black"/>
<path fill-rule="evenodd" clip-rule="evenodd" d="M7.56325 1.10326C7.75287 0.892983 8.02275 0.772949 8.30589 0.772949H16.6196C16.9028 0.772949 17.1727 0.893027 17.3624 1.10337C17.552 1.31371 17.6435 1.59459 17.6143 1.87627L17.1969 5.89437C17.5014 6.13205 17.9183 6.47839 18.3845 6.92428C19.3176 7.81686 20.4761 9.135 21.3115 10.8058C21.589 11.3609 21.7263 12.1029 21.8002 12.8673C21.8136 13.0052 21.8251 13.1474 21.835 13.2933H19.8298C19.8236 13.2135 19.8169 13.1357 19.8095 13.0598C19.7408 12.3491 19.6287 11.9125 19.5226 11.7003C18.8235 10.3021 17.8336 9.16496 17.002 8.36957C16.5889 7.97445 16.2219 7.67025 15.961 7.46689C15.9008 7.41995 15.8464 7.37847 15.7985 7.34257H9.05069C8.9906 7.38339 8.91964 7.43269 8.83954 7.49026C8.55836 7.69237 8.16824 7.9937 7.74238 8.38407C6.88078 9.17388 5.92336 10.2822 5.38645 11.6244C5.29415 11.8552 5.20499 12.3131 5.15594 13.0317C5.10865 13.7244 5.10318 14.5746 5.13145 15.5341C5.18793 17.4516 5.37693 19.7404 5.60608 21.9513C5.83489 24.1589 6.10205 26.2731 6.3122 27.8366C6.40572 28.5323 6.48785 29.1182 6.55016 29.554H11.8869C12.0752 30.3479 12.2927 31.0218 12.4912 31.554H5.68556C5.19103 31.554 4.77077 31.1925 4.69681 30.7035L4.68956 30.6553C4.68487 30.6239 4.67797 30.5776 4.66904 30.5172C4.65118 30.3964 4.62522 30.2192 4.59266 29.993C4.52754 29.5405 4.436 28.8914 4.33003 28.103C4.1182 26.5271 3.84829 24.3916 3.61674 22.1575C3.38554 19.9268 3.19091 17.5822 3.13232 15.593C3.10304 14.5992 3.10717 13.6779 3.16058 12.8954C3.21223 12.1389 3.31489 11.4182 3.5295 10.8817C4.2202 9.1549 5.4111 7.80795 6.39092 6.90977C6.88577 6.45616 7.33964 6.10532 7.67226 5.86624C7.68878 5.85437 7.705 5.84277 7.72093 5.83143L7.31122 1.87598C7.28204 1.59434 7.37363 1.31354 7.56325 1.10326ZM15.5104 2.77295L15.2434 5.34243H9.68098L9.41483 2.77295H15.5104Z" fill="black"/>
</svg>
