<svg width="32" height="32" viewBox="0 0 32 32" fill="none" xmlns="http://www.w3.org/2000/svg">
<path fill-rule="evenodd" clip-rule="evenodd" d="M2.66667 6C2.66667 4.89543 3.5621 4 4.66667 4H27.3333C28.4379 4 29.3333 4.89543 29.3333 6V26C29.3333 27.1046 28.4379 28 27.3333 28H4.66667C3.5621 28 2.66667 27.1046 2.66667 26V6ZM27.3333 6H4.66667V26H27.3333V6ZM16 12C14.3432 12 13 13.3431 13 15C13 16.6569 14.3432 18 16 18C17.6569 18 19 16.6569 19 15C19 13.3431 17.6569 12 16 12ZM19.4298 18.6382C20.3966 17.7265 21 16.4337 21 15C21 12.2386 18.7614 10 16 10C13.2386 10 11 12.2386 11 15C11 16.4337 11.6035 17.7265 12.5702 18.6382C12.2605 18.7618 11.9617 18.9029 11.6767 19.0613C10.4242 19.7571 9.45628 20.7796 9.0496 22.0223C8.87783 22.5472 9.16409 23.112 9.68898 23.2837C10.2139 23.4555 10.7786 23.1692 10.9504 22.6444C11.1634 21.9934 11.7204 21.3249 12.648 20.8096C13.5726 20.2959 14.755 20 16 20C17.245 20 18.4274 20.2959 19.352 20.8096C20.2796 21.3249 20.8366 21.9934 21.0496 22.6444C21.2214 23.1692 21.7861 23.4555 22.311 23.2837C22.8359 23.112 23.1222 22.5472 22.9504 22.0223C22.5437 20.7796 21.5758 19.7571 20.3233 19.0613C20.0383 18.9029 19.7395 18.7618 19.4298 18.6382Z" fill="black"/>
</svg>
