<svg width="32" height="32" viewBox="0 0 32 32" fill="none" xmlns="http://www.w3.org/2000/svg">
<path fill-rule="evenodd" clip-rule="evenodd" d="M17.6436 4.07745C17.2884 3.98332 16.9169 3.96863 16.5554 4.03443C16.1939 4.10023 15.8514 4.2449 15.5521 4.45814C15.2529 4.67138 15.0044 4.94796 14.8242 5.26818C14.6441 5.5884 14.5367 5.94439 14.5098 6.31083L14.5093 6.31787C14.4746 6.74813 14.5542 7.17991 14.7401 7.5695C14.8879 7.87933 14.8664 8.24332 14.6832 8.53365C14.5001 8.82397 14.1808 9.00005 13.8375 9.00005L7.99999 9.00005L7.99999 14.3376C7.99999 14.6808 7.82396 15 7.53371 15.1832C7.24345 15.3664 6.87952 15.3879 6.5697 15.2402C6.23803 15.0821 5.87559 14.9991 5.50817 14.997C5.14076 14.9949 4.7774 15.0738 4.44395 15.2282C4.11051 15.3825 3.81518 15.6084 3.57898 15.8898C3.34278 16.1713 3.17152 16.5013 3.07739 16.8565C2.98326 17.2116 2.96857 17.5832 3.03437 17.9447C3.10017 18.3061 3.24484 18.6487 3.45808 18.9479C3.67132 19.2471 3.9479 19.4956 4.26812 19.6758C4.58834 19.856 4.94433 19.9633 5.31077 19.9902L5.31781 19.9908C5.74807 20.0255 6.17985 19.9458 6.56944 19.76C6.87927 19.6122 7.24326 19.6336 7.53359 19.8168C7.82391 20 7.99999 20.3193 7.99999 20.6626V26.0001H26V21.9746C25.8408 21.9926 25.6804 22.0022 25.5195 22.0031C24.8582 22.0068 24.2041 21.8648 23.6039 21.587C23.0037 21.3092 22.4722 20.9026 22.047 20.396C21.6218 19.8894 21.3136 19.2953 21.1441 18.656C20.9747 18.0167 20.9483 17.3479 21.0667 16.6973C21.1851 16.0466 21.4455 15.43 21.8294 14.8915C22.2132 14.3529 22.711 13.9055 23.2874 13.5812C23.8628 13.2575 24.5024 13.0644 25.1608 13.0155C25.4414 12.9931 25.7224 12.9975 26 13.028V9.00005H20.1625C19.8193 9.00005 19.5 8.82402 19.3168 8.53377C19.1336 8.24351 19.1121 7.87959 19.2598 7.56976C19.4179 7.23809 19.501 6.87565 19.503 6.50823C19.5051 6.14082 19.4262 5.77746 19.2719 5.44401C19.1176 5.11057 18.8917 4.81524 18.6102 4.57904C18.3288 4.34284 17.9987 4.17158 17.6436 4.07745ZM16.1972 2.06676C16.8479 1.94833 17.5167 1.97477 18.1559 2.1442C18.7952 2.31364 19.3893 2.6219 19.8959 3.04706C20.4025 3.47221 20.8092 4.00381 21.0869 4.60401C21.3647 5.20421 21.5068 5.85825 21.503 6.5196C21.5021 6.68051 21.4926 6.84088 21.4745 7.00005H26C26.5304 7.00005 27.0391 7.21076 27.4142 7.58584C27.7893 7.96091 28 8.46962 28 9.00005V14.3376C28 14.6808 27.8239 15.0001 27.5336 15.1833C27.2433 15.3665 26.8793 15.3879 26.5694 15.2401C26.1798 15.0543 25.7481 14.9747 25.3178 15.0093L25.3108 15.0099C24.9443 15.0368 24.5883 15.1441 24.2681 15.3243C23.9479 15.5045 23.6713 15.753 23.4581 16.0522C23.2448 16.3514 23.1002 16.694 23.0344 17.0554C22.9686 17.4169 22.9833 17.7885 23.0774 18.1436C23.1715 18.4988 23.3428 18.8288 23.579 19.1103C23.8152 19.3917 24.1105 19.6176 24.444 19.7719C24.7774 19.9263 25.1408 20.0052 25.5082 20.0031C25.8756 20.001 26.238 19.918 26.5697 19.7599C26.8795 19.6122 27.2435 19.6337 27.5337 19.8169C27.824 20.0001 28 20.3193 28 20.6626V26.0001C28 26.5305 27.7893 27.0392 27.4142 27.4143C27.0391 27.7893 26.5304 28.0001 26 28.0001H7.99999C7.46956 28.0001 6.96085 27.7893 6.58578 27.4143C6.2107 27.0392 5.99999 26.5305 5.99999 26.0001V21.9721C5.72229 22.0026 5.44125 22.007 5.16056 21.9846C4.50227 21.9357 3.86278 21.7426 3.28744 21.4189C2.71105 21.0946 2.21321 20.6472 1.82938 20.1086C1.44554 19.5701 1.18514 18.9535 1.0667 18.3028C0.948266 17.6522 0.974706 16.9834 1.14414 16.3441C1.31358 15.7048 1.62184 15.1107 2.047 14.6041C2.47215 14.0975 3.00375 13.6909 3.60395 13.4131C4.20415 13.1353 4.85819 12.9933 5.51954 12.997C5.68045 12.9979 5.84082 13.0075 5.99999 13.0255V9.00005C5.99999 8.46962 6.2107 7.96091 6.58578 7.58584C6.96085 7.21077 7.46956 7.00005 7.99999 7.00005H12.5279C12.4974 6.72243 12.493 6.44147 12.5154 6.16085C12.5643 5.50248 12.7575 4.8629 13.0812 4.2875C13.4055 3.71111 13.8528 3.21328 14.3914 2.82944C14.93 2.44561 15.5465 2.1852 16.1972 2.06676Z" fill="black"/>
</svg>
