<svg width="32" height="32" viewBox="0 0 32 32" fill="none" xmlns="http://www.w3.org/2000/svg">
<path fill-rule="evenodd" clip-rule="evenodd" d="M3.25247 5.91916C3.62755 5.54409 4.13625 5.33337 4.66669 5.33337H26.6667C27.1971 5.33337 27.7058 5.54409 28.0809 5.91916C28.456 6.29423 28.6667 6.80294 28.6667 7.33337V26.3334C28.6667 26.68 28.4872 27.0018 28.1924 27.184C27.8976 27.3662 27.5295 27.3828 27.2195 27.2278L23.6667 25.4514L20.1139 27.2278C19.8324 27.3686 19.501 27.3686 19.2195 27.2278L15.6667 25.4514L12.1139 27.2278C11.8324 27.3686 11.501 27.3686 11.2195 27.2278L7.66669 25.4514L4.1139 27.2278C3.80391 27.3828 3.43577 27.3662 3.14096 27.184C2.84614 27.0018 2.66669 26.68 2.66669 26.3334V7.33337C2.66669 6.80294 2.8774 6.29423 3.25247 5.91916ZM26.6667 7.33337L4.66669 7.33337L4.66669 24.7153L7.21947 23.4389C7.501 23.2982 7.83237 23.2982 8.1139 23.4389L11.6667 25.2153L15.2195 23.4389C15.501 23.2982 15.8324 23.2982 16.1139 23.4389L19.6667 25.2153L23.2195 23.4389C23.501 23.2982 23.8324 23.2982 24.1139 23.4389L26.6667 24.7153V7.33337ZM8.16669 13.3334C8.16669 12.7811 8.6144 12.3334 9.16669 12.3334H22.1667C22.719 12.3334 23.1667 12.7811 23.1667 13.3334C23.1667 13.8857 22.719 14.3334 22.1667 14.3334H9.16669C8.6144 14.3334 8.16669 13.8857 8.16669 13.3334ZM8.16669 17.3334C8.16669 16.7811 8.6144 16.3334 9.16669 16.3334H22.1667C22.719 16.3334 23.1667 16.7811 23.1667 17.3334C23.1667 17.8857 22.719 18.3334 22.1667 18.3334H9.16669C8.6144 18.3334 8.16669 17.8857 8.16669 17.3334Z" fill="black"/>
</svg>
