<svg width="32" height="32" viewBox="0 0 32 32" fill="none" xmlns="http://www.w3.org/2000/svg">
<path fill-rule="evenodd" clip-rule="evenodd" d="M17.9476 6.19275C16.0075 5.80624 13.9964 6.00379 12.1687 6.76043C10.341 7.51707 8.7787 8.79879 7.67952 10.4435C6.58035 12.0881 5.99365 14.0218 5.99365 16C5.99365 17.9782 6.58035 19.9119 7.67952 21.5566C8.7787 23.2012 10.341 24.4829 12.1687 25.2396C13.9964 25.9962 16.0075 26.1938 17.9476 25.8073C19.8876 25.4207 21.6694 24.4675 23.0676 23.0682C23.458 22.6775 24.0911 22.6772 24.4818 23.0676C24.8725 23.458 24.8728 24.0911 24.4824 24.4818C22.8046 26.161 20.6664 27.3049 18.3383 27.7687C16.0103 28.2325 13.597 27.9955 11.4037 27.0875C9.21043 26.1795 7.33571 24.6415 6.0167 22.6679C4.69769 20.6943 3.99365 18.3738 3.99365 16C3.99365 13.6262 4.69769 11.3057 6.0167 9.33214C7.33571 7.35854 9.21043 5.82048 11.4037 4.91251C13.597 4.00455 16.0103 3.76748 18.3383 4.2313C20.6661 4.69505 22.804 5.83868 24.4817 7.51752C24.4815 7.5173 24.482 7.51774 24.4817 7.51752L27.0249 10.0533V6.46249C27.0249 5.91021 27.4726 5.46249 28.0249 5.46249C28.5772 5.46249 29.0249 5.91021 29.0249 6.46249V12.4625C29.0249 13.0148 28.5772 13.4625 28.0249 13.4625H22.0249C21.4726 13.4625 21.0249 13.0148 21.0249 12.4625C21.0249 11.9102 21.4726 11.4625 22.0249 11.4625H25.6057L23.0676 8.93182C21.6694 7.53248 19.8876 6.57926 17.9476 6.19275Z" fill="black"/>
</svg>
