<svg width="32" height="32" viewBox="0 0 32 32" fill="none" xmlns="http://www.w3.org/2000/svg">
<path fill-rule="evenodd" clip-rule="evenodd" d="M15.04 2.24778C15.3343 2.08673 15.6645 2.00232 16 2.00232C16.3355 2.00232 16.6657 2.08673 16.96 2.24778L28.6052 8.62289C28.9257 8.79837 29.125 9.13471 29.125 9.50014C29.125 9.86556 28.9256 10.2019 28.605 10.3773L16.48 17.0123C16.1809 17.176 15.819 17.176 15.5199 17.0123L5 11.2545L5 21.9778L16.0002 28.0004C16.4847 28.2656 16.6624 28.8734 16.3971 29.3578C16.1319 29.8422 15.5242 30.0199 15.0398 29.7547L4.03977 23.7322C3.72574 23.5603 3.46359 23.3073 3.28069 22.9995C3.09775 22.6917 3.00082 22.3404 3 21.9823L3 21.9801V10.0226L3 10.0203C3.00061 9.75155 3.05536 9.48665 3.15996 9.24107C3.16907 9.21855 3.17906 9.19622 3.18994 9.17411C3.21734 9.11582 3.24761 9.05873 3.28069 9.00306C3.46359 8.69531 3.72573 8.44229 4.03977 8.27041L15.04 2.24778ZM5.95935 9.49957L16 4.00232L26.0422 9.49987L16 14.9951L5.95935 9.49957Z" fill="black"/>
<path fill-rule="evenodd" clip-rule="evenodd" d="M23.8447 18.0806C23.0661 17.9228 22.2583 17.9979 21.5222 18.2966C20.786 18.5953 20.1543 19.1043 19.7058 19.76C19.2573 20.4156 19.0119 21.189 19.0004 21.9833C18.9889 22.7776 19.2117 23.5577 19.641 24.2261C20.0703 24.8945 20.6871 25.4216 21.4142 25.7415C22.1414 26.0614 22.9467 26.1599 23.7295 26.0247C24.5123 25.8896 25.2379 25.5267 25.8157 24.9815C26.2174 24.6025 26.8503 24.6209 27.2293 25.0225C27.6084 25.4242 27.59 26.0571 27.1883 26.4362C26.3246 27.2511 25.2399 27.7935 24.0698 27.9956C22.8996 28.1976 21.6958 28.0503 20.6089 27.5722C19.5219 27.094 18.6 26.3061 17.9582 25.3069C17.3165 24.3078 16.9834 23.1416 17.0006 21.9543C17.0178 20.7669 17.3846 19.6109 18.055 18.6308C18.7254 17.6507 19.6698 16.8898 20.7702 16.4434C21.8706 15.9969 23.0781 15.8846 24.2419 16.1204C25.3982 16.3548 26.4604 16.9225 27.2976 17.7533L28 18.3962V17.917C28 17.3647 28.4477 16.917 29 16.917C29.5523 16.917 30 17.3647 30 17.917V20.667C30 21.2193 29.5523 21.667 29 21.667H26.2499C25.6976 21.667 25.2499 21.2193 25.2499 20.667C25.2499 20.1148 25.6976 19.667 26.2499 19.667H26.4263L25.9317 19.2144C25.9208 19.2044 25.9102 19.1943 25.8998 19.1838C25.338 18.6221 24.6232 18.2384 23.8447 18.0806Z" fill="black"/>
</svg>
