<svg width="32" height="32" viewBox="0 0 32 32" fill="none" xmlns="http://www.w3.org/2000/svg">
<path fill-rule="evenodd" clip-rule="evenodd" d="M13.3533 4.2313C15.6814 3.76748 18.0947 4.00455 20.2879 4.91251C22.4812 5.82048 24.356 7.35854 25.675 9.33214C26.994 11.3057 27.698 13.6262 27.698 16C27.698 18.3738 26.994 20.6943 25.675 22.6679C24.356 24.6415 22.4812 26.1795 20.2879 27.0875C18.0947 27.9955 15.6814 28.2325 13.3533 27.7687C11.0253 27.3049 8.8871 26.161 7.20926 24.4818C6.8189 24.0911 6.81916 23.458 7.20984 23.0676C7.60052 22.6772 8.23369 22.6775 8.62405 23.0682C10.0223 24.4675 11.8041 25.4207 13.7441 25.8073C15.6841 26.1938 17.6952 25.9962 19.523 25.2396C21.3507 24.4829 22.913 23.2012 24.0121 21.5566C25.1113 19.9119 25.698 17.9782 25.698 16C25.698 14.0218 25.1113 12.0881 24.0121 10.4435C22.913 8.79879 21.3507 7.51707 19.523 6.76043C17.6952 6.00379 15.6841 5.80624 13.7441 6.19275C11.8041 6.57926 10.0223 7.53248 8.62405 8.93182L6.08591 11.4625H8.66666C9.21894 11.4625 9.66666 11.9102 9.66666 12.4625C9.66666 13.0148 9.21894 13.4625 8.66666 13.4625H3.66666C3.11437 13.4625 2.66666 13.0148 2.66666 12.4625V7.46251C2.66666 6.91022 3.11437 6.46251 3.66666 6.46251C4.21894 6.46251 4.66666 6.91022 4.66666 7.46251V10.0533L7.20926 7.51819C8.88699 5.83938 11.0256 4.69505 13.3533 4.2313ZM15.6916 9.00001C16.2438 9.00001 16.6916 9.44772 16.6916 10V15.4224L21.3913 18.1338C21.8697 18.4098 22.0337 19.0213 21.7577 19.4997C21.4818 19.9781 20.8702 20.1422 20.3918 19.8662L15.1918 16.8662C14.8823 16.6876 14.6916 16.3574 14.6916 16V10C14.6916 9.44772 15.1393 9.00001 15.6916 9.00001Z" fill="black"/>
</svg>
