<svg width="32" height="32" viewBox="0 0 32 32" fill="none" xmlns="http://www.w3.org/2000/svg">
<path d="M19 28C19 28.2652 18.8946 28.5195 18.7071 28.7071C18.5196 28.8946 18.2652 29 18 29H14C13.7348 29 13.4804 28.8946 13.2929 28.7071C13.1053 28.5195 13 28.2652 13 28C13 27.7348 13.1053 27.4804 13.2929 27.2929C13.4804 27.1053 13.7348 27 14 27H18C18.2652 27 18.5196 27.1053 18.7071 27.2929C18.8946 27.4804 19 27.7348 19 28ZM16 14C16.2967 14 16.5867 13.912 16.8333 13.7472C17.08 13.5824 17.2723 13.3481 17.3858 13.074C17.4993 12.7999 17.529 12.4983 17.4712 12.2073C17.4133 11.9164 17.2704 11.6491 17.0606 11.4393C16.8509 11.2295 16.5836 11.0867 16.2926 11.0288C16.0016 10.9709 15.7001 11.0006 15.426 11.1142C15.1519 11.2277 14.9176 11.4199 14.7528 11.6666C14.588 11.9133 14.5 12.2033 14.5 12.5C14.5 12.8978 14.658 13.2793 14.9393 13.5606C15.2206 13.8419 15.6022 14 16 14ZM27.9525 19.4787L26.4075 26.4325C26.3342 26.7627 26.1783 27.0689 25.9545 27.3225C25.7307 27.5761 25.4462 27.7688 25.1276 27.8826C24.8091 27.9963 24.4669 28.0274 24.133 27.973C23.7992 27.9185 23.4846 27.7803 23.2187 27.5712L19.8137 25H12.1887L8.78124 27.5712C8.51535 27.7803 8.20077 27.9185 7.86693 27.973C7.53309 28.0274 7.19089 27.9963 6.87234 27.8826C6.55379 27.7688 6.26929 27.5761 6.04547 27.3225C5.82164 27.0689 5.66578 26.7627 5.59249 26.4325L4.04749 19.4787C3.98195 19.1803 3.98526 18.8709 4.05717 18.5739C4.12908 18.277 4.26769 18.0003 4.46249 17.765L8.03249 13.4825C8.15231 11.9086 8.51362 10.3626 9.10374 8.89872C10.7162 4.85622 13.6037 2.31997 14.775 1.41747C15.1256 1.14583 15.5565 0.998413 16 0.998413C16.4435 0.998413 16.8744 1.14583 17.225 1.41747C18.3925 2.31997 21.2837 4.85622 22.8962 8.89872C23.4864 10.3626 23.8477 11.9086 23.9675 13.4825L27.5375 17.765C27.7323 18.0003 27.8709 18.277 27.9428 18.5739C28.0147 18.8709 28.018 19.1803 27.9525 19.4787ZM12.4287 23H19.5712C22.2112 18.3075 22.705 13.815 21.0387 9.63997C19.5687 5.95497 16.8112 3.62497 16 2.99997C15.1862 3.62497 12.4287 5.95497 10.9587 9.63997C9.29499 13.815 9.78874 18.3075 12.4287 23ZM10.5537 23.7312C9.2079 21.2854 8.39124 18.8816 8.10374 16.52L5.99999 19.045L7.54499 26L7.56749 25.9837L10.5537 23.7312ZM26 19.045L23.8962 16.52C23.6112 18.8766 22.7962 21.2804 21.4512 23.7312L24.4325 25.9812L24.455 25.9975L26 19.045Z" fill="black"/>
</svg>
