<svg width="32" height="32" viewBox="0 0 32 32" fill="none" xmlns="http://www.w3.org/2000/svg">
<path d="M19 28C19 28.2652 18.8946 28.5195 18.7071 28.7071C18.5196 28.8946 18.2652 29 18 29H14C13.7348 29 13.4804 28.8946 13.2929 28.7071C13.1053 28.5195 13 28.2652 13 28C13 27.7348 13.1053 27.4804 13.2929 27.2929C13.4804 27.1053 13.7348 27 14 27H18C18.2652 27 18.5196 27.1053 18.7071 27.2929C18.8946 27.4804 19 27.7348 19 28ZM27.9525 19.4787L26.4075 26.4325C26.3342 26.7627 26.1783 27.0689 25.9545 27.3225C25.7307 27.5761 25.4462 27.7688 25.1276 27.8826C24.8091 27.9963 24.4669 28.0274 24.133 27.973C23.7992 27.9185 23.4846 27.7803 23.2187 27.5712L19.8137 25H12.1887L8.78124 27.5712C8.51535 27.7803 8.20077 27.9185 7.86693 27.973C7.53309 28.0274 7.19089 27.9963 6.87234 27.8826C6.55379 27.7688 6.26929 27.5761 6.04547 27.3225C5.82164 27.0689 5.66578 26.7627 5.59249 26.4325L4.04749 19.4787C3.98195 19.1803 3.98526 18.8709 4.05717 18.5739C4.12908 18.277 4.26769 18.0003 4.46249 17.765L8.03249 13.4825C8.15231 11.9086 8.51362 10.3626 9.10374 8.89872C10.7162 4.85622 13.6037 2.31997 14.775 1.41747C15.1256 1.14583 15.5565 0.998413 16 0.998413C16.4435 0.998413 16.8744 1.14583 17.225 1.41747C18.3925 2.31997 21.2837 4.85622 22.8962 8.89872C23.4864 10.3626 23.8477 11.9086 23.9675 13.4825L27.5375 17.765C27.7323 18.0003 27.8709 18.277 27.9428 18.5739C28.0147 18.8709 28.018 19.1803 27.9525 19.4787ZM10.5487 23.7287C9.20624 21.2846 8.39124 18.8816 8.10374 16.52L5.99999 19.045L7.54499 26L7.56749 25.9837L10.5487 23.7287ZM17.5 12.5C17.5 12.2033 17.412 11.9133 17.2472 11.6666C17.0824 11.4199 16.8481 11.2277 16.574 11.1142C16.2999 11.0006 15.9983 10.9709 15.7074 11.0288C15.4164 11.0867 15.1491 11.2295 14.9393 11.4393C14.7295 11.6491 14.5867 11.9164 14.5288 12.2073C14.4709 12.4983 14.5006 12.7999 14.6142 13.074C14.7277 13.3481 14.92 13.5824 15.1666 13.7472C15.4133 13.912 15.7033 14 16 14C16.3978 14 16.7793 13.8419 17.0606 13.5606C17.342 13.2793 17.5 12.8978 17.5 12.5ZM26 19.045L23.8962 16.52C23.6112 18.8766 22.7962 21.2804 21.4512 23.7312L24.4325 25.9812L24.455 25.9975L26 19.045Z" fill="black"/>
</svg>
