<svg width="32" height="32" viewBox="0 0 32 32" fill="none" xmlns="http://www.w3.org/2000/svg">
<path d="M29.415 9.17119L22.8288 2.58619C22.643 2.40043 22.4225 2.25307 22.1799 2.15253C21.9372 2.05199 21.6771 2.00024 21.4144 2.00024C21.1517 2.00024 20.8916 2.05199 20.6489 2.15253C20.4062 2.25307 20.1857 2.40043 20 2.58619L2.585 19.9999C2.39924 20.1857 2.25188 20.4062 2.15134 20.6488C2.0508 20.8915 1.99905 21.1516 1.99905 21.4143C1.99905 21.677 2.0508 21.9371 2.15134 22.1798C2.25188 22.4225 2.39924 22.643 2.585 22.8287L9.17125 29.4137C9.35698 29.5995 9.57747 29.7468 9.82016 29.8474C10.0628 29.9479 10.3229 29.9996 10.5856 29.9996C10.8483 29.9996 11.1084 29.9479 11.3511 29.8474C11.5938 29.7468 11.8143 29.5995 12 29.4137L29.415 11.9999C29.6008 11.8142 29.7481 11.5937 29.8487 11.351C29.9492 11.1084 30.001 10.8482 30.001 10.5856C30.001 10.3229 29.9492 10.0628 29.8487 9.82009C29.7481 9.57741 29.6008 9.35692 29.415 9.17119ZM10.585 27.9999L4 21.4137L8 17.4137L11.2925 20.7074C11.3854 20.8004 11.4957 20.8741 11.6171 20.9243C11.7385 20.9746 11.8686 21.0005 12 21.0005C12.1314 21.0005 12.2615 20.9746 12.3829 20.9243C12.5043 20.8741 12.6146 20.8004 12.7075 20.7074C12.8004 20.6145 12.8741 20.5042 12.9244 20.3828C12.9747 20.2614 13.0006 20.1313 13.0006 19.9999C13.0006 19.8685 12.9747 19.7384 12.9244 19.617C12.8741 19.4957 12.8004 19.3854 12.7075 19.2924L9.41375 15.9999L12 13.4137L15.2925 16.7074C15.4801 16.8951 15.7346 17.0005 16 17.0005C16.2654 17.0005 16.5199 16.8951 16.7075 16.7074C16.8951 16.5198 17.0006 16.2653 17.0006 15.9999C17.0006 15.7346 16.8951 15.4801 16.7075 15.2924L13.4138 11.9999L16 9.41369L19.2925 12.7074C19.3854 12.8004 19.4957 12.8741 19.6171 12.9243C19.7385 12.9746 19.8686 13.0005 20 13.0005C20.1314 13.0005 20.2615 12.9746 20.3829 12.9243C20.5043 12.8741 20.6146 12.8004 20.7075 12.7074C20.8004 12.6145 20.8741 12.5042 20.9244 12.3828C20.9747 12.2614 21.0006 12.1313 21.0006 11.9999C21.0006 11.8685 20.9747 11.7384 20.9244 11.617C20.8741 11.4957 20.8004 11.3854 20.7075 11.2924L17.4138 7.99994L21.4138 3.99994L28 10.5862L10.585 27.9999Z" fill="black"/>
</svg>
