<svg width="32" height="32" viewBox="0 0 32 32" fill="none" xmlns="http://www.w3.org/2000/svg">
<path fill-rule="evenodd" clip-rule="evenodd" d="M7.5 7C6.11929 7 5 8.11929 5 9.5C5 10.8807 6.11929 12 7.5 12C8.33835 12 9.08031 11.5873 9.53386 10.9541C9.5429 10.9393 9.55236 10.9247 9.56225 10.9102C9.57229 10.8956 9.58265 10.8812 9.59332 10.8673C9.85048 10.4744 10 10.0046 10 9.5C10 8.11929 8.88071 7 7.5 7ZM11.6869 11.1525C11.889 10.6409 12 10.0834 12 9.5C12 7.01472 9.98528 5 7.5 5C5.01472 5 3 7.01472 3 9.5C3 11.9853 5.01472 14 7.5 14C8.6801 14 9.75411 13.5457 10.5567 12.8025L15.2291 16.0001L10.5567 19.1975C9.75413 18.4543 8.68011 18 7.5 18C5.01472 18 3 20.0147 3 22.5C3 24.9853 5.01472 27 7.5 27C9.98528 27 12 24.9853 12 22.5C12 21.9166 11.889 21.3591 11.6869 20.8475L16.9998 17.2119L28.4352 25.0378C28.891 25.3497 29.5133 25.233 29.8253 24.7773C30.1372 24.3215 30.0205 23.6992 29.5648 23.3872L17.5908 15.1928C17.5738 15.1804 17.5565 15.1686 17.5389 15.1573L11.6869 11.1525ZM9.53387 21.0459C9.54289 21.0607 9.55235 21.0753 9.56223 21.0897C9.57227 21.1044 9.58264 21.1187 9.59331 21.1327C9.85048 21.5256 10 21.9954 10 22.5C10 23.8807 8.88071 25 7.5 25C6.11929 25 5 23.8807 5 22.5C5 21.1193 6.11929 20 7.5 20C8.33835 20 9.08032 20.4127 9.53387 21.0459ZM29.8254 7.22299C30.1372 7.67886 30.0204 8.30116 29.5645 8.61293L21.102 14.4004C20.6461 14.7122 20.0238 14.5954 19.7121 14.1395C19.4003 13.6836 19.5171 13.0613 19.973 12.7496L28.4355 6.96207C28.8914 6.6503 29.5137 6.76712 29.8254 7.22299Z" fill="black"/>
</svg>
