<svg width="32" height="32" viewBox="0 0 32 32" fill="none" xmlns="http://www.w3.org/2000/svg">
<path d="M22 14.4999C22 15.9833 21.5601 17.4334 20.736 18.6667C19.9119 19.9001 18.7406 20.8614 17.3701 21.429C15.9997 21.9967 14.4917 22.1452 13.0368 21.8558C11.582 21.5664 10.2456 20.8521 9.19669 19.8032C8.1478 18.7544 7.43349 17.418 7.14411 15.9631C6.85472 14.5083 7.00324 13.0003 7.5709 11.6298C8.13856 10.2594 9.09985 9.08804 10.3332 8.26393C11.5666 7.43982 13.0166 6.99995 14.5 6.99995C16.4891 6.99995 18.3968 7.79012 19.8033 9.19665C21.2098 10.6032 22 12.5108 22 14.4999ZM28.7 28.7124C28.5133 28.8963 28.262 28.9995 28 28.9999C27.7345 28.9988 27.4795 28.8959 27.2875 28.7124L21.8875 23.2999C19.6132 25.2102 16.6893 26.1687 13.7255 25.9756C10.7617 25.7824 7.9869 24.4525 5.97981 22.2632C3.97271 20.074 2.88829 17.1943 2.95271 14.225C3.01714 11.2556 4.22543 8.42571 6.32559 6.32555C8.42576 4.22539 11.2556 3.01709 14.225 2.95267C17.1944 2.88824 20.074 3.97266 22.2633 5.97976C24.4526 7.98686 25.7824 10.7617 25.9756 13.7255C26.1688 16.6892 25.2102 19.6132 23.3 21.8874L28.7 27.2874C28.7945 27.3805 28.8695 27.4914 28.9207 27.6137C28.9719 27.7361 28.9983 27.8673 28.9983 27.9999C28.9983 28.1326 28.9719 28.2638 28.9207 28.3862C28.8695 28.5085 28.7945 28.6194 28.7 28.7124ZM14.5 23.9999C16.3789 23.9999 18.2156 23.4428 19.7779 22.3989C21.3402 21.355 22.5578 19.8713 23.2768 18.1354C23.9959 16.3995 24.184 14.4894 23.8175 12.6466C23.4509 10.8038 22.5461 9.11103 21.2175 7.78243C19.8889 6.45384 18.1962 5.54905 16.3534 5.18249C14.5105 4.81593 12.6004 5.00406 10.8645 5.72309C9.1286 6.44213 7.64491 7.65977 6.60103 9.22203C5.55716 10.7843 5 12.621 5 14.4999C5.0033 17.0185 6.00525 19.4329 7.78613 21.2138C9.56701 22.9947 11.9815 23.9966 14.5 23.9999Z" fill="black"/>
</svg>
