<svg width="32" height="32" viewBox="0 0 32 32" fill="none" xmlns="http://www.w3.org/2000/svg">
<path fill-rule="evenodd" clip-rule="evenodd" d="M14.5 5C9.2533 5 5 9.25329 5 14.5C5 19.7467 9.2533 24 14.5 24C19.7467 24 24 19.7467 24 14.5C24 9.25329 19.7467 5 14.5 5ZM3 14.5C3 8.14873 8.14873 3 14.5 3C20.8513 3 26 8.14873 26 14.5C26 17.3156 24.9882 19.8948 23.3082 21.894L28.7072 27.2929C29.0977 27.6834 29.0977 28.3166 28.7072 28.7071C28.3166 29.0976 27.6835 29.0976 27.2929 28.7071L21.894 23.3082C19.8949 24.9881 17.3156 26 14.5 26C8.14873 26 3 20.8513 3 14.5Z" fill="black"/>
</svg>
