<svg width="32" height="32" viewBox="0 0 32 32" fill="none" xmlns="http://www.w3.org/2000/svg">
<path fill-rule="evenodd" clip-rule="evenodd" d="M22 4C20.3431 4 19 5.34315 19 7C19 7.5756 19.1621 8.11334 19.4432 8.57006C19.4555 8.58685 19.4674 8.60413 19.4788 8.62189C19.4898 8.63904 19.5002 8.6564 19.5101 8.67394C20.0489 9.47385 20.963 10 22 10C23.6569 10 25 8.65685 25 7C25 5.34315 23.6569 4 22 4ZM18.4203 10.4908C19.3284 11.4219 20.5967 12 22 12C24.7614 12 27 9.76142 27 7C27 4.23858 24.7614 2 22 2C19.2386 2 17 4.23858 17 7C17 7.63807 17.1195 8.24822 17.3374 8.80929L11.5797 12.5092C10.6716 11.5781 9.40334 11 8 11C5.23858 11 3 13.2386 3 16C3 18.7614 5.23858 21 8 21C9.40334 21 10.6716 20.4219 11.5797 19.4908L17.3374 23.1907C17.1195 23.7518 17 24.3619 17 25C17 27.7614 19.2386 30 22 30C24.7614 30 27 27.7614 27 25C27 22.2386 24.7614 20 22 20C20.5967 20 19.3284 20.5781 18.4203 21.5092L12.6626 17.8093C12.8805 17.2482 13 16.6381 13 16C13 15.3619 12.8805 14.7518 12.6626 14.1907L18.4203 10.4908ZM10.4899 14.3261C10.4998 14.3436 10.5102 14.361 10.5212 14.3781C10.5326 14.3959 10.5445 14.4131 10.5568 14.4299C10.8379 14.8866 11 15.4244 11 16C11 16.5756 10.8379 17.1134 10.5568 17.5701C10.5445 17.5869 10.5326 17.6041 10.5212 17.6219C10.5102 17.639 10.4998 17.6564 10.4899 17.6739C9.95112 18.4738 9.03701 19 8 19C6.34315 19 5 17.6569 5 16C5 14.3431 6.34315 13 8 13C9.03701 13 9.95112 13.5262 10.4899 14.3261ZM19.4432 23.43C19.4555 23.4132 19.4674 23.3959 19.4788 23.3781C19.4898 23.361 19.5002 23.3436 19.5101 23.3261C20.0489 22.5261 20.963 22 22 22C23.6569 22 25 23.3431 25 25C25 26.6569 23.6569 28 22 28C20.3431 28 19 26.6569 19 25C19 24.4244 19.1621 23.8867 19.4432 23.43Z" fill="black"/>
</svg>
