<svg width="32" height="32" viewBox="0 0 32 32" fill="none" xmlns="http://www.w3.org/2000/svg">
<path fill-rule="evenodd" clip-rule="evenodd" d="M1.58579 7.58579C1.96086 7.21071 2.46957 7 3 7H22C22.5523 7 23 7.44772 23 8V8.99999H27.325C27.7427 8.99999 28.1154 9.11854 28.4442 9.34065C28.7757 9.56469 29.0319 9.88359 29.1793 10.2556L30.9285 14.6286C30.9757 14.7467 31 14.8728 31 15V23C31 23.5304 30.7893 24.0391 30.4142 24.4142C30.0391 24.7893 29.5304 25 29 25H27.374C26.9299 26.7252 25.3638 28 23.5 28C21.6362 28 20.0701 26.7252 19.626 25H12.374C11.9299 26.7252 10.3638 28 8.5 28C6.63616 28 5.07006 26.7252 4.62602 25H3C2.46957 25 1.96086 24.7893 1.58579 24.4142C1.21071 24.0391 1 23.5304 1 23V9C1 8.46957 1.21071 7.96086 1.58579 7.58579ZM3 19V23H4.62602C5.07006 21.2748 6.63616 20 8.5 20C10.3638 20 11.9299 21.2748 12.374 23H19.626C19.8447 22.1504 20.3355 21.41 21 20.8773V19H3ZM21 17H3V9L21 9V17ZM23 20.0309C23.1638 20.0105 23.3307 20 23.5 20C25.3638 20 26.9299 21.2748 27.374 23H29V16L23 16V20.0309ZM23 14L28.523 14L27.323 11H23V14ZM8.5 22C7.39543 22 6.5 22.8954 6.5 24C6.5 25.1046 7.39543 26 8.5 26C9.60457 26 10.5 25.1046 10.5 24C10.5 22.8954 9.60457 22 8.5 22ZM23.5 22C22.3954 22 21.5 22.8954 21.5 24C21.5 25.1046 22.3954 26 23.5 26C24.6046 26 25.5 25.1046 25.5 24C25.5 22.8954 24.6046 22 23.5 22Z" fill="black"/>
</svg>
