<svg width="32" height="32" viewBox="0 0 32 32" fill="none" xmlns="http://www.w3.org/2000/svg">
<path d="M29.7075 22.2924C29.8005 22.3853 29.8742 22.4956 29.9246 22.617C29.9749 22.7384 30.0008 22.8685 30.0008 22.9999C30.0008 23.1314 29.9749 23.2615 29.9246 23.3829C29.8742 23.5043 29.8005 23.6146 29.7075 23.7074L26.7075 26.7074C26.5199 26.8951 26.2654 27.0005 26 27.0005C25.7346 27.0005 25.4801 26.8951 25.2925 26.7074C25.1049 26.5198 24.9994 26.2653 24.9994 25.9999C24.9994 25.7346 25.1049 25.4801 25.2925 25.2924L26.5863 23.9999H25.1175C23.6851 23.9988 22.2737 23.6563 21.0001 23.0009C19.7264 22.3455 18.6273 21.396 17.7938 20.2312L12.5787 12.9312C11.9304 12.0253 11.0755 11.2868 10.0849 10.7771C9.09433 10.2673 7.99655 10.0009 6.8825 9.99995H4C3.73478 9.99995 3.48043 9.89459 3.29289 9.70705C3.10536 9.51952 3 9.26516 3 8.99995C3 8.73473 3.10536 8.48038 3.29289 8.29284C3.48043 8.1053 3.73478 7.99995 4 7.99995H6.8825C8.31486 8.00114 9.72632 8.34362 10.9999 8.99901C12.2736 9.65441 13.3727 10.6039 14.2063 11.7687L19.4212 19.0687C20.0696 19.9746 20.9245 20.7131 21.9151 21.2228C22.9057 21.7325 24.0035 21.999 25.1175 21.9999H26.5863L25.2925 20.7074C25.1049 20.5198 24.9994 20.2653 24.9994 19.9999C24.9994 19.7346 25.1049 19.4801 25.2925 19.2924C25.4801 19.1048 25.7346 18.9994 26 18.9994C26.2654 18.9994 26.5199 19.1048 26.7075 19.2924L29.7075 22.2924ZM17.875 13.3749C17.9819 13.4513 18.1027 13.5058 18.2307 13.5354C18.3586 13.5651 18.4911 13.5692 18.6207 13.5476C18.7502 13.526 18.8742 13.4791 18.9856 13.4096C19.097 13.3401 19.1937 13.2493 19.27 13.1424L19.42 12.9337C20.0682 12.0271 20.9232 11.2881 21.914 10.7779C22.9049 10.2677 24.003 10.001 25.1175 9.99995H26.5863L25.2925 11.2924C25.1049 11.4801 24.9994 11.7346 24.9994 11.9999C24.9994 12.2653 25.1049 12.5198 25.2925 12.7074C25.4801 12.8951 25.7346 13.0005 26 13.0005C26.2654 13.0005 26.5199 12.8951 26.7075 12.7074L29.7075 9.70745C29.8005 9.61457 29.8742 9.50428 29.9246 9.38289C29.9749 9.26149 30.0008 9.13136 30.0008 8.99995C30.0008 8.86853 29.9749 8.7384 29.9246 8.61701C29.8742 8.49561 29.8005 8.38532 29.7075 8.29245L26.7075 5.29245C26.5199 5.10481 26.2654 4.99939 26 4.99939C25.7346 4.99939 25.4801 5.1048 25.2925 5.29245C25.1049 5.48009 24.9994 5.73458 24.9994 5.99995C24.9994 6.26531 25.1049 6.5198 25.2925 6.70745L26.5863 7.99995H25.1175C23.6851 8.00114 22.2737 8.34362 21.0001 8.99901C19.7264 9.65441 18.6273 10.6039 17.7938 11.7687L17.6437 11.9774C17.567 12.0843 17.512 12.2053 17.4821 12.3334C17.4521 12.4616 17.4478 12.5944 17.4693 12.7242C17.4908 12.854 17.5377 12.9783 17.6073 13.09C17.6769 13.2017 17.7679 13.2985 17.875 13.3749ZM14.125 18.6249C14.0181 18.5486 13.8973 18.4941 13.7693 18.4644C13.6414 18.4348 13.5089 18.4307 13.3793 18.4523C13.2498 18.4739 13.1258 18.5208 13.0144 18.5903C12.903 18.6598 12.8063 18.7506 12.73 18.8574L12.58 19.0662C11.9318 19.9728 11.0768 20.7118 10.086 21.222C9.09514 21.7322 7.99698 21.9989 6.8825 21.9999H4C3.73478 21.9999 3.48043 22.1053 3.29289 22.2928C3.10536 22.4804 3 22.7347 3 22.9999C3 23.2652 3.10536 23.5195 3.29289 23.7071C3.48043 23.8946 3.73478 23.9999 4 23.9999H6.8825C8.31486 23.9988 9.72632 23.6563 10.9999 23.0009C12.2736 22.3455 13.3727 21.396 14.2063 20.2312L14.3562 20.0224C14.433 19.9156 14.488 19.7946 14.5179 19.6665C14.5479 19.5383 14.5522 19.4055 14.5307 19.2757C14.5092 19.1459 14.4623 19.0216 14.3927 18.9099C14.3231 18.7982 14.2321 18.7014 14.125 18.6249Z" fill="black"/>
</svg>
