<svg width="32" height="32" viewBox="0 0 32 32" fill="none" xmlns="http://www.w3.org/2000/svg">
<path fill-rule="evenodd" clip-rule="evenodd" d="M28.2972 20.8328C28.6996 21.0576 29.0514 21.3258 29.2363 21.8298C29.4465 22.3918 29.3197 23.0335 28.8121 23.5773L28.8048 23.5846C28.6235 23.7912 28.3879 23.9726 28.0906 24.1357C27.4162 24.5091 26.8469 24.6868 26.4011 24.81C26.3176 24.8355 26.1581 24.8935 26.0856 24.9551C25.9841 25.042 25.9418 25.1538 25.8891 25.2931C25.8494 25.3978 25.8039 25.518 25.723 25.6548C25.549 25.9522 25.3351 26.1479 25.1611 26.2676C24.6131 26.646 24.0007 26.6698 23.3487 26.695L23.3374 26.6954C22.7428 26.7171 22.0721 26.7425 21.3071 26.9963C21.0125 27.0933 20.7013 27.2832 20.3419 27.5024C20.3253 27.5125 20.3087 27.5227 20.2919 27.5329C19.371 28.0985 18.1057 28.8744 16.0028 28.8744C13.9029 28.8744 12.649 28.1042 11.7284 27.5389L11.7246 27.5365C11.3439 27.3009 11.014 27.0978 10.695 26.9927C9.92632 26.7389 9.25556 26.7135 8.66459 26.6917L8.65331 26.6913C8.00129 26.6661 7.38884 26.6425 6.84091 26.2639C6.68863 26.1624 6.50735 25.9992 6.34782 25.7636C6.21808 25.577 6.15891 25.4191 6.10923 25.2866C6.05758 25.1488 6.01619 25.0383 5.91638 24.9515C5.83661 24.8826 5.65534 24.8246 5.5792 24.8028C5.13687 24.6795 4.57128 24.5019 3.91142 24.1357C3.63225 23.9798 3.40746 23.813 3.22981 23.6209C2.68959 23.0661 2.54819 22.4099 2.7621 21.8298C3.0035 21.1768 3.52492 20.9148 4.07156 20.6401C4.16531 20.593 4.2598 20.5455 4.35374 20.4956C5.56469 19.8394 6.5146 19.0164 7.17809 18.0447C7.39925 17.7184 7.55878 17.4211 7.66754 17.1782C7.72918 17.0005 7.72918 16.9063 7.68567 16.8156C7.64942 16.7395 7.53702 16.6561 7.50439 16.6343C7.33864 16.5238 7.16824 16.4133 7.03244 16.3253C6.99892 16.3035 6.96751 16.2832 6.9388 16.2645C6.6705 16.0905 6.46022 15.9527 6.32245 15.8585C5.80761 15.4995 5.44868 15.1188 5.22389 14.691C4.90846 14.0891 4.86858 13.4003 5.11149 12.755C5.4523 11.8594 6.30069 11.3011 7.32673 11.3011C7.54065 11.3011 7.75819 11.3228 7.9721 11.37C7.99929 11.3772 8.02739 11.3835 8.05548 11.3899C8.08358 11.3962 8.11168 11.4026 8.13887 11.4098C8.128 10.8007 8.1425 10.1517 8.19688 9.51364C8.38904 7.27665 9.17217 6.10195 9.99158 5.16655C10.3324 4.77861 10.9233 4.20576 11.8189 3.69455C13.0625 2.98393 14.4655 2.625 15.9956 2.625C17.5292 2.625 18.9359 2.98393 20.1759 3.69455C21.0641 4.20576 21.6587 4.77499 21.9996 5.16655C22.8189 6.10195 23.602 7.27302 23.7942 9.51364C23.8486 10.1482 23.8631 10.8007 23.8522 11.4098C23.9066 11.3953 23.961 11.3809 24.019 11.37C24.2366 11.3265 24.4505 11.3011 24.6644 11.3011C25.694 11.3011 26.5388 11.8594 26.8796 12.755C27.1225 13.4039 27.0827 14.0891 26.7672 14.691C26.5425 15.1188 26.1835 15.4995 25.6686 15.8585C25.5491 15.9424 25.3663 16.0609 25.1382 16.2089C25.1102 16.227 25.0816 16.2456 25.0523 16.2645C24.9903 16.3053 24.915 16.3544 24.8328 16.4079C24.718 16.4828 24.5896 16.5664 24.465 16.6489C24.4215 16.6815 24.338 16.7503 24.3054 16.8156C24.2655 16.899 24.2619 16.9933 24.3199 17.16C24.4324 17.4066 24.5919 17.7111 24.8203 18.0447C25.4982 19.0381 26.4735 19.8756 27.728 20.5391C27.8513 20.6007 27.9745 20.6624 28.0942 20.724C28.1522 20.753 28.2211 20.7893 28.2972 20.8328ZM25.8093 23.4241C26.2389 23.3091 26.7472 23.1731 27.3691 22.8305C28.0942 22.4281 27.6846 22.1815 27.4344 22.0655C23.3084 20.0678 22.6486 16.9824 22.6196 16.7504C22.6183 16.7397 22.6171 16.7291 22.6158 16.7185C22.5844 16.4578 22.5589 16.2463 22.8517 15.9745C23.0498 15.791 23.7107 15.3629 24.2307 15.026C24.4811 14.8638 24.6989 14.7228 24.8167 14.6403C25.4185 14.2233 25.6832 13.8028 25.4874 13.2879C25.3533 12.9326 25.0197 12.7985 24.6681 12.7985C24.5593 12.7985 24.4505 12.813 24.3418 12.8348C23.949 12.9189 23.5627 13.0698 23.2363 13.1973C23.0143 13.2841 22.8201 13.36 22.6703 13.3967C22.6196 13.4076 22.5724 13.4148 22.5326 13.4148C22.3368 13.4148 22.2643 13.3278 22.2788 13.0885C22.2801 13.0684 22.2815 13.0479 22.2828 13.0268C22.3312 12.2889 22.4207 10.9238 22.3114 9.64781C22.1555 7.84226 21.5718 6.94674 20.8793 6.15273C20.5493 5.77204 18.994 4.1224 15.9992 4.1224C13.0117 4.1224 11.4527 5.77204 11.1192 6.15273C10.4267 6.94311 9.84295 7.84226 9.68709 9.64781C9.58253 10.8685 9.66303 12.1707 9.70983 12.9273C9.71334 12.9842 9.71664 13.0381 9.71972 13.0885C9.73418 13.3169 9.66168 13.4148 9.4659 13.4148C9.42239 13.4148 9.37888 13.4076 9.32812 13.3967C9.17412 13.3604 8.97297 13.2821 8.74298 13.1925C8.42069 13.067 8.04179 12.9194 7.65672 12.8348C7.55158 12.813 7.43918 12.7985 7.33042 12.7985C6.97873 12.7985 6.64518 12.9326 6.51103 13.2879C6.31525 13.8028 6.57992 14.2197 7.18177 14.6403C7.29145 14.7159 7.48774 14.843 7.71631 14.9911C8.24332 15.3324 8.94201 15.7849 9.14685 15.9745C9.44591 16.2454 9.4172 16.4617 9.3821 16.7261C9.38104 16.7341 9.37996 16.7422 9.37888 16.7504C9.34988 16.9824 8.69365 20.0678 4.56408 22.0655C4.32117 22.1815 3.91147 22.4281 4.63659 22.8305C5.25965 23.1757 5.76977 23.3115 6.20023 23.4259C6.5563 23.5206 6.85786 23.6009 7.12376 23.7731C7.39444 23.9477 7.43273 24.2316 7.46826 24.495C7.4984 24.7185 7.52657 24.9273 7.69298 25.0421C7.88633 25.1757 8.24461 25.1894 8.72733 25.2078C9.358 25.2319 10.2011 25.264 11.1663 25.5823C11.647 25.7413 12.0649 25.9981 12.5052 26.2686C13.37 26.7999 14.3211 27.3843 16.0029 27.3843C17.6824 27.3843 18.6433 26.795 19.5109 26.263C19.9506 25.9933 20.3662 25.7384 20.8394 25.5823C21.8046 25.264 22.6477 25.2319 23.2784 25.2078C23.7611 25.1894 24.1194 25.1757 24.3128 25.0421C24.4813 24.9253 24.5093 24.7157 24.5392 24.4918C24.5742 24.2293 24.6119 23.9474 24.882 23.7731C25.1501 23.6004 25.4526 23.5195 25.8093 23.4241Z" fill="black"/>
</svg>
