<svg width="32" height="32" viewBox="0 0 32 32" fill="none" xmlns="http://www.w3.org/2000/svg">
<path d="M28.895 20.8288L25.3162 19.0401C24.3174 18.5447 23.4772 17.7794 22.8911 16.8309C22.305 15.8825 21.9963 14.7888 22 13.6738V10.0001C22 9.73484 21.8946 9.48048 21.7071 9.29295C21.5196 9.10541 21.2652 9.00005 21 9.00005C19.4092 8.9984 17.884 8.36573 16.7592 7.24087C15.6343 6.11601 15.0017 4.59084 15 3.00005C14.9998 2.81402 14.9478 2.63172 14.8497 2.47366C14.7516 2.31559 14.6113 2.18803 14.4447 2.1053C14.2781 2.02257 14.0917 1.98796 13.9065 2.00536C13.7212 2.02276 13.5445 2.09149 13.3962 2.2038L3.76625 9.50005L3.74125 9.52005C3.52343 9.69648 3.34513 9.91672 3.21792 10.1665C3.0907 10.4163 3.01741 10.69 3.00279 10.9699C2.98818 11.2498 3.03257 11.5297 3.13308 11.7914C3.2336 12.053 3.38799 12.2907 3.58625 12.4888L17.8 26.7076C17.8929 26.8004 18.0033 26.874 18.1247 26.9242C18.246 26.9744 18.3761 27.0002 18.5075 27.0001H28C28.5304 27.0001 29.0391 26.7893 29.4142 26.4143C29.7893 26.0392 30 25.5305 30 25.0001V22.6176C30.0012 22.246 29.8983 21.8815 29.703 21.5653C29.5077 21.2492 29.2278 20.9941 28.895 20.8288ZM28 25.0001H18.9212L5 11.0788L6.60875 9.8588L11.4575 14.7076C11.6451 14.8955 11.8998 15.0013 12.1654 15.0015C12.431 15.0017 12.6858 14.8964 12.8737 14.7088C13.0617 14.5212 13.1675 14.2665 13.1677 14.0009C13.1679 13.7353 13.0626 13.4805 12.875 13.2926L8.2175 8.6388L13.2175 4.85005C13.5965 6.43328 14.4483 7.86365 15.6599 8.95104C16.8714 10.0384 18.3852 10.7313 20 10.9376V13.6738C19.995 15.1605 20.4067 16.6189 21.1884 17.8835C21.9701 19.1482 23.0905 20.1685 24.4225 20.8288L28 22.6176V25.0001ZM8.85 23.0001H4C3.73478 23.0001 3.48043 22.8947 3.29289 22.7072C3.10536 22.5196 3 22.2653 3 22.0001C3 21.7348 3.10536 21.4805 3.29289 21.2929C3.48043 21.1054 3.73478 21.0001 4 21.0001H8.85C9.11522 21.0001 9.36957 21.1054 9.55711 21.2929C9.74464 21.4805 9.85 21.7348 9.85 22.0001C9.85 22.2653 9.74464 22.5196 9.55711 22.7072C9.36957 22.8947 9.11522 23.0001 8.85 23.0001ZM13.85 26.0001C13.85 26.2653 13.7446 26.5196 13.5571 26.7072C13.3696 26.8947 13.1152 27.0001 12.85 27.0001H6C5.73478 27.0001 5.48043 26.8947 5.29289 26.7072C5.10536 26.5196 5 26.2653 5 26.0001C5 25.7348 5.10536 25.4805 5.29289 25.2929C5.48043 25.1054 5.73478 25.0001 6 25.0001H12.85C13.1152 25.0001 13.3696 25.1054 13.5571 25.2929C13.7446 25.4805 13.85 25.7348 13.85 26.0001Z" fill="black"/>
</svg>
