<svg width="32" height="32" viewBox="0 0 32 32" fill="none" xmlns="http://www.w3.org/2000/svg">
<path d="M27.9713 18.7612C28.0026 18.8887 28.0086 19.0212 27.9887 19.1511C27.9689 19.2809 27.9237 19.4056 27.8557 19.5179C27.7876 19.6303 27.6982 19.7282 27.5923 19.8059C27.4865 19.8837 27.3663 19.9399 27.2388 19.9712L24.1588 20.7212L24.9663 23.7349C25.0003 23.8618 25.009 23.9942 24.9918 24.1244C24.9747 24.2547 24.932 24.3803 24.8663 24.494C24.8006 24.6078 24.7131 24.7075 24.6089 24.7874C24.5047 24.8674 24.3857 24.926 24.2588 24.9599C24.1746 24.9842 24.0876 24.9977 24 24.9999C23.78 24.9997 23.5663 24.927 23.3918 24.793C23.2173 24.659 23.0919 24.4712 23.035 24.2587L22.07 20.6587L17 17.7324V23.5862L19.7075 26.2924C19.8004 26.3854 19.8741 26.4957 19.9244 26.6171C19.9747 26.7384 20.0006 26.8686 20.0006 26.9999C20.0006 27.1313 19.9747 27.2614 19.9244 27.3828C19.8741 27.5042 19.8004 27.6145 19.7075 27.7074C19.6146 27.8004 19.5043 27.8741 19.3829 27.9243C19.2615 27.9746 19.1314 28.0005 19 28.0005C18.8686 28.0005 18.7385 27.9746 18.6171 27.9243C18.4957 27.8741 18.3854 27.8004 18.2925 27.7074L16 25.4137L13.7075 27.7074C13.6146 27.8004 13.5043 27.8741 13.3829 27.9243C13.2615 27.9746 13.1314 28.0005 13 28.0005C12.8686 28.0005 12.7385 27.9746 12.6171 27.9243C12.4957 27.8741 12.3854 27.8004 12.2925 27.7074C12.1996 27.6145 12.1259 27.5042 12.0756 27.3828C12.0253 27.2614 11.9995 27.1313 11.9995 26.9999C11.9995 26.8686 12.0253 26.7384 12.0756 26.6171C12.1259 26.4957 12.1996 26.3854 12.2925 26.2924L15 23.5862V17.7324L9.93126 20.6587L8.96626 24.2587C8.90929 24.4714 8.7837 24.6593 8.60899 24.7934C8.43428 24.9274 8.22021 25 8.00001 24.9999C7.91226 24.9998 7.82489 24.9885 7.74001 24.9662C7.6131 24.9322 7.49412 24.8736 7.38988 24.7937C7.28563 24.7137 7.19815 24.614 7.13245 24.5003C7.06675 24.3865 7.0241 24.2609 7.00696 24.1307C6.98981 24.0004 6.99849 23.8681 7.03251 23.7412L7.84001 20.7274L4.76001 19.9774C4.50242 19.9141 4.28053 19.7511 4.14316 19.5242C4.00579 19.2972 3.96419 19.025 4.02751 18.7674C4.09083 18.5099 4.25389 18.288 4.48081 18.1506C4.70773 18.0132 4.97992 17.9716 5.23751 18.0349L8.91876 18.9387L14 15.9999L8.92001 13.0674L5.23876 13.9712C5.16066 13.9905 5.08047 14.0002 5.00001 13.9999C4.7555 14.0001 4.5194 13.9107 4.33635 13.7486C4.15329 13.5865 4.03598 13.3629 4.00658 13.1202C3.97718 12.8774 4.03773 12.6323 4.17679 12.4312C4.31585 12.2301 4.52378 12.0869 4.76126 12.0287L7.84126 11.2787L7.03376 8.2587C6.96514 8.00243 7.00113 7.7294 7.13381 7.49967C7.26649 7.26994 7.485 7.10232 7.74126 7.0337C7.99753 6.96507 8.27056 7.00106 8.50029 7.13374C8.73002 7.26642 8.89764 7.48493 8.96626 7.7412L9.93126 11.3412L15 14.2674V8.4137L12.2925 5.70745C12.1049 5.5198 11.9995 5.26531 11.9995 4.99995C11.9995 4.86855 12.0253 4.73844 12.0756 4.61705C12.1259 4.49566 12.1996 4.38536 12.2925 4.29245C12.3854 4.19954 12.4957 4.12584 12.6171 4.07555C12.7385 4.02527 12.8686 3.99939 13 3.99939C13.2654 3.99939 13.5199 4.1048 13.7075 4.29245L16 6.5862L18.2925 4.29245C18.4802 4.10481 18.7346 3.99939 19 3.99939C19.2654 3.99939 19.5199 4.1048 19.7075 4.29245C19.8952 4.48009 20.0006 4.73458 20.0006 4.99995C20.0006 5.26531 19.8952 5.5198 19.7075 5.70745L17 8.4137V14.2674L22.0688 11.3412L23.0338 7.7412C23.1024 7.48493 23.27 7.26642 23.4997 7.13374C23.7295 7.00106 24.0025 6.96507 24.2588 7.0337C24.515 7.10232 24.7335 7.26994 24.8662 7.49967C24.9989 7.7294 25.0349 8.00243 24.9663 8.2587L24.1588 11.2724L27.2388 12.0224C27.4829 12.0746 27.6987 12.2161 27.8437 12.4193C27.9888 12.6224 28.0526 12.8724 28.0227 13.1203C27.9928 13.3681 27.8713 13.5957 27.682 13.7585C27.4928 13.9213 27.2495 14.0074 27 13.9999C26.9196 14.0002 26.8394 13.9905 26.7613 13.9712L23.08 13.0674L18 15.9999L23.08 18.9324L26.7613 18.0287C26.8888 17.9973 27.0213 17.9914 27.1511 18.0112C27.281 18.031 27.4056 18.0763 27.518 18.1443C27.6304 18.2123 27.7282 18.3018 27.806 18.4077C27.8838 18.5135 27.9399 18.6336 27.9713 18.7612Z" fill="black"/>
</svg>
