<svg width="32" height="32" viewBox="0 0 32 32" fill="none" xmlns="http://www.w3.org/2000/svg">
<path fill-rule="evenodd" clip-rule="evenodd" d="M5 7C5 5.89543 5.89543 5 7 5H13C14.1046 5 15 5.89543 15 7V13C15 14.1046 14.1046 15 13 15H7C5.89543 15 5 14.1046 5 13V7ZM13 7H7V13H13V7ZM17 7C17 5.89543 17.8954 5 19 5H25C26.1046 5 27 5.89543 27 7V13C27 14.1046 26.1046 15 25 15H19C17.8954 15 17 14.1046 17 13V7ZM25 7H19V13H25V7ZM5 19C5 17.8954 5.89543 17 7 17H13C14.1046 17 15 17.8954 15 19V25C15 26.1046 14.1046 27 13 27H7C5.89543 27 5 26.1046 5 25V19ZM13 19H7V25H13V19ZM22 17C22.5523 17 23 17.4477 23 18V21H26C26.5523 21 27 21.4477 27 22C27 22.5523 26.5523 23 26 23H23V26C23 26.5523 22.5523 27 22 27C21.4477 27 21 26.5523 21 26V23H18C17.4477 23 17 22.5523 17 22C17 21.4477 17.4477 21 18 21H21V18C21 17.4477 21.4477 17 22 17Z" fill="black"/>
</svg>
