<svg width="32" height="32" viewBox="0 0 32 32" fill="none" xmlns="http://www.w3.org/2000/svg">
<path d="M18 4C18 4.26522 17.8946 4.51957 17.7071 4.70711C17.5196 4.89464 17.2652 5 17 5H13C12.7348 5 12.4804 4.89464 12.2929 4.70711C12.1054 4.51957 12 4.26522 12 4C12 3.73478 12.1054 3.48043 12.2929 3.29289C12.4804 3.10536 12.7348 3 13 3H17C17.2652 3 17.5196 3.10536 17.7071 3.29289C17.8946 3.48043 18 3.73478 18 4ZM17 25H13C12.7348 25 12.4804 25.1054 12.2929 25.2929C12.1054 25.4804 12 25.7348 12 26C12 26.2652 12.1054 26.5196 12.2929 26.7071C12.4804 26.8946 12.7348 27 13 27H17C17.2652 27 17.5196 26.8946 17.7071 26.7071C17.8946 26.5196 18 26.2652 18 26C18 25.7348 17.8946 25.4804 17.7071 25.2929C17.5196 25.1054 17.2652 25 17 25ZM25 5V8C25 8.26522 25.1054 8.51957 25.2929 8.70711C25.4804 8.89464 25.7348 9 26 9C26.2652 9 26.5196 8.89464 26.7071 8.70711C26.8946 8.51957 27 8.26522 27 8V5C27 4.46957 26.7893 3.96086 26.4142 3.58579C26.0391 3.21071 25.5304 3 25 3H22C21.7348 3 21.4804 3.10536 21.2929 3.29289C21.1054 3.48043 21 3.73478 21 4C21 4.26522 21.1054 4.51957 21.2929 4.70711C21.4804 4.89464 21.7348 5 22 5H25ZM26 12C25.7348 12 25.4804 12.1054 25.2929 12.2929C25.1054 12.4804 25 12.7348 25 13V17C25 17.2652 25.1054 17.5196 25.2929 17.7071C25.4804 17.8946 25.7348 18 26 18C26.2652 18 26.5196 17.8946 26.7071 17.7071C26.8946 17.5196 27 17.2652 27 17V13C27 12.7348 26.8946 12.4804 26.7071 12.2929C26.5196 12.1054 26.2652 12 26 12ZM4 18C4.26522 18 4.51957 17.8946 4.70711 17.7071C4.89464 17.5196 5 17.2652 5 17V13C5 12.7348 4.89464 12.4804 4.70711 12.2929C4.51957 12.1054 4.26522 12 4 12C3.73478 12 3.48043 12.1054 3.29289 12.2929C3.10536 12.4804 3 12.7348 3 13V17C3 17.2652 3.10536 17.5196 3.29289 17.7071C3.48043 17.8946 3.73478 18 4 18ZM8 25H5V22C5 21.7348 4.89464 21.4804 4.70711 21.2929C4.51957 21.1054 4.26522 21 4 21C3.73478 21 3.48043 21.1054 3.29289 21.2929C3.10536 21.4804 3 21.7348 3 22V25C3 25.5304 3.21071 26.0391 3.58579 26.4142C3.96086 26.7893 4.46957 27 5 27H8C8.26522 27 8.51957 26.8946 8.70711 26.7071C8.89464 26.5196 9 26.2652 9 26C9 25.7348 8.89464 25.4804 8.70711 25.2929C8.51957 25.1054 8.26522 25 8 25ZM8 3H5C4.46957 3 3.96086 3.21071 3.58579 3.58579C3.21071 3.96086 3 4.46957 3 5V8C3 8.26522 3.10536 8.51957 3.29289 8.70711C3.48043 8.89464 3.73478 9 4 9C4.26522 9 4.51957 8.89464 4.70711 8.70711C4.89464 8.51957 5 8.26522 5 8V5H8C8.26522 5 8.51957 4.89464 8.70711 4.70711C8.89464 4.51957 9 4.26522 9 4C9 3.73478 8.89464 3.48043 8.70711 3.29289C8.51957 3.10536 8.26522 3 8 3ZM29 25H27V23C27 22.7348 26.8946 22.4804 26.7071 22.2929C26.5196 22.1054 26.2652 22 26 22C25.7348 22 25.4804 22.1054 25.2929 22.2929C25.1054 22.4804 25 22.7348 25 23V25H23C22.7348 25 22.4804 25.1054 22.2929 25.2929C22.1054 25.4804 22 25.7348 22 26C22 26.2652 22.1054 26.5196 22.2929 26.7071C22.4804 26.8946 22.7348 27 23 27H25V29C25 29.2652 25.1054 29.5196 25.2929 29.7071C25.4804 29.8946 25.7348 30 26 30C26.2652 30 26.5196 29.8946 26.7071 29.7071C26.8946 29.5196 27 29.2652 27 29V27H29C29.2652 27 29.5196 26.8946 29.7071 26.7071C29.8946 26.5196 30 26.2652 30 26C30 25.7348 29.8946 25.4804 29.7071 25.2929C29.5196 25.1054 29.2652 25 29 25Z" fill="black"/>
</svg>
