<svg width="32" height="32" viewBox="0 0 32 32" fill="none" xmlns="http://www.w3.org/2000/svg">
<path d="M1.5 13.8751L15.5 21.8751C15.6511 21.9614 15.8222 22.0069 15.9963 22.0069C16.1703 22.0069 16.3414 21.9614 16.4925 21.8751L30.4925 13.8751C30.6458 13.7877 30.7733 13.6613 30.8619 13.5087C30.9506 13.3561 30.9973 13.1828 30.9973 13.0063C30.9973 12.8298 30.9506 12.6565 30.8619 12.5039C30.7733 12.3514 30.6458 12.225 30.4925 12.1376L16.4925 4.13756C16.3414 4.05118 16.1703 4.00574 15.9963 4.00574C15.8222 4.00574 15.6511 4.05118 15.5 4.13756L1.5 12.1376C1.3467 12.225 1.21925 12.3514 1.1306 12.5039C1.04195 12.6565 0.995255 12.8298 0.995255 13.0063C0.995255 13.1828 1.04195 13.3561 1.1306 13.5087C1.21925 13.6613 1.3467 13.7877 1.5 13.8751ZM16 6.15131L27.9838 13.0001L16 19.8488L4.01625 13.0001L16 6.15131ZM30.8675 17.5001C30.9345 17.6143 30.9782 17.7406 30.996 17.8718C31.0137 18.003 31.0053 18.1364 30.9711 18.2644C30.9369 18.3923 30.8777 18.5121 30.7968 18.617C30.7159 18.7218 30.615 18.8095 30.5 18.8751L16.5 26.8751C16.3489 26.9614 16.1778 27.0069 16.0038 27.0069C15.8297 27.0069 15.6586 26.9614 15.5075 26.8751L1.5 18.8751C1.38551 18.8094 1.28507 18.7218 1.20441 18.6173C1.12376 18.5129 1.06447 18.3935 1.02994 18.2661C0.99541 18.1387 0.986308 18.0058 1.00316 17.8749C1.02 17.744 1.06247 17.6177 1.12813 17.5032C1.19379 17.3887 1.28136 17.2882 1.38584 17.2076C1.49032 17.1269 1.60966 17.0676 1.73705 17.0331C1.99433 16.9634 2.26877 16.9987 2.5 17.1313L16 24.8488L29.5 17.1313C29.614 17.0655 29.7398 17.0229 29.8702 17.0058C30.0007 16.9888 30.1332 16.9976 30.2603 17.0319C30.3873 17.0661 30.5064 17.1251 30.6106 17.2054C30.7148 17.2858 30.8021 17.3859 30.8675 17.5001Z" fill="black"/>
</svg>
