<svg width="32" height="32" viewBox="0 0 32 32" fill="none" xmlns="http://www.w3.org/2000/svg">
<path d="M29.9002 11.1622C29.7791 10.7889 29.5509 10.4595 29.2441 10.2149C28.9372 9.97042 28.5652 9.82161 28.1744 9.78705L20.7526 9.14697L17.8434 2.22615C17.6919 1.863 17.4364 1.5528 17.1091 1.33461C16.7818 1.11642 16.3972 1 16.0039 1C15.6105 1 15.226 1.11642 14.8987 1.33461C14.5713 1.5528 14.3158 1.863 14.1644 2.22615L11.2639 9.14697L3.83336 9.78955C3.44073 9.82229 3.06652 9.97035 2.75771 10.2151C2.44891 10.4599 2.21928 10.7905 2.09765 11.1654C1.97603 11.5403 1.96783 11.9428 2.07409 12.3223C2.18035 12.7019 2.39633 13.0416 2.69492 13.2987L8.33217 18.2268L6.64261 25.5452C6.55328 25.9282 6.57877 26.329 6.7159 26.6975C6.85304 27.0661 7.09574 27.386 7.41365 27.6174C7.73157 27.8487 8.11059 27.9811 8.50334 27.9981C8.89608 28.0151 9.28512 27.9159 9.62182 27.7129L15.9951 23.8375L22.3822 27.7129C22.7189 27.9159 23.1079 28.0151 23.5007 27.9981C23.8934 27.9811 24.2724 27.8487 24.5903 27.6174C24.9083 27.386 25.151 27.0661 25.2881 26.6975C25.4252 26.329 25.4507 25.9282 25.3614 25.5452L23.6731 18.2193L29.3091 13.2987C29.6072 13.0406 29.8224 12.7 29.9276 12.3199C30.0327 11.9397 30.0232 11.537 29.9002 11.1622ZM27.9982 11.7873L22.3622 16.7079C22.0879 16.9466 21.8838 17.2556 21.772 17.6016C21.6601 17.9477 21.6447 18.3177 21.7274 18.6719L23.4207 26.0027L17.0386 22.1273C16.7272 21.9376 16.3697 21.8372 16.0051 21.8372V3.01124L18.9044 9.92207C19.0452 10.2579 19.275 10.549 19.569 10.7638C19.863 10.9786 20.21 11.109 20.5727 11.141L28.0007 11.7835C28.0007 11.7835 28.0007 11.791 28.0007 11.7923L27.9982 11.7873Z" fill="black"/>
</svg>
