<svg width="32" height="32" viewBox="0 0 32 32" fill="none" xmlns="http://www.w3.org/2000/svg">
<path d="M29.3004 13.2987L23.6667 18.2193L25.3543 25.5452C25.4436 25.9282 25.4182 26.329 25.2811 26.6975C25.144 27.0661 24.9014 27.386 24.5836 27.6174C24.2658 27.8487 23.887 27.9811 23.4944 27.9981C23.1018 28.0151 22.7129 27.9159 22.3763 27.7129L15.9919 23.8375L9.62116 27.7129C9.2846 27.9159 8.89571 28.0151 8.50313 27.9981C8.11054 27.9811 7.73167 27.8487 7.41388 27.6174C7.0961 27.386 6.8535 27.0661 6.71642 26.6975C6.57934 26.329 6.55386 25.9282 6.64316 25.5452L8.32828 18.2268L2.69331 13.2987C2.39527 13.0415 2.17976 12.7019 2.0738 12.3225C1.96784 11.9432 1.97614 11.541 2.09768 11.1664C2.21921 10.7917 2.44856 10.4613 2.75697 10.2166C3.06537 9.97192 3.43911 9.82378 3.8313 9.7908L11.2588 9.14697L14.1581 2.22615C14.3095 1.863 14.5649 1.5528 14.8921 1.33461C15.2193 1.11642 15.6037 1 15.9969 1C16.3901 1 16.7745 1.11642 17.1017 1.33461C17.4289 1.5528 17.6842 1.863 17.8356 2.22615L20.7437 9.14697L28.1687 9.7908C28.5609 9.82378 28.9346 9.97192 29.243 10.2166C29.5514 10.4613 29.7808 10.7917 29.9023 11.1664C30.0239 11.541 30.0322 11.9432 29.9262 12.3225C29.8202 12.7019 29.6047 13.0415 29.3067 13.2987H29.3004Z" fill="black"/>
</svg>
