<svg width="32" height="32" viewBox="0 0 32 32" fill="none" xmlns="http://www.w3.org/2000/svg">
<path d="M29.9002 11.1622C29.7791 10.7889 29.5509 10.4595 29.244 10.2149C28.9371 9.97042 28.5651 9.82161 28.1743 9.78705L20.7522 9.14697L17.8428 2.22615C17.6913 1.863 17.4358 1.5528 17.1085 1.33461C16.7811 1.11642 16.3966 1 16.0032 1C15.6099 1 15.2253 1.11642 14.8979 1.33461C14.5706 1.5528 14.3151 1.863 14.1636 2.22615L11.263 9.14697L3.83213 9.7908C3.43976 9.82378 3.06586 9.97192 2.75731 10.2166C2.44876 10.4613 2.21931 10.7917 2.09772 11.1664C1.97613 11.541 1.96782 11.9432 2.07383 12.3225C2.17984 12.7019 2.39545 13.0415 2.69363 13.2987L8.33114 18.2268L6.64151 25.5452C6.55217 25.9282 6.57766 26.329 6.71481 26.6975C6.85195 27.0661 7.09466 27.386 7.41259 27.6174C7.73052 27.8487 8.10956 27.9811 8.50232 27.9981C8.89509 28.0151 9.28415 27.9159 9.62086 27.7129L15.9945 23.8375L22.3818 27.7129C22.7185 27.9159 23.1076 28.0151 23.5004 27.9981C23.8931 27.9811 24.2722 27.8487 24.5901 27.6174C24.908 27.386 25.1507 27.0661 25.2879 26.6975C25.425 26.329 25.4505 25.9282 25.3612 25.5452L23.6728 18.2193L29.3091 13.2987C29.6072 13.0406 29.8224 12.7 29.9276 12.3199C30.0327 11.9397 30.0232 11.537 29.9002 11.1622ZM27.9981 11.7873L22.3618 16.7079C22.0875 16.9466 21.8834 17.2556 21.7716 17.6016C21.6597 17.9477 21.6443 18.3177 21.727 18.6719L23.4203 26.0027L17.038 22.1273C16.7266 21.9376 16.369 21.8372 16.0045 21.8372C15.6399 21.8372 15.2823 21.9376 14.9709 22.1273L8.59733 26.0027L10.2795 18.6769C10.3621 18.3227 10.3467 17.9527 10.2348 17.6066C10.123 17.2606 9.91892 16.9516 9.64461 16.7129L4.00584 11.7948C4.00538 11.7911 4.00538 11.7873 4.00584 11.7835L11.4342 11.141C11.7969 11.109 12.1439 10.9786 12.438 10.7638C12.732 10.549 12.9618 10.2579 13.1026 9.92207L16.0032 3.00999L18.9026 9.92207C19.0434 10.2579 19.2732 10.549 19.5672 10.7638C19.8612 10.9786 20.2083 11.109 20.571 11.141L28.0006 11.7835C28.0006 11.7835 28.0006 11.791 28.0006 11.7923L27.9981 11.7873Z" fill="black"/>
</svg>
