<svg width="32" height="32" viewBox="0 0 32 32" fill="none" xmlns="http://www.w3.org/2000/svg">
<path d="M28.6875 14.125L20.7587 11.25L17.875 3.31245C17.7329 2.9297 17.4771 2.59959 17.1419 2.36648C16.8068 2.13337 16.4083 2.00842 16 2.00842C15.5917 2.00842 15.1932 2.13337 14.8581 2.36648C14.5229 2.59959 14.2671 2.9297 14.125 3.31245L11.25 11.2412L3.3125 14.125C2.92974 14.267 2.59964 14.5228 2.36653 14.858C2.13342 15.1932 2.00847 15.5917 2.00847 16C2.00847 16.4082 2.13342 16.8067 2.36653 17.1419C2.59964 17.4771 2.92974 17.7329 3.3125 17.875L11.2412 20.75L14.125 28.6875C14.2671 29.0702 14.5229 29.4003 14.8581 29.6334C15.1932 29.8665 15.5917 29.9915 16 29.9915C16.4083 29.9915 16.8068 29.8665 17.1419 29.6334C17.4771 29.4003 17.7329 29.0702 17.875 28.6875L20.7587 20.7575L28.6875 17.875C29.0702 17.7329 29.4004 17.4771 29.6335 17.1419C29.8666 16.8067 29.9915 16.4082 29.9915 16C29.9915 15.5917 29.8666 15.1932 29.6335 14.858C29.4004 14.5228 29.0702 14.267 28.6875 14.125ZM20.0712 18.875C19.7976 18.9749 19.5491 19.1334 19.3432 19.3394C19.1372 19.5453 18.9787 19.7938 18.8787 20.0674L16 27.9874L13.125 20.0712C13.0251 19.7965 12.8663 19.547 12.6596 19.3404C12.4529 19.1337 12.2034 18.9748 11.9287 18.875L4.0125 16L11.9287 13.125C12.2034 13.0251 12.4529 12.8662 12.6596 12.6595C12.8663 12.4529 13.0251 12.2034 13.125 11.9287L16 4.01245L18.875 11.9287C18.9749 12.2023 19.1334 12.4508 19.3394 12.6568C19.5454 12.8628 19.7939 13.0213 20.0675 13.1212L27.9837 15.9962L20.0712 18.875Z" fill="black"/>
</svg>
