<svg width="32" height="32" viewBox="0 0 32 32" fill="none" xmlns="http://www.w3.org/2000/svg">
<path fill-rule="evenodd" clip-rule="evenodd" d="M6.74177 4.00003L25.2582 4C25.6894 4.00355 26.1081 4.14554 26.4525 4.40498C26.7969 4.66442 27.0489 5.02763 27.1713 5.44109L28.9617 11.726C28.9871 11.8151 29 11.9074 29 12V14C29 15.3261 28.4732 16.5979 27.5355 17.5355C27.3672 17.7038 27.1882 17.8589 27 18V26C27 26.5304 26.7893 27.0391 26.4142 27.4142C26.0391 27.7893 25.5304 28 25 28H7C6.46957 28 5.96086 27.7893 5.58579 27.4142C5.21071 27.0392 5 26.5304 5 26V18C4.81181 17.8589 4.63276 17.7038 4.46447 17.5355C3.52678 16.5979 3 15.3261 3 14V12C3 11.9074 3.01288 11.8151 3.03826 11.726L4.8286 5.44107C4.95103 5.02761 5.20307 4.66442 5.5475 4.40498C5.89193 4.14554 6.31058 4.00358 6.74177 4.00003ZM6.61397 16.6606C6.54269 16.6051 6.46369 16.559 6.37886 16.5243C6.19956 16.4091 6.0317 16.2743 5.87868 16.1213C5.31607 15.5587 5 14.7957 5 14V13H11V14C11 14.7957 10.6839 15.5587 10.1213 16.1213C9.55871 16.6839 8.79565 17 8 17C7.51294 17 7.03809 16.8816 6.61397 16.6606ZM7 18.899V26H25V18.899C24.6733 18.9657 24.3384 19 24 19C22.6739 19 21.4021 18.4732 20.4645 17.5355C20.2962 17.3673 20.1411 17.1882 20 17C19.8589 17.1882 19.7038 17.3673 19.5355 17.5355C18.5979 18.4732 17.3261 19 16 19C14.6739 19 13.4021 18.4732 12.4645 17.5355C12.2962 17.3673 12.1411 17.1882 12 17C11.8589 17.1882 11.7038 17.3673 11.5355 17.5355C10.5979 18.4732 9.32608 19 8 19C7.66158 19 7.3267 18.9657 7 18.899ZM13 14C13 14.7957 13.3161 15.5587 13.8787 16.1213C14.4413 16.6839 15.2044 17 16 17C16.7956 17 17.5587 16.6839 18.1213 16.1213C18.6839 15.5587 19 14.7957 19 14V13H13V14ZM26.6754 11L25.2533 6.00794L6.75741 6L5.32464 11H26.6754ZM27 13H21V14C21 14.7957 21.3161 15.5587 21.8787 16.1213C22.4413 16.6839 23.2044 17 24 17C24.4871 17 24.9619 16.8816 25.386 16.6606C25.4573 16.6051 25.5363 16.559 25.6211 16.5243C25.8004 16.4091 25.9683 16.2744 26.1213 16.1213C26.6839 15.5587 27 14.7957 27 14V13Z" fill="black"/>
</svg>
