<svg width="32" height="32" viewBox="0 0 32 32" fill="none" xmlns="http://www.w3.org/2000/svg">
<path d="M30 20.3333H24.9438C24.9807 20.0012 24.9994 19.6674 25 19.3333C25 16.9463 24.0518 14.6571 22.364 12.9693C20.6761 11.2815 18.3869 10.3333 16 10.3333C13.6131 10.3333 11.3239 11.2815 9.63604 12.9693C7.94821 14.6571 7 16.9463 7 19.3333C7.00056 19.6674 7.01934 20.0012 7.05625 20.3333H2C1.73478 20.3333 1.48043 20.4386 1.29289 20.6262C1.10536 20.8137 1 21.0681 1 21.3333C1 21.5985 1.10536 21.8529 1.29289 22.0404C1.48043 22.2279 1.73478 22.3333 2 22.3333H30C30.2652 22.3333 30.5196 22.2279 30.7071 22.0404C30.8946 21.8529 31 21.5985 31 21.3333C31 21.0681 30.8946 20.8137 30.7071 20.6262C30.5196 20.4386 30.2652 20.3333 30 20.3333ZM9 19.3333C8.99816 18.3707 9.19489 17.418 9.57788 16.5349C9.96087 15.6517 10.5219 14.8571 11.2259 14.2005C11.9299 13.544 12.7618 13.0398 13.6695 12.7193C14.5772 12.3988 15.5412 12.269 16.5013 12.3379C17.4615 12.4069 18.3971 12.6731 19.2497 13.12C20.1023 13.5669 20.8536 14.1848 21.4565 14.9352C22.0595 15.6855 22.5012 16.5522 22.7541 17.481C23.007 18.4098 23.0656 19.3808 22.9263 20.3333H9.07375C9.02535 20.0021 9.0007 19.6679 9 19.3333ZM27 26.3333C27 26.5985 26.8946 26.8529 26.7071 27.0404C26.5196 27.2279 26.2652 27.3333 26 27.3333H6C5.73478 27.3333 5.48043 27.2279 5.29289 27.0404C5.10536 26.8529 5 26.5985 5 26.3333C5 26.0681 5.10536 25.8137 5.29289 25.6262C5.48043 25.4386 5.73478 25.3333 6 25.3333H26C26.2652 25.3333 26.5196 25.4386 26.7071 25.6262C26.8946 25.8137 27 26.0681 27 26.3333ZM9.105 6.78078C8.98632 6.54341 8.96679 6.26862 9.05071 6.01685C9.13463 5.76509 9.31513 5.55697 9.5525 5.43828C9.78987 5.3196 10.0647 5.30007 10.3164 5.38399C10.5682 5.46791 10.7763 5.64841 10.895 5.88578L11.895 7.88578C11.9538 8.00332 11.9888 8.13127 11.9981 8.26235C12.0074 8.39342 11.9908 8.52505 11.9493 8.64971C11.9077 8.77438 11.842 8.88963 11.7559 8.9889C11.6698 9.08818 11.565 9.16952 11.4475 9.22828C11.33 9.28705 11.202 9.32209 11.0709 9.33141C10.9399 9.34072 10.8082 9.32413 10.6836 9.28257C10.5589 9.24102 10.4436 9.17532 10.3444 9.08922C10.2451 9.00312 10.1638 8.89832 10.105 8.78078L9.105 6.78078ZM2.105 12.8858C2.16381 12.7683 2.2452 12.6636 2.34451 12.5775C2.44382 12.4915 2.55911 12.4259 2.68378 12.3845C2.80846 12.343 2.94008 12.3266 3.07112 12.336C3.20216 12.3455 3.33006 12.3806 3.4475 12.4395L5.4475 13.4395C5.6847 13.5582 5.86504 13.7663 5.94885 14.0179C6.03265 14.2696 6.01306 14.5442 5.89437 14.7814C5.77569 15.0186 5.56764 15.199 5.31599 15.2828C5.06434 15.3666 4.7897 15.347 4.5525 15.2283L2.5525 14.2283C2.43491 14.1696 2.33004 14.0883 2.2439 13.989C2.15775 13.8898 2.09202 13.7745 2.05046 13.6498C2.0089 13.5251 1.99232 13.3935 2.00168 13.2624C2.01104 13.1313 2.04615 13.0033 2.105 12.8858ZM26.105 14.7808C25.9865 14.5436 25.9671 14.269 26.051 14.0175C26.135 13.766 26.3153 13.5581 26.5525 13.4395L28.5525 12.4395C28.67 12.3808 28.7978 12.3457 28.9288 12.3364C29.0598 12.327 29.1914 12.3436 29.316 12.3851C29.4406 12.4266 29.5558 12.4922 29.655 12.5782C29.7543 12.6642 29.8356 12.769 29.8944 12.8864C29.9531 13.0039 29.9882 13.1317 29.9975 13.2627C30.0069 13.3937 29.9903 13.5253 29.9488 13.6499C29.9074 13.7745 29.8417 13.8897 29.7557 13.989C29.6697 14.0882 29.565 14.1695 29.4475 14.2283L27.4475 15.2283C27.33 15.2871 27.202 15.3222 27.0709 15.3316C26.9398 15.341 26.8082 15.3244 26.6835 15.2828C26.5588 15.2413 26.4435 15.1755 26.3443 15.0894C26.245 15.0032 26.1637 14.8984 26.105 14.7808ZM20.105 7.88578L21.105 5.88578C21.2237 5.64841 21.4318 5.46791 21.6836 5.38399C21.9353 5.30007 22.2101 5.3196 22.4475 5.43828C22.6849 5.55697 22.8654 5.76509 22.9493 6.01685C23.0332 6.26862 23.0137 6.54341 22.895 6.78078L21.895 8.78078C21.7763 9.01815 21.5682 9.19865 21.3164 9.28257C21.0647 9.3665 20.7899 9.34697 20.5525 9.22828C20.3151 9.1096 20.1346 8.90148 20.0507 8.64971C19.9668 8.39795 19.9863 8.12315 20.105 7.88578Z" fill="black"/>
</svg>
