<svg width="32" height="32" viewBox="0 0 32 32" fill="none" xmlns="http://www.w3.org/2000/svg">
<path d="M29.7075 8.29245L23.7075 2.29245C23.6146 2.19954 23.5043 2.12584 23.3829 2.07555C23.2615 2.02527 23.1314 1.99939 23 1.99939C22.8686 1.99939 22.7385 2.02527 22.6171 2.07555C22.4957 2.12584 22.3854 2.19954 22.2925 2.29245C22.1996 2.38536 22.1259 2.49566 22.0756 2.61705C22.0253 2.73844 21.9995 2.86855 21.9995 2.99995C21.9995 3.13134 22.0253 3.26145 22.0756 3.38284C22.1259 3.50424 22.1996 3.61454 22.2925 3.70745L24.5863 5.99995L21 9.5862L16.7075 5.29245C16.5199 5.1048 16.2654 4.99939 16 4.99939C15.7346 4.99939 15.4801 5.1048 15.2925 5.29245C15.1049 5.48009 14.9995 5.73458 14.9995 5.99995C14.9995 6.26531 15.1049 6.5198 15.2925 6.70745L16.0863 7.49995L5.58626 17.9999C5.39973 18.185 5.25185 18.4053 5.15121 18.648C5.05056 18.8907 4.99917 19.151 5.00001 19.4137V25.5862L2.29251 28.2924C2.1996 28.3854 2.1259 28.4957 2.07561 28.6171C2.02533 28.7384 1.99945 28.8686 1.99945 28.9999C1.99945 29.1313 2.02533 29.2614 2.07561 29.3828C2.1259 29.5042 2.1996 29.6145 2.29251 29.7074C2.48015 29.8951 2.73464 30.0005 3.00001 30.0005C3.1314 30.0005 3.26151 29.9746 3.3829 29.9243C3.5043 29.8741 3.6146 29.8004 3.70751 29.7074L6.41376 26.9999H12.5863C12.849 27.0008 13.1093 26.9494 13.352 26.8487C13.5947 26.7481 13.815 26.6002 14 26.4137L24.5 15.9137L25.2925 16.7074C25.3854 16.8004 25.4957 16.8741 25.6171 16.9243C25.7385 16.9746 25.8686 17.0005 26 17.0005C26.1314 17.0005 26.2615 16.9746 26.3829 16.9243C26.5043 16.8741 26.6146 16.8004 26.7075 16.7074C26.8004 16.6145 26.8741 16.5042 26.9244 16.3828C26.9747 16.2614 27.0006 16.1313 27.0006 15.9999C27.0006 15.8686 26.9747 15.7384 26.9244 15.617C26.8741 15.4957 26.8004 15.3854 26.7075 15.2924L22.4138 10.9999L26 7.4137L28.2925 9.70745C28.4801 9.89509 28.7346 10.0005 29 10.0005C29.2654 10.0005 29.5199 9.89509 29.7075 9.70745C29.8951 9.51981 30.0006 9.26531 30.0006 8.99995C30.0006 8.73458 29.8951 8.48009 29.7075 8.29245ZM12.5863 24.9999H7.00001V19.4137L9.25001 17.1637L11.7925 19.7074C11.8854 19.8004 11.9957 19.8741 12.1171 19.9243C12.2385 19.9746 12.3686 20.0005 12.5 20.0005C12.6314 20.0005 12.7615 19.9746 12.8829 19.9243C13.0043 19.8741 13.1146 19.8004 13.2075 19.7074C13.3004 19.6145 13.3741 19.5042 13.4244 19.3828C13.4747 19.2614 13.5006 19.1313 13.5006 18.9999C13.5006 18.8686 13.4747 18.7384 13.4244 18.6171C13.3741 18.4957 13.3004 18.3854 13.2075 18.2924L10.6638 15.7499L12.25 14.1637L14.7925 16.7074C14.9801 16.8951 15.2346 17.0005 15.5 17.0005C15.7654 17.0005 16.0199 16.8951 16.2075 16.7074C16.3951 16.5198 16.5006 16.2653 16.5006 15.9999C16.5006 15.7346 16.3951 15.4801 16.2075 15.2924L13.6638 12.7499L17.5 8.9137L23.0863 14.4999L12.5863 24.9999Z" fill="black"/>
</svg>
