<svg width="32" height="32" viewBox="0 0 32 32" fill="none" xmlns="http://www.w3.org/2000/svg">
<path fill-rule="evenodd" clip-rule="evenodd" d="M6.625 6C4.692 6 3.125 7.567 3.125 9.5C3.125 10.091 3.2715 10.6478 3.53016 11.1361C2.06894 11.5566 1 12.9035 1 14.5C1 16.433 2.567 18 4.5 18H5V27C5 27.5523 5.44772 28 6 28C6.55228 28 7 27.5523 7 27V23.7782L12.7782 18H19.2108L25 23.7892V27C25 27.5523 25.4477 28 26 28C26.5523 28 27 27.5523 27 27V18H27.5C29.433 18 31 16.433 31 14.5C31 12.567 29.433 11 27.5 11H12.7882C13.0042 10.5454 13.125 10.0368 13.125 9.5C13.125 7.567 11.558 6 9.625 6H6.625ZM9.625 11C10.4534 11 11.125 10.3284 11.125 9.5C11.125 8.67157 10.4534 8 9.625 8H6.625C5.79657 8 5.125 8.67157 5.125 9.5C5.125 10.3284 5.79657 11 6.625 11H9.625ZM4.5 13C3.67157 13 3 13.6716 3 14.5C3 15.3284 3.67157 16 4.5 16H27.5C28.3284 16 29 15.3284 29 14.5C29 13.6716 28.3284 13 27.5 13H4.5ZM25 20.9608L22.0392 18H25V20.9608ZM9.94974 18L7 20.9497V18H9.94974Z" fill="black"/>
</svg>
