<svg width="32" height="32" viewBox="0 0 32 32" fill="none" xmlns="http://www.w3.org/2000/svg">
<path fill-rule="evenodd" clip-rule="evenodd" d="M16.1141 2.30617C15.8002 2.21025 15.4675 2.19307 15.1454 2.25614L15.1419 2.25683L5.05436 4.26933C4.65812 4.34838 4.34838 4.65812 4.26933 5.05436L2.25683 15.1419L2.25614 15.1454C2.19307 15.4675 2.21025 15.8002 2.30617 16.1141C2.40206 16.4279 2.57391 16.7135 2.80614 16.9454L15.852 29.9912C16.0362 30.1784 16.2556 30.3272 16.4976 30.4291C16.7417 30.5319 17.0039 30.5848 17.2688 30.5848C17.5336 30.5848 17.7958 30.5319 18.0399 30.4291C18.2819 30.3272 18.5014 30.1784 18.6855 29.9912L29.9912 18.6855C30.1784 18.5014 30.3272 18.2819 30.4291 18.0399C30.5319 17.7958 30.5848 17.5336 30.5848 17.2688C30.5848 17.0039 30.5319 16.7417 30.4291 16.4976C30.3272 16.2556 30.1784 16.0362 29.9912 15.852L16.9451 2.80592C16.7133 2.57369 16.4279 2.40206 16.1141 2.30617ZM10.5 12C11.3284 12 12 11.3284 12 10.5C12 9.67158 11.3284 9.00001 10.5 9.00001C9.67158 9.00001 9.00001 9.67158 9.00001 10.5C9.00001 11.3284 9.67158 12 10.5 12Z" fill="black"/>
</svg>
