<svg width="32" height="32" viewBox="0 0 32 32" fill="none" xmlns="http://www.w3.org/2000/svg">
<path fill-rule="evenodd" clip-rule="evenodd" d="M16 1.5C16.5523 1.5 17 1.94772 17 2.5V4.04107C22.8298 4.52202 27.478 9.1702 27.9589 15H29.5C30.0523 15 30.5 15.4477 30.5 16C30.5 16.5523 30.0523 17 29.5 17H27.9589C27.478 22.8298 22.8298 27.478 17 27.9589V29.5C17 30.0523 16.5523 30.5 16 30.5C15.4477 30.5 15 30.0523 15 29.5V27.9589C9.1702 27.478 4.52202 22.8298 4.04107 17H2.5C1.94772 17 1.5 16.5523 1.5 16C1.5 15.4477 1.94772 15 2.5 15H4.04107C4.52202 9.1702 9.1702 4.52202 15 4.04107V2.5C15 1.94772 15.4477 1.5 16 1.5ZM15 6.04938C10.2756 6.51844 6.51844 10.2756 6.04938 15H7.5C8.05229 15 8.5 15.4477 8.5 16C8.5 16.5523 8.05229 17 7.5 17H6.04938C6.51844 21.7244 10.2756 25.4816 15 25.9506V24.5C15 23.9477 15.4477 23.5 16 23.5C16.5523 23.5 17 23.9477 17 24.5V25.9506C21.7244 25.4816 25.4816 21.7244 25.9506 17H24.5C23.9477 17 23.5 16.5523 23.5 16C23.5 15.4477 23.9477 15 24.5 15H25.9506C25.4816 10.2756 21.7244 6.51844 17 6.04938V7.5C17 8.05229 16.5523 8.5 16 8.5C15.4477 8.5 15 8.05229 15 7.5V6.04938ZM16 13C14.3431 13 13 14.3431 13 16C13 17.6569 14.3431 19 16 19C17.6569 19 19 17.6569 19 16C19 14.3431 17.6569 13 16 13ZM11 16C11 13.2386 13.2386 11 16 11C18.7614 11 21 13.2386 21 16C21 18.7614 18.7614 21 16 21C13.2386 21 11 18.7614 11 16Z" fill="black"/>
</svg>
