<svg width="32" height="32" viewBox="0 0 32 32" fill="none" xmlns="http://www.w3.org/2000/svg">
<path fill-rule="evenodd" clip-rule="evenodd" d="M5.66667 4C5.66667 2.89543 6.59194 2 7.73333 2H24.2667C25.4081 2 26.3333 2.89543 26.3333 4V16.3457C25.5951 16.121 24.8117 16.0001 24 16.0001C23.373 16.0001 22.7629 16.0722 22.1775 16.2086C22.1922 16.1413 22.2 16.0715 22.2 16C22.2 15.4477 21.7374 15 21.1667 15H20.1333C19.5626 15 19.1 15.4477 19.1 16C19.1 16.5493 19.5577 16.9952 20.1242 17C19.0346 17.6046 18.101 18.4562 17.399 19.4792C17.2174 19.1918 16.8902 19 16.5167 19H15.4833C14.9126 19 14.45 19.4477 14.45 20C14.45 20.5523 14.9126 21 15.4833 21H16.5167C16.5387 21 16.5606 20.9993 16.5824 20.998C16.2068 21.925 16 22.9384 16 24.0001C16 24.3387 16.021 24.6724 16.0619 25H10.8333V28H17.0702C17.5057 28.7528 18.0603 29.4281 18.7083 30H10.8333C9.69194 30 8.76667 29.1046 8.76667 28V25H7.73333C6.59195 25 5.66667 24.1046 5.66667 23V4ZM7.73333 4H24.2667V11H7.73333V4ZM10.8333 19C10.2626 19 9.8 19.4477 9.8 20C9.8 20.5523 10.2626 21 10.8333 21H11.8667C12.4374 21 12.9 20.5523 12.9 20C12.9 19.4477 12.4374 19 11.8667 19H10.8333ZM9.8 16C9.8 15.4477 10.2626 15 10.8333 15H11.8667C12.4374 15 12.9 15.4477 12.9 16C12.9 16.5523 12.4374 17 11.8667 17H10.8333C10.2626 17 9.8 16.5523 9.8 16ZM15.4833 15C14.9126 15 14.45 15.4477 14.45 16C14.45 16.5523 14.9126 17 15.4833 17H16.5167C17.0874 17 17.55 16.5523 17.55 16C17.55 15.4477 17.0874 15 16.5167 15H15.4833Z" fill="black"/>
<path fill-rule="evenodd" clip-rule="evenodd" d="M29.9959 24C29.9959 27.3115 27.3115 29.9959 24 29.9959C20.6885 29.9959 18.0041 27.3115 18.0041 24C18.0041 20.6885 20.6885 18.0041 24 18.0041C27.3115 18.0041 29.9959 20.6885 29.9959 24ZM22.5858 21.1716C22.1953 20.781 21.5622 20.781 21.1716 21.1716C20.7811 21.5621 20.7811 22.1952 21.1716 22.5858L22.5858 24L21.1716 25.4142C20.7811 25.8047 20.7811 26.4379 21.1716 26.8284C21.5622 27.2189 22.1953 27.2189 22.5858 26.8284L24.0001 25.4142L25.4143 26.8284C25.8048 27.2189 26.438 27.2189 26.8285 26.8284C27.219 26.4379 27.219 25.8047 26.8285 25.4142L25.4143 24L26.8285 22.5858C27.219 22.1952 27.219 21.5621 26.8285 21.1716C26.438 20.781 25.8048 20.781 25.4143 21.1716L24.0001 22.5858L22.5858 21.1716Z" fill="black"/>
</svg>
