<svg width="32" height="32" viewBox="0 0 32 32" fill="none" xmlns="http://www.w3.org/2000/svg">
<path d="M10 16C10 15.4477 10.4477 15 11 15H12C12.5523 15 13 15.4477 13 16C13 16.5523 12.5523 17 12 17H11C10.4477 17 10 16.5523 10 16Z" fill="black"/>
<path d="M14.5 16C14.5 15.4477 14.9477 15 15.5 15H16.5C17.0523 15 17.5 15.4477 17.5 16C17.5 16.5523 17.0523 17 16.5 17H15.5C14.9477 17 14.5 16.5523 14.5 16Z" fill="black"/>
<path d="M19 16C19 15.4477 19.4477 15 20 15H21C21.5523 15 22 15.4477 22 16C22 16.5523 21.5523 17 21 17H20C19.4477 17 19 16.5523 19 16Z" fill="black"/>
<path d="M19 20C19 19.4477 19.4477 19 20 19H21C21.5523 19 22 19.4477 22 20C22 20.5523 21.5523 21 21 21H20C19.4477 21 19 20.5523 19 20Z" fill="black"/>
<path d="M14.5 20C14.5 19.4477 14.9477 19 15.5 19H16.5C17.0523 19 17.5 19.4477 17.5 20C17.5 20.5523 17.0523 21 16.5 21H15.5C14.9477 21 14.5 20.5523 14.5 20Z" fill="black"/>
<path d="M10 20C10 19.4477 10.4477 19 11 19H12C12.5523 19 13 19.4477 13 20C13 20.5523 12.5523 21 12 21H11C10.4477 21 10 20.5523 10 20Z" fill="black"/>
<path fill-rule="evenodd" clip-rule="evenodd" d="M6 4C6 2.89543 6.89543 2 8 2H24C25.1046 2 26 2.89543 26 4V23C26 24.1046 25.1046 25 24 25H23V28C23 29.1046 22.1046 30 21 30H11C9.89543 30 9 29.1046 9 28V25H8C6.89543 25 6 24.1046 6 23V4ZM8 4H24V11H8V4ZM24 13V23H8V13H24ZM11 25H21V28H11V25Z" fill="black"/>
</svg>
