<svg width="32" height="32" viewBox="0 0 32 32" fill="none" xmlns="http://www.w3.org/2000/svg">
<path fill-rule="evenodd" clip-rule="evenodd" d="M4 8.5C4 7.94772 4.44772 7.5 5 7.5H27C27.5523 7.5 28 7.94772 28 8.5C28 9.05228 27.5523 9.5 27 9.5H5C4.44772 9.5 4 9.05228 4 8.5ZM4 13.5C4 12.9477 4.44772 12.5 5 12.5H27C27.5523 12.5 28 12.9477 28 13.5C28 14.0523 27.5523 14.5 27 14.5H5C4.44772 14.5 4 14.0523 4 13.5ZM4 18.5C4 17.9477 4.44772 17.5 5 17.5H27C27.5523 17.5 28 17.9477 28 18.5C28 19.0523 27.5523 19.5 27 19.5H5C4.44772 19.5 4 19.0523 4 18.5ZM4 23.5C4 22.9477 4.44772 22.5 5 22.5H27C27.5523 22.5 28 22.9477 28 23.5C28 24.0523 27.5523 24.5 27 24.5H5C4.44772 24.5 4 24.0523 4 23.5Z" fill="black"/>
</svg>
