<svg width="32" height="32" viewBox="0 0 32 32" fill="none" xmlns="http://www.w3.org/2000/svg">
<path fill-rule="evenodd" clip-rule="evenodd" d="M4 8.5C4 7.94772 4.44772 7.5 5 7.5H27C27.5523 7.5 28 7.94772 28 8.5C28 9.05228 27.5523 9.5 27 9.5H5C4.44772 9.5 4 9.05228 4 8.5ZM10 13.5C10 12.9477 10.4477 12.5 11 12.5H27C27.5523 12.5 28 12.9477 28 13.5C28 14.0523 27.5523 14.5 27 14.5H11C10.4477 14.5 10 14.0523 10 13.5ZM4 18.5C4 17.9477 4.44772 17.5 5 17.5H27C27.5523 17.5 28 17.9477 28 18.5C28 19.0523 27.5523 19.5 27 19.5H5C4.44772 19.5 4 19.0523 4 18.5ZM10 23.5C10 22.9477 10.4477 22.5 11 22.5H27C27.5523 22.5 28 22.9477 28 23.5C28 24.0523 27.5523 24.5 27 24.5H11C10.4477 24.5 10 24.0523 10 23.5Z" fill="black"/>
</svg>
