<svg width="32" height="32" viewBox="0 0 32 32" fill="none" xmlns="http://www.w3.org/2000/svg">
<path d="M10.905 6.57373C10.8242 6.40194 10.6963 6.25668 10.536 6.15493C10.3757 6.05318 10.1898 5.99915 10 5.99915C9.81017 5.99915 9.62426 6.05318 9.464 6.15493C9.30374 6.25668 9.17576 6.40194 9.095 6.57373L1.095 23.5737C1.03911 23.6926 1.00717 23.8213 1.00101 23.9525C0.99485 24.0837 1.01459 24.2148 1.05911 24.3383C1.14901 24.5879 1.33435 24.7915 1.57437 24.9044C1.8144 25.0172 2.08943 25.0302 2.33897 24.9403C2.58851 24.8504 2.79212 24.665 2.905 24.425L4.9875 20H15.0125L17.095 24.425C17.1509 24.5438 17.2296 24.6505 17.3268 24.7389C17.4239 24.8273 17.5375 24.8957 17.661 24.9403C17.7846 24.9848 17.9157 25.0045 18.0469 24.9983C18.1781 24.9922 18.3068 24.9603 18.4256 24.9044C18.5445 24.8485 18.6511 24.7697 18.7396 24.6726C18.828 24.5755 18.8964 24.4619 18.9409 24.3383C18.9854 24.2148 19.0051 24.0837 18.999 23.9525C18.9928 23.8213 18.9609 23.6926 18.905 23.5737L10.905 6.57373ZM5.92875 18L10 9.34873L14.0712 18H5.92875ZM25 12C23.405 12 22.1587 12.4337 21.2962 13.29C21.1157 13.4782 21.0158 13.7296 21.0179 13.9904C21.0201 14.2513 21.1241 14.5009 21.3077 14.6862C21.4913 14.8715 21.7401 14.9776 22.0009 14.9821C22.2617 14.9865 22.5139 14.8889 22.7038 14.71C23.1788 14.2387 23.9538 14 25 14C26.6537 14 28 15.125 28 16.5V16.9025C27.1126 16.3088 26.0677 15.9944 25 16C22.2425 16 20 18.0187 20 20.5C20 22.9812 22.2425 25 25 25C26.0681 25.0047 27.1131 24.689 28 24.0937C28.0124 24.359 28.1297 24.6084 28.326 24.7871C28.5224 24.9659 28.7817 25.0593 29.0469 25.0469C29.3121 25.0344 29.5615 24.9171 29.7403 24.7208C29.919 24.5245 30.0124 24.2652 30 24V16.5C30 14.0187 27.7575 12 25 12ZM25 23C23.3463 23 22 21.875 22 20.5C22 19.125 23.3463 18 25 18C26.6537 18 28 19.125 28 20.5C28 21.875 26.6537 23 25 23Z" fill="black"/>
</svg>
