<svg width="32" height="32" viewBox="0 0 32 32" fill="none" xmlns="http://www.w3.org/2000/svg">
<path fill-rule="evenodd" clip-rule="evenodd" d="M2.58579 6.58579C2.96086 6.21071 3.46957 6 4 6H28C28.5304 6 29.0391 6.21071 29.4142 6.58579C29.7893 6.96086 30 7.46957 30 8V11.0977C30.0018 11.5601 29.8423 12.0087 29.549 12.3662C29.2574 12.7216 28.8516 12.9648 28.4009 13.0546C27.7284 13.199 27.1255 13.5693 26.6924 14.1039C26.258 14.6403 26.0209 15.3097 26.0209 16C26.0209 16.6903 26.258 17.3597 26.6924 17.8961C27.1255 18.4307 27.7284 18.801 28.4009 18.9454C28.8516 19.0352 29.2574 19.2784 29.549 19.6338C29.8423 19.9913 30.0018 20.4399 30 20.9023V24C30 24.5304 29.7893 25.0391 29.4142 25.4142C29.0391 25.7893 28.5304 26 28 26H4C3.46957 26 2.96086 25.7893 2.58579 25.4142C2.21071 25.0391 2 24.5304 2 24V20.9023C1.9982 20.4399 2.15767 19.9913 2.451 19.6338C2.74264 19.2784 3.1484 19.0352 3.59907 18.9454C4.2716 18.801 4.87453 18.4307 5.30756 17.8961C5.74204 17.3597 5.97911 16.6903 5.97911 16C5.97911 15.3097 5.74204 14.6403 5.30756 14.1039C4.87453 13.5693 4.27161 13.1991 3.59909 13.0546C3.14841 12.9648 2.74264 12.7216 2.451 12.3662C2.15767 12.0087 1.9982 11.5601 2 11.0977V8C2 7.46957 2.21071 6.96086 2.58579 6.58579ZM13 24H28V20.9048C27.9974 20.9043 27.9949 20.9037 27.9923 20.9032C26.8688 20.6646 25.8612 20.0474 25.1383 19.1549C24.4154 18.2623 24.0209 17.1486 24.0209 16C24.0209 14.8514 24.4154 13.7377 25.1383 12.8451C25.8612 11.9526 26.8688 11.3354 27.9923 11.0968C27.9949 11.0963 27.9974 11.0957 28 11.0952V8H13V24ZM11 8V24H4V20.9048C4.00257 20.9043 4.00513 20.9037 4.0077 20.9032C5.13124 20.6646 6.13878 20.0474 6.86171 19.1549C7.58465 18.2623 7.97911 17.1486 7.97911 16C7.97911 14.8514 7.58465 13.7377 6.86171 12.8451C6.13878 11.9526 5.13125 11.3354 4.0077 11.0968C4.00513 11.0963 4.00257 11.0957 4 11.0952V8L11 8Z" fill="black"/>
</svg>
