<svg width="32" height="32" viewBox="0 0 32 32" fill="none" xmlns="http://www.w3.org/2000/svg">
<path d="M25.111 7.98852C24.922 7.89084 24.7381 7.78376 24.5598 7.66769C24.0413 7.32495 23.566 6.92111 23.144 6.46485C22.0882 5.25676 21.6938 4.03117 21.5486 3.17309H21.5544C21.4331 2.46084 21.4833 2 21.4908 2H16.6818V20.5956C16.6818 20.8452 16.6818 21.092 16.6713 21.3358C16.6713 21.3662 16.6684 21.3942 16.6667 21.4268C16.6667 21.4402 16.6667 21.4542 16.6637 21.4682C16.6637 21.4717 16.6637 21.4752 16.6637 21.4787C16.6131 22.1459 16.3992 22.7905 16.0409 23.3556C15.6827 23.9208 15.191 24.3892 14.6092 24.7197C14.0029 25.0647 13.3171 25.2457 12.6195 25.2448C10.3789 25.2448 8.56297 23.4177 8.56297 21.1614C8.56297 18.9051 10.3789 17.0781 12.6195 17.0781C13.0436 17.0777 13.4651 17.1444 13.8684 17.2758L13.8742 12.3793C12.65 12.2212 11.4063 12.3184 10.2216 12.665C9.03688 13.0116 7.93684 13.6 6.99088 14.393C6.162 15.1131 5.46515 15.9725 4.9317 16.9322C4.7287 17.2822 3.96278 18.6886 3.87003 20.9712C3.8117 22.2668 4.20079 23.6091 4.38629 24.1638V24.1755C4.50295 24.5022 4.95504 25.6169 5.69179 26.5567C6.28588 27.3105 6.98778 27.9727 7.77488 28.5219V28.5103L7.78655 28.5219C10.1146 30.1039 12.6959 30.0001 12.6959 30.0001C13.1427 29.982 14.6396 30.0001 16.3394 29.1945C18.2248 28.3014 19.2981 26.9708 19.2981 26.9708C19.9838 26.1758 20.529 25.2698 20.9104 24.2916C21.3456 23.1477 21.4908 21.7757 21.4908 21.2273V11.362C21.5492 11.397 22.3262 11.9109 22.3262 11.9109C22.3262 11.9109 23.4456 12.6284 25.1921 13.0956C26.4451 13.4281 28.1333 13.4981 28.1333 13.4981V8.72411C27.5418 8.78827 26.3407 8.60161 25.111 7.98852Z" fill="black"/>
</svg>
