<svg width="32" height="32" viewBox="0 0 32 32" fill="none" xmlns="http://www.w3.org/2000/svg">
<path d="M21.375 8.92689L18.6925 9.99939L21.375 11.0706C21.6212 11.1701 21.8177 11.3633 21.9214 11.6076C22.0252 11.852 22.0276 12.1276 21.9281 12.3738C21.8287 12.6199 21.6355 12.8165 21.3911 12.9202C21.1467 13.0239 20.8712 13.0263 20.625 12.9269L16 11.0756L11.375 12.9269C11.2531 12.9761 11.1227 13.0009 10.9913 12.9997C10.8598 12.9986 10.7299 12.9716 10.6089 12.9202C10.4879 12.8689 10.3782 12.7942 10.286 12.7004C10.1939 12.6066 10.1211 12.4956 10.0719 12.3738C10.0226 12.2519 9.99787 12.1215 9.99902 11.99C10.0002 11.8586 10.0272 11.7287 10.0786 11.6076C10.1299 11.4866 10.2046 11.3769 10.2984 11.2848C10.3921 11.1927 10.5031 11.1199 10.625 11.0706L13.3075 9.99939L10.625 8.92689C10.5031 8.87764 10.3921 8.80487 10.2984 8.71273C10.2046 8.62059 10.1299 8.51089 10.0786 8.38988C10.0272 8.26888 10.0002 8.13894 9.99902 8.00749C9.99787 7.87604 10.0226 7.74565 10.0719 7.62376C10.1211 7.50188 10.1939 7.39089 10.286 7.29713C10.3782 7.20337 10.4879 7.12868 10.6089 7.07732C10.7299 7.02595 10.8598 6.99893 10.9913 6.99778C11.1227 6.99664 11.2531 7.02139 11.375 7.07064L16 8.92189L20.625 7.07064C20.7469 7.02139 20.8773 6.99664 21.0087 6.99778C21.1402 6.99893 21.2701 7.02595 21.3911 7.07732C21.5121 7.12868 21.6218 7.20337 21.714 7.29713C21.8061 7.39089 21.8789 7.50188 21.9281 7.62376C21.9774 7.74565 22.0021 7.87604 22.001 8.00749C21.9998 8.13894 21.9728 8.26888 21.9214 8.38988C21.8701 8.51089 21.7954 8.62059 21.7016 8.71273C21.6079 8.80487 21.4969 8.87764 21.375 8.92689ZM28 9.96814C28 15.3081 27 19.3931 26.1637 21.8781C25.0725 25.1031 23.585 27.5644 22.0825 28.6281C21.7966 28.8338 21.4606 28.9587 21.1098 28.9897C20.759 29.0208 20.4063 28.9567 20.0888 28.8044C19.7668 28.6525 19.4909 28.4179 19.2893 28.1245C19.0877 27.8311 18.9676 27.4894 18.9412 27.1344C18.835 25.6969 18.31 20.9994 16 20.9994C13.69 20.9994 13.165 25.6981 13.0588 27.1381C13.0213 27.6434 12.7945 28.116 12.4237 28.4613C12.0529 28.8066 11.5654 28.9992 11.0588 29.0006C10.6491 29.0001 10.25 28.8711 9.9175 28.6319C8.4175 27.5656 6.9275 25.1044 5.83625 21.8819C5 19.3931 4 15.3081 4 9.96814C4.00826 8.11704 4.74941 6.34458 6.06127 5.03858C7.37313 3.73258 9.14889 2.99937 11 2.99939H21C22.8511 2.99937 24.6269 3.73258 25.9387 5.03858C27.2506 6.34458 27.9917 8.11704 28 9.96814ZM26 9.96814C25.9917 8.64748 25.4613 7.38372 24.5245 6.45279C23.5877 5.52186 22.3207 4.99936 21 4.99939H11C9.6791 4.99937 8.41185 5.52203 7.47503 6.45323C6.53821 7.38444 6.00793 8.64851 6 9.96939C6 15.0381 6.93875 18.8944 7.73125 21.2369C9.1125 25.3194 10.6062 26.6581 11.0575 26.9869C11.4462 21.8331 13.1987 18.9994 16 18.9994C18.8013 18.9994 20.5563 21.8381 20.9363 26.9919C21.3863 26.6681 22.8825 25.3344 24.2687 21.2419C25.0612 18.8944 26 15.0381 26 9.96939V9.96814Z" fill="black"/>
</svg>
