<svg width="32" height="32" viewBox="0 0 32 32" fill="none" xmlns="http://www.w3.org/2000/svg">
<path fill-rule="evenodd" clip-rule="evenodd" d="M23.6207 3.03042C23.5421 3.01055 23.4598 3 23.375 3H8.375C6.71815 3 5.375 4.34315 5.375 6V8L2 8C1.44772 8 1 8.44772 1 9C1 9.55228 1.44772 10 2 10L5.375 10V26C5.375 27.6569 6.71815 29 8.375 29H18.125C19.7819 29 21.125 27.6569 21.125 26V7C21.125 5.89543 22.0204 5 23.125 5C24.2296 5 25.125 5.89543 25.125 7V8H24C23.4477 8 23 8.44772 23 9C23 9.55228 23.4477 10 24 10L30 10C30.5523 10 31 9.55229 31 9C31 8.44772 30.5523 8 30 8H27.125V7C27.125 4.95872 25.596 3.27457 23.6207 3.03042ZM19.6601 5C19.3198 5.58835 19.125 6.27143 19.125 7V26C19.125 26.5523 18.6773 27 18.125 27H8.375C7.82272 27 7.375 26.5523 7.375 26V6C7.375 5.44772 7.82271 5 8.375 5H19.6601Z" fill="black"/>
<path d="M27.125 12L25.125 12V17.5C25.125 18.0523 25.5727 18.5 26.125 18.5C26.6773 18.5 27.125 18.0523 27.125 17.5V12Z" fill="black"/>
</svg>
