<svg width="32" height="32" viewBox="0 0 32 32" fill="none" xmlns="http://www.w3.org/2000/svg">
<path fill-rule="evenodd" clip-rule="evenodd" d="M10.8787 3.54531C11.4413 2.9827 12.2044 2.66663 13 2.66663H19C19.7956 2.66663 20.5587 2.9827 21.1213 3.54531C21.6839 4.10791 22 4.87098 22 5.66663V6.66663H27C27.5523 6.66663 28 7.11434 28 7.66663C28 8.21891 27.5523 8.66663 27 8.66663H26V26.6666C26 27.1971 25.7893 27.7058 25.4142 28.0808C25.0391 28.4559 24.5304 28.6666 24 28.6666H8C7.46957 28.6666 6.96086 28.4559 6.58579 28.0808C6.21071 27.7058 6 27.1971 6 26.6666V8.66663H5C4.44772 8.66663 4 8.21891 4 7.66663C4 7.11434 4.44772 6.66663 5 6.66663H10V5.66663C10 4.87098 10.3161 4.10791 10.8787 3.54531ZM8 8.66663V26.6666H24V8.66663H8ZM20 6.66663H12V5.66663C12 5.40141 12.1054 5.14706 12.2929 4.95952C12.4804 4.77198 12.7348 4.66663 13 4.66663H19C19.2652 4.66663 19.5196 4.77198 19.7071 4.95952C19.8946 5.14706 20 5.40141 20 5.66663V6.66663ZM13 12.6666C13.5523 12.6666 14 13.1143 14 13.6666V21.6666C14 22.2189 13.5523 22.6666 13 22.6666C12.4477 22.6666 12 22.2189 12 21.6666V13.6666C12 13.1143 12.4477 12.6666 13 12.6666ZM18 13.6666C18 13.1143 18.4477 12.6666 19 12.6666C19.5523 12.6666 20 13.1143 20 13.6666V21.6666C20 22.2189 19.5523 22.6666 19 22.6666C18.4477 22.6666 18 22.2189 18 21.6666V13.6666Z" fill="black"/>
</svg>
