<svg width="32" height="32" viewBox="0 0 32 32" fill="none" xmlns="http://www.w3.org/2000/svg">
<path fill-rule="evenodd" clip-rule="evenodd" d="M16 7C12.4351 7 10.3875 9.01395 10.3875 11C10.3875 11.0039 10.3875 11.0078 10.3874 11.0117C10.3847 11.2436 10.4194 11.4745 10.49 11.6955C10.6582 12.2215 10.3681 12.7843 9.84204 12.9525C9.31598 13.1207 8.75319 12.8306 8.585 12.3045C8.44962 11.8811 8.38295 11.4388 8.3875 10.9943C8.39123 7.45839 11.8422 5 16 5C19.2384 5 21.9744 6.44803 23.0879 8.75241C23.3282 9.24968 23.1199 9.8476 22.6226 10.0879C22.1253 10.3282 21.5274 10.1199 21.2871 9.62259C20.6006 8.20197 18.7116 7 16 7ZM21.9915 17H27C27.5523 17 28 16.5523 28 16C28 15.4477 27.5523 15 27 15H17.3223C17.3071 14.9997 17.2919 14.9997 17.2768 15H5C4.44772 15 4 15.4477 4 16C4 16.5523 4.44772 17 5 17H17.1562C18.5912 17.4244 19.8154 17.8832 20.6843 18.5194C21.5243 19.1344 22 19.8857 22 21C22 21.9741 21.4485 22.9502 20.3674 23.7221C19.2882 24.4925 17.7468 25 16 25C14.2532 25 12.7118 24.4925 11.6326 23.7221C10.5515 22.9502 10 21.9741 10 21C10 20.4477 9.55229 20 9 20C8.44772 20 8 20.4477 8 21C8 22.7884 9.01724 24.3123 10.4705 25.3498C11.9257 26.3887 13.8843 27 16 27C18.1157 27 20.0743 26.3887 21.5295 25.3498C22.9828 24.3123 24 22.7884 24 21C24 19.2018 23.1835 17.9169 21.9915 17Z" fill="black"/>
</svg>
