<svg width="32" height="32" viewBox="0 0 32 32" fill="none" xmlns="http://www.w3.org/2000/svg">
<path fill-rule="evenodd" clip-rule="evenodd" d="M18.9767 6.00003H14C13.4477 6.00003 13 6.44774 13 7.00003C13 7.55231 13.4477 8.00003 14 8.00003H17.6126L12.2792 24H8C7.44772 24 7 24.4477 7 25C7 25.5523 7.44772 26 8 26H12.9769C12.9924 26.0004 13.0079 26.0004 13.0234 26H18C18.5523 26 19 25.5523 19 25C19 24.4477 18.5523 24 18 24H14.3874L19.7208 8.00003H24C24.5523 8.00003 25 7.55231 25 7.00003C25 6.44774 24.5523 6.00003 24 6.00003H19.0231C19.0076 5.99966 18.9921 5.99967 18.9767 6.00003Z" fill="black"/>
</svg>
