<svg width="32" height="32" viewBox="0 0 32 32" fill="none" xmlns="http://www.w3.org/2000/svg">
<path fill-rule="evenodd" clip-rule="evenodd" d="M8.06032 12.0127C8.54679 8.06023 11.916 5 16 5H17.5C22.7467 5 27 9.25329 27 14.5V15.6C29.2822 16.0633 31 18.081 31 20.5V21.25C31 24.4256 28.4256 27 25.25 27H23C22.4477 27 22 26.5523 22 26C22 25.4477 22.4477 25 23 25H25.25C27.3211 25 29 23.3211 29 21.25V20.5C29 18.8431 27.6569 17.5 26 17.5H25V14.5C25 10.3579 21.6421 7 17.5 7H16C12.6863 7 10 9.68629 10 13V14H8.5C5.46243 14 3 16.4624 3 19.5C3 22.5376 5.46243 25 8.5 25H9C9.55228 25 10 25.4477 10 26C10 26.5523 9.55228 27 9 27H8.5C4.35786 27 1 23.6421 1 19.5C1 15.5055 4.12283 12.2403 8.06032 12.0127Z" fill="black"/>
<path fill-rule="evenodd" clip-rule="evenodd" d="M15.2929 15.2929C15.6834 14.9024 16.3166 14.9024 16.7071 15.2929L20.7071 19.2929C21.0976 19.6834 21.0976 20.3166 20.7071 20.7071C20.3166 21.0976 19.6834 21.0976 19.2929 20.7071L17 18.4142V26C17 26.5523 16.5523 27 16 27C15.4477 27 15 26.5523 15 26V18.4142L12.7071 20.7071C12.3166 21.0976 11.6834 21.0976 11.2929 20.7071C10.9024 20.3166 10.9024 19.6834 11.2929 19.2929L15.2929 15.2929Z" fill="black"/>
</svg>
