<svg width="32" height="32" viewBox="0 0 32 32" fill="none" xmlns="http://www.w3.org/2000/svg">
<path d="M9.01306 18.475C9.01645 18.5427 9.00603 18.6105 8.98242 18.674C8.95882 18.7376 8.92253 18.7957 8.87575 18.8448C8.82898 18.8939 8.77271 18.933 8.71036 18.9597C8.64801 18.9864 8.58088 19.0001 8.51306 19H2.99806C2.77235 19.0003 2.55317 18.9243 2.37615 18.7843C2.19913 18.6443 2.07469 18.4485 2.02306 18.2288C1.99091 18.0784 1.99239 17.9227 2.0274 17.773C2.06241 17.6232 2.13007 17.4831 2.22556 17.3625C3.10782 16.1925 4.27842 15.2712 5.62306 14.6888C5.03272 14.1505 4.57994 13.4786 4.30266 12.7294C4.02537 11.9802 3.93164 11.1755 4.02933 10.3826C4.12701 9.58968 4.41326 8.83175 4.86411 8.17224C5.31495 7.51273 5.91726 6.97085 6.6206 6.59198C7.32393 6.21312 8.1078 6.0083 8.90657 5.99468C9.70534 5.98107 10.4957 6.15904 11.2116 6.51371C11.9274 6.86838 12.5478 7.38941 13.0209 8.03316C13.494 8.67692 13.8059 9.42466 13.9306 10.2138C13.9467 10.3199 13.9276 10.4283 13.8764 10.5227C13.8252 10.617 13.7446 10.692 13.6468 10.7363C12.2598 11.3775 11.0851 12.4021 10.2614 13.6891C9.43774 14.9761 8.99937 16.4719 8.99806 18C8.99806 18.16 8.99806 18.3175 9.01306 18.475ZM20.6381 22.7588C21.6337 21.9962 22.3655 20.9408 22.7304 19.741C23.0953 18.5411 23.075 17.257 22.6724 16.0692C22.2698 14.8815 21.5052 13.8497 20.4859 13.119C19.4667 12.3882 18.2441 11.9952 16.9899 11.9952C15.7358 11.9952 14.5132 12.3882 13.4939 13.119C12.4747 13.8497 11.71 14.8815 11.3075 16.0692C10.9049 17.257 10.8846 18.5411 11.2495 19.741C11.6144 20.9408 12.3461 21.9962 13.3418 22.7588C11.575 23.5243 10.0996 24.8354 9.13181 26.5C9.04403 26.652 8.99783 26.8245 8.99784 27.0001C8.99785 27.1756 9.04407 27.3481 9.13187 27.5001C9.21966 27.6521 9.34593 27.7784 9.49798 27.8661C9.65003 27.9539 9.8225 28 9.99806 28H23.9981C24.1736 28 24.3461 27.9539 24.4981 27.8661C24.6502 27.7784 24.7765 27.6521 24.8643 27.5001C24.952 27.3481 24.9983 27.1756 24.9983 27.0001C24.9983 26.8245 24.9521 26.652 24.8643 26.5C23.8944 24.8343 22.4163 23.5231 20.6468 22.7588H20.6381Z" fill="black"/>
<path d="M25 3C25.5523 3 26 3.44772 26 4V6H28C28.5523 6 29 6.44772 29 7C29 7.55228 28.5523 8 28 8H26V10C26 10.5523 25.5523 11 25 11C24.4477 11 24 10.5523 24 10V8H22C21.4477 8 21 7.55228 21 7C21 6.44772 21.4477 6 22 6H24V4C24 3.44772 24.4477 3 25 3Z" fill="black"/>
</svg>
