<svg width="32" height="32" viewBox="0 0 32 32" fill="none" xmlns="http://www.w3.org/2000/svg">
<path d="M28.8662 27.5C28.7785 27.652 28.6522 27.7783 28.5001 27.8661C28.3481 27.9538 28.1756 28 28 28H3.99999C3.82454 27.9998 3.65223 27.9535 3.50035 27.8656C3.34847 27.7778 3.22238 27.6515 3.13473 27.4995C3.04709 27.3475 3.00097 27.1752 3.00101 26.9997C3.00106 26.8243 3.04726 26.6519 3.13499 26.5C5.03874 23.2087 7.97249 20.8487 11.3962 19.73C9.7027 18.7218 8.38692 17.1856 7.65097 15.3572C6.91502 13.5289 6.7996 11.5095 7.32241 9.60918C7.84523 7.70887 8.97739 6.03272 10.545 4.83814C12.1127 3.64355 14.0291 2.99658 16 2.99658C17.9709 2.99658 19.8873 3.64355 21.455 4.83814C23.0226 6.03272 24.1547 7.70887 24.6776 9.60918C25.2004 11.5095 25.085 13.5289 24.349 15.3572C23.6131 17.1856 22.2973 18.7218 20.6037 19.73C24.0275 20.8487 26.9612 23.2087 28.865 26.5C28.9529 26.6519 28.9994 26.8243 28.9996 26.9998C28.9998 27.1754 28.9538 27.3479 28.8662 27.5Z" fill="black"/>
</svg>
