<svg width="32" height="32" viewBox="0 0 32 32" fill="none" xmlns="http://www.w3.org/2000/svg">
<path fill-rule="evenodd" clip-rule="evenodd" d="M5.00002 12.5C5.00002 7.80558 8.8056 4 13.5 4C18.1944 4 22 7.80558 22 12.5C22 15.5392 20.405 18.2059 18.0063 19.7085C20.6774 20.5832 22.9703 22.2207 24.7655 24.3566C25.1209 24.7794 25.0662 25.4102 24.6434 25.7655C24.2206 26.1209 23.5898 26.0662 23.2345 25.6434C20.8355 22.7891 17.4796 21 13.5 21C9.52044 21 6.16455 22.7891 3.76554 25.6434C3.4102 26.0662 2.7794 26.1209 2.35661 25.7655C1.93383 25.4102 1.87916 24.7794 2.2345 24.3566C4.02973 22.2207 6.32266 20.5832 8.99375 19.7085C6.59509 18.2059 5.00002 15.5392 5.00002 12.5ZM13.5 6C9.91017 6 7.00002 8.91015 7.00002 12.5C7.00002 16.0899 9.91017 19 13.5 19C17.0899 19 20 16.0899 20 12.5C20 8.91015 17.0899 6 13.5 6Z" fill="black"/>
<path d="M29 14C29 13.4477 28.5523 13 28 13C27.4477 13 27 13.4477 27 14V16H25C24.4477 16 24 16.4477 24 17C24 17.5523 24.4477 18 25 18H27V20C27 20.5523 27.4477 21 28 21C28.5523 21 29 20.5523 29 20V18H31C31.5523 18 32 17.5523 32 17C32 16.4477 31.5523 16 31 16H29V14Z" fill="black"/>
</svg>
