<svg width="32" height="32" viewBox="0 0 32 32" fill="none" xmlns="http://www.w3.org/2000/svg">
<path fill-rule="evenodd" clip-rule="evenodd" d="M16 5C9.92487 5 5 9.92487 5 16C5 18.8048 6.04977 21.3645 7.77785 23.3075C8.56485 22.1706 9.58204 21.2051 10.7688 20.4766C11.2545 20.1785 11.7627 19.9237 12.2875 19.7139C10.8944 18.6152 10 16.912 10 15C10 11.6863 12.6863 9 16 9C19.3137 9 22 11.6863 22 15C22 16.912 21.1056 18.6152 19.7125 19.7139C20.2373 19.9237 20.7455 20.1785 21.2312 20.4766C22.418 21.2051 23.4352 22.1706 24.2221 23.3075C25.9502 21.3645 27 18.8048 27 16C27 9.92487 22.0751 5 16 5ZM24.7469 25.6174C27.3599 23.2395 29 19.8113 29 16C29 8.8203 23.1797 3 16 3C8.8203 3 3 8.8203 3 16C3 19.8113 4.64012 23.2395 7.25306 25.6173C7.28645 25.6522 7.32262 25.6848 7.36147 25.7149C9.65802 27.7585 12.684 29 16 29C19.316 29 22.342 27.7585 24.6385 25.7149C24.6774 25.6848 24.7135 25.6522 24.7469 25.6174ZM22.7418 24.6925C22.0923 23.6757 21.2191 22.8159 20.185 22.1812C18.9466 21.421 17.525 21.0128 16.0729 20.9996C16.0487 20.9999 16.0243 21 16 21C15.9757 21 15.9513 20.9999 15.9271 20.9996C14.475 21.0128 13.0534 21.421 11.815 22.1812C10.7809 22.8159 9.90774 23.6757 9.25819 24.6925C11.1203 26.1388 13.4596 27 16 27C18.5404 27 20.8797 26.1388 22.7418 24.6925ZM16.0667 18.9995C18.2451 18.9639 20 17.1869 20 15C20 12.7909 18.2091 11 16 11C13.7909 11 12 12.7909 12 15C12 17.1869 13.7549 18.9639 15.9333 18.9995C15.9556 18.9993 15.9778 18.9992 16 18.9992C16.0222 18.9992 16.0444 18.9993 16.0667 18.9995Z" fill="black"/>
</svg>
