<svg width="32" height="32" viewBox="0 0 32 32" fill="none" xmlns="http://www.w3.org/2000/svg">
<path d="M24.865 26.5C24.9374 26.6138 24.986 26.7411 25.0078 26.8742C25.0297 27.0073 25.0245 27.1434 24.9924 27.2744C24.9603 27.4054 24.902 27.5286 24.8211 27.6365C24.7402 27.7444 24.6383 27.8348 24.5215 27.9023C24.4048 27.9698 24.2756 28.0129 24.1417 28.0292C24.0078 28.0455 23.872 28.0345 23.7425 27.9969C23.6129 27.9593 23.4924 27.8959 23.388 27.8105C23.2836 27.7251 23.1975 27.6195 23.135 27.5C22.5051 26.4334 21.6079 25.5494 20.532 24.9353C19.4562 24.3212 18.2388 23.9982 17 23.9982C15.7612 23.9982 14.5438 24.3212 13.468 24.9353C12.3921 25.5494 11.495 26.4334 10.865 27.5C10.8025 27.6195 10.7165 27.7251 10.6121 27.8105C10.5077 27.8959 10.3871 27.9593 10.2576 27.9969C10.128 28.0345 9.99223 28.0455 9.85835 28.0292C9.72446 28.0129 9.59525 27.9698 9.47848 27.9023C9.36172 27.8348 9.25981 27.7444 9.1789 27.6365C9.09798 27.5286 9.03973 27.4054 9.00764 27.2744C8.97556 27.1434 8.9703 27.0073 8.99219 26.8742C9.01408 26.7411 9.06266 26.6138 9.13501 26.5C10.1045 24.8342 11.5828 23.5234 13.3525 22.76C12.3567 21.9976 11.6248 20.9422 11.2598 19.7423C10.8947 18.5424 10.9149 17.2583 11.3174 16.0704C11.7199 14.8825 12.4846 13.8507 13.5038 13.1199C14.5231 12.389 15.7458 11.996 17 11.996C18.2542 11.996 19.4769 12.389 20.4962 13.1199C21.5155 13.8507 22.2801 14.8825 22.6826 16.0704C23.0851 17.2583 23.1053 18.5424 22.7403 19.7423C22.3752 20.9422 21.6434 21.9976 20.6475 22.76C22.4173 23.5234 23.8955 24.8342 24.865 26.5ZM17 22C17.7911 22 18.5645 21.7654 19.2223 21.3259C19.8801 20.8864 20.3928 20.2617 20.6955 19.5308C20.9983 18.7998 21.0775 17.9956 20.9232 17.2197C20.7688 16.4437 20.3878 15.731 19.8284 15.1716C19.269 14.6122 18.5563 14.2312 17.7804 14.0769C17.0045 13.9225 16.2002 14.0017 15.4693 14.3045C14.7384 14.6073 14.1137 15.1199 13.6741 15.7777C13.2346 16.4355 13 17.2089 13 18C13 19.0609 13.4214 20.0783 14.1716 20.8284C14.9217 21.5786 15.9391 22 17 22ZM10 15C10 14.7348 9.89466 14.4804 9.70712 14.2929C9.51958 14.1054 9.26523 14 9.00001 14C8.43892 14 7.88909 13.8426 7.41297 13.5457C6.93686 13.2488 6.55353 12.8244 6.30655 12.3206C6.05957 11.8168 5.95882 11.2538 6.01576 10.6956C6.0727 10.1374 6.28503 9.60636 6.62865 9.1628C6.97226 8.71923 7.43339 8.38092 7.95964 8.18629C8.48589 7.99166 9.05618 7.94851 9.60572 8.06175C10.1553 8.17498 10.662 8.44007 11.0685 8.82688C11.4749 9.2137 11.7647 9.70675 11.905 10.25C11.9713 10.5069 12.137 10.727 12.3655 10.8618C12.5941 10.9966 12.8668 11.0351 13.1238 10.9688C13.3807 10.9025 13.6008 10.7368 13.7355 10.5083C13.8703 10.2797 13.9088 10.0069 13.8425 9.75002C13.6478 8.99666 13.28 8.29914 12.7683 7.71296C12.2566 7.12678 11.6151 6.66811 10.895 6.37346C10.1748 6.0788 9.3958 5.9563 8.61996 6.01568C7.84412 6.07507 7.09285 6.31471 6.42592 6.71553C5.75899 7.11636 5.19482 7.66731 4.77829 8.32454C4.36176 8.98178 4.10437 9.72715 4.0266 10.5014C3.94883 11.2756 4.05283 12.0573 4.33032 12.7842C4.60781 13.5112 5.05113 14.1633 5.62501 14.6888C4.26662 15.2781 3.08591 16.2123 2.20001 17.3988C2.04072 17.6109 1.97223 17.8777 2.00962 18.1404C2.04701 18.403 2.18721 18.6401 2.39939 18.7994C2.61156 18.9587 2.87832 19.0272 3.14099 18.9898C3.40366 18.9524 3.64072 18.8122 3.80001 18.6C4.40275 17.7898 5.18728 17.1325 6.09046 16.6809C6.99364 16.2293 7.99023 15.9961 9.00001 16C9.26523 16 9.51958 15.8947 9.70712 15.7071C9.89466 15.5196 10 15.2652 10 15Z" fill="black"/>
<path d="M25 3C25.5523 3 26 3.44772 26 4V6H28C28.5523 6 29 6.44772 29 7C29 7.55228 28.5523 8 28 8H26V10C26 10.5523 25.5523 11 25 11C24.4477 11 24 10.5523 24 10V8H22C21.4477 8 21 7.55228 21 7C21 6.44772 21.4477 6 22 6H24V4C24 3.44772 24.4477 3 25 3Z" fill="black"/>
</svg>
