<svg width="32" height="32" viewBox="0 0 32 32" fill="none" xmlns="http://www.w3.org/2000/svg">
<path fill-rule="evenodd" clip-rule="evenodd" d="M1.00002 8.98977C1.00553 7.88991 1.89884 7 2.99999 7H29C30.1046 7 31 7.89543 31 9L30.9998 9.01754L31.0001 12.0175C30.9905 12.5629 30.5457 13 30.0002 13C28.3849 13 27.0529 14.3306 27.0529 16C27.0529 17.6694 28.3849 19 30.0002 19C30.5457 19 30.9905 19.4371 31.0001 19.9825L30.9998 22.9825L31 23C31 24.1046 30.1046 25 29 25H2.99999C1.89884 25 1.00553 24.1101 1.00002 23.0102L0.999788 20.0175C0.995082 19.7493 1.09834 19.4905 1.28635 19.2991C1.47437 19.1078 1.73138 19 1.99963 19C3.61498 19 4.947 17.6694 4.947 16C4.947 14.3306 3.61498 13 1.99963 13C1.73138 13 1.47437 12.8922 1.28635 12.7009C1.09834 12.5095 0.995082 12.2507 0.999788 11.9825L1.00002 8.98977ZM28.9998 9H2.99999L3.01549 11.1053C5.26822 11.5796 6.947 13.6001 6.947 16C6.947 18.3999 5.26822 20.4204 3.01549 20.8947L2.99999 23H28.9998L29.0159 20.9013C26.7473 20.4392 25.0529 18.4111 25.0529 16C25.0529 13.5889 26.7473 11.5608 29.0159 11.0987L28.9998 9ZM16 13C14.3431 13 13 14.3431 13 16C13 17.6569 14.3431 19 16 19C17.6568 19 19 17.6569 19 16C19 14.3431 17.6569 13 16 13ZM11 16C11 13.2386 13.2386 11 16 11C18.7614 11 21 13.2386 21 16C21 18.7614 18.7614 21 16 21C13.2386 21 11 18.7614 11 16Z" fill="black"/>
</svg>
