<svg width="32" height="32" viewBox="0 0 32 32" fill="none" xmlns="http://www.w3.org/2000/svg">
<path d="M29.6 22.8447L18.6688 3.86096C18.3956 3.39586 18.0056 3.01023 17.5375 2.74228C17.0694 2.47433 16.5394 2.33337 16 2.33337C15.4606 2.33337 14.9306 2.47433 14.4625 2.74228C13.9944 3.01023 13.6044 3.39586 13.3312 3.86096L2.4 22.8447C2.13717 23.2946 1.99866 23.8062 1.99866 24.3272C1.99866 24.8482 2.13717 25.3598 2.4 25.8097C2.66966 26.2776 3.05896 26.6653 3.52795 26.9331C3.99694 27.2009 4.52873 27.3391 5.06875 27.3335H26.9312C27.4708 27.3386 28.0021 27.2002 28.4706 26.9325C28.9391 26.6647 29.328 26.2772 29.5975 25.8097C29.8607 25.3601 29.9997 24.8486 30.0001 24.3275C30.0005 23.8065 29.8624 23.2948 29.6 22.8447ZM27.8662 24.8085C27.771 24.971 27.6341 25.1053 27.4698 25.1976C27.3055 25.2898 27.1197 25.3367 26.9312 25.3335H5.06875C4.88034 25.3367 4.69446 25.2898 4.53016 25.1976C4.36586 25.1053 4.22904 24.971 4.13375 24.8085C4.04743 24.6623 4.00189 24.4957 4.00189 24.326C4.00189 24.1562 4.04743 23.9896 4.13375 23.8435L15.065 4.85971C15.1622 4.69792 15.2997 4.56405 15.4639 4.47111C15.6282 4.37817 15.8138 4.32932 16.0025 4.32932C16.1912 4.32932 16.3768 4.37817 16.5411 4.47111C16.7053 4.56405 16.8428 4.69792 16.94 4.85971L27.8713 23.8435C27.9568 23.99 28.0015 24.1569 28.0006 24.3266C27.9997 24.4964 27.9533 24.6628 27.8662 24.8085ZM15 17.3335V12.3335C15 12.0682 15.1054 11.8139 15.2929 11.6263C15.4804 11.4388 15.7348 11.3335 16 11.3335C16.2652 11.3335 16.5196 11.4388 16.7071 11.6263C16.8946 11.8139 17 12.0682 17 12.3335V17.3335C17 17.5987 16.8946 17.853 16.7071 18.0406C16.5196 18.2281 16.2652 18.3335 16 18.3335C15.7348 18.3335 15.4804 18.2281 15.2929 18.0406C15.1054 17.853 15 17.5987 15 17.3335ZM17.5 21.8335C17.5 22.1301 17.412 22.4201 17.2472 22.6668C17.0824 22.9135 16.8481 23.1057 16.574 23.2193C16.2999 23.3328 15.9983 23.3625 15.7074 23.3046C15.4164 23.2468 15.1491 23.1039 14.9393 22.8941C14.7296 22.6843 14.5867 22.4171 14.5288 22.1261C14.4709 21.8351 14.5006 21.5335 14.6142 21.2594C14.7277 20.9853 14.92 20.7511 15.1666 20.5863C15.4133 20.4214 15.7033 20.3335 16 20.3335C16.3978 20.3335 16.7794 20.4915 17.0607 20.7728C17.342 21.0541 17.5 21.4356 17.5 21.8335Z" fill="black"/>
</svg>
