<svg width="32" height="32" viewBox="0 0 32 32" fill="none" xmlns="http://www.w3.org/2000/svg">
<path d="M27.77 22.1563C27.9395 22.3595 28.0215 22.6216 27.998 22.8852C27.9746 23.1488 27.8477 23.3923 27.645 23.5625C25.475 25.3613 23.5375 26 21.77 26C19.4475 26 17.4175 24.8975 15.5288 23.875C12.36 22.155 9.62376 20.67 5.64501 23.9675C5.54412 24.0526 5.42739 24.1169 5.30155 24.1566C5.1757 24.1964 5.04323 24.2109 4.91177 24.1992C4.78032 24.1875 4.65247 24.1499 4.53561 24.0886C4.41874 24.0273 4.31517 23.9434 4.23087 23.8419C4.14657 23.7403 4.0832 23.6231 4.04442 23.497C4.00564 23.3708 3.99221 23.2382 4.00491 23.1069C4.01761 22.9755 4.05619 22.8479 4.11842 22.7316C4.18066 22.6152 4.26531 22.5123 4.36751 22.4288C9.38875 18.2688 13.1575 20.3138 16.4838 22.1188C19.6525 23.8375 22.3888 25.3225 26.3675 22.0263C26.5712 21.8585 26.8328 21.7781 27.0955 21.8024C27.3582 21.8268 27.6007 21.954 27.77 22.1563ZM26.3613 15.0313C22.3825 18.3288 19.6463 16.8438 16.4775 15.1238C13.1513 13.32 9.3825 11.275 4.36126 15.435C4.15955 15.6051 4.03327 15.8481 4.00992 16.1109C3.98656 16.3738 4.06804 16.6352 4.23659 16.8382C4.40514 17.0412 4.64711 17.1694 4.90975 17.1948C5.17239 17.2202 5.43443 17.1407 5.63876 16.9738C9.61751 13.6763 12.3538 15.1613 15.5225 16.8813C17.4113 17.905 19.4413 19.0063 21.7638 19.0063C23.5313 19.0063 25.4688 18.3675 27.6388 16.5688C27.741 16.4852 27.8256 16.3823 27.8878 16.266C27.9501 16.1496 27.9886 16.022 28.0014 15.8907C28.0141 15.7593 28.0006 15.6267 27.9618 15.5006C27.9231 15.3744 27.8597 15.2572 27.7754 15.1556C27.6911 15.0541 27.5875 14.9703 27.4707 14.9089C27.3538 14.8476 27.2259 14.81 27.0945 14.7983C26.963 14.7867 26.8306 14.8011 26.7047 14.8409C26.5789 14.8806 26.4621 14.9449 26.3613 15.03V15.0313ZM5.63876 9.97501C9.61751 6.67876 12.3538 8.16376 15.5225 9.88251C17.4113 10.9075 19.4413 12.0075 21.7638 12.0075C23.5313 12.0075 25.4688 11.3675 27.6388 9.57001C27.741 9.4865 27.8256 9.38358 27.8878 9.2672C27.9501 9.15082 27.9886 9.02327 28.0014 8.8919C28.0141 8.76054 28.0006 8.62796 27.9618 8.50181C27.9231 8.37566 27.8597 8.25844 27.7754 8.15689C27.6911 8.05535 27.5875 7.9715 27.4707 7.91018C27.3538 7.84885 27.2259 7.81126 27.0945 7.79959C26.963 7.78791 26.8306 7.80236 26.7047 7.84213C26.5789 7.88189 26.4621 7.94617 26.3613 8.03126C22.3825 11.3288 19.6463 9.84376 16.4775 8.12376C13.1513 6.32251 9.3825 4.27751 4.36126 8.43751C4.2555 8.51981 4.16736 8.62254 4.10208 8.73958C4.0368 8.85661 3.99571 8.98558 3.98125 9.11881C3.9668 9.25204 3.97927 9.38682 4.01792 9.51513C4.05658 9.64345 4.12063 9.76269 4.20628 9.86576C4.29192 9.96884 4.39741 10.0536 4.51647 10.1152C4.63554 10.1767 4.76575 10.2136 4.89938 10.2238C5.033 10.234 5.16731 10.2172 5.29433 10.1745C5.42134 10.1317 5.53847 10.0639 5.63876 9.97501Z" fill="black"/>
</svg>
