<svg width="32" height="32" viewBox="0 0 32 32" fill="none" xmlns="http://www.w3.org/2000/svg">
<path fill-rule="evenodd" clip-rule="evenodd" d="M11.25 2C9.59315 2 8.25 3.34315 8.25 5V11H8C6.89543 11 6 11.8954 6 13V15.126C4.27477 15.5701 3 17.1362 3 19V26C3 28.2091 4.79086 30 7 30H25C27.2091 30 29 28.2091 29 26V19C29 17.1362 27.7252 15.5701 26 15.126V13C26 11.8954 25.1046 11 24 11H15.25V9C15.25 8.44772 15.6977 8 16.25 8H17.25C18.4607 8 19.504 7.28276 19.978 6.25L29 6.25C29.5523 6.25 30 5.80229 30 5.25C30 4.69772 29.5523 4.25 29 4.25L20.1555 4.25C19.8225 2.95608 18.6479 2 17.25 2H14.25H11.25ZM13.25 9V11H10.25V5C10.25 4.44772 10.6977 4 11.25 4H14.25H17.25C17.8023 4 18.25 4.44772 18.25 5C18.25 5.55228 17.8023 6 17.25 6H16.25C14.5931 6 13.25 7.34315 13.25 9ZM9.25 13H8V15H24L24 13H14.25H9.25ZM5 19C5 17.8954 5.89543 17 7 17H25C26.1046 17 27 17.8954 27 19V26C27 27.1046 26.1046 28 25 28H7C5.89543 28 5 27.1046 5 26V19Z" fill="black"/>
</svg>
