<svg width="32" height="32" viewBox="0 0 32 32" fill="none" xmlns="http://www.w3.org/2000/svg">
<path fill-rule="evenodd" clip-rule="evenodd" d="M4 6C4 4.89543 4.89543 4 6 4H26C27.1046 4 28 4.89543 28 6V26C28 27.1046 27.1046 28 26 28H6C4.89543 28 4 27.1046 4 26V6ZM9 11C9 9.04131 9.80447 7.27052 11.101 6H6V26H26V6H20.899C22.1955 7.27052 23 9.04131 23 11C23 14.866 19.866 18 16 18C12.134 18 9 14.866 9 11ZM17 15.9L17 11C17 10.4477 16.5523 10 16 10C15.4477 10 15 10.4477 15 11L15 15.9C12.7178 15.4367 11 13.419 11 11C11 8.23858 13.2386 6 16 6C18.7614 6 21 8.23858 21 11C21 13.419 19.2822 15.4367 17 15.9Z" fill="black"/>
</svg>
