<svg width="32" height="32" viewBox="0 0 32 32" fill="none" xmlns="http://www.w3.org/2000/svg">
<path d="M16.0545 3.41931C8.91877 3.41931 3.11155 9.01266 3.10903 15.8867C3.10735 18.085 3.70452 20.2304 4.83677 22.12L3 28.5806L9.86315 26.847C11.7722 27.8456 13.895 28.3665 16.0495 28.365H16.0545C23.1902 28.365 28.9975 22.7708 29 15.8968C29.0017 12.5671 27.6564 9.43285 25.2115 7.07692C22.7675 4.72015 19.5175 3.42015 16.0545 3.41931ZM16.0545 26.259H16.0503C14.1196 26.259 12.2258 25.7592 10.5735 24.8148L10.1793 24.59L6.10826 25.6183L7.19522 21.7937L6.93942 21.4021C5.86495 19.7634 5.29297 17.8463 5.29387 15.8867C5.29639 10.1726 10.124 5.52531 16.0587 5.52531C18.9321 5.52615 21.6336 6.60557 23.6658 8.56395C25.698 10.5223 26.816 13.1265 26.8143 15.8959C26.8118 21.6101 21.9859 26.259 16.0545 26.259ZM21.9565 18.4968C21.6328 18.3416 20.0426 17.5876 19.7457 17.4828C19.4496 17.3796 19.2341 17.3259 19.0185 17.6379C18.8038 17.9499 18.1831 18.6519 17.9953 18.8591C17.8057 19.0671 17.617 19.0923 17.2933 18.9371C16.9695 18.7811 15.927 18.4523 14.6924 17.3905C13.7304 16.5652 13.0813 15.5454 12.8926 15.2325C12.7039 14.9214 12.8724 14.7528 13.0343 14.5976C13.1794 14.4592 13.3581 14.2345 13.5191 14.0525C13.6801 13.8705 13.7338 13.7405 13.8428 13.5325C13.9502 13.3253 13.8965 13.1425 13.8152 12.9873C13.7338 12.8305 13.088 11.2973 12.8171 10.6741C12.5554 10.0669 12.2887 10.1483 12.0899 10.1382C11.9012 10.1298 11.6865 10.1273 11.4693 10.1273C11.2554 10.1273 10.904 10.2053 10.6071 10.5173C10.311 10.8293 9.47483 11.5825 9.47483 13.1156C9.47483 14.6496 10.6339 16.1308 10.7958 16.3388C10.9577 16.5459 13.0771 19.6936 16.3221 21.0439C17.0937 21.3635 17.6959 21.5556 18.1664 21.6998C18.9413 21.9372 19.6467 21.9028 20.2036 21.8231C20.8242 21.7334 22.1175 21.0699 22.3859 20.3428C22.656 19.6156 22.656 18.9916 22.5755 18.8616C22.4966 18.7316 22.2802 18.6536 21.9565 18.4968Z" fill="black"/>
</svg>
