<svg width="32" height="32" viewBox="0 0 32 32" fill="none" xmlns="http://www.w3.org/2000/svg">
<path d="M31.9487 23.6838C31.9072 23.5592 31.8416 23.444 31.7555 23.3448C31.6695 23.2456 31.5647 23.1643 31.4473 23.1055C31.3298 23.0468 31.2019 23.0118 31.0709 23.0025C30.9399 22.9932 30.8083 23.0098 30.6837 23.0513L28.5062 23.7776L24.8937 16.5526C24.8107 16.3866 24.6831 16.247 24.5253 16.1495C24.3674 16.0519 24.1856 16.0002 24 16.0001H14V13.0001H21C21.2652 13.0001 21.5196 12.8947 21.7071 12.7072C21.8946 12.5196 22 12.2653 22 12.0001C22 11.7348 21.8946 11.4805 21.7071 11.293C21.5196 11.1054 21.2652 11.0001 21 11.0001H14V9.87506C14.9427 9.63167 15.7642 9.05283 16.3106 8.24705C16.857 7.44127 17.0908 6.46387 16.9681 5.49806C16.8454 4.53224 16.3747 3.64433 15.6442 3.00074C14.9137 2.35715 13.9736 2.00208 13 2.00208C12.0264 2.00208 11.0863 2.35715 10.3558 3.00074C9.62526 3.64433 9.15456 4.53224 9.03188 5.49806C8.90921 6.46387 9.14299 7.44127 9.6894 8.24705C10.2358 9.05283 11.0573 9.63167 12 9.87506V11.2263C9.84383 11.7191 7.94462 12.9886 6.66487 14.7926C5.38511 16.5965 4.81444 18.8085 5.06176 21.0064C5.30908 23.2043 6.35707 25.2342 8.00573 26.7086C9.65438 28.183 11.7882 28.9988 14 29.0001C18.19 29.0001 21.9612 26.1613 22.9687 22.2501C23.0016 22.1228 23.009 21.9904 22.9907 21.8603C22.9723 21.7302 22.9285 21.605 22.8618 21.4918C22.795 21.3787 22.7067 21.2797 22.6017 21.2007C22.4967 21.1217 22.3772 21.0641 22.25 21.0313C22.1228 20.9985 21.9903 20.991 21.8602 21.0094C21.7301 21.0277 21.6049 21.0715 21.4918 21.1383C21.3786 21.205 21.2797 21.2934 21.2007 21.3984C21.1216 21.5033 21.0641 21.6228 21.0312 21.7501C20.2612 24.7501 17.2387 27.0001 14 27.0001C12.319 26.9995 10.6943 26.394 9.42295 25.2943C8.15158 24.1946 7.3184 22.6741 7.0757 21.0107C6.833 19.3473 7.19699 17.6521 8.10115 16.235C9.00531 14.8179 10.3892 13.7734 12 13.2926V17.0001C12 17.2653 12.1054 17.5196 12.2929 17.7072C12.4804 17.8947 12.7348 18.0001 13 18.0001H23.3812L27.105 25.4476C27.2129 25.6627 27.3948 25.8318 27.6173 25.9236C27.8398 26.0154 28.088 26.024 28.3162 25.9476L31.3162 24.9476C31.5676 24.8637 31.7754 24.6835 31.894 24.4465C32.0126 24.2096 32.0323 23.9353 31.9487 23.6838ZM11 6.00006C11 5.6045 11.1173 5.21782 11.3371 4.88892C11.5568 4.56002 11.8692 4.30367 12.2346 4.1523C12.6001 4.00092 13.0022 3.96132 13.3902 4.03849C13.7781 4.11566 14.1345 4.30614 14.4142 4.58584C14.6939 4.86555 14.8844 5.22192 14.9616 5.60988C15.0387 5.99784 14.9991 6.39997 14.8478 6.76543C14.6964 7.13088 14.44 7.44323 14.1111 7.663C13.7822 7.88276 13.3956 8.00006 13 8.00006C12.4696 8.00006 11.9609 7.78935 11.5858 7.41427C11.2107 7.0392 11 6.53049 11 6.00006Z" fill="black"/>
</svg>
