<svg width="32" height="32" viewBox="0 0 32 32" fill="none" xmlns="http://www.w3.org/2000/svg">
<path d="M5.32733 4.26007C5.73598 3.88856 6.36843 3.91868 6.73994 4.32733L14.2285 12.5648C14.2367 12.5735 14.2447 12.5823 14.2526 12.5913L20.7375 19.7247C20.7842 19.7673 20.8259 19.8134 20.8626 19.8623L26.7399 26.3273C27.1114 26.736 27.0813 27.3684 26.6727 27.7399C26.264 28.1115 25.6316 28.0813 25.2601 27.6727L19.3513 21.1731C18.351 20.3747 17.0971 19.9597 15.8159 20.0052C14.5032 20.0518 13.2532 20.5787 12.3031 21.4858C11.9036 21.8672 11.2706 21.8525 10.8892 21.4531C10.5078 21.0536 10.5225 20.4206 10.9219 20.0392C12.2264 18.7938 13.9426 18.0705 15.745 18.0065C15.9918 17.9977 16.2379 18.0014 16.4824 18.0172L13.1549 14.357C11.2432 14.8533 9.49075 15.8414 8.07437 17.2273C7.67962 17.6135 7.0465 17.6066 6.66024 17.2119C6.27399 16.8171 6.28088 16.184 6.67563 15.7978C8.09489 14.409 9.80096 13.3598 11.6654 12.7185L8.79591 9.56211C6.95759 10.4025 5.27996 11.5609 3.84112 12.9856C3.44868 13.3742 2.81552 13.3711 2.42692 12.9786C2.03833 12.5862 2.04145 11.953 2.43389 11.5644C3.88908 10.1235 5.56309 8.92665 7.39107 8.01679L5.26006 5.67268C4.88855 5.26402 4.91867 4.63157 5.32733 4.26007Z" fill="black"/>
<path d="M28.1585 12.9852C24.9258 9.78041 20.5546 7.98775 16.0027 8L15.9987 8.00001C15.1731 7.99895 14.3486 8.05813 13.5316 8.17708C12.985 8.25664 12.4775 7.8781 12.3979 7.33157C12.3184 6.78505 12.6969 6.2775 13.2434 6.19794C14.156 6.06508 15.0771 5.99893 15.9993 6.00001C21.0798 5.98685 25.9585 7.9879 29.5665 11.5648C29.9588 11.9537 29.9615 12.5868 29.5727 12.979C29.1838 13.3713 28.5507 13.374 28.1585 12.9852Z" fill="black"/>
<path d="M18.0418 13.1346C18.1746 12.5985 18.7168 12.2716 19.2529 12.4043C21.5447 12.9719 23.642 14.1444 25.3259 15.7993C25.7198 16.1864 25.7253 16.8195 25.3382 17.2134C24.9511 17.6073 24.318 17.6129 23.9241 17.2257C22.4955 15.8218 20.7163 14.8272 18.7721 14.3457C18.236 14.2129 17.9091 13.6707 18.0418 13.1346Z" fill="black"/>
<path d="M17.5 25C17.5 25.8284 16.8284 26.5 16 26.5C15.1716 26.5 14.5 25.8284 14.5 25C14.5 24.1716 15.1716 23.5 16 23.5C16.8284 23.5 17.5 24.1716 17.5 25Z" fill="black"/>
</svg>
