<svg width="32" height="32" viewBox="0 0 32 32" fill="none" xmlns="http://www.w3.org/2000/svg">
<path fill-rule="evenodd" clip-rule="evenodd" d="M26.1516 24.4276C24.1313 24.9656 15.9864 24.9656 15.9864 24.9656C15.9864 24.9656 7.85964 24.9656 5.84844 24.4276C4.72909 24.1228 3.85544 23.2442 3.53693 22.1594C3 20.169 3 15.9821 3 15.9821C3 15.9821 3 11.8221 3.53693 9.84972C3.85544 8.73799 4.72909 7.8773 5.84844 7.58144C7.85964 7.03455 15.9864 7.03455 15.9864 7.03455C15.9864 7.03455 24.1313 7.03455 26.1516 7.58144C27.2891 7.8773 28.1446 8.73799 28.4449 9.84972C29 11.8221 29 15.9821 29 15.9821C29 15.9821 29 20.169 28.4449 22.1594C28.1446 23.2442 27.2891 24.1228 26.1516 24.4276ZM13.3103 12.1897L20.0345 16L13.3103 19.8104V12.1897Z" fill="black"/>
</svg>
